<?xml version="1.0" encoding="UTF-8"?>
<svg id="Capa_1" xmlns="http://www.w3.org/2000/svg" version="1.1" viewBox="0 0 74.43 92.51">
  <!-- Generator: Adobe Illustrator 29.6.1, SVG Export Plug-In . SVG Version: 2.1.1 Build 9)  -->
  <defs>
    <style>
      .st0 {
        fill-rule: evenodd;
      }
    </style>
  </defs>
  <path class="st0" d="M37.95,1.1c-9.21,0-16.85,4.99-22.66,12.65C6.85,24.86,2.29,41.64,2.29,56.07c0,19.68,15.98,35.65,35.66,35.65s35.65-15.98,35.65-35.65c0-14.43-4.55-31.21-12.99-42.32-5.81-7.66-13.45-12.65-22.66-12.65ZM37.95,4.22c8.23,0,14.98,4.57,20.18,11.41,8.05,10.62,12.35,26.65,12.35,40.44,0,17.95-14.57,32.53-32.53,32.53S5.42,74.02,5.42,56.07c0-13.78,4.3-29.82,12.35-40.44,5.19-6.84,11.95-11.41,20.18-11.41h0ZM37.95,33c-13.27,0-24.04,10.77-24.04,24.04s10.77,24.03,24.04,24.03,24.04-10.77,24.04-24.03-10.77-24.04-24.04-24.04ZM37.95,36.12c11.54,0,20.91,9.37,20.91,20.91s-9.37,20.91-20.91,20.91-20.91-9.37-20.91-20.91,9.38-20.91,20.91-20.91ZM53.52,57.04c1.06,0,1.92.86,1.92,1.91s-.86,1.92-1.92,1.92-1.91-.86-1.91-1.92.86-1.91,1.91-1.91ZM46.39,53.21c1.06,0,1.91.86,1.91,1.91s-.86,1.92-1.91,1.92-1.91-.86-1.91-1.92.86-1.91,1.91-1.91ZM52.68,49.38c1.06,0,1.92.86,1.92,1.91s-.86,1.92-1.92,1.92-1.91-.86-1.91-1.92.86-1.91,1.91-1.91ZM46.94,44.49c1.05,0,1.91.86,1.91,1.91s-.86,1.91-1.91,1.91-1.91-.86-1.91-1.91.86-1.91,1.91-1.91Z"/>
</svg>