<?xml version="1.0" encoding="UTF-8"?>
<svg id="Capa_1" xmlns="http://www.w3.org/2000/svg" version="1.1" viewBox="0 0 78.49 90">
  <!-- Generator: Adobe Illustrator 29.6.1, SVG Export Plug-In . SVG Version: 2.1.1 Build 9)  -->
  <path d="M52.49,39.71c0-1.11.9-2,2-2,7.44,0,11.87,3.54,13.14,10.53h0c.71,3.8.86,7.68.43,11.53-.11,1.02-.97,1.79-2,1.78h-.23c-1.09-.12-1.88-1.11-1.76-2.21.38-3.45.26-6.93-.37-10.34-.43-2.35-1.33-7.25-9.21-7.25-.54,0-1.05-.21-1.43-.6-.38-.38-.58-.9-.57-1.44h0ZM37.44,30.71l.58-6.43-3.66-2h0c-3.2,2-6.86,3.12-10.63,3.25-1.71,0-3.4-.3-5-.91-5.9-2.28-9.95-8.61-12-18.83h0c-.19-.92.29-1.85,1.14-2.23.46-.2,11.42-5,19.82-.12,4.71,2.73,7.57,7.87,8.51,15.25l2.29,1.25,1.25-13.68h0c.07-.79.61-1.47,1.37-1.72L54.59.1c.74-.24,1.55-.03,2.08.54.53.57.68,1.39.39,2.11l-10.42,25.79c5.25-1.39,10.78-1.33,16,.18,5.68,1.78,12.88,6.28,15,17.69,2.28,12.44-.09,24.59-6.49,33.33-4.19,5.71-9.63,9.25-15.31,10h0c-1.52.18-3.05.27-4.59.26-6.37,0-10.11-1.9-12-3.32-2.32,1.73-7.36,4.18-16.6,3-5.68-.71-11.12-4.25-15.31-10C.94,71-1.43,58.85.85,46.4c2.09-11.41,9.29-15.91,15-17.69,7.19-2.09,14.9-1.38,21.59,1.99h0ZM23.79,14.23c.25-.46.68-.81,1.2-.96.51-.15,1.06-.09,1.53.17l5.12,2.8c-1.05-4.47-3.05-7.61-6-9.33-5-2.93-11.72-1.25-14.68-.26,1.86,7.8,4.95,12.58,9.19,14.23,3.6,1.4,7.45.27,10-.9l-5.55-3h0c-.47-.26-.82-.69-.98-1.21-.15-.52-.09-1.07.18-1.54h0ZM41.47,30.48h.08l10.19-25.25-8.2,2.69-2.07,22.56ZM37.84,35.87c-3.13-3.13-12.59-5.88-20.83-3.34-4.62,1.46-10.5,5.15-12.23,14.59-2.08,11.37,0,22.39,5.79,30.24,3.53,4.82,8,7.79,12.58,8.36,10.92,1.37,14.48-2.92,14.51-3h0c.39-.46.98-.73,1.59-.73.62,0,1.2.3,1.58.79,0,0,3.57,4.31,14.49,2.94,4.58-.57,9.05-3.54,12.58-8.36,5.76-7.85,7.87-18.87,5.79-30.24-1.7-9.44-7.57-13.13-12.19-14.59-8.24-2.54-17.7.21-20.83,3.34-.78.78-2.04.78-2.82,0h0Z"/>
</svg>