<?xml version="1.0" encoding="UTF-8"?>
<svg id="Capa_1" xmlns="http://www.w3.org/2000/svg" version="1.1" xmlns:x="http://ns.adobe.com/Extensibility/1.0/" viewBox="0 0 81.41 95.1">
  <!-- Generator: Adobe Illustrator 29.6.1, SVG Export Plug-In . SVG Version: 2.1.1 Build 9)  -->
  <path d="M52.2,58.6c0-11.8-8.7-21.5-19.5-21.5s-19.5,9.6-19.5,21.5,8.7,21.5,19.5,21.5,19.5-9.6,19.5-21.5ZM18.4,58.6c0-9,6.4-16.4,14.4-16.4s14.4,7.3,14.4,16.4-6.5,16.4-14.4,16.4-14.4-7.3-14.4-16.4Z"/>
  <path d="M35.3,51.8c0-1.4-1.1-2.5-2.5-2.5-4.8,0-8.7,4.2-8.7,9.4,0,1.4,1.1,2.5,2.5,2.5s2.5-1.1,2.5-2.5c0-2.4,1.6-4.3,3.6-4.3,1.5-.1,2.6-1.2,2.6-2.6Z"/>
  <path d="M81,50.1c-1.1-9.3-5.8-21.5-12-31C63.4,10.4,54,0,41.4,0h-8.7C21.1,0,11.2,11,8.1,27.4c-1.1,5.7-3.2,11.2-5.2,16.3-1.9,4.7-2.9,9.8-2.9,15,0,20,14.7,36.4,32.8,36.4h20.3c6,0,12.5-3.4,17.8-9.4,8.1-9.2,11.8-22.1,10.1-35.6ZM5.1,58.6c0-4.6.9-9,2.5-13.1,2.2-5.3,4.3-11.1,5.5-17.2,2.6-13.6,10.7-23.2,19.7-23.2s17,9.6,19.6,23.2c1.2,6.2,3.3,11.9,5.5,17.2h0c1.7,4.1,2.5,8.5,2.5,13.1,0,17.2-12.4,31.3-27.7,31.3s-27.6-14-27.6-31.3ZM67,82.3c-4.2,4.8-9.5,7.6-14,7.6h-3.7c9.6-6.3,16.1-18,16.1-31.3,0-5.2-1-10.3-2.9-15h0c-2.1-5.1-4.1-10.5-5.2-16.3-1.7-9.1-5.5-16.6-10.6-21.4,15.5,4.9,27.6,30.3,29.3,44.8,1.4,12-1.8,23.5-9,31.6Z"/>
</svg>