<?xml version="1.0" encoding="UTF-8"?>
<svg id="Capa_1" xmlns="http://www.w3.org/2000/svg" version="1.1" viewBox="0 0 431.23 463.91">
  <!-- Generator: Adobe Illustrator 29.6.1, SVG Export Plug-In . SVG Version: 2.1.1 Build 9)  -->
  <g>
    <path d="M226.61,442.99c-.57,0-1.14-.06-1.72-.19l-27.86-6.1c-2.17-.48-4.04-1.83-5.17-3.74s-1.42-4.2-.79-6.33c3.66-12.42,7.3-20.51,10.82-28.32,4.88-10.84,9.5-21.08,14.33-43.15,4.83-22.09,4.92-33.32,5.01-45.21.09-12.19.19-24.79,5.38-48.5,5.19-23.71,10.37-35.2,15.37-46.31,4.89-10.84,9.5-21.08,14.33-43.16,4.83-22.07,4.92-33.3,5.01-45.19.09-12.19.19-24.79,5.38-48.5,5.19-23.71,10.37-35.2,15.37-46.31,3.45-7.66,6.71-14.89,10.06-26.26,1.19-4.03,5.29-6.45,9.39-5.56l27.86,6.1c2.17.48,4.04,1.83,5.17,3.74,1.13,1.91,1.42,4.21.79,6.33-3.66,12.42-7.3,20.5-10.82,28.32-4.89,10.84-9.5,21.08-14.33,43.15-4.83,22.08-4.92,33.31-5.01,45.2-.09,12.18-.19,24.78-5.38,48.49-5.19,23.71-10.37,35.2-15.38,46.31-4.89,10.84-9.5,21.08-14.33,43.15-4.83,22.08-4.92,33.31-5.01,45.2-.09,12.19-.19,24.79-5.38,48.51-5.19,23.71-10.37,35.19-15.37,46.3-3.45,7.66-6.71,14.9-10.06,26.26-1.02,3.46-4.19,5.74-7.67,5.74ZM209.05,422.96l12.13,2.65c2.9-8.6,5.77-14.98,8.58-21.2,4.88-10.84,9.5-21.07,14.33-43.15,4.83-22.09,4.92-33.32,5.01-45.21.09-12.19.19-24.79,5.38-48.49,5.19-23.71,10.37-35.2,15.38-46.31,4.89-10.84,9.5-21.08,14.33-43.16,4.83-22.07,4.92-33.3,5.01-45.19.09-12.19.19-24.79,5.38-48.5,5.19-23.71,10.37-35.2,15.38-46.31,2.54-5.65,4.98-11.06,7.43-18.07l-12.13-2.65c-2.9,8.6-5.77,14.98-8.58,21.19-4.89,10.84-9.5,21.08-14.33,43.15-4.83,22.08-4.92,33.31-5.01,45.2-.09,12.18-.19,24.78-5.38,48.49-5.19,23.71-10.37,35.2-15.37,46.31-4.89,10.84-9.5,21.08-14.33,43.16-4.83,22.08-4.92,33.31-5.01,45.2-.09,12.19-.19,24.79-5.38,48.51-5.19,23.7-10.37,35.19-15.37,46.3-2.54,5.65-4.99,11.06-7.43,18.07Z"/>
    <path d="M294.31,457.81c-.57,0-1.14-.06-1.72-.19l-67.7-14.82c-2.17-.48-4.04-1.83-5.17-3.74-1.13-1.91-1.42-4.2-.79-6.33,3.65-12.42,7.3-20.51,10.82-28.32,4.88-10.84,9.5-21.07,14.33-43.15,4.83-22.09,4.92-33.32,5.01-45.21.09-12.19.19-24.79,5.38-48.49,5.19-23.71,10.37-35.2,15.38-46.31,4.89-10.84,9.5-21.08,14.33-43.16,4.83-22.07,4.92-33.3,5.01-45.19.09-12.19.19-24.79,5.38-48.5,5.19-23.71,10.37-35.2,15.38-46.31,3.45-7.66,6.71-14.89,10.06-26.26,1.19-4.03,5.29-6.45,9.39-5.56l67.7,14.82c2.17.47,4.04,1.83,5.17,3.74s1.42,4.2.79,6.33c-3.65,12.42-7.3,20.5-10.82,28.32-4.88,10.84-9.5,21.07-14.33,43.15-4.83,22.08-4.92,33.31-5.01,45.2-.09,12.18-.19,24.78-5.38,48.49-5.19,23.71-10.37,35.2-15.37,46.31-4.89,10.84-9.5,21.08-14.33,43.16-4.83,22.08-4.92,33.31-5.01,45.2-.09,12.19-.19,24.79-5.38,48.51-5.19,23.71-10.37,35.19-15.37,46.3-3.45,7.66-6.71,14.89-10.06,26.26-1.02,3.46-4.19,5.74-7.67,5.74ZM236.91,429.06l51.96,11.38c2.9-8.6,5.77-14.98,8.58-21.2,4.88-10.84,9.5-21.07,14.33-43.15,4.83-22.08,4.92-33.32,5.01-45.21.09-12.19.19-24.79,5.38-48.5,5.19-23.71,10.37-35.2,15.37-46.31,4.89-10.84,9.5-21.08,14.33-43.15,4.83-22.07,4.92-33.3,5.01-45.19.09-12.19.19-24.79,5.38-48.5,5.19-23.71,10.36-35.19,15.37-46.3,2.54-5.65,4.98-11.06,7.43-18.07l-51.96-11.38c-2.9,8.6-5.77,14.98-8.58,21.19-4.89,10.84-9.5,21.08-14.33,43.15-4.83,22.08-4.92,33.31-5.01,45.2-.09,12.18-.19,24.78-5.38,48.49-5.19,23.71-10.37,35.2-15.38,46.31-4.89,10.84-9.5,21.08-14.33,43.15-4.83,22.08-4.92,33.31-5.01,45.2-.09,12.19-.19,24.79-5.38,48.51-5.19,23.71-10.37,35.19-15.37,46.3-2.54,5.65-4.98,11.06-7.43,18.07Z"/>
    <path d="M322.17,463.91c-.57,0-1.14-.06-1.72-.19l-27.86-6.1c-2.17-.48-4.04-1.83-5.17-3.74s-1.42-4.2-.79-6.33c3.65-12.42,7.3-20.5,10.82-28.32,4.88-10.84,9.5-21.07,14.33-43.15,4.83-22.08,4.92-33.32,5.01-45.21.09-12.19.19-24.79,5.38-48.5,5.19-23.71,10.37-35.2,15.37-46.31,4.89-10.84,9.5-21.08,14.33-43.15,4.83-22.07,4.92-33.3,5.01-45.19.09-12.19.19-24.79,5.38-48.5,5.19-23.71,10.36-35.19,15.37-46.3,3.45-7.66,6.71-14.9,10.06-26.26,1.19-4.03,5.29-6.45,9.39-5.56l27.86,6.1c2.17.47,4.04,1.83,5.17,3.74s1.42,4.2.79,6.33c-3.65,12.42-7.3,20.5-10.82,28.32-4.88,10.84-9.5,21.08-14.33,43.15-4.83,22.08-4.92,33.31-5.01,45.2-.09,12.18-.19,24.78-5.38,48.49-5.19,23.71-10.37,35.2-15.37,46.31-4.89,10.84-9.5,21.08-14.33,43.16s-4.92,33.31-5.01,45.2c-.09,12.19-.19,24.79-5.38,48.51-5.19,23.71-10.37,35.2-15.37,46.31-3.45,7.66-6.71,14.89-10.06,26.26-1.02,3.46-4.19,5.74-7.67,5.74ZM304.6,443.88l12.12,2.65c2.9-8.6,5.77-14.98,8.58-21.2,4.89-10.84,9.5-21.08,14.33-43.15,4.83-22.08,4.92-33.32,5.01-45.21.09-12.19.19-24.79,5.38-48.5s10.37-35.2,15.38-46.31c4.88-10.84,9.5-21.08,14.33-43.15,4.83-22.07,4.92-33.3,5.01-45.19.09-12.19.19-24.79,5.38-48.5,5.19-23.71,10.36-35.19,15.37-46.3,2.54-5.65,4.98-11.06,7.43-18.07l-12.12-2.65c-2.9,8.6-5.77,14.98-8.58,21.2-4.88,10.84-9.5,21.07-14.33,43.15-4.83,22.08-4.92,33.31-5.01,45.2-.09,12.18-.19,24.78-5.38,48.49-5.19,23.71-10.37,35.2-15.37,46.31-4.89,10.84-9.5,21.08-14.33,43.16-4.83,22.08-4.92,33.31-5.01,45.2-.09,12.19-.19,24.79-5.38,48.51-5.19,23.71-10.37,35.19-15.37,46.3-2.54,5.65-4.98,11.06-7.43,18.07Z"/>
  </g>
  <g>
    <path d="M35.86,442.99c-.57,0-1.14-.06-1.72-.19l-27.86-6.1c-2.17-.48-4.04-1.83-5.17-3.74s-1.42-4.2-.79-6.33c3.66-12.42,7.3-20.51,10.82-28.32,4.88-10.84,9.5-21.07,14.33-43.15,4.83-22.09,4.92-33.32,5.01-45.21.09-12.19.19-24.79,5.38-48.5,5.19-23.71,10.37-35.2,15.38-46.31,4.89-10.84,9.5-21.08,14.33-43.16,4.83-22.07,4.92-33.3,5.01-45.19.09-12.19.19-24.79,5.38-48.5,5.19-23.71,10.37-35.2,15.37-46.31,3.45-7.66,6.71-14.89,10.06-26.26,1.19-4.03,5.28-6.46,9.39-5.56l27.86,6.1c2.17.48,4.04,1.83,5.17,3.74,1.13,1.91,1.42,4.2.79,6.33-3.65,12.42-7.3,20.5-10.82,28.32-4.88,10.84-9.5,21.08-14.33,43.15-4.83,22.08-4.92,33.31-5.01,45.2-.09,12.18-.19,24.78-5.38,48.49-5.19,23.71-10.37,35.2-15.38,46.31-4.88,10.84-9.5,21.08-14.33,43.16-4.83,22.08-4.92,33.31-5.01,45.2-.09,12.19-.19,24.79-5.38,48.51-5.19,23.71-10.37,35.2-15.37,46.3-3.45,7.66-6.71,14.89-10.06,26.26-1.02,3.46-4.19,5.74-7.67,5.74ZM18.3,422.96l12.13,2.65c2.9-8.6,5.78-14.98,8.58-21.2,4.88-10.84,9.5-21.08,14.33-43.15,4.83-22.09,4.92-33.32,5.01-45.21.09-12.19.19-24.79,5.38-48.5,5.19-23.71,10.37-35.2,15.38-46.31,4.89-10.84,9.5-21.08,14.33-43.16,4.83-22.07,4.92-33.3,5.01-45.19.09-12.19.19-24.79,5.38-48.5,5.19-23.71,10.37-35.19,15.37-46.3,2.54-5.65,4.98-11.06,7.43-18.07l-12.13-2.65c-2.9,8.6-5.77,14.98-8.58,21.2-4.88,10.84-9.5,21.07-14.33,43.15-4.83,22.08-4.92,33.31-5.01,45.2-.09,12.18-.19,24.78-5.38,48.49-5.19,23.71-10.37,35.2-15.38,46.31-4.89,10.84-9.5,21.08-14.33,43.16-4.83,22.08-4.92,33.31-5.01,45.2-.09,12.19-.19,24.79-5.38,48.51-5.19,23.71-10.37,35.19-15.37,46.3-2.54,5.64-4.98,11.06-7.43,18.07Z"/>
    <path d="M103.56,457.81c-.57,0-1.14-.06-1.72-.19l-67.7-14.82c-2.17-.48-4.04-1.83-5.17-3.74s-1.42-4.2-.79-6.33c3.65-12.42,7.3-20.5,10.82-28.32,4.88-10.84,9.5-21.08,14.33-43.15,4.83-22.09,4.92-33.32,5.01-45.21.09-12.19.19-24.79,5.38-48.5,5.19-23.71,10.37-35.2,15.38-46.31,4.89-10.84,9.5-21.08,14.33-43.16,4.83-22.07,4.92-33.3,5.01-45.19.09-12.19.19-24.79,5.38-48.5,5.19-23.71,10.37-35.19,15.37-46.3,3.45-7.66,6.71-14.89,10.06-26.26,1.18-4.03,5.28-6.46,9.39-5.56l67.7,14.82c2.17.47,4.04,1.83,5.17,3.74s1.42,4.21.79,6.33c-3.65,12.42-7.3,20.5-10.82,28.32-4.88,10.84-9.5,21.08-14.33,43.15-4.83,22.08-4.92,33.31-5.01,45.2-.09,12.18-.19,24.78-5.38,48.49-5.19,23.71-10.37,35.2-15.37,46.31-4.88,10.84-9.5,21.08-14.33,43.16-4.83,22.08-4.92,33.31-5.01,45.2-.09,12.19-.19,24.79-5.38,48.51-5.19,23.71-10.37,35.19-15.37,46.3-3.45,7.66-6.71,14.89-10.06,26.26-1.02,3.46-4.19,5.74-7.67,5.74ZM46.16,429.06l51.96,11.38c2.9-8.6,5.77-14.98,8.58-21.2,4.88-10.84,9.5-21.07,14.33-43.15,4.84-22.09,4.92-33.32,5.01-45.21.09-12.19.19-24.79,5.38-48.5,5.19-23.71,10.37-35.2,15.37-46.31,4.88-10.84,9.5-21.08,14.33-43.16,4.83-22.07,4.92-33.3,5.01-45.19.09-12.19.19-24.79,5.38-48.5,5.19-23.71,10.37-35.2,15.37-46.31,2.54-5.64,4.98-11.06,7.43-18.07l-51.96-11.38c-2.9,8.6-5.78,14.98-8.58,21.2-4.88,10.84-9.5,21.07-14.33,43.15-4.83,22.08-4.92,33.31-5.01,45.2-.09,12.18-.19,24.78-5.38,48.49-5.19,23.71-10.37,35.2-15.38,46.31-4.88,10.84-9.5,21.08-14.33,43.16-4.83,22.08-4.92,33.31-5.01,45.2-.09,12.19-.19,24.79-5.38,48.51-5.19,23.71-10.37,35.2-15.37,46.3-2.54,5.65-4.99,11.06-7.43,18.07Z"/>
    <path d="M131.42,463.91c-.57,0-1.14-.06-1.72-.19l-27.86-6.1c-2.17-.48-4.04-1.83-5.17-3.74s-1.42-4.2-.79-6.33c3.65-12.42,7.3-20.5,10.82-28.32,4.88-10.84,9.5-21.07,14.33-43.15,4.84-22.09,4.92-33.32,5.01-45.21.09-12.19.19-24.79,5.38-48.5,5.19-23.71,10.37-35.2,15.37-46.31,4.88-10.84,9.5-21.08,14.33-43.16,4.83-22.07,4.92-33.3,5.01-45.19.09-12.19.19-24.79,5.38-48.5,5.19-23.71,10.37-35.2,15.37-46.31,3.45-7.66,6.71-14.89,10.06-26.26,1.18-4.03,5.28-6.45,9.38-5.56l27.86,6.1c2.17.47,4.04,1.83,5.17,3.74,1.13,1.91,1.42,4.21.79,6.33-3.65,12.42-7.3,20.5-10.82,28.32-4.89,10.84-9.5,21.08-14.33,43.15-4.83,22.08-4.92,33.31-5.01,45.2-.09,12.18-.19,24.78-5.38,48.49-5.19,23.71-10.37,35.2-15.37,46.31-4.88,10.84-9.5,21.08-14.33,43.16-4.83,22.08-4.92,33.31-5.01,45.2-.09,12.19-.19,24.79-5.38,48.51-5.19,23.71-10.37,35.2-15.37,46.31-3.45,7.66-6.71,14.89-10.06,26.26-1.02,3.46-4.19,5.74-7.67,5.74ZM113.86,443.88l12.12,2.65c2.9-8.6,5.77-14.98,8.57-21.2,4.88-10.84,9.5-21.08,14.33-43.15,4.84-22.09,4.92-33.32,5.01-45.21.09-12.19.19-24.79,5.38-48.49,5.19-23.71,10.37-35.2,15.38-46.31,4.88-10.84,9.5-21.08,14.33-43.16,4.83-22.07,4.92-33.3,5.01-45.19.09-12.19.19-24.79,5.38-48.5,5.19-23.71,10.37-35.2,15.37-46.31,2.54-5.64,4.98-11.06,7.43-18.07l-12.12-2.65c-2.9,8.6-5.77,14.98-8.58,21.2-4.88,10.84-9.5,21.08-14.33,43.15-4.83,22.08-4.92,33.31-5.01,45.2-.09,12.18-.19,24.78-5.38,48.49-5.19,23.71-10.37,35.2-15.37,46.31-4.88,10.84-9.5,21.08-14.33,43.16-4.83,22.08-4.92,33.31-5.01,45.2-.09,12.19-.19,24.79-5.38,48.51-5.19,23.71-10.37,35.19-15.37,46.3-2.55,5.65-4.99,11.06-7.43,18.07Z"/>
  </g>
</svg>