<?xml version="1.0" encoding="UTF-8"?>
<svg id="Capa_1" xmlns="http://www.w3.org/2000/svg" version="1.1" viewBox="0 0 84.47 87.08">
  <!-- Generator: Adobe Illustrator 29.6.1, SVG Export Plug-In . SVG Version: 2.1.1 Build 9)  -->
  <path d="M.16,52.09H.16s.46,3.87.46,3.87c4.18,19.59,18.47,31.13,38.04,31.12,1.93,0,3.91-.11,5.94-.34,18.9-3.91,32.71-15.17,37.87-30.9,4.03-12.28,1.85-25.54-5.58-33.81-2.2-2.38-1.53-4.21-.59-6.74.51-1.38,1.07-2.94,1.08-4.64,1.49-3.39,1.51-7.5.03-9.45-.7-.92-1.71-1.34-2.79-1.17-.28.05-.55.18-.76.37-.91.84-1.96,1.46-2.98,2.06-1.11.65-2.25,1.33-3.2,2.27-1.05,1.04-1.71,2.19-2.36,3.31-.58.99-1.12,1.93-1.89,2.69-.14.14-.23.3-.31.46l-2.64,4.55c-.31.52-.26,1.18.12,1.66.5.63,1.04,1.14,1.55,1.62,1.2,1.14,2.23,2.12,2.86,4.62,1.38,13.35-4.22,24.45-15.39,30.47-11.85,6.4-27.27,5.46-36.71-2.22l-3.7-4.04c-.2-.22-.47-.38-.77-.44-.24-.05-.46-.09-.69-.13h-.08c-.11-.02-.21-.03-.32-.04-.15-.02-.3-.04-.45-.05-.1,0-.19-.01-.29-.02-.15,0-.29-.02-.43-.02h-.28c-.13,0-.27,0-.4.01-.09,0-.18.01-.27.02-.12.01-.24.02-.36.04-.09.01-.18.03-.27.04-.11.02-.21.04-.32.06-.09.02-.18.04-.26.06-.09.02-.19.05-.28.08-.09.03-.17.06-.26.09-.08.03-.16.06-.24.09-.09.03-.17.07-.25.11-.07.03-.14.07-.21.1-.08.04-.17.08-.25.13-.06.03-.12.07-.18.11-.08.05-.16.1-.24.15-.05.04-.11.07-.16.11-.08.05-.15.11-.23.16-.05.04-.09.07-.14.11-.07.06-.15.12-.21.18-.04.04-.08.07-.12.11-.07.06-.14.13-.2.19-.03.03-.07.07-.1.11-.06.07-.13.13-.19.2-.03.03-.05.06-.08.09-.15.17-.29.35-.41.53-.21.3-.3.66-.26,1.02l.13,1.07.02-.03ZM67.87,9.52c.58-.99,1.12-1.93,1.89-2.69.69-.68,1.63-1.24,2.62-1.83.88-.52,1.86-1.1,2.8-1.85.45.87.75,3.65-.54,6.44-.07.14-.16.26-.24.38-.08.12-.14.24-.23.35-.08.1-.17.19-.26.28-.1.1-.19.21-.29.31-.09.08-.19.14-.28.22-.12.09-.23.19-.35.27-.09.06-.19.1-.28.16-.13.08-.27.16-.41.23-.09.04-.18.07-.26.11-.15.06-.3.13-.46.18-.08.03-.15.04-.23.06-.17.05-.34.1-.51.14-.07.01-.13.02-.2.03-.18.03-.36.07-.53.09-.07,0-.14,0-.21.01-.17.01-.33.03-.49.03-.24,0-.47,0-.7-.03-.12-.01-.24-.02-.35-.04-.11-.02-.22-.03-.33-.06-.12-.02-.24-.05-.36-.07-.19-.05-.36-.1-.53-.17-.09-.03-.17-.08-.26-.11-.1-.05-.2-.1-.3-.15-.04-.02-.08-.05-.12-.07.55-.72.98-1.48,1.41-2.21h0ZM8.93,51.91l1.89,2.07c.05.05.1.1.15.14,10.32,8.46,27.16,9.56,40.06,2.6,12.3-6.63,18.46-18.84,16.91-33.48,0-.06-.02-.13-.03-.19-.82-3.42-2.36-4.87-3.72-6.16-.21-.2-.42-.39-.61-.59l1.23-2.11c.3.19.62.36.97.51.02,0,.05.02.07.03,1,.42,2.17.66,3.44.66h.21c.14,0,.3-.02.45-.03,1.26-.08,2.46-.37,3.53-.86-.97,2.66-2.06,5.94,1.26,9.53,6.72,7.48,8.67,19.62,4.95,30.91-4.83,14.7-17.83,25.24-35.53,28.91-20.83,2.33-36.39-8.58-40.61-28.36l-.07-.62c.33.07.66.11,1,.11,2.03,0,3.77-1.28,4.47-3.07h-.02ZM3.12,51.19c.05-.06.11-.11.16-.16.05-.05.11-.09.17-.14.04-.03.08-.07.13-.1.07-.05.15-.1.23-.15.03-.02.07-.04.1-.06.1-.05.2-.11.31-.16.01,0,.03-.01.05-.02.48-.2,1.08-.32,1.82-.32h.24v.04c0,1.05-.84,1.9-1.87,1.9-.55,0-1.06-.24-1.42-.66v-.09s.05-.06.08-.09h0Z"/>
  <path d="M51.65,66.26c.24,0,.48-.06.7-.18,13.7-7.46,22.16-19.95,21.56-31.82-.04-.81-.76-1.45-1.55-1.4-.81.04-1.44.73-1.4,1.55.54,10.74-7.32,22.16-20.03,29.09-.72.39-.98,1.28-.59,2,.27.49.77.77,1.3.77h.01Z"/>
  <path d="M20.03,67.28c3.95,2.46,8.7,3.73,13.86,3.73.79,0,1.59-.03,2.39-.09.81-.06,1.42-.77,1.36-1.58-.06-.81-.78-1.43-1.58-1.36-5.45.4-10.46-.7-14.47-3.2-.69-.43-1.6-.22-2.03.47-.43.69-.22,1.6.47,2.03h0Z"/>
</svg>