<?xml version="1.0" encoding="UTF-8"?>
<svg id="Capa_1" xmlns="http://www.w3.org/2000/svg" version="1.1" xmlns:serif="http://www.serif.com/" viewBox="0 0 26.83 33.29">
  <!-- Generator: Adobe Illustrator 29.6.1, SVG Export Plug-In . SVG Version: 2.1.1 Build 9)  -->
  <defs>
    <style>
      .st0 {
        fill-rule: evenodd;
      }
    </style>
  </defs>
  <path class="st0" d="M11.45,7.89h-3.99c-.28,0-.5.22-.5.5v21.61c0,.28.22.5.5.5h12.94c.28,0,.5-.22.5-.5V13.01c1.07-.12,2.03-.6,2.76-1.31.01,0,.02-.01.03-.02,0,0,.01-.01.02-.02.83-.84,1.34-1.99,1.34-3.26s-.51-2.42-1.34-3.26c-.01,0-.02-.02-.02-.02-.01,0-.02-.01-.03-.02-.84-.83-1.99-1.34-3.26-1.34s-2.42.51-3.26,1.34c-.01,0-.02.01-.03.02,0,0-.01.02-.02.02-.72.73-1.2,1.69-1.31,2.76h-3.29l-1.76-6.03c-.08-.26-.35-.42-.62-.34-.26.08-.41.36-.34.62l1.68,5.75ZM7.96,13.04v16.46h11.94V13.04H7.96ZM14.01,21.49c-.13-.04-.26-.02-.38.05-.11.07-.2.18-.23.3l-1.07,4.01c-.08.27.08.54.35.61l4.01,1.08c.13.04.26.02.38-.05.11-.07.2-.18.23-.3l1.07-4.01c.08-.27-.08-.54-.35-.61l-4.01-1.08ZM14.24,22.59l3.04.82-.82,3.04-3.04-.82.82-3.04ZM14.76,15.21c-.07-.27-.35-.43-.61-.35l-4.02,1.08c-.26.07-.42.34-.35.61l1.08,4.01c.07.27.34.43.61.35l4.01-1.08c.27-.07.42-.35.35-.61l-1.07-4.01ZM13.92,15.95l.82,3.05-3.05.82-.81-3.05,3.04-.82ZM7.96,12.04h4.69l-.91-3.15h-3.78v3.15ZM16.25,8.89h-3.47l.91,3.15h6.21v-3.15h-3.65ZM22.6,11.3c-.49.37-1.07.62-1.7.71v-2.41l1.7,1.7ZM24.01,8.89c-.08.63-.33,1.22-.7,1.7l-1.7-1.7h2.4ZM17.49,6.19l1.7,1.7h-2.4c.08-.63.33-1.21.7-1.7ZM23.31,6.19c.37.49.62,1.07.7,1.7h-2.4l1.7-1.7ZM20.9,4.78c.63.09,1.21.34,1.7.71l-1.7,1.7v-2.41ZM19.9,4.78v2.41l-1.7-1.7c.49-.37,1.07-.62,1.7-.71Z"/>
</svg>