<?xml version="1.0" encoding="UTF-8"?>
<svg id="Capa_1" xmlns="http://www.w3.org/2000/svg" version="1.1" viewBox="0 0 49.01 57.99">
  <!-- Generator: Adobe Illustrator 29.6.1, SVG Export Plug-In . SVG Version: 2.1.1 Build 9)  -->
  <path d="M38.5,16.46c-1.9,0-3.77.52-5.4,1.5-1.64-2.35-4.17-3.94-7-4.39,0-.48,0-1.06-.06-1.71,1.81.67,3.73,1.05,5.66,1.1,1.44.04,2.87-.29,4.16-.94,4.67-2.52,6-8.15,6.1-8.38.15-.67-.17-1.37-.79-1.68-.29-.15-7.27-3.59-12-1-1.98,1.11-3.6,2.75-4.67,4.75-.9-2.02-2.34-3.76-4.17-5-.69-.46-1.62-.27-2.08.42-.46.69-.27,1.62.42,2.08,3.92,2.62,4.39,7.93,4.39,10.35-2.89.41-5.48,2.01-7.15,4.4-4.96-3-11.41-1.4-14.4,3.55-2.32,3.84-1.94,8.72.93,12.16-2.93,4.99-1.26,11.41,3.73,14.34,2.71,1.59,5.98,1.88,8.93.8.72,5.74,5.96,9.81,11.7,9.09,4.56-.57,8.22-4.05,9.02-8.58,5.7.94,11.1-2.91,12.04-8.62.1-.58.14-1.16.14-1.74,0-1.86-.5-3.68-1.44-5.28,3.72-4.44,3.13-11.06-1.32-14.78-1.89-1.58-4.28-2.45-6.74-2.44ZM30.56,3.55c2.3-1.23,5.95-.27,8.09.56-.76,2.18-2.25,4.04-4.21,5.26-2.29,1.23-5.95.27-8.09-.56.76-2.18,2.25-4.04,4.21-5.26ZM46,26.96c0,1.55-.47,3.06-1.36,4.32-3.53-3.3-8.87-3.75-12.9-1.09v-.06c-.48-.99-.74-2.07-.74-3.17,0-4.14,3.36-7.5,7.5-7.5s7.5,3.36,7.5,7.5ZM21.9,37.6c-.19-1.47-.69-2.88-1.47-4.14.18-.17.36-.33.56-.48,2.85-2.17,6.85-2,9.51.4,1.59,1.42,2.5,3.45,2.5,5.58,0,.36-.03.72-.09,1.08-2.88-2.89-7.17-3.84-11-2.44h-.01ZM24.3,16.47h.32c2.49.05,4.79,1.32,6.16,3.4-1.79,1.93-2.78,4.46-2.78,7.09,0,.62.06,1.24.18,1.85-.87-.23-1.78-.35-2.68-.35-1.92-.02-3.8.5-5.44,1.5-3.32-2.47-4-7.17-1.53-10.48,1.36-1.83,3.49-2.94,5.77-3.01ZM10.5,19.46c1.42,0,2.81.42,4,1.2-1.22,3.65-.33,7.68,2.32,10.47-.16.1-.3.22-.41.37-2.53,3.27-7.24,3.87-10.51,1.33-1.82-1.41-2.89-3.57-2.9-5.87,0-4.14,3.36-7.5,7.5-7.5ZM4,38.96c0-1.12.26-2.22.75-3.22,4.02,2.65,9.33,2.2,12.85-1.09.91,1.25,1.4,2.76,1.4,4.31v.79h0c-.24,2.19-1.42,4.16-3.25,5.39h0c-3.41,2.35-8.08,1.48-10.43-1.93-.86-1.25-1.32-2.73-1.32-4.25ZM25.5,54.96c-4.14,0-7.5-3.36-7.5-7.5h0c0-.09,0-.19,0-.28,1.97-1.55,3.32-3.76,3.8-6.22,3.6-2.05,8.17-.79,10.21,2.81,2.05,3.6.79,8.17-2.81,10.21-1.13.64-2.41.98-3.71.98ZM37.5,46.46c-.53,0-1.05-.06-1.57-.18-.12-1.06-.41-2.1-.85-3.07,1.6-3.54,1.08-7.69-1.34-10.73,3.58-2.09,8.17-.87,10.26,2.7s.87,8.17-2.7,10.26c-1.15.67-2.46,1.02-3.79,1.02Z"/>
</svg>