<svg xmlns="http://www.w3.org/2000/svg" version="1.1" viewBox="-5.0 -10.0 110.0 135.0">
 <path d="m50.004 2.9414c-11.551 0-22.008 1.8398-29.711 4.8867-3.8516 1.5234-7.0195 3.3398-9.3047 5.4727-2.2812 2.1328-3.7109 4.6602-3.7109 7.4141l0.003906-0.003906v0.011718c0.003906 4.1562 3.1758 7.8203 8.3828 10.715l-0.003906 59.008c0 3.6406 2.9688 6.6133 6.6094 6.6133h55.473c3.6406 0 6.6094-2.9688 6.6094-6.6133v-59.02c5.2031-2.8945 8.3633-6.5469 8.3711-10.703h-0.003906v-0.003906-0.003906-0.003906c0-2.7539-1.418-5.2812-3.6992-7.4141s-5.4531-3.9492-9.3047-5.4727c-7.7031-3.043-18.164-4.8867-29.711-4.8867zm0 2.9414c11.234 0 21.398 1.8242 28.625 4.6797 3.6133 1.4297 6.4844 3.1172 8.3789 4.8867 1.8906 1.7695 2.7812 3.5156 2.7812 5.2656-0.003906 2.7422-2.4023 5.8281-7.5898 8.5312h0.003906c-0.035156 0.019531-0.066406 0.042968-0.097656 0.070312-0.058594 0.039063-0.11719 0.082032-0.17188 0.12891-0.054688 0.046876-0.10938 0.097657-0.15625 0.15625-0.054688 0.0625-0.10547 0.13281-0.14844 0.20703-0.03125 0.058594-0.0625 0.11328-0.085937 0.17188-0.035157 0.085937-0.0625 0.17188-0.082031 0.25781-0.015626 0.058594-0.027344 0.11719-0.03125 0.17969-0.011719 0.039062-0.019532 0.082031-0.023438 0.12891v59.898c0 2.0625-1.6055 3.668-3.668 3.668h-55.473c-2.0625 0-3.668-1.6055-3.668-3.668v-59.887c0-0.58203-0.34375-1.1094-0.875-1.3477-5.1289-2.6953-7.5039-5.7734-7.5078-8.5 0-1.7461 0.88672-3.4961 2.7812-5.2656 1.8906-1.7695 4.7656-3.457 8.3789-4.8867 7.2266-2.8555 17.391-4.6797 28.625-4.6797zm0.51172 34.023c-0.39062 0-0.76562 0.15625-1.043 0.43359l-17.902 17.91h0.003907c-0.57031 0.57422-0.57031 1.5 0 2.0742 0.57031 0.57031 1.5 0.57031 2.0703 0l17.91-17.902h0.003906c0.27344-0.27734 0.42969-0.65234 0.42969-1.043s-0.15625-0.76172-0.42969-1.0391c-0.27734-0.27734-0.65234-0.43359-1.043-0.43359zm12.84 3.8945c-0.33203 0.039063-0.64062 0.1875-0.875 0.42578l-27.031 27.016c-0.27734 0.27734-0.43359 0.65234-0.43359 1.043 0 0.39453 0.15625 0.76953 0.43359 1.043 0.27734 0.27734 0.65234 0.43359 1.043 0.43359 0.39062 0 0.76562-0.15625 1.0391-0.43359l27.031-27.027c0.57031-0.57422 0.57031-1.5 0-2.0742-0.31641-0.32031-0.76172-0.47656-1.207-0.42578zm4.0469 12.992c-0.38672 0-0.76172 0.15234-1.0352 0.42578l-17.91 17.91h-0.003906c-0.57031 0.57422-0.57031 1.5 0 2.0742 0.57422 0.57031 1.5 0.57031 2.0742 0l17.914-17.902h-0.003906c0.27734-0.27344 0.43359-0.64844 0.43359-1.0391s-0.15625-0.76562-0.43359-1.043c-0.27344-0.27344-0.64453-0.42578-1.0352-0.42578z"/>
<text x="0.0" y="117.5" font-size="5.0" font-weight="bold" font-family="Arbeit Regular, Helvetica, Arial-Unicode, Arial, Sans-serif" fill="#000000">Created by Larea</text><text x="0.0" y="122.5" font-size="5.0" font-weight="bold" font-family="Arbeit Regular, Helvetica, Arial-Unicode, Arial, Sans-serif" fill="#000000">from Noun Project</text></svg>