<?xml version="1.0" encoding="UTF-8"?>
<svg id="Capa_1" xmlns="http://www.w3.org/2000/svg" version="1.1" viewBox="0 0 85.45 94.12">
  <!-- Generator: Adobe Illustrator 29.6.1, SVG Export Plug-In . SVG Version: 2.1.1 Build 9)  -->
  <path d="M42.73,0C31.18,0,20.72,1.84,13.02,4.89c-3.85,1.52-7.02,3.34-9.3,5.47-2.28,2.13-3.71,4.66-3.71,7.41h0s0,0,0,0c0,4.16,3.18,7.82,8.38,10.72v59.01c0,3.64,2.96,6.61,6.61,6.61h55.47c3.64,0,6.61-2.97,6.61-6.61V28.49c5.2-2.89,8.36-6.55,8.37-10.7h0c0-2.77-1.42-5.29-3.7-7.43s-5.45-3.95-9.3-5.47C64.73,1.84,54.27,0,42.73,0h0ZM42.73,2.95c11.23,0,21.4,1.82,28.62,4.68,3.61,1.43,6.48,3.12,8.38,4.89,1.89,1.77,2.78,3.52,2.78,5.27,0,2.74-2.4,5.83-7.59,8.53h0s-.07.04-.1.07c-.06.04-.12.08-.17.13-.05.05-.11.1-.16.16-.05.06-.11.13-.15.21-.03.06-.06.11-.09.17-.04.09-.06.17-.08.26-.02.06-.03.12-.03.18-.01.04-.02.08-.02.13v59.9c0,2.06-1.61,3.67-3.67,3.67H14.99c-2.06,0-3.67-1.61-3.67-3.67V27.62c0-.58-.34-1.11-.88-1.35-5.13-2.7-7.5-5.77-7.51-8.5,0-1.75.89-3.5,2.78-5.27,1.89-1.77,4.77-3.46,8.38-4.89,7.23-2.86,17.39-4.68,28.62-4.68h0ZM43.24,36.97c-.39,0-.77.16-1.04.43l-17.9,17.91h0c-.57.57-.57,1.5,0,2.07.57.57,1.5.57,2.07,0l17.91-17.9h0c.27-.28.43-.65.43-1.04s-.16-.76-.43-1.04c-.28-.28-.65-.43-1.04-.43h0ZM56.08,40.86c-.33.04-.64.19-.88.43l-27.03,27.02c-.28.28-.43.65-.43,1.04s.16.77.43,1.04c.28.28.65.43,1.04.43s.77-.16,1.04-.43l27.03-27.03c.57-.57.57-1.5,0-2.07-.32-.32-.76-.48-1.21-.43h0ZM60.13,53.85c-.39,0-.76.15-1.04.43l-17.91,17.91h0c-.57.57-.57,1.5,0,2.07.57.57,1.5.57,2.07,0l17.91-17.9h0c.28-.27.43-.65.43-1.04s-.16-.77-.43-1.04c-.27-.27-.64-.43-1.04-.43h0Z"/>
</svg>