<?xml version="1.0" encoding="UTF-8"?>
<svg id="Capa_1" xmlns="http://www.w3.org/2000/svg" version="1.1" viewBox="0 0 93.75 93.75">
  <!-- Generator: Adobe Illustrator 29.6.1, SVG Export Plug-In . SVG Version: 2.1.1 Build 9)  -->
  <path d="M56.32,22.89c.27,0,.52-.07.75-.2,2.76-1.55,5.61-2.92,8.55-4.11.82-.3,1.23-1.21.92-2.03s-1.21-1.23-2.03-.92c-3.07,1.23-6.07,2.66-8.95,4.28-.63.34-.95,1.07-.77,1.77.18.7.82,1.18,1.54,1.17v.05Z"/>
  <path d="M48.34,28c.35-.23.59-.59.67-1,.08-.41,0-.83-.23-1.18-.48-.71-1.44-.91-2.16-.44-7.46,4.86-14.45,10.41-20.86,16.59-7.78,8.09-14.04,17.52-18.48,27.83-.17.38-.18.81-.03,1.2.15.39.45.7.82.87.2.08.41.12.62.12.62,0,1.19-.37,1.44-.94,4.29-9.95,10.33-19.04,17.83-26.86,6.27-6.03,13.09-11.46,20.38-16.2h0Z"/>
  <path d="M76.68,28.62c-.38-.17-.82-.17-1.2-.02s-.7.46-.86.84c-5.16,12.2-16.81,28.05-25.08,36.33-7.88,7.54-17.04,13.61-27.06,17.92-.38.16-.68.48-.84.86-.15.39-.14.82.02,1.2.25.57.81.94,1.44.94.21,0,.43-.05.62-.14,10.38-4.46,19.88-10.76,28.03-18.58,8.48-8.48,20.44-24.77,25.75-37.31.34-.79-.04-1.71-.83-2.05h0Z"/>
  <path d="M93.75,1.56c0-.86-.7-1.56-1.56-1.56s-1.56.7-1.56,1.56c0,6.38-6.67,8.61-8.88,9.16-13.12-11.28-48.94,6.88-63.16,21.06C1.04,49.31-3.63,84.8,2.67,91.08c1.75,1.77,5.81,2.67,11.11,2.67,13.64,0,35.56-5.97,48.19-18.59,13.73-13.72,31.25-47.77,22.05-61.83,4.27-1.47,9.73-5.05,9.73-11.77h0ZM79.35,41.5c-4.58,11.77-12.27,24.13-19.59,31.45-17.41,17.41-50.77,20.03-54.89,15.92s-1.56-37.5,15.92-54.89c7.33-7.33,19.69-15.02,31.45-19.59,5.73-2.42,11.85-3.8,18.06-4.08,4.34,0,7.73,1.08,9.88,3.22,4.59,4.56,4.28,14.77-.83,27.97h0Z"/>
  <path d="M31.34,62.41c.29.29.7.46,1.11.45.41,0,.82-.16,1.11-.45l28.8-28.81c.53-.62.5-1.54-.08-2.12s-1.5-.61-2.12-.08l-28.81,28.8c-.3.29-.46.69-.46,1.11s.16.82.46,1.11h0Z"/>
  <path d="M28.21,67.73c.33-.28.53-.69.55-1.12.02-.44-.15-.86-.46-1.17-.31-.3-.73-.47-1.17-.46-.43.02-.84.21-1.12.55l-6.66,6.66c-.45.45-.59,1.12-.35,1.7.24.58.81.96,1.44.97.42,0,.82-.17,1.11-.47l6.66-6.66Z"/>
</svg>