<?xml version="1.0" encoding="UTF-8"?>
<svg id="Capa_1" xmlns="http://www.w3.org/2000/svg" version="1.1" xmlns:serif="http://www.serif.com/" viewBox="0 0 32 32.36">
  <!-- Generator: Adobe Illustrator 29.6.1, SVG Export Plug-In . SVG Version: 2.1.1 Build 9)  -->
  <defs>
    <style>
      .st0 {
        fill-rule: evenodd;
      }
    </style>
  </defs>
  <path class="st0" d="M16.12,7.33c-.25-.01-.49-.02-.74-.02-.38,0-.76.01-1.13.04-.02-.82-.37-1.31-.73-1.79-.26-.34-.53-.67-.53-1.25,0-1.09.83-1.48.83-1.48.25-.11.37-.4.26-.66-.11-.25-.4-.37-.66-.26,0,0-1.43.6-1.43,2.4,0,.86.35,1.36.73,1.86.26.34.53.67.53,1.26v.03c-2.4.3-4.48,1.1-5.89,2.19-1.3,1-2.04,2.25-2.04,3.59,0,2.26.42,4.53,1.23,6.55-1.45.64-2.57,1.43-3.27,2.31-.55.7-.84,1.46-.84,2.24,0,1.4.95,2.73,2.63,3.78,2.33,1.45,6.08,2.4,10.31,2.4s7.97-.95,10.3-2.4c1.69-1.05,2.64-2.38,2.64-3.78,0-.83-.33-1.64-.96-2.37,1.75-1.01,2.66-2.92,1.98-4.88-.75-2.2-2.95-2.51-3.96-2.53.03-.44.05-.88.05-1.32,0-1.34-.74-2.58-2.04-3.59-.9-.7-2.08-1.28-3.45-1.68.05-.21.08-.43.08-.68,0-.87-.36-1.37-.74-1.86-.25-.34-.53-.67-.53-1.25,0-1.1.83-1.48.83-1.48.26-.11.37-.4.26-.66-.11-.25-.4-.37-.65-.26,0,0-1.44.59-1.44,2.4,0,.86.36,1.36.74,1.86.25.34.53.67.53,1.26,0,.15-.02.3-.05.42-.59-.13-1.21-.23-1.85-.3.01-.11.02-.23.02-.35,0-.87-.36-1.37-.74-1.87-.26-.34-.53-.67-.53-1.25,0-1.1.83-1.48.83-1.48.25-.11.37-.4.26-.66-.11-.25-.4-.37-.66-.26,0,0-1.43.6-1.43,2.4,0,.86.36,1.36.73,1.86.26.34.54.67.54,1.26,0,.1-.01.19-.02.28ZM6.96,20.68c-1.05.46-1.92,1.01-2.54,1.62-.62.62-.98,1.29-.98,2.02,0,1.11.83,2.1,2.16,2.93,2.2,1.37,5.77,2.25,9.78,2.25s7.57-.88,9.77-2.25c1.34-.83,2.17-1.82,2.17-2.93,0-.69-.34-1.34-.91-1.94-1.06.35-2.31.42-3.65.06-1.69,2.41-4.17,4.03-7.38,4.03-3.95,0-6.79-2.42-8.42-5.78ZM6.55,16.08c.82,4.97,3.78,9.39,8.83,9.39s8-4.41,8.82-9.39c-.24.26-.51.5-.81.73-1.81,1.4-4.72,2.32-8.01,2.32s-6.21-.92-8.02-2.32c-.3-.23-.57-.48-.81-.73ZM23.33,21.55c3.28.69,5.95-1.58,5.07-4.15-.37-1.07-1.21-1.53-1.95-1.72-.47-.12-.9-.14-1.17-.14-.04.36-.1.72-.17,1.08.14-.02.29-.03.45-.02.88.02,1.86.43,1.94,1.65.04.64-.24,1.24-.74,1.68-.67.57-1.73.86-2.87.55-.17.37-.36.73-.56,1.08ZM24.29,19.54c.72.16,1.39-.01,1.81-.38.26-.22.42-.52.4-.85-.03-.57-.55-.7-.96-.71-.23,0-.53.07-.58.08-.03.03-.06.05-.1.06-.15.62-.35,1.22-.57,1.8ZM22.97,15.87v-.02c.05-.19.08-.38.08-.58,0-.36-.09-.71-.26-1.05-.34-.7-1.02-1.32-1.9-1.83-1.42-.8-3.37-1.29-5.51-1.29-2.58,0-4.87.7-6.29,1.81-.86.67-1.39,1.47-1.39,2.36,0,.2.03.4.08.6.07.05.13.1.19.15,1.67,1.29,4.37,2.11,7.41,2.11s5.73-.82,7.4-2.11c.06-.05.13-.1.19-.15ZM11.08,15.57c.33,0,.6.27.6.6s-.27.6-.6.6-.6-.27-.6-.6.27-.6.6-.6ZM9.28,14.38c.34,0,.61.27.61.6s-.27.6-.61.6c-.32,0-.59-.27-.59-.6s.27-.6.59-.6ZM24.43,13.22c0-1.05-.63-2.01-1.65-2.79-.85-.65-1.96-1.19-3.25-1.56-.44.62-1,.87-1,.87-.26.12-.55,0-.67-.25-.11-.25,0-.55.25-.66,0,0,.14-.07.32-.22-.52-.1-1.06-.18-1.62-.23-.44.81-1.17,1.14-1.17,1.14-.25.11-.55,0-.66-.25-.12-.25,0-.55.25-.66,0,0,.18-.09.39-.29-.08,0-.16,0-.24,0-.44,0-.86.02-1.28.05-.38,1.09-1.34,1.52-1.34,1.52-.25.11-.55,0-.66-.25-.12-.25-.01-.55.24-.66,0,0,.3-.14.55-.47-2,.31-3.72,1-4.92,1.92-1.02.79-1.65,1.74-1.65,2.79,0,.52.16,1.01.43,1.48.18-.96.78-1.84,1.72-2.58,1.56-1.21,4.07-2.02,6.91-2.02,2.34,0,4.46.55,6,1.42,1.08.61,1.88,1.39,2.31,2.25.15.3.25.61.31.92.28-.46.43-.96.43-1.48ZM10.48,12.79c.33,0,.6.27.6.6s-.27.6-.6.6-.59-.27-.59-.6.26-.6.59-.6ZM12.74,12.2c.33,0,.6.27.6.6s-.27.6-.6.6-.6-.27-.6-.6.27-.6.6-.6Z"/>
</svg>