<?xml version="1.0" encoding="UTF-8"?>
<svg id="Capa_1" xmlns="http://www.w3.org/2000/svg" version="1.1" viewBox="0 0 90 89.84">
  <!-- Generator: Adobe Illustrator 29.6.1, SVG Export Plug-In . SVG Version: 2.1.1 Build 9)  -->
  <path d="M89.87,18.33c-.38-1-1.5-1.5-2.5-1.12l-17.35,6.6L89.28,3.27h0c.73-.79.69-2.02-.09-2.75-.38-.35-.88-.54-1.39-.52-.51.02-1,.23-1.35.61l-19.44,20.73,5.18-17.68h0c.14-.49.09-1.02-.16-1.47-.25-.45-.66-.79-1.16-.93-1.03-.3-2.11.29-2.41,1.32l-6.57,22.42-5.64-5.43s0,0-.01,0c-.03-.03-.05-.05-.08-.08-2.47-2.08-5.6-3.27-8.8-3.39-.27-.01-.53-.02-.8-.01-.8.01-1.6.09-2.4.24-3,.56-5.75,2.04-7.86,4.25-.12.12-.22.26-.3.41h0S.22,86.98.22,86.98h0c-.05.14-.09.29-.11.45-.06.16-.1.32-.12.49.02.16.06.32.12.47.02.16.06.31.12.46,0,.01.02.02.03.03.1.13.21.25.34.35.11.13.23.25.38.36.01,0,.02.02.03.03.14.05.29.09.44.11.16.06.33.1.5.12.16-.02.32-.06.47-.12.16-.02.32-.06.46-.12l65.92-36.74s.03-.02.04-.03c0,0,.02,0,.03-.01,3.27-2.01,5.44-5.5,5.8-9.32h0c.27-2.96-.53-5.92-2.27-8.33,0,0,0,0,0,0l-.04-.05s0-.01-.01-.02c-.06-.08-.13-.16-.21-.24l-5.74-5.52h0l22.34-8.5c.48-.18.87-.55,1.08-1.02.21-.48.22-1.01.04-1.49h0ZM70.81,43.14c-.24,2.54-1.79,5.03-3.95,6.36L6.82,82.96l12.19-22.5,5.09,3.52h0c.88.61,2.09.39,2.7-.49.61-.88.39-2.09-.49-2.7l-5.44-3.77,6.81-12.57,8.45,7.58c.38.34.89.52,1.4.5s1-.26,1.34-.64c.71-.8.65-2.03-.15-2.74l-9.14-8.2,6.55-12.07,11.78,10.75h0c.79.72,2.02.67,2.74-.12.72-.79.67-2.02-.12-2.74l-12.49-11.41,1.25-2.3c1.51-1.5,3.5-2.55,5.59-2.94h0c.57-.1,1.16-.16,1.74-.16,2.52-.02,5.09.86,7.01,2.46l15.69,15.11c1.12,1.61,1.68,3.66,1.49,5.61h0Z"/>
</svg>