<svg xmlns="http://www.w3.org/2000/svg" version="1.1" viewBox="-5.0 -10.0 110.0 135.0">
 <path d="m94.891 41.27c0.003906-0.074219 0.003906-0.15234 0-0.23047-0.011719-0.20312-0.046875-0.40625-0.10938-0.59766-0.9375-8.3438-5.5352-15.832-12.551-20.441-7.9414-5.2109-17.949-6.1406-26.711-2.4805l-8 3.3398c-0.5 0.21875-0.89062 0.62891-1.0781 1.1406-0.20312 0.48828-0.20312 1.0391 0 1.5312 1.4492 3.4688-0.19141 7.4609-3.6602 8.9102-3.4727 1.4492-7.4609-0.19141-8.9102-3.6602-0.42578-1.0195-1.5938-1.5039-2.6094-1.082l-25 10.449c-0.76172 0.30469-1.2578 1.0352-1.2617 1.8516v13c0 0.53125 0.21094 1.0391 0.58594 1.4141s0.88281 0.58594 1.4141 0.58594c1.8516-0.070312 3.6484 0.61328 4.9844 1.8984 1.332 1.2852 2.0859 3.0547 2.0859 4.9062 0 1.8516-0.75391 3.625-2.0859 4.9062-1.3359 1.2852-3.1328 1.9688-4.9844 1.8984-1.1055 0-2 0.89453-2 2v12c0 0.53125 0.21094 1.0391 0.58594 1.4141s0.88281 0.58594 1.4141 0.58594h39.449c0.5625 0.015625 1.1016-0.20703 1.4922-0.60938 0.37891-0.42188 0.55859-0.98438 0.5-1.5508v-0.35156-0.37109 0.003907c0.14062-3.6641 3.1484-6.5586 6.8125-6.5586 3.668 0 6.6758 2.8945 6.8164 6.5586v0.37109 0.35156-0.003906c-0.10937 0.53906 0.011719 1.1016 0.32813 1.5508 0.37891 0.41797 0.91797 0.66016 1.4805 0.66016h29.121c0.53125 0 1.0391-0.21094 1.4141-0.58594s0.58594-0.88281 0.58594-1.4141v-38.609-0.85156c0-0.64844 0-1.2891-0.10938-1.9297zm-63.77-9.1914c2.6172 4.0156 7.5664 5.8242 12.156 4.4531s7.7344-5.5977 7.7227-10.391c0-0.75391-0.078125-1.5039-0.23828-2.2422l6.3281-2.6484c7.543-3.1602 16.168-2.3594 23 2.1406 5.5312 3.5508 9.3516 9.2344 10.551 15.699l-78.43 0.91016zm59.879 48.57h-25.078c-0.5625-5.5195-5.207-9.7188-10.758-9.7188-5.5469 0-10.195 4.1992-10.754 9.7188h-35.41v-8.2188c5.1133-0.95703 8.8203-5.4219 8.8203-10.625 0-5.2031-3.707-9.668-8.8203-10.625v-7.1797l82-0.92969v0.16016 0.80078zm-54.77-32.648c-4.168 0-7.9219 2.5078-9.5156 6.3594-1.5938 3.8477-0.71484 8.2773 2.2305 11.223 2.9492 2.9453 7.3789 3.8281 11.227 2.2344s6.3594-5.3516 6.3594-9.5156c-0.011719-5.6836-4.6172-10.289-10.301-10.301zm0 16.602c-2.5469 0-4.8477-1.5352-5.8203-3.8906-0.97656-2.3555-0.4375-5.0625 1.3633-6.8672 1.8047-1.8008 4.5117-2.3398 6.8672-1.3633 2.3555 0.97266 3.8906 3.2695 3.8906 5.8203-0.011719 3.4727-2.8281 6.2852-6.3008 6.2891zm34.418-16.602c-4.1602 0.019531-7.9023 2.543-9.4805 6.3945-1.5781 3.8516-0.68359 8.2734 2.2695 11.211 2.9531 2.9336 7.3789 3.8047 11.223 2.2031 3.8438-1.6016 6.3438-5.3555 6.3398-9.5195-0.003906-2.7383-1.0977-5.3594-3.0391-7.2891-1.9453-1.9336-4.5742-3.0117-7.3125-3zm0 16.602c-2.5469 0-4.8438-1.5352-5.8203-3.8906-0.97266-2.3555-0.43359-5.0625 1.3672-6.8672 1.8008-1.8008 4.5117-2.3398 6.8672-1.3633 2.3516 0.97266 3.8867 3.2695 3.8867 5.8203-0.011719 3.4727-2.8242 6.2852-6.3008 6.2891z"/>
<text x="0.0" y="117.5" font-size="5.0" font-weight="bold" font-family="Arbeit Regular, Helvetica, Arial-Unicode, Arial, Sans-serif" fill="#000000">Created by Dierys Design</text><text x="0.0" y="122.5" font-size="5.0" font-weight="bold" font-family="Arbeit Regular, Helvetica, Arial-Unicode, Arial, Sans-serif" fill="#000000">from Noun Project</text></svg>