<?xml version="1.0" encoding="UTF-8"?>
<svg id="Capa_1" xmlns="http://www.w3.org/2000/svg" version="1.1" viewBox="0 0 90 69.35">
  <!-- Generator: Adobe Illustrator 29.6.1, SVG Export Plug-In . SVG Version: 2.1.1 Build 9)  -->
  <path d="M89.89,25.96c0-.07,0-.15,0-.23-.01-.2-.05-.41-.11-.6-.94-8.34-5.54-15.83-12.55-20.44-7.94-5.21-17.95-6.14-26.71-2.48l-8,3.34c-.5.22-.89.63-1.08,1.14-.2.49-.2,1.04,0,1.53,1.45,3.47-.19,7.46-3.66,8.91-3.47,1.45-7.46-.19-8.91-3.66-.43-1.02-1.59-1.5-2.61-1.08L1.26,22.84c-.76.3-1.26,1.04-1.26,1.85v13c0,.53.21,1.04.59,1.41s.88.59,1.41.59c1.85-.07,3.65.61,4.98,1.9,1.33,1.29,2.09,3.05,2.09,4.91s-.75,3.62-2.09,4.91c-1.34,1.29-3.13,1.97-4.98,1.9C.89,53.3,0,54.19,0,55.3v12c0,.53.21,1.04.59,1.41s.88.59,1.41.59h39.45c.56.02,1.1-.21,1.49-.61.38-.42.56-.98.5-1.55v-.72h0c.14-3.66,3.15-6.55,6.81-6.55s6.68,2.89,6.82,6.56v.72h0c-.11.54.01,1.1.33,1.55.38.42.92.66,1.48.66h29.12c.53,0,1.04-.21,1.41-.59s.59-.88.59-1.41V27.89c0-.65,0-1.29-.11-1.93h0ZM26.12,16.77c2.62,4.02,7.57,5.82,12.16,4.45s7.73-5.6,7.72-10.39c0-.75-.08-1.5-.24-2.24l6.33-2.65c7.54-3.16,16.17-2.36,23,2.14,5.53,3.55,9.35,9.23,10.55,15.7l-78.43.91,18.91-7.92ZM86,65.34h-25.08c-.56-5.52-5.21-9.72-10.76-9.72s-10.19,4.2-10.75,9.72H4v-8.22c5.11-.96,8.82-5.42,8.82-10.62s-3.71-9.67-8.82-10.62v-7.18l82-.93v37.58ZM31.23,32.69c-4.17,0-7.92,2.51-9.52,6.36-1.59,3.85-.71,8.28,2.23,11.22,2.95,2.95,7.38,3.83,11.23,2.23s6.36-5.35,6.36-9.52c-.01-5.68-4.62-10.29-10.3-10.3h0ZM31.23,49.29c-2.55,0-4.85-1.54-5.82-3.89-.98-2.36-.44-5.06,1.36-6.87,1.8-1.8,4.51-2.34,6.87-1.36,2.36.97,3.89,3.27,3.89,5.82-.01,3.47-2.83,6.29-6.3,6.29h0ZM65.65,32.69c-4.16.02-7.9,2.54-9.48,6.39-1.58,3.85-.68,8.27,2.27,11.21,2.95,2.93,7.38,3.8,11.22,2.2,3.84-1.6,6.34-5.36,6.34-9.52,0-2.74-1.1-5.36-3.04-7.29-1.95-1.93-4.57-3.01-7.31-3h0ZM65.65,49.29c-2.55,0-4.84-1.54-5.82-3.89-.97-2.36-.43-5.06,1.37-6.87,1.8-1.8,4.51-2.34,6.87-1.36,2.35.97,3.89,3.27,3.89,5.82-.01,3.47-2.82,6.29-6.3,6.29h0Z"/>
</svg>