<?xml version="1.0" encoding="UTF-8"?>
<svg id="Capa_1" xmlns="http://www.w3.org/2000/svg" version="1.1" viewBox="0 0 91.38 91.38">
  <!-- Generator: Adobe Illustrator 29.6.1, SVG Export Plug-In . SVG Version: 2.1.1 Build 9)  -->
  <defs>
    <style>
      .st0 {
        fill-rule: evenodd;
      }
    </style>
  </defs>
  <path class="st0" d="M33.21,68.74c-2.7,2.7-10.48,10.48-10.48,10.48,1.73,3.11,1.28,7.12-1.36,9.76-3.19,3.19-8.37,3.19-11.56,0-1.41-1.41-2.2-3.21-2.36-5.05-1.84-.16-3.64-.95-5.05-2.36-3.19-3.19-3.19-8.37,0-11.56,2.64-2.64,6.65-3.1,9.76-1.36l10.48-10.48c-.39-1.14-.68-2.39-.75-3.75-.19-3.21.7-7.03,3.87-11.31,3.7-5,4.35-10.08,5.72-15.48,1.5-5.93,3.73-12.22,10.7-19.18,11.25-11.25,29.52-11.25,40.77,0s11.25,29.52,0,40.77c-6.96,6.96-13.25,9.2-19.18,10.7-5.4,1.37-10.48,2.02-15.48,5.72-4.28,3.17-8.1,4.06-11.31,3.87-1.36-.08-2.61-.36-3.75-.75h0ZM33.67,64.74c1.04.45,2.21.78,3.53.86,2.49.15,5.43-.64,8.75-3.11,4.42-3.27,8.87-4.46,13.53-5.57,6.33-1.5,13.08-2.86,20.69-10.48,9.73-9.73,9.73-25.52,0-35.24-9.73-9.73-25.52-9.73-35.24,0-7.61,7.61-8.98,14.37-10.48,20.69-1.11,4.66-2.29,9.11-5.57,13.53-2.46,3.33-3.26,6.26-3.11,8.75.08,1.31.41,2.49.86,3.53.05.09.09.18.12.27.81,1.74,1.94,3.06,2.75,3.9.85.8,2.16,1.94,3.9,2.75.09.03.18.07.27.12h0ZM62.03,8.45c1.08,0,1.96.88,1.96,1.96s-.88,1.96-1.96,1.96-1.96-.88-1.96-1.96.88-1.96,1.96-1.96ZM52.01,12.36c1.08,0,1.96.88,1.96,1.96s-.88,1.96-1.96,1.96-1.96-.88-1.96-1.96.88-1.96,1.96-1.96ZM60.08,17.46c1.08,0,1.96.88,1.96,1.96s-.88,1.96-1.96,1.96-1.96-.88-1.96-1.96.88-1.96,1.96-1.96ZM24.48,61.84l-10.74,10.74c-.74.74-1.93.77-2.7.06-1.68-1.53-4.28-1.48-5.9.14-1.67,1.67-1.67,4.37,0,6.04,1.07,1.07,2.57,1.45,3.94,1.15.65-.14,1.33.05,1.8.53s.67,1.15.53,1.8c-.3,1.38.08,2.88,1.15,3.94,1.67,1.67,4.37,1.67,6.04,0,1.62-1.62,1.66-4.22.13-5.9-.7-.77-.68-1.96.06-2.7l10.74-10.74c-1.16-.77-2.08-1.57-2.77-2.23-.02-.02-.04-.04-.07-.07-.65-.68-1.46-1.61-2.23-2.77h0Z"/>
</svg>