<?xml version="1.0" encoding="UTF-8"?>
<svg id="Capa_1" xmlns="http://www.w3.org/2000/svg" version="1.1" viewBox="0 0 46.68 59.78">
  <!-- Generator: Adobe Illustrator 29.6.1, SVG Export Plug-In . SVG Version: 2.1.1 Build 9)  -->
  <path d="M33.9,59.78c-.2,0-.4,0-.6-.1L.9,46.18c-.7-.3-1.1-1.2-.8-1.9l9.2-22.3c.3-.7,1.2-1.1,1.9-.8l32.4,13.5c.4.1.6.4.8.8.1.4.1.8,0,1.1l-9.2,22.3c-.1.4-.4.6-.8.8-.2.1-.4.1-.5.1ZM3.3,44.07l29.7,12.3,8.2-19.5-29.8-12.4L3.3,44.07Z"/>
  <path d="M31.8,46.97c-.2,0-.4,0-.6-.1l-19.9-8.3c-.7-.3-1.1-1.2-.8-1.9l5-12.1c.1-.4.4-.6.8-.8.4-.1.8-.1,1.1,0l20,8.3c.7.3,1.1,1.2.8,1.9l-5,12.1c-.1.4-.4.6-.8.8-.2.1-.4.1-.6.1ZM13.8,36.47l17.2,7.1,3.9-9.4-17.2-7.1-3.9,9.4Z"/>
  <g>
    <path d="M42.9,19.78c-.2,0-.4,0-.6-.1l-23.4-9.7c-.7-.3-1.1-1.2-.8-1.9s1.2-1.1,1.9-.8l23.4,9.7c.7.3,1.1,1.2.8,1.9-.2.6-.7.9-1.3.9Z"/>
    <path d="M43.5,29.28c-.2,0-.4,0-.6-.1l-27.2-11.3c-.7-.3-1.1-1.2-.8-1.9s1.2-1.1,1.9-.8l27.2,11.3c.7.3,1.1,1.2.8,1.9-.2.5-.8.9-1.3.9Z"/>
  </g>
  <g>
    <path d="M22.2,28.87c-.2,0-.4,0-.6-.1-.7-.3-1.1-1.2-.8-1.9L30,4.58c.3-.7,1.2-1.1,1.9-.8.7.3,1.1,1.2.8,1.9l-9.2,22.3c-.2.5-.8.9-1.3.9Z"/>
    <path d="M31.6,32.78c-.2,0-.4,0-.6-.1-.7-.3-1.1-1.2-.8-1.9l8.2-19.8c.3-.7,1.2-1.1,1.9-.8.7.3,1.1,1.2.8,1.9l-8.2,19.8c-.2.5-.7.9-1.3.9Z"/>
  </g>
  <path d="M40.5,36.47c-.2,0-.4,0-.6-.1l-27.2-11.3c-.7-.3-1.1-1.2-.8-1.9L21.1.87c.1-.4.4-.6.8-.8.4-.1.8-.1,1.1,0l17.4,7.2c.7.3,1.1,1.1.8,1.8-.7,2.3.5,4.6,2.6,5.5.7.3,1.1,1.2.8,1.9-.8,2-.2,4.2,1.5,5.4.5.4.7,1.1.5,1.7l-4.9,11.8c-.1.7-.6,1.1-1.2,1.1ZM15.2,22.87l24.5,10.2,3.9-9.5c-1.8-1.8-2.5-4.4-2-6.9-2.4-1.5-3.7-4.3-3.4-7.2l-15-6.2-8,19.6Z"/>
</svg>