<?xml version="1.0" encoding="UTF-8"?>
<svg id="Capa_1" xmlns="http://www.w3.org/2000/svg" version="1.1" viewBox="0 0 109.99 109.82">
  <!-- Generator: Adobe Illustrator 29.6.1, SVG Export Plug-In . SVG Version: 2.1.1 Build 9)  -->
  <path d="M0,89.8c0,4.64,4.22,5.9,3.26,9.03-.3.96.42,1.94,1.43,1.94,3,0,7.34-1.64,9.74-4.53,3.36,9.32,12.88,14.94,22.77,13.29,24.01-4,68.7-11.45,72.75-74.64.59-9.17-4.89-17.28-12.99-20.47,2.53-2.1,4.13-5.4,4.52-9.59.1-1.06-.92-1.89-1.93-1.57-3.09.94-4.39-3.26-8.99-3.26s-5.9,4.22-9.03,3.26c-1.02-.31-2.03.51-1.93,1.57.35,3.83,1.72,6.91,3.87,9.02-8.06,2.4-14.1,9.55-14.67,18.41-1.79,27.91-11.95,32.21-38.38,36.62-7.74,1.29-13.96,6.76-16.28,14.19-2.11-2.34-5.31-3.82-9.31-4.19-1.06-.1-1.89.91-1.57,1.93C4.21,83.92,0,85.16,0,89.79h0ZM19.48,78.97c2.73-3.83,6.8-6.36,11.44-7.13,26.96-4.5,38.98-9.58,40.88-39.39.68-10.67,10.71-18.45,21.48-16.03,8.28,1.86,14.24,9.47,13.68,18.28-3.89,60.81-47.06,68-70.25,71.87-15.64,2.59-26.24-15-17.23-27.59h0ZM82.87,6.42c3.44-.2,4.85-3.41,7.71-3.41s4.23,3.21,7.66,3.41c-.72,3.45-2.5,5.8-5.17,6.9-1.9-.34-3.42-.43-5.56-.24-2.38-1.18-3.97-3.44-4.64-6.66ZM13.42,92.05c-1.04,2.83-3.43,4.72-7.01,5.46-.11-1.79-1.07-3.1-1.89-4.22-4.19-5.72,1.6-6.38,1.89-11.14,3.44.72,5.79,2.49,6.89,5.14-.14,1.57-.11,3.16.11,4.76h.01Z"/>
</svg>