<svg xmlns="http://www.w3.org/2000/svg" xmlns:xlink="http://www.w3.org/1999/xlink" version="1.1" x="0px" y="0px" viewBox="0 0 24 30" style="enable-background:new 0 0 24 24;" xml:space="preserve"><g><path d="M19,6.004c-0.007-0.007-0.014-0.012-0.021-0.019c0,0,0,0,0,0c0,0,0,0,0,0c-2.977-2.949-8.363-2.38-12.022,1.281   c-1.766,1.765-2.875,3.981-3.123,6.239c-0.251,2.291,0.409,4.352,1.861,5.804c0.006,0.006,0.014,0.012,0.02,0.018   c0.001,0.001,0.001,0.002,0.002,0.003c0,0,0.001,0,0.002,0.001c1.28,1.267,3.005,1.885,4.848,1.885   c2.441,0,5.087-1.082,7.172-3.167C21.405,14.379,21.972,8.977,19,6.004z M4.628,13.592c0.229-2.078,1.256-4.124,2.893-5.761   c1.932-1.932,4.373-2.939,6.604-2.939c1.517,0,2.922,0.488,4.018,1.445l-1.96,2.262c-1.035,1.195-2.396,2.022-3.933,2.393   c-2.933,0.708-5.262,2.952-6.078,5.856l-0.382,1.359C4.846,16.978,4.433,15.367,4.628,13.592z M17.849,7.899l-0.098,0.35   c-0.737,2.625-2.844,4.654-5.496,5.295c-1.701,0.411-3.205,1.326-4.349,2.647l-1.06,1.223l0.098-0.35   c0.737-2.627,2.843-4.655,5.495-5.296c1.7-0.409,3.205-1.325,4.351-2.647L17.849,7.899z M17.172,17.481   c-3.243,3.245-7.919,3.873-10.632,1.507l1.97-2.274c1.035-1.194,2.395-2.021,3.932-2.394c2.935-0.708,5.263-2.952,6.078-5.856   l0.382-1.36C21.01,9.848,20.313,14.339,17.172,17.481z"/><path d="M4.179,8.531c0.156-0.156,0.156-0.409,0-0.565L3.77,7.556C3.613,7.4,3.36,7.4,3.204,7.556s-0.156,0.409,0,0.565   l0.409,0.409c0.078,0.078,0.18,0.117,0.283,0.117S4.101,8.609,4.179,8.531z"/><path d="M2.208,6.004c-0.158-0.156-0.411-0.156-0.566,0c-0.156,0.156-0.156,0.41,0,0.566l0.409,0.409   c0.078,0.078,0.18,0.117,0.283,0.117S2.54,7.057,2.618,6.979c0.156-0.156,0.156-0.41,0-0.566L2.208,6.004z"/><path d="M3.487,7.096c0.102,0,0.205-0.039,0.283-0.117L4.179,6.57c0.156-0.156,0.156-0.41,0-0.566c-0.156-0.157-0.41-0.156-0.566,0   L3.204,6.413c-0.156,0.156-0.156,0.41,0,0.566C3.282,7.057,3.384,7.096,3.487,7.096z"/><path d="M2.052,7.556L1.643,7.965c-0.156,0.156-0.156,0.409,0,0.565c0.078,0.078,0.18,0.117,0.283,0.117S2.13,8.609,2.208,8.531   l0.409-0.409c0.156-0.156,0.156-0.409,0-0.565S2.208,7.4,2.052,7.556z"/><path d="M23.374,2.778c-0.156-0.156-0.41-0.156-0.566,0s-0.156,0.409,0,0.565l0.409,0.409C23.295,3.831,23.397,3.87,23.5,3.87   s0.205-0.039,0.283-0.117c0.156-0.156,0.156-0.409,0-0.565L23.374,2.778z"/><path d="M21.655,2.2c0.078,0.078,0.181,0.117,0.283,0.117s0.205-0.039,0.283-0.117c0.156-0.156,0.156-0.409,0-0.565l-0.409-0.409   c-0.156-0.156-0.41-0.156-0.566,0s-0.156,0.409,0,0.565L21.655,2.2z"/><path d="M23.091,2.317c0.103,0,0.205-0.039,0.283-0.117l0.409-0.409c0.156-0.156,0.156-0.409,0-0.565s-0.41-0.156-0.566,0   l-0.409,0.409c-0.156,0.156-0.156,0.409,0,0.565C22.886,2.278,22.988,2.317,23.091,2.317z"/><path d="M22.222,3.344c0.156-0.156,0.156-0.409,0-0.565s-0.41-0.156-0.566,0l-0.409,0.409c-0.156,0.156-0.156,0.409,0,0.565   c0.078,0.078,0.181,0.117,0.283,0.117s0.205-0.039,0.283-0.117L22.222,3.344z"/><path d="M22.39,22.372c-0.156-0.156-0.409-0.157-0.565-0.001s-0.157,0.409-0.001,0.565l0.408,0.409   c0.078,0.078,0.181,0.118,0.283,0.118s0.204-0.039,0.282-0.117c0.156-0.156,0.157-0.409,0.001-0.565L22.39,22.372z"/><path d="M20.827,20.818c-0.156-0.156-0.41-0.156-0.566,0s-0.156,0.41,0,0.566l0.409,0.409c0.078,0.078,0.181,0.117,0.283,0.117   s0.205-0.039,0.283-0.117c0.156-0.156,0.156-0.41,0-0.566L20.827,20.818z"/><path d="M22.231,20.819l-0.408,0.409c-0.156,0.156-0.155,0.409,0.001,0.565c0.078,0.078,0.18,0.117,0.282,0.117   s0.205-0.04,0.283-0.118l0.408-0.409c0.156-0.156,0.155-0.409-0.001-0.565S22.388,20.663,22.231,20.819z"/><path d="M20.67,22.371l-0.409,0.409c-0.156,0.156-0.156,0.41,0,0.566c0.078,0.078,0.181,0.117,0.283,0.117s0.205-0.039,0.283-0.117   l0.409-0.409c0.156-0.156,0.156-0.41,0-0.566S20.826,22.215,20.67,22.371z"/><path d="M2.345,2.206c-0.156-0.156-0.409-0.156-0.565,0s-0.156,0.409,0,0.565l0.409,0.409c0.078,0.078,0.18,0.117,0.283,0.117   s0.205-0.039,0.283-0.117c0.156-0.156,0.156-0.409,0-0.565L2.345,2.206z"/><path d="M0.783,0.654c-0.156-0.156-0.409-0.156-0.565,0s-0.156,0.409,0,0.565l0.409,0.409c0.078,0.078,0.18,0.117,0.283,0.117   s0.205-0.039,0.283-0.117c0.156-0.156,0.156-0.409,0-0.565L0.783,0.654z"/><path d="M2.188,0.654L1.779,1.063c-0.156,0.156-0.156,0.409,0,0.565c0.078,0.078,0.18,0.117,0.283,0.117s0.205-0.039,0.283-0.117   L2.754,1.22c0.156-0.156,0.156-0.409,0-0.565S2.345,0.498,2.188,0.654z"/><path d="M0.626,2.206L0.217,2.615c-0.156,0.156-0.156,0.409,0,0.565C0.295,3.259,0.397,3.298,0.5,3.298s0.205-0.039,0.283-0.117   l0.409-0.409c0.156-0.156,0.156-0.409,0-0.565S0.783,2.05,0.626,2.206z"/></g><text x="0" y="39" fill="#000000" font-size="5px" font-weight="bold" font-family="'Helvetica Neue', Helvetica, Arial-Unicode, Arial, Sans-serif">Created by Atif Arshad</text><text x="0" y="44" fill="#000000" font-size="5px" font-weight="bold" font-family="'Helvetica Neue', Helvetica, Arial-Unicode, Arial, Sans-serif">from the Noun Project</text></svg>