<?xml version="1.0" encoding="UTF-8"?>
<svg id="Capa_1" xmlns="http://www.w3.org/2000/svg" version="1.1" viewBox="0 0 17.12 17.12">
  <!-- Generator: Adobe Illustrator 29.6.1, SVG Export Plug-In . SVG Version: 2.1.1 Build 9)  -->
  <path d="M15.22,1.91s-.01-.01-.02-.02h0C12.22-1.06,6.83-.49,3.18,3.17,1.41,4.93.3,7.15.05,9.41c-.25,2.29.41,4.35,1.86,5.8,0,0,.01.01.02.02,0,0,0,0,0,0,0,0,0,0,0,0,1.28,1.27,3,1.89,4.85,1.89,2.44,0,5.09-1.08,7.17-3.17,3.67-3.67,4.23-9.07,1.26-12.04ZM.85,9.49c.23-2.08,1.26-4.12,2.89-5.76,1.93-1.93,4.37-2.94,6.6-2.94,1.52,0,2.92.49,4.02,1.45l-1.96,2.26c-1.03,1.19-2.4,2.02-3.93,2.39-2.93.71-5.26,2.95-6.08,5.86l-.38,1.36c-.94-1.23-1.36-2.84-1.16-4.61ZM14.07,3.8l-.1.35c-.74,2.62-2.84,4.65-5.5,5.3-1.7.41-3.2,1.33-4.35,2.65l-1.06,1.22.1-.35c.74-2.63,2.84-4.66,5.49-5.3,1.7-.41,3.2-1.32,4.35-2.65l1.06-1.22ZM13.39,13.38c-3.24,3.25-7.92,3.87-10.63,1.51l1.97-2.27c1.03-1.19,2.39-2.02,3.93-2.39,2.93-.71,5.26-2.95,6.08-5.86l.38-1.36c2.11,2.74,1.41,7.23-1.73,10.38Z"/>
</svg>