<?xml version="1.0" encoding="UTF-8"?>
<svg id="Capa_1" xmlns="http://www.w3.org/2000/svg" version="1.1" viewBox="0 0 83.78 88.49">
  <!-- Generator: Adobe Illustrator 29.6.1, SVG Export Plug-In . SVG Version: 2.1.1 Build 9)  -->
  <path d="M14.95,70.19c-.61,0-1.18-.38-1.41-.98-1.51-4.11-1.52-8.75-.03-13.77.23-.79,1.07-1.25,1.86-1.01.79.23,1.25,1.07,1.01,1.86-1.3,4.39-1.31,8.39-.03,11.89.29.78-.11,1.64-.89,1.93-.17.06-.35.09-.52.09h0Z"/>
  <path d="M68.89,47.97c-1.25-.8-2.83-1.3-4.66-1.51,7.81-9.98,25.07-33.87,17.81-41.5-1.23-1.29-3.18-1.96-5.81-1.98-7.87-.05-19.75,5.08-30.34,11.74.93-4.41,1.12-8.91.55-13.41-.09-.66-.59-1.18-1.25-1.29-.66-.1-1.3.23-1.59.83-1.96,4.07-4.34,7.2-6.85,10.52-3.86,5.11-7.85,10.39-10.2,19.2-.41.46-.81.93-1.22,1.4-1.71-6.2-4.21-12.69-7.64-17.81-.38-.56-1.09-.8-1.72-.59-.64.21-1.06.83-1.02,1.51,1.05,18.16-1.92,25.22-4.79,32.04-1.35,3.21-2.75,6.53-3.71,10.89-1.32,5.94.79,12,1.77,14.36l-7.76,7.54c-.29.28-.45.66-.45,1.06,0,.4.15.79.43,1.07l5.88,6c.28.29.67.45,1.07.45h.04c.41-.01.81-.19,1.09-.5l7.12-8c2.9,1.48,10.98,4.72,20.43.74,6.49-2.73,11.02-8.45,15.02-13.49,2.17-2.74,4.22-5.32,6.12-6.7,3.28-2.39,6.21-3.35,8.46-2.77,2.39.62,3.41,2.75,3.45,2.82.26.57.84.91,1.47.88.62-.04,1.16-.47,1.34-1.07.11-.36,2.57-8.87-2.99-12.45h0ZM31.36,29.83c.68-.69,1.39-1.36,2.11-2.03,2.3,1.55,4.61,3.26,6.93,5.13-.98.96-1.95,1.95-2.91,2.93-2.35-1.86-4.7-3.53-7.04-5.06.3-.32.6-.66.91-.96h0ZM45.55,18.44c2.01,1.31,3.99,2.73,5.93,4.23-1.19,1.03-2.39,2.09-3.59,3.18-2.03-1.68-4.07-3.29-6.11-4.82,1.24-.89,2.49-1.76,3.77-2.6ZM52.17,14.46c1.55,1.16,3.12,2.39,4.7,3.69-1.01.82-2.04,1.67-3.07,2.55-1.8-1.41-3.62-2.74-5.48-4,1.28-.78,2.56-1.53,3.85-2.24h0ZM58.52,11.21c1.2.91,2.4,1.85,3.59,2.83-.93.7-1.88,1.43-2.85,2.19-1.4-1.17-2.8-2.28-4.18-3.34,1.16-.6,2.3-1.15,3.43-1.68h0ZM65.85,8.21c.71.55,1.41,1.11,2.11,1.68-1.08.72-2.2,1.5-3.36,2.33-.99-.82-1.99-1.59-2.99-2.37,1.46-.62,2.87-1.16,4.24-1.63ZM79.37,16.32c-.47-.48-.93-.97-1.4-1.45,1.11-1.52,2.05-2.89,2.79-4.1-.12,1.53-.59,3.39-1.39,5.54h0ZM76.27,23.06c-.86-.89-1.72-1.78-2.59-2.64.88-1.08,1.7-2.13,2.48-3.13.66.67,1.32,1.34,1.96,2.03-.54,1.18-1.16,2.43-1.84,3.74h0ZM72.87,28.98c-1.14-1.19-2.29-2.35-3.42-3.47.8-.93,1.57-1.85,2.31-2.75,1.01.99,2,2.01,3,3.05-.59,1.03-1.22,2.09-1.89,3.18h0ZM68.84,35.14c-1.32-1.51-2.64-2.96-3.97-4.36.89-1.01,1.77-2.01,2.62-2.99,1.24,1.23,2.48,2.49,3.73,3.8-.75,1.16-1.55,2.35-2.38,3.55ZM64.36,41.36c-1.57-1.65-3.13-3.25-4.69-4.79,1.08-1.18,2.15-2.36,3.2-3.53,1.41,1.48,2.81,3.02,4.2,4.63-.87,1.21-1.77,2.44-2.71,3.69h0ZM59.06,46.55c-1.47-1.61-2.93-3.13-4.37-4.61.99-1.05,1.97-2.11,2.95-3.17,1.62,1.61,3.25,3.27,4.88,5-.68.88-1.37,1.75-2.08,2.64-.45.03-.91.08-1.38.14h0ZM75.84,12.83c-.93-.88-1.87-1.74-2.82-2.58,2.94-1.8,5.18-2.88,6.41-3.06-.46,1.15-1.71,3.1-3.59,5.64h0ZM74.02,15.23c-.77.99-1.6,2.04-2.5,3.14-1.5-1.41-3-2.78-4.52-4.1,1.19-.85,2.32-1.63,3.39-2.34,1.23,1.07,2.44,2.16,3.63,3.3h0ZM69.61,20.69c-.73.89-1.5,1.8-2.3,2.73-1.89-1.81-3.78-3.53-5.65-5.16.98-.76,1.93-1.48,2.86-2.18,1.71,1.47,3.41,3,5.09,4.6h0ZM65.35,25.71c-.83.96-1.69,1.95-2.58,2.95-2.15-2.14-4.33-4.14-6.55-6.01,1.03-.86,2.05-1.69,3.04-2.49,2.01,1.74,4.04,3.59,6.08,5.55h0ZM60.77,30.9c-1.05,1.18-2.13,2.37-3.24,3.59-2.44-2.34-4.87-4.57-7.3-6.66,1.23-1.11,2.46-2.18,3.67-3.21,2.33,1.93,4.61,4.04,6.88,6.29h0ZM55.51,36.7c-.95,1.04-1.93,2.08-2.91,3.13-2.59-2.56-5.16-4.91-7.7-7.07,1.04-.99,2.07-1.95,3.1-2.9,2.5,2.14,5,4.43,7.51,6.84h0ZM70.62,8.17c-.44-.36-.89-.7-1.33-1.06,1.82-.51,3.5-.85,4.98-1.02-1.12.57-2.34,1.27-3.64,2.07h0ZM39.26,22.9c2.14,1.58,4.27,3.25,6.4,5-1.03.96-2.07,1.93-3.09,2.92-2.27-1.84-4.54-3.53-6.79-5.07,1.13-.97,2.29-1.92,3.48-2.84h0ZM42.73,34.85c2.57,2.18,5.17,4.56,7.81,7.16-.93.98-1.88,1.97-2.83,2.96-2.62-2.6-5.25-5-7.89-7.21.97-.98,1.94-1.95,2.91-2.91h0ZM45.62,47.13c-1.04,1.07-2.1,2.14-3.16,3.21-2.66-2.61-5.25-4.98-7.8-7.13,1.01-1.11,2.03-2.2,3.06-3.28,2.64,2.2,5.27,4.6,7.9,7.2h0ZM40.34,52.47c-1.41,1.4-2.82,2.79-4.23,4.17-.02.02-.03.05-.05.08-2.49-2.39-4.95-4.61-7.36-6.61,1.29-1.57,2.61-3.13,3.97-4.66,2.51,2.12,5.06,4.45,7.68,7.02h0ZM28.06,46.18c-.14-1.48-.36-3.14-.66-4.93.98.73,1.96,1.49,2.95,2.28-.78.88-1.54,1.77-2.29,2.65h0ZM28.43,53.81c1.72,1.49,3.48,3.09,5.25,4.78-2.2,1.83-4.27,3.79-6.16,5.88,1.09-4.66,1.05-7.84.91-10.66h0ZM51.16,48.5c-.45-.48-.9-.95-1.36-1.41.94-.98,1.88-1.97,2.83-2.96.97.99,1.95,2.01,2.93,3.06-1.42.34-2.89.78-4.4,1.31ZM39.15,13.17c1.55-2.05,3.14-4.14,4.62-6.48-.02,3.53-.55,7.03-1.57,10.46-3.99,2.73-7.7,5.62-10.79,8.46,2.12-5,4.87-8.65,7.74-12.44h0ZM28.38,33.02c2.34,1.5,4.68,3.17,7.02,5.01-1.03,1.08-2.04,2.17-3.04,3.27-1.95-1.56-3.87-3.01-5.79-4.34-.1-.48-.21-.95-.32-1.44.7-.85,1.41-1.68,2.14-2.5h0ZM69.51,56.47c-.79-.65-1.8-1.25-3.06-1.58-3.21-.86-6.92.23-11.03,3.23-2.22,1.62-4.3,4.23-6.7,7.26-3.78,4.76-8.05,10.15-13.83,12.59-10.11,4.26-18.42-.91-18.77-1.13-.62-.4-1.44-.29-1.93.27l-6.86,7.7-3.7-3.78,7.43-7.22c.47-.45.59-1.16.3-1.74-.04-.07-3.41-6.99-1.98-13.4.91-4.1,2.2-7.15,3.55-10.38,2.65-6.31,5.39-12.81,5.24-27.23,4.99,10.32,7.12,23.35,7.12,29.02,0,1.02.05,2.01.11,3.03.23,4.32.46,8.8-3.25,18.45-.27.72.04,1.53.72,1.88.68.35,1.52.12,1.94-.52,12.44-19.23,35.79-26.71,42.47-22.41,2.02,1.3,2.35,3.9,2.24,5.98h0Z"/>
</svg>