<?xml version="1.0" encoding="UTF-8"?>
<svg id="Capa_1" xmlns="http://www.w3.org/2000/svg" version="1.1" viewBox="0 0 150 96.16">
  <!-- Generator: Adobe Illustrator 29.6.1, SVG Export Plug-In . SVG Version: 2.1.1 Build 9)  -->
  <path d="M68.26,33.64c-4.68,0-8.48,3.81-8.48,8.5s3.8,8.5,8.48,8.5,8.48-3.81,8.48-8.5-3.8-8.5-8.48-8.5ZM68.26,45.63c-1.92,0-3.48-1.57-3.48-3.5s1.56-3.5,3.48-3.5,3.48,1.57,3.48,3.5-1.56,3.5-3.48,3.5Z"/>
  <path d="M149.52,4.61c-.47-.65-1.22-1.03-2.02-1.03h-11.47c-2.09-2.2-5.04-3.58-8.3-3.58h-13.55c-3.26,0-6.21,1.38-8.3,3.58h-11.47c-.8,0-1.56.38-2.03,1.03-.47.65-.6,1.49-.35,2.25.25.75.64,1.82,1.21,2.98h-59.2c-6.17-.03-12.02,2.33-16.44,6.66l-2.44,1.27C5.81,22.64,0,31.82,0,41.72v29.74c0,1.38,1.12,2.5,2.5,2.5s2.5-1.12,2.5-2.5v-29.74c0-5.7,2.42-11.12,6.57-15.22-.63,2.13-.96,4.37-.96,6.66v10.81c0,.45.09.89.25,1.31l3.36,8.35-5.82,8.88c-.38.57-.57,1.24-.57,1.92v28.23c0,1.93,1.57,3.5,3.5,3.5h11.07c1.82,0,3.34-1.4,3.49-3.22l.69-8.61,3.88,9.63c.53,1.33,1.82,2.19,3.25,2.19h11.31c1.08,0,2.11-.5,2.77-1.36.66-.86.89-1.98.62-3.03l-4.83-18.42c1.59.63,3.26,1.07,4.96,1.29v4.81c0,1.38,1.12,2.5,2.5,2.5s2.5-1.12,2.5-2.5v-4.81c1.51-.19,2.98-.54,4.38-1.05v2.77c0,1.38,1.12,2.5,2.5,2.5s2.5-1.12,2.5-2.5v-5.43c1.86-1.36,3.5-3.03,4.82-4.98,1.81.15,3.64.23,5.48.23.54,0,1.08-.02,1.62-.03l2.97,26.89c.19,1.77,1.69,3.12,3.48,3.12h10.07c1.87,0,3.41-1.47,3.5-3.34l1.21-25.8,2.09,25.92c.15,1.82,1.66,3.22,3.49,3.22h10.81c1.93,0,3.5-1.57,3.5-3.5v-40.74c1.93-1.64,3.67-3.39,5.15-5.14h3.25c4.72,0,8.55-3.85,8.55-8.57v-5.86l4.55-5.91c1.15-1.49,1.78-3.35,1.78-5.24v-4.46c.27.03.54.05.79.05.68,0,1.29-.1,1.81-.24,4.82-1.29,7.24-7.19,8.05-9.67.25-.76.12-1.6-.35-2.25ZM140.53,11.7c-.68.18-1.45-.02-2.3-.59v-2.54h5.46c-.97,1.69-2.11,2.84-3.15,3.12ZM125.89,31.14v7.05c0,.87-.7,1.57-1.55,1.57h-6.77c-.86,0-1.55-.71-1.55-1.57v-7.05c0-.77-.25-1.52-.73-2.13l-5.28-6.85c-.21-.27-.33-.62-.33-.97v-9.65c0-2.5,2.02-4.53,4.49-4.53h5.59v1.53c0,5.11,3,9.79,7.64,11.92l4.28,1.96-5.07,6.59c-.47.61-.73,1.36-.73,2.13ZM94.65,20.73c0,5.44-4.42,9.88-9.84,9.88s-9.84-4.43-9.84-9.88c0-1.35.29-2.67.82-3.89h18.07c.52,1.22.8,2.55.8,3.89ZM98.23,8.58h5.46v2.54c-.86.57-1.63.77-2.31.59-1.04-.28-2.18-1.44-3.15-3.12ZM132.22,11.53v5.63l-2.73-1.25c-2.87-1.32-4.72-4.21-4.72-7.38v-1.53h2.96c2.48,0,4.49,2.03,4.49,4.53ZM42.42,16.84c.28,1.15.44,2.33.44,3.53,0,8.06-6.54,14.62-14.58,14.62-3.96,0-7.72-1.64-10.45-4.46.54-3.39,2.12-6.52,4.6-8.98,3.1-3.08,7.17-4.78,11.59-4.72h8.4ZM19.16,89.16h-4.34v-23.68l2.58-3.93,3.31,8.24-1.56,19.38ZM59.08,67.49s-.07.04-.1.06c-2.35,1.44-5.08,2.26-7.96,2.26-3.02,0-5.96-.93-8.44-2.58,1.85-1.78,3.68-3.83,5.3-6.31,4.24,1.97,9,3.42,14.03,4.3-.85.87-1.8,1.63-2.83,2.27ZM84.41,89.16l-2.59-23.44c2.5-.27,4.94-.65,7.33-1.15l-1.15,24.58h-3.6ZM108.94,89.16h-4.08l-2.59-32.07c-.13-1.56-1.28-2.85-2.81-3.15-3.06-.6-4.61-2.71-4.61-6.25,0-1.93-1.57-3.5-3.5-3.5s-3.5,1.57-3.5,3.5c0,4.08,1.32,7.11,3.26,9.24-5.58,1.5-11.57,2.26-17.89,2.26-8.05,0-15.79-1.59-22.15-4.51,2.09-5.5,3.12-12.51,2.06-21.74-.22-1.92-1.96-3.3-3.88-3.08-1.92.22-3.3,1.96-3.08,3.88,1.96,17.13-4.1,24.85-10.29,30.14-1.02.87-1.45,2.25-1.11,3.55l5.7,21.74h-4.41l-14.68-36.49s0,0,0,0l-3.77-9.37v-6.48c3.14,2.05,6.84,3.19,10.68,3.19,10.8,0,19.58-8.8,19.58-19.62,0-1.2-.13-2.38-.34-3.53h22.96c-.34,1.26-.52,2.56-.52,3.89,0,8.2,6.66,14.88,14.84,14.88s14.84-6.67,14.84-14.88c0-1.32-.18-2.63-.52-3.89h3.55v4.35c0,1.89.63,3.75,1.78,5.24l4.55,5.91v5.86c0,2.97,1.51,5.58,3.8,7.12-.78.73-1.63,1.46-2.56,2.2-.05.04-.08.08-.13.12-.1.08-.19.17-.28.27-.07.08-.14.16-.2.25-.07.1-.14.19-.2.29-.06.09-.11.19-.15.29-.05.11-.1.21-.14.32-.04.1-.07.21-.1.31-.03.11-.05.22-.07.34-.02.12-.03.23-.04.35,0,.07-.02.13-.02.2v38.89h0Z"/>
</svg>