<?xml version="1.0" encoding="UTF-8"?>
<svg id="Capa_1" xmlns="http://www.w3.org/2000/svg" version="1.1" viewBox="0 0 110 94.42">
  <!-- Generator: Adobe Illustrator 29.6.1, SVG Export Plug-In . SVG Version: 2.1.1 Build 9)  -->
  <defs>
    <style>
      .st0 {
        fill-rule: evenodd;
      }
    </style>
  </defs>
  <path class="st0" d="M9,33.56v11.84c0,2.36.94,4.61,2.6,6.28.74.74,1.6,1.34,2.53,1.77v30.24c0,2.07,1.68,3.75,3.75,3.75s3.75-1.68,3.75-3.75v-30.24c.93-.43,1.79-1.03,2.53-1.77,1.66-1.66,2.6-3.92,2.6-6.28v-11.84c0-.55-.45-1-1-1s-1,.45-1,1v11.84c0,1.82-.73,3.57-2.02,4.86-.7.7-1.54,1.24-2.46,1.58-.39.14-.65.52-.65.94v30.91c0,.96-.78,1.75-1.75,1.75s-1.75-.79-1.75-1.75v-30.91c0-.42-.26-.79-.65-.94-.92-.34-1.76-.88-2.47-1.58-1.29-1.29-2.01-3.04-2.01-4.86v-11.84c0-.55-.45-1-1-1s-1,.45-1,1h0ZM88.37,53.28v30.41c0,1,.39,1.95,1.1,2.65.7.7,1.65,1.1,2.65,1.1s1.95-.39,2.65-1.1c.71-.7,1.1-1.66,1.1-2.65v-30.41c3-1.69,5.13-5.41,5.13-9.74,0-5.98-4.04-10.74-8.88-10.74s-8.88,4.76-8.88,10.74c0,4.34,2.13,8.05,5.13,9.74ZM55,32.56c-15.15,0-27.44,12.3-27.44,27.44s12.29,27.44,27.44,27.44,27.44-12.3,27.44-27.44-12.3-27.44-27.44-27.44ZM90.37,52.67c0-.39-.23-.74-.58-.91-2.69-1.24-4.55-4.47-4.55-8.23,0-4.77,3.02-8.74,6.88-8.74s6.88,3.97,6.88,8.74c0,3.75-1.86,6.98-4.55,8.23-.35.16-.58.52-.58.91v31.02c0,.46-.18.91-.51,1.24-.33.33-.78.51-1.24.51s-.91-.18-1.24-.51c-.33-.33-.51-.77-.51-1.24v-31.02ZM55,34.56c14.04,0,25.44,11.4,25.44,25.44s-11.4,25.44-25.44,25.44-25.44-11.4-25.44-25.44,11.4-25.44,25.44-25.44ZM53.72,72.86c.85.31,1.68.43,2.48.5,1.2.09,2.33,0,3.42.34,2.53.8,5.89,2.7,10.21.36h.01s.02-.02.02-.02c2.97-1.72,3.46-4.01,3.69-6.11.11-1.05.1-2.05.59-2.78,1.55-2.36,2.57-5.28,1.92-7.98-.93-3.79-3.66-5.87-6.46-6.15-2.3-.22-4.3-.41-6.55-1.71-1.03-.59-2.29-1-3.68-1.05-.82-1.75-2.41-3.04-4.49-3.78-3.08-1.09-7.27-.95-11.41.71-4.15,1.66-7.28,4.45-8.76,7.36-1.06,2.1-1.29,4.27-.52,6.2.6,1.48,1.71,2.66,3.2,3.48,1,3.33,2.68,7.52,4.91,12.39.6,1.33,2.15,1.95,3.52,1.41l7.9-3.16ZM57.19,48.47c-.67-.95-1.71-1.65-2.98-2.1-2.69-.96-6.37-.77-10,.68-3.63,1.45-6.42,3.86-7.71,6.41-.79,1.54-1.01,3.13-.45,4.55.47,1.16,1.4,2.04,2.62,2.64.26.12.45.35.53.62.95,3.32,2.65,7.56,4.91,12.53.17.36.59.53.96.38l6.4-2.55c-4.12-3.16-6.76-10.26-1.9-17.28,2.49-3.59,5.17-5.31,7.62-5.87h0ZM68.87,72.31c2.21-1.29,2.52-3.03,2.69-4.59.16-1.39.27-2.68.91-3.66,1.25-1.91,2.17-4.23,1.64-6.41-.68-2.8-2.63-4.43-4.71-4.63-2.58-.25-4.82-.51-7.35-1.98-2.62-1.52-6.95-1.19-10.84,4.43-4.13,5.97-1.94,12.02,1.58,14.64,1.54,1.14,2.96,1.24,4.29,1.3,1.09.05,2.13.07,3.15.39,2.14.68,4.98,2.49,8.64.5h0ZM62.72,67.94c3.42-.96,5.42-4.46,4.48-7.78-.94-3.32-4.47-5.25-7.89-4.28-3.43.97-5.42,4.46-4.49,7.78.94,3.32,4.47,5.25,7.9,4.28ZM62.17,66.02c-2.34.66-4.78-.62-5.42-2.9-.64-2.27.76-4.65,3.1-5.31,2.35-.66,4.78.63,5.43,2.9.64,2.28-.76,4.65-3.11,5.31ZM14.24,33.79v12.68c0,.55.45,1,1,1s1-.45,1-1v-12.68c0-.55-.45-1-1-1s-1,.45-1,1ZM19.52,33.79v12.68c0,.55.45,1,1,1s1-.45,1-1v-12.68c0-.55-.45-1-1-1s-1,.45-1,1Z"/>
</svg>