<?xml version="1.0" encoding="UTF-8"?>
<svg id="Capa_1" xmlns="http://www.w3.org/2000/svg" version="1.1" viewBox="0 0 72.46 90">
  <!-- Generator: Adobe Illustrator 29.6.1, SVG Export Plug-In . SVG Version: 2.1.1 Build 9)  -->
  <defs>
    <style>
      .st0 {
        fill: none;
      }
    </style>
  </defs>
  <path class="st0" d="M58.28,19.05c-6.2-9.3-14.04-14.42-22.05-14.42s-15.85,5.12-22.05,14.42c-6.07,9.09-9.54,20.7-9.54,31.84s3.2,19.43,9.27,25.61c5.61,5.71,13.54,8.86,22.33,8.86s16.72-3.15,22.33-8.86c6.06-6.18,9.27-15.03,9.27-25.61,0-11.15-3.48-22.75-9.54-31.84ZM36.23,12.44c-5.25,0-10.92,3.99-15.56,10.95-.45.67-1.18,1.03-1.93,1.03-.44,0-.89-.13-1.28-.39-1.07-.71-1.35-2.15-.64-3.22,5.52-8.27,12.59-13.01,19.42-13.01,1.28,0,2.32,1.04,2.32,2.32s-1.04,2.32-2.32,2.32Z"/>
  <path d="M62.14,16.48c-3.34-5.01-7.18-8.98-11.42-11.81-4.63-3.1-9.51-4.67-14.49-4.67s-9.86,1.57-14.49,4.67c-4.24,2.83-8.08,6.81-11.42,11.81C3.76,26.31,0,38.86,0,50.9s3.67,21.8,10.6,28.86c6.49,6.61,15.59,10.25,25.63,10.25s19.15-3.64,25.63-10.25c6.93-7.06,10.6-17.04,10.6-28.86,0-12.04-3.76-24.58-10.32-34.42ZM58.56,76.5c-5.61,5.71-13.54,8.86-22.33,8.86s-16.72-3.15-22.33-8.86c-6.06-6.18-9.27-15.03-9.27-25.61,0-11.15,3.48-22.75,9.54-31.84,6.2-9.3,14.04-14.42,22.05-14.42s15.85,5.12,22.05,14.42c6.07,9.09,9.54,20.7,9.54,31.84s-3.21,19.43-9.27,25.61Z"/>
  <path d="M36.23,7.8c-6.83,0-13.9,4.74-19.42,13.01-.71,1.07-.42,2.5.64,3.22.4.26.84.39,1.28.39.75,0,1.48-.36,1.93-1.03,4.64-6.96,10.31-10.95,15.56-10.95,1.28,0,2.32-1.04,2.32-2.32s-1.04-2.32-2.32-2.32Z"/>
</svg>