<svg xmlns="http://www.w3.org/2000/svg" xmlns:xlink="http://www.w3.org/1999/xlink" version="1.1" x="0px" y="0px" viewBox="0 0 100 125" enable-background="new 0 0 100 100" xml:space="preserve"><g><path fill="none" d="M72.053,24.054C65.849,14.756,58.017,9.636,50,9.636c-8.017,0-15.849,5.121-22.053,14.419   c-6.065,9.09-9.543,20.696-9.543,31.843c0,10.578,3.205,19.433,9.269,25.608c5.61,5.713,13.539,8.859,22.327,8.859   c8.788,0,16.717-3.146,22.327-8.859c6.064-6.175,9.269-15.03,9.269-25.608C81.596,44.751,78.117,33.144,72.053,24.054z M50,17.437   c-5.249,0-10.921,3.99-15.563,10.947c-0.447,0.669-1.182,1.032-1.93,1.032c-0.442,0-0.889-0.126-1.284-0.39   c-1.065-0.711-1.352-2.15-0.642-3.215c5.517-8.268,12.595-13.01,19.419-13.01c1.28,0,2.318,1.038,2.318,2.318   C52.318,16.4,51.28,17.437,50,17.437z"/><path d="M75.909,21.481c-3.341-5.007-7.183-8.982-11.42-11.815C59.858,6.57,54.983,5,50,5c-4.983,0-9.858,1.57-14.489,4.667   c-4.237,2.833-8.079,6.808-11.42,11.815c-6.56,9.833-10.323,22.377-10.323,34.416c0,11.818,3.665,21.796,10.597,28.856   C30.854,91.361,39.958,95,50,95c10.042,0,19.146-3.639,25.634-10.246c6.933-7.06,10.597-17.038,10.597-28.856   C86.232,43.858,82.469,31.314,75.909,21.481z M72.327,81.505c-5.61,5.713-13.539,8.859-22.327,8.859   c-8.788,0-16.717-3.146-22.327-8.859c-6.064-6.175-9.269-15.03-9.269-25.608c0-11.147,3.478-22.753,9.543-31.843   C34.151,14.756,41.983,9.636,50,9.636c8.017,0,15.849,5.121,22.053,14.419c6.065,9.09,9.543,20.696,9.543,31.843   C81.596,66.475,78.391,75.331,72.327,81.505z"/><path d="M50,12.801c-6.825,0-13.903,4.742-19.419,13.01c-0.711,1.065-0.423,2.504,0.642,3.215c0.395,0.264,0.842,0.39,1.284,0.39   c0.749,0,1.483-0.362,1.93-1.032C39.079,21.427,44.751,17.437,50,17.437c1.28,0,2.318-1.038,2.318-2.318   C52.318,13.839,51.28,12.801,50,12.801z"/></g><text x="0" y="115" fill="#000000" font-size="5px" font-weight="bold" font-family="'Helvetica Neue', Helvetica, Arial-Unicode, Arial, Sans-serif">Created by Alena Artemova</text><text x="0" y="120" fill="#000000" font-size="5px" font-weight="bold" font-family="'Helvetica Neue', Helvetica, Arial-Unicode, Arial, Sans-serif">from the Noun Project</text></svg>