<?xml version="1.0" encoding="UTF-8"?>
<svg id="Capa_1" xmlns="http://www.w3.org/2000/svg" version="1.1" xmlns:serif="http://www.serif.com/" viewBox="0 0 32 31.93">
  <!-- Generator: Adobe Illustrator 29.6.1, SVG Export Plug-In . SVG Version: 2.1.1 Build 9)  -->
  <defs>
    <style>
      .st0 {
        fill-rule: evenodd;
      }
    </style>
  </defs>
  <path class="st0" d="M8.65,4.14l-1.76,3.19c-.21.38-.32.82-.32,1.26v17.26c0,.56.17,1.1.51,1.55.73.98,2.16,2.91,2.16,2.91.1.13.24.2.4.2h12.73c.16,0,.3-.07.4-.2,0,0,1.43-1.93,2.16-2.91.33-.45.51-.99.51-1.55V8.57c0-.43-.1-.86-.31-1.24l-1.75-3.22c.28-.26.46-.63.46-1.04v-.17c0-.78-.63-1.4-1.4-1.4h-12.87c-.77,0-1.4.63-1.4,1.4v.17c0,.42.19.81.48,1.06ZM8.06,27.03h15.89l-1.83,2.47h-12.23l-1.83-2.47ZM24.44,17.76v8.08c0,.06,0,.13-.01.19H7.58c0-.06,0-.13,0-.19v-1.86l16.87-6.21ZM24.44,16.7v-5.04l-16.87,6.21v5.04l16.87-6.21h0ZM24.44,8.54v2.05h0s-16.87,6.21-16.87,6.21v-8.26h16.87ZM9.61,4.48l-1.7,3.06h16.19l-1.66-3.06h-12.83ZM22.44,3.48h-12.87c-.22,0-.4-.18-.4-.4v-.17c0-.22.18-.4.4-.4h12.87c.22,0,.4.18.4.4v.17c0,.22-.18.4-.4.4Z"/>
</svg>