<?xml version="1.0" encoding="UTF-8"?>
<svg id="Capa_1" xmlns="http://www.w3.org/2000/svg" version="1.1" viewBox="0 0 37.74 23.92">
  <!-- Generator: Adobe Illustrator 29.6.1, SVG Export Plug-In . SVG Version: 2.1.1 Build 9)  -->
  <path d="M37.72,17.92v-.3c-.3-2.8-1.3-5.6-2.8-8-.6-3.9-6.9-6.7-8.5-7.4-.4-.7-1.1-1.2-1.9-1.3l-3.3-.7c-1.5-.3-3.2-.3-4.7,0l-3.3.7c-.8.2-1.5.7-1.9,1.3-1.6.7-7.9,3.5-8.5,7.4C1.32,12.02.32,14.83.02,17.52v.3c-.2,2.3,1,4.4,3.1,5.5.8.4,1.7.6,2.5.6,1.4,0,2.9-.6,4-1.6.7-.7,1.3-1.2,2-1.7,1.3-.5,2.6-1.4,3.2-1.9.5.3,1,.5,1.6.5.2,0,.4,0,.6-.1h.2c1.2-.2,2.4-.2,3.6,0h.2c.8.2,1.5,0,2.2-.4.6.4,1.9,1.3,3.2,1.9.6.5,1.3,1,2,1.7,1.1,1.1,2.5,1.6,4,1.6.8,0,1.7-.2,2.5-.6,1.9-1.1,3-3.2,2.8-5.4ZM8.12,20.82c-1.4,1.3-3.1,1.2-4.2.7s-2.1-1.7-2-3.6v-.1c.2-1.7.6-3.4,1.3-5,0,.1.1.1.1.2.1.3.2.5.4.8,0,.1.1.1.1.2.2.3.3.6.5.9,0,.1.1.1.1.2.2.2.3.5.5.7q.1.1.2.2c.2.3.4.6.7.8,0,.1.1.1.1.2.2.2.4.4.6.7q.1.1.2.2c.2.2.5.5.7.7l.1.1c.2.2.4.4.6.5q.1.1.2.2c.2.2.4.4.6.5.1,0,.1.1.2.1-.4.2-.7.5-1,.8ZM10.72,18.72s-.1,0-.1-.1c0,0-.1,0-.2-.1-.1,0-.1-.1-.2-.1s-.1-.1-.2-.1q-.1-.1-.2-.2t-.2-.2c-.1-.1-.2-.1-.2-.2-.1-.1-.2-.1-.2-.2-.1-.1-.2-.2-.3-.3-.1-.1-.2-.2-.2-.2-.1-.1-.2-.2-.3-.3-.1-.1-.2-.2-.2-.3-.1-.1-.2-.2-.3-.3-.1-.1-.2-.2-.2-.3-.1-.1-.2-.3-.3-.4s-.1-.2-.2-.2c-.1-.1-.2-.3-.3-.4s-.1-.1-.2-.2c-.1-.2-.2-.3-.3-.5,0-.1-.1-.1-.1-.2-.1-.2-.2-.3-.3-.5,0-.1-.1-.1-.1-.2l-.3-.6s0-.1-.1-.1l-.3-.6v-.1c-.1-.2-.1-.4-.2-.6v-.1c-.1-.2-.1-.4-.1-.6h0v-.5c.2-2.1,3.7-4.3,6.5-5.6l1.8,10.9.3,1.4c0,.1.1.3.1.4-.8.4-1.8,1.1-2.9,1.6ZM16.62,17.12h-.2c-.3.1-.7-.1-.9-.3-.1-.1-.2-.3-.2-.5l-2.3-13.1c.1-.2.3-.3.6-.4l3.3-.7c1.3-.3,2.6-.3,3.9,0l3.3.7h0c.2.1.4.2.6.4l-2,11.7-.3,1.4c0,.2-.1.3-.2.5-.2.3-.6.4-1,.3h-.2c-1.5-.3-2.9-.3-4.4,0ZM24.32,16.72l2.1-12.3c2.4,1.1,6.3,3.4,6.5,5.6v.7c0,.1,0,.3-.1.4q0,.1-.1.2c0,.1-.1.3-.1.4s-.1.2-.1.2c-.1.1-.1.3-.2.4,0,.1-.1.2-.1.2-.1.1-.2.3-.2.4s-.1.2-.2.2c-.1.1-.2.3-.3.4s-.1.2-.2.2c-.1.1-.2.3-.3.4s-.1.2-.2.2c-.1.1-.2.3-.3.4s-.1.2-.2.2c-.1.1-.2.3-.3.4s-.1.2-.2.2c-.1.1-.2.3-.3.4s-.1.2-.2.2c-.1.1-.2.2-.3.3q-.1.1-.2.2c-.1.1-.2.2-.3.3q-.1.1-.2.2c-.1.1-.2.2-.3.2q-.1.1-.2.2c-.1.1-.2.1-.2.2-.1,0-.1.1-.2.1s-.1.1-.2.1-.1.1-.1.1c0,0-.1,0-.1.1-1.1-.5-2.2-1.2-2.7-1.5,0,.4,0,.3,0,.1ZM33.82,21.52c-1.1.5-2.8.6-4.2-.7-.3-.3-.6-.6-.9-.8.1,0,.1-.1.2-.1.2-.1.4-.3.6-.5.1,0,.1-.1.2-.1.2-.2.4-.4.6-.6l.1-.1.7-.7q.1-.1.2-.2c.2-.2.4-.4.6-.7,0-.1.1-.1.1-.2.2-.3.4-.6.7-.8q.1-.1.2-.2c.2-.2.3-.5.5-.7,0-.1.1-.1.1-.2.2-.3.4-.6.5-.9,0-.1.1-.1.1-.2.1-.2.3-.5.4-.7,0-.1.1-.1.1-.2.7,1.6,1.2,3.3,1.3,5v.2c0,1.7-1.1,2.9-2.1,3.4ZM20.22,4.22c-.6,0-.6-1,0-1,1.8,0,2.7,1.7,2.5,3.3-.1.6-1.1.6-1,0,.1-1-.3-2.3-1.5-2.3ZM22.52,8.92v.7c0,.6-1,.6-1,0v-.7c0-.7,1-.7,1,0Z"/>
</svg>