<?xml version="1.0" encoding="UTF-8"?>
<svg id="Capa_1" xmlns="http://www.w3.org/2000/svg" version="1.1" viewBox="0 0 90.62 90.94">
  <!-- Generator: Adobe Illustrator 29.6.1, SVG Export Plug-In . SVG Version: 2.1.1 Build 9)  -->
  <path d="M87.58,29.22c-2.03-2.03-6.41-3.28-10.47-4.06.47-1.41.78-2.81.78-4.38,0-4.06-1.72-7.5-4.53-9.84,1.88-3.59,4.84-7.81,8.28-7.81.94,0,1.56-.62,1.56-1.56s-.62-1.56-1.56-1.56c-5,0-8.75,5.16-10.94,9.22-1.41-.62-2.97-.94-4.53-.94s-3.12.31-4.53.94C59.45,5.31,55.7.16,50.7.16c-.94,0-1.56.62-1.56,1.56s.62,1.56,1.56,1.56c3.28,0,6.41,4.06,8.28,7.81-2.66,2.34-4.53,5.94-4.53,9.84,0,1.56.31,2.97.78,4.38-4.06.78-8.44,2.03-10.47,4.06-4.06,4.06-4.06,10.62,0,14.84,2.03,2.03,4.69,3.12,7.34,3.12.47,0,.78,0,1.25-.16-.16,4.69.16,8.91.94,12.34v.16c1.09,4.69,3.28,8.12,6.41,10.31v.16c0,4.69,4.38,8.28,4.53,8.44.31.31.62.31.94.31s.78-.16.94-.31,4.53-3.75,4.53-8.44c1.09-.62,1.88-1.56,2.81-2.5v-.16c1.56-2.03,2.81-4.53,3.59-7.66v-.16c.78-3.44,1.09-7.66.94-12.34.47,0,.78.16,1.25.16,2.81,0,5.47-1.09,7.34-3.12,4.06-4.38,4.06-11.09,0-15.16h0ZM46.95,41.87c-2.81-2.81-2.81-7.5,0-10.31,2.03-2.03,9.22-3.44,14.22-3.91-.62,5.16-2.03,12.34-3.91,14.22-2.81,2.81-7.34,2.81-10.31,0h0ZM75.55,56.41c-2.81-1.72-5.94-2.5-9.22-2.5s-6.41.94-9.22,2.5c-.31-1.72-.47-3.28-.47-5,2.66-2.34,6.09-3.59,9.69-3.59s7.03,1.25,9.69,3.59c-.16,1.56-.31,3.28-.47,5h0ZM72.74,64.22c-4.22-1.56-8.91-1.56-13.12,0-.94-1.41-1.56-2.97-2.03-4.53,2.5-1.72,5.47-2.66,8.59-2.66s6.09.94,8.59,2.66c-.47,1.56-1.09,3.12-2.03,4.53h0ZM66.17,68.59c-1.72-.31-3.12-1.09-4.22-2.03,2.81-.78,5.78-.78,8.59,0-1.25,1.09-2.66,1.72-4.37,2.03ZM66.17,74.84c-.78-.78-1.72-2.03-2.03-3.44l1.88.47h.62l1.88-.47c-.62,1.41-1.56,2.66-2.34,3.44ZM75.86,47.5c-2.97-1.88-6.25-2.81-9.69-2.81s-6.88.94-9.69,2.81v-1.41c1.09-.47,2.03-1.25,2.97-2.03,3.75-3.75,4.84-16.72,5-18.12,0-.47-.16-.94-.47-1.25s-.78-.47-1.25-.47-2.19.16-4.53.47c-.47-1.25-.78-2.5-.78-3.91,0-2.66,1.09-5.16,2.66-6.88.16.47.31.78.47,1.09.16.62.78,1.09,1.41,1.09.16,0,.31,0,.47-.16.78-.31,1.25-1.25.94-2.03-.16-.31-.31-.94-.78-1.88.94-.47,2.03-.62,3.28-.62,1.09,0,2.19.31,3.28.62-.47.94-.62,1.72-.78,1.88-.31.78.16,1.72.94,2.03.16,0,.31.16.47.16.62,0,1.25-.47,1.41-1.09.16-.31.31-.78.47-1.09,1.72,1.72,2.66,4.22,2.66,6.88,0,1.41-.31,2.66-.78,3.91-2.19-.31-4.06-.47-4.53-.47s-.94.16-1.25.47-.47.78-.47,1.25c.16,1.41,1.25,14.38,5,18.12.94.94,1.88,1.56,2.97,2.03.62.47.62.94.62,1.41h0ZM85.39,41.87c-1.41,1.41-3.28,2.19-5.16,2.19-2.03,0-3.75-.78-5.16-2.19-2.03-2.03-3.44-9.22-3.91-14.22,5.16.62,12.34,2.03,14.22,3.91,2.97,2.81,2.97,7.34,0,10.31h0Z"/>
  <path d="M9.61,60.62h3.12c.94,0,1.56-.62,1.56-1.56s-.62-1.56-1.56-1.56h-2.19l-1.09-2.03c-.47-.78-1.41-.94-2.19-.62-.78.62-.94,1.56-.62,2.19l1.56,2.66c.31.62.78.94,1.41.94h0Z"/>
  <path d="M45.7,63.75c-.31-.47-.78-.78-1.41-.78h-8.59l-4.22-7.5c-.31-.47-.78-.78-1.41-.78h-8.59l-4.22-7.34c-.31-.47-.78-.78-1.41-.78H6.33c-.62,0-1.09.31-1.41.78L.23,55.62c-.31.47-.31,1.09,0,1.56l4.38,7.5L.23,72.03c-.31.47-.31,1.09,0,1.56l4.69,8.28c.31.47.78.78,1.41.78h8.59l4.22,7.5c.31.47.78.78,1.41.78h9.53c.62,0,1.09-.31,1.41-.78l4.22-7.5h8.59c.62,0,1.09-.31,1.41-.78l4.69-8.28c.31-.47.31-1.09,0-1.56l-4.69-8.28ZM33.05,64.53l-3.91,6.72h-7.66l-3.91-6.72,3.91-6.72h7.66l3.91,6.72ZM7.27,49.69h7.66l3.91,6.72-3.91,6.72h-7.66l-3.91-6.72,3.91-6.72ZM3.52,72.81l3.91-6.72h7.66l3.91,6.72-3.91,6.72h-7.81l-3.75-6.72ZM29.3,87.66h-7.66l-3.91-6.72,3.91-6.72h7.66l3.91,6.72-3.91,6.72ZM43.52,79.37h-7.66l-3.91-6.72,3.91-6.72h7.66l3.91,6.72-3.91,6.72Z"/>
  <path d="M27.11,80.16l-1.09,1.88h-2.19c-.94,0-1.56.62-1.56,1.56s.62,1.56,1.56,1.56h3.12c.62,0,1.09-.31,1.41-.78l1.56-2.66c.47-.78.16-1.72-.62-2.19-.78-.31-1.72,0-2.19.62h0Z"/>
</svg>