<?xml version="1.0" encoding="UTF-8"?>
<svg id="Capa_1" xmlns="http://www.w3.org/2000/svg" version="1.1" viewBox="0 0 51.41 82.68">
  <!-- Generator: Adobe Illustrator 29.6.1, SVG Export Plug-In . SVG Version: 2.1.1 Build 9)  -->
  <path d="M46.06,20.26c-.06-11.18-9.17-20.26-20.36-20.26S5.4,9.08,5.34,20.26c-3.22,1.4-5.34,4.59-5.34,8.14,0,4.9,3.99,8.88,8.88,8.88.8,0,1.58-.11,2.34-.31l13.52,44.99c.13.42.52.71.96.71s.83-.29.96-.71l13.52-44.99c.75.2,1.54.31,2.34.31,4.9,0,8.88-3.99,8.88-8.88,0-3.56-2.12-6.74-5.34-8.14ZM25.7,78.2l-9.18-30.55h18.36l-9.18,30.55ZM35.48,45.65H15.92l-2.83-9.43c.49-.27.96-.57,1.4-.93,1.58,1.29,3.54,1.99,5.61,1.99s4.03-.7,5.6-1.99c1.58,1.29,3.54,1.99,5.61,1.99s4.03-.7,5.6-1.99c.44.36.91.67,1.4.93l-2.83,9.43ZM42.52,35.29c-1.85,0-3.59-.73-4.9-2.05-.19-.19-.44-.3-.71-.3s-.52.11-.71.3c-1.31,1.32-3.04,2.05-4.9,2.05s-3.59-.73-4.9-2.05c-.38-.38-1.05-.38-1.42,0-1.3,1.32-3.04,2.05-4.89,2.05s-3.59-.73-4.9-2.05c-.38-.38-1.05-.38-1.42,0-1.3,1.32-3.04,2.05-4.89,2.05-3.8,0-6.88-3.09-6.88-6.88,0-2.94,1.88-5.56,4.67-6.51.41-.14.68-.52.68-.95v-.58C7.34,10.24,15.58,2,25.7,2s18.36,8.24,18.36,18.36v.58c0,.43.27.81.68.95,2.79.95,4.67,3.57,4.67,6.51,0,3.8-3.09,6.88-6.88,6.88Z"/>
</svg>