<?xml version="1.0" encoding="UTF-8"?>
<svg id="Capa_1" xmlns="http://www.w3.org/2000/svg" version="1.1" viewBox="0 0 94.41 86.05">
  <!-- Generator: Adobe Illustrator 29.6.1, SVG Export Plug-In . SVG Version: 2.1.1 Build 9)  -->
  <path d="M93.84,51.5l-16.49-16.49s-.07-.05-.1-.08c-.5-.62-1.35-.88-2.14-.6l-21.39,7.69s-.05.03-.08.04c-.06.03-.12.06-.18.09-.05.03-.1.06-.15.09-.05.04-.1.08-.15.12-.05.04-.09.08-.14.12-.04.04-.09.09-.13.14-.04.05-.08.1-.11.15-.03.05-.06.11-.1.16-.03.06-.06.12-.08.18-.01.03-.03.05-.04.08l-7.7,21.39c-.28.79-.02,1.64.6,2.14.03.03.05.07.08.11l16.49,16.49c.37.37.86.56,1.36.56.22,0,.44-.04.65-.11l21.39-7.69s.07-.04.11-.06c.07-.03.15-.07.21-.11.07-.04.14-.09.2-.13.06-.05.12-.1.18-.16.06-.06.11-.12.16-.18.05-.06.09-.13.14-.2.04-.07.08-.14.11-.21.02-.04.04-.07.06-.11l7.69-21.39c.25-.7.08-1.49-.45-2.02ZM66.79,56.26l-17.04,6.13,6.13-17.04,17.04-6.13-6.13,17.04ZM63.89,79.72l-13.47-13.47,17.38-6.25,13.47,13.47-17.38,6.25ZM84,70.74l-13.47-13.47,6.25-17.38,13.47,13.47-6.25,17.38Z"/>
  <path d="M41.75,48.49s.03-.08.05-.11c.01-.03.03-.06.04-.1l7.69-21.39c.28-.79.02-1.64-.6-2.14-.03-.03-.05-.07-.08-.1l-16.49-16.49c-.53-.53-1.31-.7-2.02-.45l-21.39,7.69s-.07.04-.11.06c-.08.03-.15.07-.22.11-.07.04-.13.08-.19.13-.06.05-.12.1-.18.16s-.11.12-.16.18c-.05.06-.09.13-.13.19-.04.07-.08.14-.11.22-.02.04-.04.07-.06.11L.11,37.95c-.25.7-.08,1.49.45,2.02l16.49,16.49s.06.05.09.08c.36.45.92.72,1.5.72.22,0,.44-.04.65-.11l21.39-7.7s.04-.02.06-.03c.08-.03.16-.07.24-.11.03-.02.06-.03.09-.06.08-.05.16-.11.23-.17.01-.01.03-.02.04-.03.08-.08.16-.16.23-.26.02-.02.03-.05.05-.07.05-.07.09-.14.13-.21ZM21.49,52.25l6.13-17.04,17.04-6.13-6.13,17.04-17.04,6.13ZM30.51,11.74l13.47,13.47-17.38,6.25-13.47-13.47,17.38-6.25ZM10.41,20.72l13.47,13.47-6.25,17.38-13.47-13.47,6.25-17.38Z"/>
  <path d="M58.94,23.82s.04.07.06.11c.03.08.07.15.11.22.04.07.09.14.14.2.05.06.1.12.15.18.06.06.12.11.18.16.06.05.12.09.19.13.07.04.14.08.22.11.04.02.07.04.11.06l11.92,4.29c.21.08.43.11.65.11.5,0,1-.2,1.36-.56l9.19-9.19s.02-.03.03-.04c.58-.51.82-1.33.55-2.1l-4.29-11.92s-.03-.05-.04-.08c-.03-.06-.05-.12-.08-.18-.03-.06-.06-.11-.09-.16-.04-.05-.07-.1-.11-.15-.04-.05-.08-.1-.13-.14-.04-.04-.09-.08-.14-.12-.05-.04-.1-.08-.15-.12-.05-.03-.1-.06-.15-.09-.06-.03-.12-.06-.19-.09-.03-.01-.05-.03-.08-.04L66.43.11c-.76-.28-1.59-.03-2.1.54-.02.01-.03.02-.05.04l-9.19,9.19c-.53.53-.7,1.31-.45,2.02l4.29,11.92ZM76.19,7.72l2.67,7.41-7.41-2.67-2.67-7.41,7.41,2.67ZM72.17,25.23l-7.91-2.85,6.18-6.17,7.91,2.85-6.18,6.17ZM64.87,5.57l2.85,7.91-6.17,6.17-2.85-7.91,6.18-6.17Z"/>
  <path d="M27.6,67.35s-.01,0-.01-.01c-.51-.56-1.32-.79-2.08-.52l-7.23,2.6s-.05.03-.08.04c-.06.02-.12.05-.18.08-.06.03-.11.06-.16.1-.05.04-.1.07-.15.11-.05.04-.1.08-.14.12-.04.04-.08.09-.12.14-.04.05-.08.1-.11.15-.03.05-.06.1-.09.15-.03.06-.06.12-.09.18-.01.03-.03.05-.04.08l-2.6,7.23c-.27.75-.04,1.57.52,2.08,0,0,0,.01.01.02l5.57,5.57c.37.37.86.57,1.36.57.22,0,.44-.04.65-.11l7.23-2.6s.07-.04.11-.06c.08-.03.15-.07.22-.11s.13-.09.2-.14.12-.1.18-.16.11-.11.16-.18c.05-.06.09-.13.13-.19.04-.07.08-.14.11-.22.02-.04.04-.07.06-.11l2.6-7.23c.25-.7.08-1.49-.45-2.02l-5.57-5.57ZM28.42,78.01l-2.56-2.56,1.16-3.22,2.56,2.56-1.16,3.22ZM20.43,72.75l2.64-.95-.95,2.64-2.64.95.95-2.64ZM22.47,81.89l-2.56-2.56,3.22-1.16,2.56,2.56-3.22,1.16Z"/>
</svg>