<?xml version="1.0" encoding="UTF-8"?>
<svg id="Capa_1" xmlns="http://www.w3.org/2000/svg" version="1.1" xmlns:serif="http://www.serif.com/" viewBox="0 0 28.99 24.46">
  <!-- Generator: Adobe Illustrator 29.6.1, SVG Export Plug-In . SVG Version: 2.1.1 Build 9)  -->
  <defs>
    <style>
      .st0 {
        fill-rule: evenodd;
      }
    </style>
  </defs>
  <path class="st0" d="M17.88,6.15c-5.06,0-9.16,4.11-9.16,9.16s4.11,9.16,9.16,9.16,9.16-4.11,9.16-9.17-4.11-9.16-9.16-9.16ZM17.88,7.15c4.51,0,8.16,3.66,8.16,8.16s-3.66,8.16-8.16,8.16-8.16-3.66-8.16-8.17,3.66-8.16,8.16-8.16ZM17.88,7.78c-2.07,0-3.94.83-5.3,2.18-.01,0-.02.02-.03.03,0,.01-.02.02-.03.03-1.35,1.36-2.18,3.23-2.18,5.3s.83,3.94,2.18,5.3c0,.01.02.02.03.03.01,0,.02.02.03.03,1.36,1.35,3.23,2.18,5.3,2.18s3.93-.83,5.3-2.18c.01,0,.02-.02.03-.03,0-.01.02-.02.03-.03,1.35-1.36,2.18-3.23,2.18-5.3s-.83-3.93-2.18-5.3c0-.01-.02-.02-.03-.03-.01,0-.02-.02-.03-.03-1.36-1.35-3.23-2.18-5.3-2.18ZM22.13,20.27c-1.02.88-2.32,1.45-3.75,1.56v-5.31s3.75,3.75,3.75,3.75ZM17.38,21.83c-1.43-.11-2.73-.68-3.75-1.56l3.75-3.75v5.31ZM24.39,15.81c-.11,1.43-.68,2.73-1.56,3.75l-3.75-3.75h5.31ZM12.92,19.56c-.88-1.02-1.45-2.32-1.56-3.75h5.31l-3.75,3.75ZM8.98,19.09c-1.59-.46-2.98-1.23-4.06-2.25,0,0,0,0,0,0-.6-.58-1.41-.88-2.25-.81,0,0,0,0,0,0-1.03.07-2.14-.2-2.55-1.46-.41-1.26.34-2.14,1.22-2.66.72-.43,1.21-1.16,1.35-1.98,0,0,0,0,0,0C3.39,6.09,6.88,2.39,11.84.78c4.99-1.62,10.02-.64,12.83,2.07,0,0,0,0,0,0,.53.53,1.25.83,2.01.84.85,0,1.78.32,2.18,1.55s-.17,2.04-.86,2.54c-.6.45-1.01,1.11-1.13,1.86,0,0,0,0,0,0-.08.44-.2.89-.35,1.32-.2-.41-.44-.8-.7-1.17.02-.11.05-.22.07-.32.16-1,.71-1.89,1.52-2.49,0,0,0,0,0,0,.39-.28.72-.73.49-1.42-.22-.69-.75-.86-1.23-.86h0c-1.01-.01-1.98-.42-2.7-1.13-2.59-2.5-7.23-3.33-11.82-1.84C7.58,3.21,4.32,6.57,3.67,10.09c-.19,1.11-.86,2.08-1.82,2.66,0,0,0,0,0,0-.51.31-1.02.77-.78,1.5.24.73.92.81,1.52.77,1.12-.09,2.21.31,3.02,1.09.81.77,1.82,1.37,2.96,1.79.11.41.25.8.42,1.19ZM22.84,11.06c.88,1.02,1.45,2.32,1.56,3.75h-5.31l3.75-3.75ZM12.92,11.06l3.75,3.75h-5.31c.11-1.43.68-2.73,1.56-3.75ZM17.38,8.8v5.31l-3.75-3.75c1.03-.88,2.32-1.45,3.75-1.56ZM18.38,8.8c1.43.11,2.73.68,3.75,1.56l-3.75,3.75v-5.31ZM8.08,8.65c-.14.25-.06.57.19.71s.57.06.71-.19.06-.57-.19-.71-.57-.06-.71.19ZM5.75,8.52c-.14.25-.05.57.2.71.25.14.57.06.71-.19.14-.25.06-.57-.19-.71s-.57-.06-.71.19ZM7.3,5.8c-.14.25-.06.57.19.71.25.14.57.06.71-.19.14-.25.06-.57-.19-.71-.25-.14-.57-.06-.71.19Z"/>
</svg>