<?xml version="1.0" encoding="UTF-8"?>
<svg id="Capa_1" xmlns="http://www.w3.org/2000/svg" version="1.1" viewBox="0 0 110 92.49">
  <!-- Generator: Adobe Illustrator 29.6.1, SVG Export Plug-In . SVG Version: 2.1.1 Build 9)  -->
  <defs>
    <style>
      .st0 {
        fill-rule: evenodd;
      }
    </style>
  </defs>
  <path class="st0" d="M11.25,87.8h57.34s.09,0,.12,0c.06,0,.09,0,.12,0h24.06c.81,0,1.47-.6,1.56-1.39l3.25-29.52h1.03c.84,0,1.56-.7,1.56-1.56v-3.6c0-1.64-1.22-2.99-2.81-3.21l-1.62-7.06c-.16-.71-.78-1.21-1.5-1.21h-27c-.72,0-1.38.5-1.53,1.21l-.59,2.62-1.97-10.59c-.16-.76-.81-1.29-1.56-1.28H20.84c-.19,0-.38.04-.53.1-3.56,1.31-5.97,3.98-7.53,6.75-2.25,3.99-2.75,8.12-2.75,8.12-.06.45.09.89.38,1.23s.72.53,1.16.53h5.03l-6.91,37.03c-.06.46.06.93.34,1.29.31.36.75.56,1.22.56h0ZM91.78,82.09h-21.81l.28,2.59h21.25l.28-2.59ZM59.69,36.08c-2.28,1.19-5.81,4.19-7.84,11.69-.19.68-.81,1.15-1.5,1.15h-30.59l-6.62,35.76h37.53l9.03-48.59ZM62.97,48.98l-1.25-6.77-7.88,42.46h13.28l-3.06-27.79h-1.03c-.88,0-1.56-.7-1.56-1.56v-3.6c0-1.15.59-2.17,1.5-2.74h0ZM69.62,78.96h22.53l1.78-16.36h-26.09l.78,7.32,1,9.05ZM49.41,62.66h-27.34c-.88,0-1.56.7-1.56,1.56s.69,1.56,1.56,1.56h27.34c.84,0,1.56-.7,1.56-1.56s-.72-1.56-1.56-1.56ZM67.22,56.88l.28,2.59h26.78l.28-2.59h-27.34ZM97.06,51.6h-32.34c-.06,0-.12.05-.12.12v2.04h32.59v-2.04c0-.07-.06-.12-.12-.12ZM67.44,48.48h26.88l-1.19-5.11h-24.5l-1.19,5.11ZM55.28,35.33c-2.19,1.98-4.5,5.2-6.12,10.47,0,0-35.69,0-35.69,0,.34-1.35.97-3.3,2.03-5.21,1.19-2.11,2.97-4.19,5.62-5.26,0,0,34.16,0,34.16,0h0Z"/>
</svg>