<svg xmlns="http://www.w3.org/2000/svg" xmlns:xlink="http://www.w3.org/1999/xlink" version="1.1" x="0px" y="0px" viewBox="0 0 160 200" style="enable-background:new 0 0 160 160;" xml:space="preserve"><path d="M72.764,65.061c-4.676,0-8.48,3.811-8.48,8.496s3.804,8.496,8.48,8.496s8.48-3.811,8.48-8.496S77.44,65.061,72.764,65.061z   M72.764,77.052c-1.919,0-3.48-1.568-3.48-3.496s1.562-3.496,3.48-3.496s3.48,1.568,3.48,3.496S74.683,77.052,72.764,77.052z"/><path d="M154.025,36.033c-0.47-0.65-1.224-1.035-2.025-1.035h-11.47c-2.094-2.198-5.037-3.576-8.3-3.576h-6.735  c-0.025,0-0.051,0-0.076,0h-6.735c-3.263,0-6.206,1.378-8.3,3.576H98.912c-0.802,0-1.556,0.385-2.025,1.035  c-0.471,0.65-0.6,1.486-0.349,2.248c0.248,0.752,0.645,1.82,1.21,2.977H38.549c-6.17-0.029-12.024,2.325-16.445,6.662l-2.443,1.273  C10.31,54.063,4.5,63.24,4.5,73.142v29.739c0,1.381,1.119,2.5,2.5,2.5s2.5-1.119,2.5-2.5V73.142c0-5.701,2.418-11.117,6.568-15.216  c-0.63,2.133-0.96,4.368-0.96,6.657v10.807c0,0.448,0.086,0.891,0.253,1.306l3.36,8.354l-5.825,8.878  c-0.375,0.57-0.574,1.237-0.574,1.92v28.23c0,1.933,1.567,3.5,3.5,3.5H26.89c1.824,0,3.343-1.401,3.489-3.22l0.692-8.608  l3.875,9.633c0.533,1.326,1.818,2.194,3.247,2.194h11.309c1.084,0,2.108-0.503,2.771-1.361c0.663-0.859,0.89-1.977,0.615-3.025  l-4.827-18.423c1.589,0.634,3.255,1.072,4.964,1.288v4.813c0,1.381,1.119,2.5,2.5,2.5s2.5-1.119,2.5-2.5v-4.805  c1.511-0.187,2.979-0.541,4.382-1.048v2.771c0,1.381,1.119,2.5,2.5,2.5s2.5-1.119,2.5-2.5v-5.429  c1.865-1.357,3.499-3.034,4.82-4.979c1.809,0.148,3.639,0.227,5.482,0.227c0.544,0,1.078-0.024,1.617-0.034l2.968,26.888  c0.195,1.773,1.694,3.116,3.479,3.116h10.069c1.869,0,3.409-1.469,3.496-3.336l1.208-25.799l2.093,25.916  c0.146,1.818,1.664,3.219,3.488,3.219h10.81c1.933,0,3.5-1.567,3.5-3.5V83.332c1.926-1.643,3.669-3.39,5.154-5.143h3.251  c4.716,0,8.553-3.847,8.553-8.575v-5.862l4.546-5.909c1.15-1.492,1.783-3.353,1.783-5.239v-4.461c0.271,0.03,0.536,0.05,0.788,0.05  c0.678,0,1.287-0.099,1.811-0.239c4.816-1.291,7.236-7.194,8.053-9.672C154.625,37.519,154.496,36.683,154.025,36.033z   M145.027,43.124c-0.678,0.183-1.451-0.017-2.305-0.589v-2.536h5.458C147.206,41.687,146.072,42.843,145.027,43.124z   M130.394,62.561v7.052c0,0.869-0.696,1.575-1.553,1.575h-6.77c-0.856,0-1.553-0.707-1.553-1.575v-7.052  c0-0.772-0.255-1.522-0.726-2.134l-5.275-6.855c-0.211-0.274-0.327-0.618-0.327-0.968v-9.653c0-2.497,2.016-4.528,4.492-4.528h5.592  v1.533c0,5.113,2.997,9.792,7.636,11.92l4.278,1.963l-5.069,6.588C130.648,61.039,130.394,61.789,130.394,62.561z M99.154,52.149  c0,5.445-4.415,9.875-9.843,9.875s-9.844-4.43-9.844-9.875c0-1.355,0.292-2.669,0.816-3.891h18.067  C98.873,49.482,99.154,50.805,99.154,52.149z M102.732,39.999h5.458v2.536c-0.856,0.573-1.63,0.771-2.306,0.588  C104.84,42.843,103.706,41.687,102.732,39.999z M136.723,42.951v5.632l-2.727-1.251c-2.868-1.316-4.722-4.211-4.722-7.376v-1.533  h2.955C134.707,38.423,136.723,40.454,136.723,42.951z M46.923,48.258c0.285,1.148,0.445,2.327,0.445,3.535  c0,8.064-6.542,14.625-14.583,14.625c-3.958,0-7.724-1.643-10.452-4.455c0.542-3.392,2.117-6.519,4.6-8.984  c3.098-3.077,7.167-4.779,11.59-4.722H46.923z M23.66,120.577h-4.336V96.893l2.58-3.933l3.314,8.239L23.66,120.577z M63.582,98.912  c-0.033,0.021-0.067,0.039-0.099,0.061c-2.345,1.442-5.08,2.257-7.959,2.257c-3.02,0-5.955-0.925-8.437-2.582  c1.852-1.777,3.679-3.834,5.296-6.305c4.242,1.974,8.998,3.424,14.026,4.297C65.56,97.512,64.608,98.271,63.582,98.912z   M88.906,120.577L86.32,97.14c2.499-0.266,4.945-0.647,7.332-1.147l-1.151,24.585H88.906z M113.436,120.577h-4.081l-2.59-32.072  c-0.126-1.563-1.275-2.851-2.813-3.153c-3.06-0.602-4.611-2.705-4.611-6.252c0-1.933-1.567-3.5-3.5-3.5s-3.5,1.567-3.5,3.5  c0,4.083,1.323,7.108,3.26,9.242c-5.579,1.499-11.569,2.265-17.893,2.265c-8.053,0-15.788-1.592-22.149-4.513  c2.091-5.496,3.119-12.513,2.062-21.742c-0.219-1.921-1.958-3.297-3.875-3.079c-1.92,0.22-3.299,1.955-3.079,3.875  c1.961,17.129-4.1,24.849-10.287,30.142c-1.019,0.871-1.45,2.249-1.11,3.546l5.697,21.742h-4.409L25.88,84.088  c0-0.001-0.001-0.003-0.001-0.004l-3.77-9.374V68.23c3.142,2.047,6.845,3.189,10.677,3.189c10.798,0,19.583-8.804,19.583-19.625  c0-1.199-0.127-2.376-0.337-3.535h22.96c-0.34,1.259-0.523,2.563-0.523,3.891c0,8.202,6.659,14.875,14.844,14.875  s14.843-6.673,14.843-14.875c0-1.319-0.177-2.628-0.518-3.891h3.554v4.345c0,1.887,0.633,3.748,1.78,5.238l4.548,5.91v5.862  c0,2.966,1.511,5.585,3.801,7.125c-0.779,0.726-1.626,1.464-2.559,2.204c-0.048,0.038-0.083,0.085-0.129,0.125  c-0.097,0.085-0.189,0.173-0.276,0.268c-0.072,0.079-0.139,0.161-0.203,0.246c-0.072,0.095-0.138,0.191-0.2,0.293  c-0.057,0.093-0.108,0.188-0.155,0.285c-0.052,0.106-0.097,0.213-0.138,0.324c-0.038,0.103-0.069,0.206-0.097,0.312  c-0.029,0.112-0.054,0.224-0.072,0.339c-0.019,0.117-0.029,0.233-0.035,0.351c-0.004,0.066-0.02,0.129-0.02,0.197V120.577z"/><text x="0" y="175" fill="#000000" font-size="5px" font-weight="bold" font-family="'Helvetica Neue', Helvetica, Arial-Unicode, Arial, Sans-serif">Created by Symbolon</text><text x="0" y="180" fill="#000000" font-size="5px" font-weight="bold" font-family="'Helvetica Neue', Helvetica, Arial-Unicode, Arial, Sans-serif">from the Noun Project</text></svg>