<?xml version="1.0" encoding="UTF-8"?>
<svg id="Capa_1" xmlns="http://www.w3.org/2000/svg" version="1.1" viewBox="0 0 70.31 87.5">
  <!-- Generator: Adobe Illustrator 29.6.1, SVG Export Plug-In . SVG Version: 2.1.1 Build 9)  -->
  <path d="M56.25,0H14.06c-2.59,0-4.69,2.1-4.69,4.69v7.41L1.34,26.84c-.88,1.6-1.34,3.41-1.34,5.24v49.17c0,3.45,2.8,6.25,6.25,6.25h57.81c3.45,0,6.25-2.8,6.25-6.25v-49.17c0-1.82-.46-3.63-1.34-5.24l-8.04-14.74v-7.41c0-2.59-2.1-4.69-4.69-4.69h0ZM66.23,28.34c.62,1.14.95,2.44.95,3.74v49.17c0,1.72-1.4,3.12-3.12,3.12H6.25c-1.72,0-3.12-1.4-3.12-3.12v-49.17c0-1.3.33-2.6.95-3.74l6.86-12.57,6.86,12.57c.61,1.12.94,2.44.95,3.74v46.05c.03,2.02,3.09,2.08,3.12,0v-46.05c-.02-1.83-.46-3.62-1.33-5.23l-8.04-14.75v-7.41c0-.86.7-1.56,1.56-1.56h42.19c.86,0,1.56.7,1.56,1.56v6.25H18.75c-2.05.04-2.06,3.08,0,3.12h39.7l7.79,14.27h0Z"/>
  <path d="M57.41,35.98c-.83-.21-1.68.3-1.89,1.14-.75,2.98-3.41,5.07-6.49,5.07h-8.99c-3.07,0-5.74-2.08-6.49-5.07-.21-.84-1.06-1.35-1.89-1.14-2.75.99.08,4.91,1.2,6.2h-5.51c-.86,0-1.56.7-1.56,1.56,0,4.31,3.5,7.81,7.81,7.81h.5l2,11.96s.02.09.04.14c.56,2.95,3.11,5.08,6.13,5.08h4.56c3.08,0,5.63-2.21,6.16-5.22l2-11.97c4.47.25,8.33-3.31,8.31-7.81,0-.86-.7-1.56-1.56-1.56h-5.51c1.14-1.32,3.94-5.2,1.2-6.2h0ZM33.68,48.44c-2.06.04-3.86-1.28-4.51-3.12h5.35c-.55.95-.84,2.02-.84,3.12h0ZM46.81,65.62h-4.56c-1.45,0-2.66-.98-3.02-2.36.35-1.38,1.57-2.36,3.02-2.36h4.56c1.45,0,2.66.98,3.02,2.36-.35,1.38-1.57,2.36-3.02,2.36ZM52.24,48.95l-1.68,10.1c-1.9-1.74-5.92-1.19-8.3-1.26-1.4,0-2.69.48-3.74,1.26l-1.68-10.1c-.35-1.84,1.21-3.68,3.08-3.64h9.12c1.92-.12,3.57,1.75,3.21,3.64h0ZM59.89,45.31c-.64,1.82-2.38,3.12-4.42,3.12-.23-.2-.03-1.78-.93-3.12h5.35,0Z"/>
</svg>