<?xml version="1.0" encoding="UTF-8"?>
<svg id="Capa_1" xmlns="http://www.w3.org/2000/svg" version="1.1" viewBox="0 0 20.97 17.95">
  <!-- Generator: Adobe Illustrator 29.6.1, SVG Export Plug-In . SVG Version: 2.1.1 Build 9)  -->
  <path d="M4.05,10.29c.15.15.14.39,0,.53-.13.13-.35.14-.5.03-.65-.62-1.09-1.43-1.26-2.31-.05-.2.08-.4.28-.45.2-.05.4.08.45.28.13.73.5,1.41,1.03,1.93ZM10.69,6.22c-.09,5.14-2.29,6.35-4.95,7.28-.08.03-.17.03-.25,0-2.66-.93-4.86-2.14-4.95-7.28-.33-.14-.54-.46-.54-.82v-.2C0,2.98,1.81,1.18,4.03,1.17h1.21V.38c0-.21.17-.38.38-.38s.38.17.38.38v.8h1.21c2.23,0,4.03,1.81,4.03,4.03v.2c0,.35-.21.67-.54.81ZM.75,5.4c0,.08.06.14.14.14h9.45c.08,0,.14-.06.14-.14v-.2c0-1.81-1.47-3.28-3.28-3.28h-3.16c-1.81,0-3.28,1.47-3.28,3.28v.2ZM9.94,6.29H1.29c.09,4.53,1.85,5.58,4.32,6.46,2.47-.88,4.23-1.93,4.32-6.46ZM3.83,3.64c.07.08.16.14.27.14h.02c.1,0,.19-.04.26-.11l.66-.65c.15-.15.15-.38,0-.53-.15-.15-.38-.15-.53,0l-.35.36-.25-.32c-.13-.16-.36-.19-.53-.07s-.19.36-.07.53c0,0,0,0,0,0l.52.66ZM2.31,4.97c.07.08.17.14.27.14h.02c.1,0,.19-.04.26-.11l.65-.65c.15-.15.15-.38,0-.53s-.38-.15-.53,0l-.36.36-.25-.32c-.13-.16-.37-.19-.53-.06-.16.13-.19.36-.06.52l.51.65ZM4.8,3.79c-.16.13-.19.36-.06.53,0,0,0,0,0,0l.51.66c.07.08.17.14.27.14h.02c.1,0,.19-.04.26-.11l.66-.65c.15-.15.15-.38,0-.53-.15-.15-.38-.15-.53,0h0l-.35.36-.25-.32c-.13-.16-.36-.2-.53-.07,0,0,0,0,0,0ZM7.74,3.79c-.16.13-.19.36-.06.53l.51.66c.07.08.17.14.27.14h.02c.1,0,.2-.04.27-.11l.65-.65c.15-.15.15-.38,0-.53-.15-.15-.38-.15-.53,0l-.35.36-.25-.32c-.13-.16-.36-.19-.53-.06h0ZM6.82,3.64c.07.08.16.14.27.14h.02c.1,0,.19-.04.26-.11l.65-.65c.15-.15.15-.38,0-.53-.15-.15-.38-.15-.53,0h0l-.35.36-.25-.32c-.13-.16-.36-.19-.53-.07s-.19.36-.07.53c0,0,0,0,0,0l.52.66ZM11.9,12.63c-.2-.05-.4.07-.46.27-.14.55-.14,1.13,0,1.68.04.17.19.28.36.28.03,0,.06,0,.09-.01.2-.05.32-.25.27-.45-.11-.43-.11-.88,0-1.31.05-.2-.07-.41-.27-.46ZM19.91,15.15l-.22.22c-.16.16-.37.24-.59.24-.1,0-.2-.02-.3-.06-1.85,1.78-3.35,2.4-4.71,2.4-1.12-.06-2.21-.37-3.18-.91-.08-.04-.14-.1-.18-.17-1.12-2.32-1.76-4.53,1.49-7.9-.12-.31-.05-.65.19-.88l.21-.21c1.42-1.36,3.67-1.36,5.09,0l.83.83.49-.49c.15-.15.38-.15.53,0s.15.38,0,.53l-.49.49.83.83c1.41,1.4,1.41,3.68,0,5.09,0,0,0,0,0,0ZM18.23,15.08l-5.52-5.52c-2.81,2.94-2.36,4.73-1.35,6.87,2.14,1.01,3.93,1.45,6.87-1.35ZM19.38,10.59l-2.19-2.19h0c-1.11-1.11-2.92-1.11-4.03,0l-.22.22v.11l.02.02h0l6.08,6.08s.08.03.11,0l.21-.21c1.11-1.11,1.11-2.92,0-4.03ZM16.57,9.84h.67c.21,0,.38-.17.38-.38s-.17-.38-.38-.38h-.25l.02-.18c.02-.21-.14-.39-.34-.4-.2-.02-.37.12-.4.31l-.07.6c-.02.21.12.39.33.42.01,0,.03,0,.04,0h0ZM15.44,8.94h-.25l.02-.18c.02-.21-.12-.39-.33-.42-.21-.02-.39.12-.42.33l-.07.6c-.02.21.12.39.33.42.01,0,.03,0,.04,0h.67c.21,0,.38-.17.38-.38s-.17-.38-.38-.38h0ZM17.25,10.75h-.25l.02-.18c.03-.2-.12-.39-.32-.42,0,0,0,0,0,0-.2-.03-.39.11-.42.31,0,0,0,0,0,.01l-.07.6c-.03.2.12.39.33.42.02,0,.03,0,.05,0h.67c.21,0,.38-.17.38-.38s-.17-.38-.38-.38h0ZM19.11,12.61h-.25l.02-.18c.03-.21-.12-.39-.33-.42,0,0,0,0,0,0-.2-.03-.39.11-.42.32,0,0,0,0,0,.01l-.07.6c-.02.21.12.39.33.42.01,0,.03,0,.04,0h.67c.21,0,.38-.17.38-.38s-.17-.38-.38-.38h0ZM18.97,11.71c.21,0,.38-.17.38-.38s-.17-.38-.38-.38h-.25l.02-.18c.02-.21-.12-.39-.33-.42-.2-.03-.39.11-.41.31,0,0,0,.01,0,.02l-.07.6c-.01.11.02.21.09.29.07.08.17.13.28.13h.67Z"/>
</svg>