<?xml version="1.0" encoding="UTF-8"?>
<svg id="Capa_1" xmlns="http://www.w3.org/2000/svg" version="1.1" viewBox="0 0 84.37 87.5">
  <!-- Generator: Adobe Illustrator 29.6.1, SVG Export Plug-In . SVG Version: 2.1.1 Build 9)  -->
  <path d="M42.19,87.5c23.26,0,42.19-16.12,42.19-35.93,0-12.84-8.47-25.65-21.96-31.52-9.73-4.23-14.87-10.39-14.87-17.81,0-.58-.32-1.11-.83-1.39-2.12-1.15-6.95-1.15-9.06,0-.51.28-.83.81-.83,1.39,0,7.43-5.14,13.59-14.87,17.81C8.51,25.91,0,38.78,0,51.58c0,19.81,18.93,35.93,42.19,35.93h0ZM61.8,23.25c11.95,5.86,19.37,16.69,19.37,28.32,0,12.75-8.72,23.82-21.41,29.23,7.69-6.52,12.71-17.19,12.71-29.23,0-11.34-4.53-21.89-11.93-28.59.61.12,1.05.22,1.27.27h0ZM53.52,21.81c9.57,5.34,15.74,16.98,15.74,29.76,0,15.32-8.73,28.22-20.49,31.78,4.56-6.43,6.97-19.38,6.97-31.78s-2.3-23.78-6-30.2c1.26.12,2.52.27,3.79.44h0ZM38.65,21.09c2.36-.12,4.7-.12,7.07,0,4.09,5.14,6.8,17.23,6.8,30.48,0,19.31-5.45,32.77-10.34,32.77s-10.34-13.46-10.34-32.77c0-13.26,2.71-25.34,6.8-30.48h0ZM30.88,21.8c1.27-.17,2.5-.32,3.76-.43-3.71,6.42-6.01,17.7-6.01,30.2s2.41,25.35,6.97,31.78c-11.76-3.57-20.49-16.46-20.49-31.78,0-12.79,6.18-24.43,15.77-29.77h0ZM22.58,23.25c.31-.07.75-.16,1.28-.28-7.41,6.7-11.95,17.25-11.95,28.6,0,12.04,5.02,22.71,12.71,29.23-12.69-5.41-21.41-16.48-21.41-29.23,0-11.63,7.41-22.47,19.37-28.32h0Z"/>
</svg>