<?xml version="1.0" encoding="UTF-8"?>
<svg id="Capa_1" xmlns="http://www.w3.org/2000/svg" version="1.1" xmlns:serif="http://www.serif.com/" viewBox="0 0 32 18.13">
  <!-- Generator: Adobe Illustrator 29.6.1, SVG Export Plug-In . SVG Version: 2.1.1 Build 9)  -->
  <defs>
    <style>
      .st0 {
        fill-rule: evenodd;
      }
    </style>
  </defs>
  <path class="st0" d="M18.57.95h-5.13C6.85.95,1.51,6.29,1.51,12.88h0c0,2.38,1.92,4.3,4.29,4.3h20.41c2.37,0,4.3-1.93,4.3-4.3h0c0-6.59-5.35-11.94-11.94-11.94ZM13.83,1.95h-.39c-.81,0-1.61.09-2.37.26v6.63c0,.58-.23,1.13-.63,1.54-.41.41-.96.64-1.54.64h0c-.58,0-1.13-.23-1.54-.64-.4-.41-.63-.96-.63-1.54v-4.58c-2.57,2-4.22,5.12-4.22,8.63h0c0,1.83,1.47,3.3,3.29,3.3h20.41c1.82,0,3.3-1.48,3.3-3.3h0c0-3.51-1.66-6.64-4.23-8.64v4.58c0,.58-.23,1.13-.63,1.54-.41.41-.96.64-1.54.64h0c-.58,0-1.13-.23-1.54-.64-.4-.41-.63-.96-.63-1.54V2.21c-.76-.17-1.56-.26-2.37-.26h-.39v6.88c0,.58-.23,1.13-.64,1.54-.41.41-.96.64-1.53.64h-.01c-.57,0-1.12-.23-1.53-.64-.41-.41-.64-.96-.64-1.54V1.95ZM10.07,2.48c-.83.27-1.61.63-2.34,1.08v5.27c0,.31.12.61.34.83.22.22.52.34.83.34h0c.31,0,.61-.12.83-.34.22-.22.34-.52.34-.83V2.48ZM21.94,2.48v6.35c0,.31.12.61.34.83.22.22.52.34.83.34h0c.31,0,.61-.12.83-.34.22-.22.34-.52.34-.83V3.56c-.73-.45-1.51-.81-2.34-1.08ZM14.83,1.95v6.88c0,.31.13.61.35.83.22.22.51.34.82.34h.01c.31,0,.6-.12.82-.34.22-.22.35-.52.35-.83V1.95h-2.35Z"/>
</svg>