<?xml version="1.0" encoding="UTF-8"?>
<svg id="Capa_1" xmlns="http://www.w3.org/2000/svg" version="1.1" viewBox="0 0 90.63 76.57">
  <!-- Generator: Adobe Illustrator 29.6.1, SVG Export Plug-In . SVG Version: 2.1.1 Build 9)  -->
  <defs>
    <style>
      .st0 {
        fill-rule: evenodd;
      }
    </style>
  </defs>
  <path class="st0" d="M.06,20.39c-.04-.34-.06-.69-.06-1.03C0,14.97,3.33,10.77,9.26,7.48,17.39,2.97,30.51,0,45.32,0s27.93,2.97,36.06,7.48c5.93,3.29,9.25,7.48,9.25,11.87,0,.34-.02.69-.06,1.03.04.13.06.28.06.43v5.45c0,2.57-1.06,5.05-3.09,7.32-2.55,2.87-6.68,5.45-11.98,7.48.05.25.1.52.15.8.24,1.27.34,2.53.34,3.75,3.57-1.5,6.5-3.25,8.56-5.21,1.5-1.42,2.52-2.93,2.94-4.53.2-.76.93-1.26,1.71-1.16.78.1,1.37.76,1.37,1.55v5.45c0,2.86-1.32,5.61-3.81,8.09-3.33,3.32-8.85,6.21-15.84,8.26-1.11.85-2.31,1.3-3.49,1.32-.4,0-.8-.03-1.21-.12-6.25,1.39-13.39,2.18-20.97,2.18-14.81,0-27.93-3.04-36.07-7.65C3.33,50.45,0,46.19,0,41.71v-5.45c0-.79.59-1.45,1.37-1.55.78-.1,1.52.4,1.71,1.16.44,1.71,1.59,3.33,3.27,4.84,2.4,2.16,5.85,4.06,10.07,5.63.04-1.38.12-2.93.25-4.7-5.86-2.05-10.46-4.73-13.28-7.74C1.18,31.55,0,28.95,0,26.26v-5.45c0-.15.02-.29.06-.43h0ZM86.54,22.67c.62-1.07.96-2.18.96-3.32,0-3.47-2.95-6.54-7.64-9.14-6.35-3.52-15.88-6.01-26.85-6.81,1.87.8,3.3,1.8,4.62,2.71,1.08.75,2.05,1.43,3.21,1.72,6.35,1.6,12.19,2.51,15.23,3.91,1.77.82,2.74,1.9,2.98,3.07.16.8.04,1.7-.55,2.71-.61,1.02-1.8,2.26-3.76,3.72-.16.12-.34.31-.41.39.05.12.2.42.32.61.17.27.37.55.57.84,1.1,1.63,2.25,3.71,1.25,6.89,4.7-2.02,8.22-4.48,10.03-7.26,0-.02.02-.04.03-.05h0ZM40.15,3.25c-5.87.29-11.38,1.05-16.28,2.2.15.51.24,1.11.14,1.77-.2,1.46-1.23,3.45-5.05,5.43-2.38,1.24-6.46,1.84-9.38,2.82-.7.24-1.33.49-1.8.81-.21.15-.41.27-.47.48-.04.14.02.29.11.48.12.27.32.57.58.9.95,1.2,2.44,2,3.99,2.76,1.83.89,3.77,1.7,5.34,2.71,2.54,1.65,4.2,3.81,3.7,7.32-.13.92-.25,1.81-.36,2.66,0,.03-.02.12-.02.14,0,.03,0,.06-.01.09-.32,2.52-.57,4.76-.75,6.74,0,.08-.01.16-.02.25-.27,3.1-.38,5.57-.36,7.54,0,.11,0,.21,0,.32.03,1.76.16,3.1.38,4.13.25,1.25.49,1.86.9,2.09.18.1.38.09.54.09,1.01.05,2.23-.38,3.36-1.29.93-.75,1.79-1.8,2.45-3.19,0-.02.02-.05.03-.07.71-1.52,1.17-3.44,1.23-5.77.01-.47.02-.91.03-1.34,0-.03,0-.06,0-.09.02-1.73,0-3.11.1-4.29.14-1.77.51-3.13,1.38-4.42,1.05-1.56,2.93-3.04,6.42-4.98,2.55-1.42,4.57-1.65,7.13-1.45,2.23.18,4.93.71,9.04.91,3.54.17,6.01,1.29,7.76,2.96.91.87,1.63,1.9,2.2,3.05.04.07.09.15.12.23.04.07.07.16.1.24.85,1.92,1.29,4.13,1.51,6.41.03.3.05.61.07.92,0,.03,0,.05,0,.09.2,2.75.14,5.55.28,7.93,0,.04,0,.07,0,.12.02.32.05.64.07.95.15,1.5.34,2.76,1.02,3.49.27.29.54.51.82.66,1.04-.24,2.04-.5,3.02-.78,1.61-1.48,2.88-4.13,3.3-7.29,0-.12.02-.24.04-.35.18-1.63.14-3.38-.19-5.16-.13-.7-.26-1.34-.38-1.91-.02-.09-.04-.18-.05-.27-.98-4.69-1.38-5.45.87-10.12,1.52-3.18-.18-4.85-1.04-6.17-.71-1.09-1.01-2.11-.74-3.11.18-.66.61-1.38,1.59-2.1,1.29-.96,2.18-1.77,2.71-2.48.25-.34.46-.57.41-.82-.03-.14-.17-.23-.32-.35-.24-.19-.55-.36-.91-.52-2.93-1.35-8.57-2.18-14.68-3.72-1.24-.31-2.34-.91-3.46-1.66-1.39-.92-2.83-2.08-4.86-2.94-5.37-2.27-5.47-1.88-11.19-2.88-.15-.03-.29-.07-.41-.13v-.02ZM20.88,6.21c-3.89,1.1-7.31,2.45-10.11,4-2.13,1.18-3.91,2.46-5.21,3.84,0,0,.02,0,.02-.02.72-.6,1.77-1.11,3-1.52,2.77-.94,6.67-1.46,8.94-2.63,2.37-1.23,3.27-2.18,3.4-3.08.03-.21,0-.41-.04-.58h0ZM4.59,15.21c-.95,1.31-1.46,2.7-1.46,4.15,0,1.14.34,2.25.96,3.32,0,.02.02.04.03.05,2.26,3.48,7.16,6.44,13.7,8.66.04-.29.08-.59.12-.88.38-2.73-1.57-3.98-3.79-5.11-3.04-1.56-6.65-2.87-8.59-5.3-1.32-1.66-1.54-3.03-1.27-4.11.07-.27.18-.54.31-.79h0ZM74.88,37.98c3.72-1.47,6.79-3.21,9.01-5.16,2.16-1.91,3.49-3.99,3.6-6.23-2.69,2.92-7.06,5.54-12.68,7.56-.38,1.36-.26,2.33.07,3.83h0ZM74.31,53.66c4.41-1.68,7.95-3.73,10.29-6.06,1.77-1.77,2.83-3.68,2.89-5.7-2.61,2.77-6.64,5.25-11.76,7.22-.3,1.66-.79,3.2-1.42,4.54h0ZM16.42,49.68c-5.15-1.8-9.32-4.07-12.17-6.63-.4-.36-.77-.73-1.12-1.1.12,3.46,3.05,6.54,7.65,9.14,1.8,1.02,3.87,1.96,6.15,2.8-.04-.15-.07-.3-.1-.46-.2-.96-.34-2.18-.4-3.75h0ZM26.14,56.48c5.77,1.2,12.28,1.86,19.17,1.86,6.23,0,12.16-.55,17.5-1.54-.63-1.01-1.03-2.38-1.24-4-5.05.82-10.54,1.27-16.27,1.27s-10.94-.43-15.9-1.21c-.93,1.57-2.07,2.77-3.27,3.62h0ZM3.13,26.59c.1,1.84,1.01,3.57,2.53,5.19,2.43,2.6,6.35,4.86,11.29,6.66.12-1.18.26-2.42.42-3.75-6.37-2.09-11.31-4.92-14.24-8.11h0ZM31.5,45.1c-.07,1.8-.36,3.4-.79,4.8,4.57.68,9.49,1.05,14.6,1.05,5.66,0,11.07-.45,16.05-1.28-.05-1.54-.06-3.21-.13-4.88-4.95.79-10.31,1.22-15.92,1.22-4.82,0-9.46-.32-13.81-.91h0ZM58.5,34.64c-.13-.15-.26-.29-.4-.42-1.29-1.23-3.14-1.98-5.76-2.1-4.15-.2-6.88-.73-9.13-.91-1.93-.15-3.45,0-5.37,1.07-1.79.99-3.08,1.8-4.02,2.58,3.66.42,7.52.64,11.48.64,4.59,0,9.02-.3,13.19-.85h0ZM31.82,37.86c-.09.41-.15.84-.18,1.32-.06.8-.07,1.71-.09,2.76,4.32.6,8.95.93,13.76.93,5.54,0,10.83-.43,15.7-1.23-.15-1.39-.39-2.75-.81-3.98-4.65.67-9.66,1.04-14.88,1.04-4.7,0-9.23-.3-13.49-.85h0ZM57.36,12.73l-8.73,8.73c-.39.39-.96.55-1.5.41l-13.82-3.65c-.54-.14-.96-.56-1.11-1.1-.15-.54,0-1.12.4-1.51l8.73-8.73c.39-.39.97-.55,1.51-.41l13.82,3.65c.54.14.96.56,1.11,1.1.14.54,0,1.12-.4,1.51ZM53.22,12.44l-10.32-2.73-6.18,6.18,10.32,2.72,6.18-6.18ZM90.62,51.38v5.45c0,4.47-3.32,8.74-9.24,12.09-8.14,4.61-21.27,7.65-36.07,7.65s-27.93-3.04-36.07-7.65c-5.91-3.35-9.24-7.62-9.24-12.09v-5.45c0-.79.59-1.45,1.37-1.55.78-.1,1.52.4,1.71,1.16.85,3.3,4.2,6.21,9.1,8.64,7.93,3.93,19.88,6.41,33.14,6.41s25.21-2.48,33.14-6.41c4.9-2.43,8.25-5.34,9.1-8.64.2-.76.93-1.26,1.71-1.16s1.37.76,1.37,1.55h0ZM3.13,57.03c.11,3.48,3.04,6.55,7.65,9.17,7.79,4.41,20.37,7.24,34.53,7.24s26.75-2.83,34.53-7.24c4.62-2.62,7.54-5.7,7.65-9.17-1.86,1.98-4.45,3.82-7.65,5.41-8.27,4.1-20.71,6.74-34.53,6.74s-26.27-2.64-34.53-6.74c-3.21-1.59-5.79-3.43-7.65-5.41h0Z"/>
</svg>