<?xml version="1.0" encoding="UTF-8"?>
<svg id="Capa_1" xmlns="http://www.w3.org/2000/svg" version="1.1" viewBox="0 0 393.16 502">
  <!-- Generator: Adobe Illustrator 29.6.1, SVG Export Plug-In . SVG Version: 2.1.1 Build 9)  -->
  <path d="M36.65,339.16c0,92.25,27.6,145.16,75.72,145.16,9.13,0,20.42-10.39,28.53-19.45,16.78,24.2,35.9,37.13,55.68,37.13s38.34-12.46,55.12-36.12c7.99,8.6,19.27,18.44,29.08,18.44,27.3,0,47.61-15.35,60.36-45.63,10.2-24.2,15.36-57.69,15.36-99.53,0-24.47,9.43-47.97,18.56-70.69,11.98-29.83,24.37-60.69,14.53-93.06-7.49-24.65-28.21-42.37-55.44-47.42-9.92-1.79-20.11-1.26-29.79,1.54-11.11-13.02-22.03-21.71-34.12-27.2-15.7-7.13-33.05-8.33-51.67-3.62-4.88-34.82-15.83-59.98-33.12-76.3C168.04,5.97,144.15-1.48,114.46.24c-3.22.19-5.72,2.89-5.65,6.12l.5,23.28c.07,3.07,2.44,5.6,5.5,5.85,20.86,1.73,34.87,7.2,42.8,16.71,11.37,13.62,10.89,35.5,8.43,63.11-11.56-7.71-26.64-10.28-42.37-6.86-14.89,3.23-27.09,11.45-32.8,21.69-10.29-3.32-21.23-4.06-31.87-2.15-27.23,5.05-47.95,22.78-55.44,47.42-9.83,32.37,2.55,63.22,14.53,93.06,9.13,22.72,18.56,46.22,18.56,70.69ZM292.33,133.98c-12.26,5.68-24.32,14.73-35.72,26.94-10.21-8.57-22.2-14.76-35.1-18.11-.07-11.41-.58-22.1-1.53-32.07,34.66-9.45,56.74,5.95,72.35,23.24ZM166.83,44.51c-9.34-11.18-24.3-17.89-45.63-20.43l-.26-12.07c23.83-.39,42.27,5.9,56.28,19.12,21.07,19.88,31.65,55.69,32.28,109.37-11.29-1.41-22.74-.97-33.89,1.31.39-4.3.79-8.53,1.19-12.66,3.38-34.96,6.3-65.15-9.97-84.64h0ZM126.23,120.17c15.15-3.29,29.34.27,38.46,9.5-.49,5.07-.98,10.27-1.44,15.6-9.81,3.52-18.91,8.74-26.9,15.43-10.92-11.65-22.46-20.41-34.19-26.08,4.35-6.6,13.34-12.12,24.06-14.45h0ZM15.05,178.9c6.16-20.27,23.41-34.89,46.15-39.11,9.93-1.84,20.25-.65,30.58,3.38.12.05.23.09.35.14,12.04,4.78,24.08,13.43,35.53,25.66-13.46,14.49-23.5,34.07-29.36,58.08-.8,3.22,1.15,6.47,4.37,7.27,3.22.8,6.47-1.15,7.27-4.37,0-.02,0-.04.01-.06,6.38-26.13,17.69-46.19,33.6-59.61,14.62-12.33,32.46-18.58,53.04-18.58,22.05,0,41.03,7.4,56,21.62.18.2.37.4.57.58.06.05.13.1.19.15,6.07,5.98,11.31,12.76,15.56,20.15,1.67,2.86,5.35,3.83,8.21,2.16,2.86-1.67,3.83-5.35,2.16-8.21-3.95-6.81-8.63-13.16-13.97-18.94,21.44-23.01,44.97-33.43,66.67-29.41,22.74,4.22,39.99,18.84,46.15,39.11,8.61,28.33-2.46,55.91-14.19,85.1-9.55,23.78-19.42,48.37-19.42,75.16,0,40.23-4.85,72.15-14.42,94.87-10.85,25.76-26.98,38.29-49.3,38.29-3.72,0-12.1-5.31-22.3-16.83,13.92-23.04,25.62-53.69,33.21-87.17.81-3.21-1.14-6.47-4.35-7.28s-6.47,1.14-7.28,4.35c-.02.09-.04.19-.06.28-7.88,34.79-20.28,66.26-34.91,88.63-10.66,16.29-27.72,35.71-48.5,35.71-16.98,0-34.37-13.52-49.74-37.98-.12-.22-.26-.44-.41-.65-5.84-9.53-10.94-19.5-15.26-29.81-1.27-3.06-4.78-4.51-7.84-3.24-3.06,1.27-4.51,4.78-3.24,7.84.01.03.02.06.04.09,4.06,9.66,8.75,19.04,14.04,28.08-12.41,14.57-20.02,17.97-21.79,17.97-21.17,0-37.48-12.9-48.47-38.34-9.98-23.08-15.25-55.87-15.25-94.82,0-26.79-9.87-51.38-19.42-75.16-11.72-29.19-22.79-56.77-14.19-85.1Z"/>
  <path d="M41.86,233.22c1.14,3.94,2.48,8.06,4.1,12.59,2.08,5.85,4.32,11.57,6.24,16.4,1.19,3.09,4.66,4.64,7.75,3.45,3.09-1.19,4.64-4.66,3.45-7.75-.02-.05-.04-.09-.05-.14-1.88-4.73-4.07-10.32-6.08-15.98-1.53-4.31-2.8-8.21-3.88-11.92-1.39-4.72-2.52-9.5-3.38-14.35-.72-4.05-1.17-8.14-1.35-12.24-.14-3.31-2.93-5.88-6.24-5.74-3.31.14-5.88,2.93-5.75,6.24.21,4.63.71,9.24,1.52,13.8.94,5.28,2.16,10.5,3.68,15.64Z"/>
  <path d="M63.46,291.12c1.59,4.45,2.92,8.51,4.07,12.41.94,3.18,4.28,4.99,7.45,4.05s4.99-4.28,4.05-7.45c-1.21-4.11-2.61-8.38-4.27-13.04-1.04-3.15-4.43-4.86-7.58-3.82-3.15,1.04-4.86,4.43-3.82,7.58.03.09.06.18.1.27h0Z"/>
</svg>