<?xml version="1.0" encoding="UTF-8"?>
<svg id="Capa_1" xmlns="http://www.w3.org/2000/svg" version="1.1" viewBox="0 0 660 267.11">
  <!-- Generator: Adobe Illustrator 29.0.0, SVG Export Plug-In . SVG Version: 2.1.0 Build 186)  -->
  <defs>
    <style>
      .st0 {
        fill: #fff;
      }
    </style>
  </defs>
  <path d="M312,6.91l41.2,6.3c43.16,6.41,84.36,22.3,126.78,31.22,11.77,2.48,23.86,4.75,35.91,4.39,1.04-.9,2.94-18.49,6.03-22.22,4.75-5.74,31.25,3.23,34.87,1.1.5-.3,1.19-2.91,2.62-3.86,4.78-3.16,34.4.5,42.12-.97,10.06,1.82,20.85,1.03,30.95,2.05,4.22.42,15.2.25,15.01,5l-85.49-2,.44,3.04c2.39,2.38,5.48-.15,8.06-.05,1.96.07,3.82,1,5.96,1.05,24.21.54,48.52,1.29,72.54,3.96,2.62,2.14-6.63,2.98-7.47,3.03-13.29.94-26.86-.71-40-1.08s-25.05.04-37.55-.95l.07,3.93c2.01,2.2,51.85.75,59.47,1.03,2.36.09,4.55.94,6.92,1.08,7.03.41,16.13-1.94,21.52,3.46-1.2,1.82-2.65,1.41-4.44,1.54-11.66.88-23.51-.91-35-1.09-13.01-.2-26.08.46-39.08.09-1.94-.06-10.06-2.95-8.45,2.44.79,2.64,5.43.52,7.45.46,26.38-.72,52.65.93,78.87,3.22l1.66,2.83-87.97,1.48,1.66,2.56,74.81.97c4.07,2.22,12.95-1.45,13.5,3.98-11.85.65-23.63,1.15-35.54,1.05-13.39-.12-27.48-.57-41-1-2.82-.09-10.27-2.59-12.03-.11l-.34,3.47c.54,1.62,2.01,1.49,3.37,1.65,11.72,1.36,26.06-1.08,38.09-.09l45.96,3.04,2.5,2.99-89-1v5.01c5.3-1.54,9.7-.06,14.46.04,19.93.41,41.2.36,61.03,1.97,4.24.34,11.87.66,14.51,3.98-10.93,2.35-22.58.54-33.67.39-2.73-.04-5.71.75-8.88.67-12.44-.29-32.44-3.51-44-2.1-5.33.65-3.97,6.44-1.87,6.93,5.17-2.25,10-.01,14.88.16,24.85.88,50.02-1.54,74.54,2.97l-.98,1.5c-13.85.17-27.71,1.56-41.56,1.53-12.35-.03-25.49-.65-38-1-4.6-.13-10.26-3.98-10.45,2.95l78.48,3.02c3.64.85,7.46,1.07,11.09,1.96,1.7.41,2.91-.98,2.42,2.02l-90.98-2-1.02,6,24.46,2.04c20.61.34,41.58-.87,62.03.97,1.57.14,6.39.32,5.5,2.99l-90.98-1-1.02,6,77.49,1.01c1.68,1.34,17.39-.1,14.51,3.98l-90.37.09c-2.6.73-2.34,5.98.87,5.92l90.5,3v2l-90.47-.05c-3.42.4-3.87,5.35-.03,6.05,3.36.61,8.25-.24,11.99.01,20.03,1.37,40.1-.17,60.05.95,5.29.3,13.21.69,17.45,3.55l-92,1.5c-.04,1.73-.47,5.39,1.58,5.89l91.42,1.11v2l-21.46,2.04-71.55-.05v5.01c30.59.93,61.84-2.3,92.02,2.5l-3.46,2.54-89.56.94v7.01s92-1,92-1c.28,2.6-1.43,2.81-3.44,3.05-4.58.54-10.29-.33-15.09-.09-18.23.91-36.73,2.81-54.91,3.08-4.06.06-18.63-2.99-19.54,1.48l1.5,2.49h83c2.55,0,11.42,2.99,5.01,4.01-10.1,1.6-26.28.58-37.05.95-2.37.08-4.55,1.02-6.92,1.08-14.92.38-30.84.42-45.53-1.04l-.62,5.93,1.09,2.02c5.46-.81,12.56-1.82,17.98-2,20.55-.68,47.8-1.1,67.92,1.16,6.25.7,6.63,3.38.17,3.93-13.71,1.18-29.22.74-43.01.99s-28.94.33-43.08-.79l-1.31,1.39-.14,5.36h90v3c-30.37,1.31-60.76,3.26-91.06,2.44l-.93,7.57c15.08-2.65,30.3-1.63,45.54-1.96,10.89-.24,21.88-1.75,32.95-1.03,3.46.22,9.56.72,12.49,2.49-.04,3.41-27.29,2.3-30.52,2.46-9.04.43-18.9,1.78-27.92,2.08-11.15.38-22.39-.37-33.54-.04l-1,5.99c12.82-.26,25.71.37,38.54.05,13.94-.34,31.31-3,44.99-2.08,2.54.17,4.92,1.09,7.47,1.05v2.99c-9.75,1.72-19.64.61-29.49,1.01-18.31.76-36.58,2.52-55.05,2.04-2.03-.05-3.83-.93-5.83-.97l-2.59,6.87c1.47.41,2.91.91,4.46,1.06,24.22,2.3,54.12-4.84,80.05-3.05,3.31.23,7.68.28,6.47,4.04l-92.51,5-1.49,6,91.99-.99-.44,3.05c-1.29,1.77-11.06.77-14.05.95-22.94,1.38-52.53,4.88-75.05,3.02-3.24-.27-6.3-1.12-9.34-2.16l-.12-4.88c-8.6-1.08-31.38,3.48-35.78-5.72-2.6-5.43-2-15.19-3.23-21.27-16.66-1.31-30.79,9.04-45.74,14.74-33.84,12.9-75.48,20.12-111.79,18.29-11.8-.59-35.78-6.87-44.93-6.03-1.2.11-8.41,4.14-11.02,5-30.72,10.2-89.76,9.16-71.51-39.01-20.92-1.86-33.48-13.62-31.01-35.51.63-5.57,4.03-8.42,5-13.49-12.75-2.21-24.59-7.95-30.48-20.03-16.93-34.75,16.86-54.2,39.48-72.97-16.91.75-37.47-8.87-53.55-9.04-9.48-.1-19.88,1.58-29.99,1.08s-24.19-4.13-33.95-4.12c-5.18,0-12.39,2.73-18.02,3.06-7.87.47-20.78-.91-28.71-2.26C26.04,66.8,6.48,56.35,0,39.91v-9c4.16-6.26,9.07-11.23,16.74-12.76,23.5-4.71,58.86-6.03,82.77-5.25,25.12.82,44.62-1.92,68.95-3.03,35.71-1.64,71.51,2.84,107.12-1.92l2.42-1.04h34ZM259,45.41c.56,9.4-.41,19.08,0,28.5l4.59-4.45c-1.19-10.15-.93-22.02,2.91-31.54l1.5,29.99,4.07-1.68-1.11-7.77,2.05-21.54,1.98,8.5c-.18,2.83-.16,19.31,2.5,19.46,5.47-2.22,2.56-4.31,2.46-8.43-.2-7.56.03-15.07,1.06-22.54,1.99.41,1.7,2.06,1.98,3.51,1.45,7.47,1.12,15.87,2.01,23.49,5.48.7,5.26-2.02,5.05-6.53-.36-7.58-1.88-15.77-2.05-23.46,3-.53,1.57.82,2.1,2.35,2.62,7.58,3.41,16.62,3.9,24.65,1.41.04,2.58.38,3.52-.97.68-.98-.26-12.29-.53-14.52-.6-4.9-1.85-9.73-2.98-14.51,6.48,5.97,7.92,18.43,8,26.99,1.36.28,2.33-.47,3.08-1.48,2-2.66-4.41-22.25-6.09-26.51,1.84-1.87,5.77,7.38,6.18,8.31,2.31,5.31,3.63,11.04,4.83,16.68,5.36-.02,1.64-8.69.71-12.21-1.52-5.71-3.94-11.17-5.71-16.78,2.31-.59,2.83,2.12,3.77,3.7,3.81,6.41,7.32,13.82,8.24,21.3l4-1.01-9-26.99c7.02,5.7,10.5,15.62,13,24,.74.54,5.39-1.58,4.87-3.32l-8.87-20.68c5.04.75,12.32,19.71,13.5,20,7.54,1.83-4.29-17.01-3.5-19,6.05,3.53,7.44,10.82,11.59,15.92l4.25-3.22-5.84-11.7c4.86,1.47,7.19,12.48,11.47,12.06l2.5-1.55-2.97-6.51,7.01,6.48,8.98,1.51c-23.08,2.23-40.39,17.89-60.64,26.87-13.73,6.09-33.95,10.31-45.37,19.63-10.05,8.2-14.71,21.33-22.98,31.03l8.99,4.99c9.41,9.95,8.18,19.39-1.01,28.99-10.73,11.21-23.51,6.15-32.98-3.49-2.28,8.6,11.8,15.28,18.48,16,12.2,1.3,36.58-7.11,46.42-14.59s14.37-19.59,27.06-22.94c19.34-5.11,41.62-7.37,56.57-22.43,9.62-9.68,10.69-30.18,12.96-43.05,2.74,9.61,1.77,21.08-1.46,30.55-1.31,3.83-3.81,6.76-5.03,10.46,7.75-7.62,11.77-19.56,14-29.99,1.7-.02,1.94,3.24,1.9,4.37-.44,11.53-6.08,22.99-13.39,31.65l-12.52,8.97c3.7-.11,8.02-3.3,10.91-5.57,10.81-8.5,19.87-21.65,22.09-35.42,3.01-.77,2.14,2.39,1.88,4.39-2.17,16.77-17.98,36.54-34.67,40.33-3.17.72-16.61,1.22-17.22,3.79,14.76,18.63,34.79,34.53,56.64,44.34,26.21,11.77,52.53,14.34,79.32,2.61,4.56-2,8.27-5.25,13.03-6.46-13.55,10.8-31.56,18.06-48.99,19l10.01,7.48c11.15,9.93,19.81,22.46,24.98,36.51-5.81-5.81-9.58-13.32-14.96-19.53-4.7-5.41-20.85-20.78-26.98-23.02-.95-.35-5.08-1.48-5.03.53,16.88,9.69,29.8,27.15,38.99,44-2.21.54-2.23-1.27-3.21-2.28-13.41-13.89-23.66-28.19-41.12-37.88-1.63-.9-4.84-3.21-6.67-2.33,14.32,10.33,29.14,24.2,39.22,38.78,1.78,2.57,4.3,5.58,4.77,8.72-17.42-16.9-32.46-38.2-55.99-46.99,5.85,4.66,12.35,8.54,18.01,13.48,7.39,6.44,18.71,17.8,24.4,25.6,1.39,1.91,4.52,5.48,4.09,7.91l-33.49-31.51-17.01-12.48c-.43,1.88,1.06,2.37,1.99,3.5,3.73,4.48,8.61,7.61,12.53,11.47,9.89,9.74,19.21,20.25,28.47,30.53l-1.48.49-50.5-45.99c1.08,6.24,6.06,10.13,9.48,15.01l35.49,33.49c-1.77,2.3-1.46,1.07-3.08.11-6.87-4.07-12.41-10.5-18.91-15.09l-30.99-30.5c10.36,20.8,28.88,33.69,44.99,49.5.16.75-.97.64-1.48.48-7.74-2.49-35.52-27.43-41.49-34.52-4.09-4.86-7.04-10.56-11.02-15.47,6,23.58,27.04,37.57,43.99,52.99l-16.31-10.18c-13.43-10.07-26.27-22.26-33.19-37.81-.8,2.69,1.51,6.77,2.65,9.35,7.46,16.98,22.99,31.53,37.85,42.15.82,2.7-4.01-.01-4.67-.33-15.97-7.67-39.27-30.95-42.35-48.67-.29-1.67.61-1.71-1.97-1.5,2.27,22.19,20.83,39.37,35.99,53.99-15-6.3-27.29-20.9-36.49-33.99-4.29,1.84,2.83,12.52,4.27,14.72,5.36,8.16,12.86,13.1,19.22,20.27-6.21-.75-11.14-6.92-16.47-10.02l-14.01-14.96c-4.18,2.72-1.58,5.21.66,8.32,4.93,6.83,12.87,11.78,17.83,18.66-10.2-2.53-16.58-11.99-23.95-17.53-3.96-2.98-6.18-1.3-3.04,3.04,3.58,4.96,10.53,9.15,13.99,14.5-8.39-2.49-15.29-8.13-20.5-14.97l-2.42,3.35,9.92,11.62c-5.12,1.19-12.39-9.25-14.47-9.68-6.82-1.41,3.41,8.75,2.46,9.69l-9.48-5.99c-3.43,2.4.63,3.28.48,5.99l-5.49-1.99-5.5,3.5c6.55,2.45,13.64,1.17,20.49,1.51,44.46,2.17,80.71-1,122.76-16.26,10.7-3.88,23.48-11.63,33.73-14.27,9.42-2.42,19.6-1.73,28.87-2.65,2.4-12.98,4.23-26.14,5.15-39.34,1.71-24.8,1.72-50.25.97-74.95-.52-16.95-.95-33.72-2.96-50.55-41.4,3.74-79.53-14.1-118.99-23.51-33.08-7.89-73.86-17.43-107.5-18.49-27.7-.87-56.1,4.29-84,4.08-11.9-.09-25.11-2.28-37.06-2.12-18.32.26-38.64,5.12-56.94,5.12-10.98,0-23.96-3.21-34.91-2.98-9.3.19-19.98,3.26-29.12,3.89-14.44.99-58.37-5.93-45.67,21.71,10.19,22.17,54.51,21.14,74.73,21.35,13.05.14,25.8,1.6,38.92,2,10.53.32,22.21-1.79,32.02-1.02,21.71,1.7,51.41,11.2,72.95,7.92,1.56-.24,3.87-.94,4.41-2.59.89-2.73.74-10.28,1.63-14.37,1.4-6.4,3.45-16.13,7.52-20.97-2.9,17.04-7.4,37.57,5,52-3.57-13.84-2.5-31.25,1.5-45.01.5-1.73.93-5.75,3.51-4.98-1.98,5.47-3.26,41.28-.98,42.99,4.9-2.25,1.77-8.43,2-13.49.41-8.85,3.32-18.59,3.99-27.51,1.24.12,2.12-.91,1.71,1.29-.55,2.99.19,2.77.28,4.22ZM556.9,37.01l-27.89-5.1c-1.04,6.76,1.41,13.09,1.98,19.51,4.49,50.41,7.57,108.65-.27,158.69-1.98,12.64-4.77,27.12-9.71,38.78l9.86.88c8.07-32.3,9.89-65.94,14.63-98.88,1.42,33.01-2.2,66.56-10.34,98.54,1.77,2.62,5.48,2.02,5.84-1.04,6.46-40.65,9.46-81.82,11.02-122.98l1.98-7.51c1.04,44.89-1.94,89.9-9.99,133.99l5.05-.63c3.8-21.41,6.63-43.12,7.94-64.87,2.43-40.37,1.21-78.76-.03-118.95-.31-10.13.41-20.33-.06-30.44ZM214.5,104.91c-4.94-.48-10.48.35-15.5,0,1.25-2.56,5.95-2.83,8.46-3.04,8.55-.7,18.3-.37,25.89,3.91,2.63-2.24,4.57-2.93.44-4.16-9.05-2.68-19.34-3.96-28.8-3.73.38-1.81,1.97-1.87,3.46-2.03,11.37-1.22,17.28.37,28,2.14,4.39.73,5.47-1.24.74-2.79-8.21-2.69-18.6-3.11-27.2-4.33-.43-1.01,2.33-1.99,2.5-1.99h17c.57,0,4.37,2.64,4.49.01-7.23-2.37-17.99-7.68-25.37-3.89-1.22.63-10.96,9.63-12.67,11.33-3.08,3.05-8.1,8.68-10.93,12.07-6.21,7.47-12.64,15.47-14.02,25.47l6.98-9c-2.51,12.99-7.96,30.06,7,37.51,9.61,4.79,36.67,10.88,47.52,11.48,28.16,1.56,73.11-14.01,98.85-26.13,3.37-1.59,15.71-6.8,14.53-11.16l-2.88-2.7c-.11,7.55-16.34,14-22.27,12.83-7.21-1.42-7.88-14.18-5.74-19.82-8.38-.87-19.77,2.4-21.45,11.87-1.04,5.81,4.76,20.62-5.54,20.12l3.01-16.48-2-.51c-.17,3.16-3.92,4.22-4.78,6.73-1.44,4.17.52,11.84-4.76,13.25-4.19,1.11,2.99-11.2-.96-9.97-10.26,3.2-1.25,13.81-12.52,12.98l1.48-7.01c-7.14,1.04-6.33,3.47-9,9l-1.49-4.99c-4.36-.24-7.74,1.11-7,6.01l-3.61-3.94c-5.59.49-6.42.55-7.88,5.93l-1.59-4.91-6.35-.97c-2.19.47-.41,5.02-3.56,3.89.04-3.92-3.02-6.63-7.01-6l-.5,6c-2.75-5.05-.24-9.33-7.01-11.99l-.5,7.99c-4.34-3.52-6.3-15.09-6.04-20.46.42-8.72,12.1-18.26,17.55-24.54l.5-2.99c-9.16-2.19-18.5-4.45-28-4.01-.47-2.86.6-1.66,2.31-2.13,9.33-2.57,21.38-.72,30.14,3.13,1.26-.31,2.13-3,1.5-3.94s-13.45-3.86-15.45-4.05ZM235.72,117.06c-1.33.36-18.47,18.97-18.39,20.34,2.95,5.92,12.55,10.74,18.95,9.3,4.51-1.01,14.34-14.07,14.46-18.47s-10.57-12.37-15.02-11.17ZM334.79,123.14c-13.03-1.29-20.14,5.63-13.82,18.36,11.27-1.23,25.62-5.77,13.82-18.36ZM351.64,177.56c2.8-3.05,2.97-8.17,2.3-12.09-1.2-7.02-12.81-11.9-19.36-10.47-42.01,13.97-86.08,33.79-131.02,21.03-7.22,16.43-5.32,32.08,12.91,38.9,35.47,13.27,80.97-2.53,111.83-21.21,4.92-2.98,20.07-12.6,23.34-16.16ZM229,224.91c-3.04,17.16-1.14,28,16.99,32.51,15.11,3.76,35.22,2.37,49.69-3.33,10.86-4.28,48.82-27.48,54.51-36.49,8.54-13.51.87-25.56-14.19-20.68.67,2.12,4.11-.24,6.25.14,7.16,1.25,9.13,13.07,7.2,18.81-1.29,3.82-12.99,13.18-16.79,11.94-3.48-1.14-10.84-20.99-4.67-24.89-10.47,4.02-19.92,10.12-30.48,14.01-5.52,2.03-24.16,7.98-29.02,7.98h-39.5ZM339.76,201.07c-14.38,1.47-11.84,14.11-5.27,22.83,3.16-3.18,11.51-7.07,12.35-11.72.67-3.72-2.87-11.54-7.08-11.11Z"/>
  <path class="st0" d="M660,137.91v19l-91.42-1.11c-2.06-.5-1.62-4.16-1.58-5.89l92-1.5c-4.25-2.86-12.17-3.25-17.45-3.55-19.95-1.12-40.02.42-60.05-.95-3.74-.26-8.63.6-11.99-.01-3.84-.7-3.4-5.64.03-6.05l90.47.05Z"/>
  <path d="M376.01,144.91c-2.29-2.19,11.63-6.94,12.87-7.62,11.26-6.19,21.11-16.02,28.53-26.47,3.55-4.99,5.78-11.09,9.58-15.91-4.24,25.01-24.79,48.14-50.98,50Z"/>
  <path d="M421,87.92c-5.2,24.68-25.88,49.91-52.99,48.99-.33-1.62.42-2.08,1.62-2.87,2.9-1.89,11.13-3.39,15.41-5.59,16.24-8.33,25.97-22.4,33.7-38.34.66-1.36-.64-2.76,2.26-2.19Z"/>
  <path d="M360,128.9c3.41-4.04,10.17-4.4,14.98-6.51,11.06-4.83,19.4-11.72,26.43-21.57l9.58-16.9c-1.62,25.99-24.94,46.26-50.99,44.99Z"/>
  <path d="M393.01,154.91c-.37-1.8.86-2.5,2.05-3.44,3.51-2.79,11.01-5.62,15.47-8.53,7.52-4.91,16.75-12.63,22.45-19.55,4.48-5.44,7.37-12.19,12.01-17.48-6.33,25.44-26.52,43.53-51.98,49Z"/>
  <path d="M427.01,163.91c-.46-2.12,1.07-2.28,2.32-3.17,16.49-11.84,27.34-16.87,38.48-35.52,2.55-4.28,3.92-9.62,7.18-13.31-2.99,23.9-23.86,47.71-47.98,51.99Z"/>
  <path d="M404,78.92c-5.39,25.05-24.77,43.31-50.99,43.98-.38-1.95.91-2.4,2.29-3.2,4.3-2.49,11.42-3.52,16.72-6.28,15.09-7.85,21.32-18.62,29.5-32.54.76-1.3-.18-2.52,2.49-1.96Z"/>
  <path d="M383,149.91c4.31-5.07,11.92-5.95,17.92-9.57,8.5-5.13,19.24-14.91,24.9-23.1,3.9-5.65,5.91-12.3,10.18-17.31-3.55,26.92-26.82,46.36-52.99,49.99Z"/>
  <path d="M489,106.92c-3.31,28.87-24.23,51.37-50.99,60.99-.49-2.11,1.12-2.26,2.27-3.22,24.12-20.25,35.58-22.36,46.62-55.43.52-1.56-.88-2.86,2.11-2.34Z"/>
  <path d="M450.01,167.91c-.64-2.61.84-1.75,1.88-2.58,20.67-16.36,35.53-23.32,43.67-51.36.79-2.73-.37-7.65,2.43-9.06.11,28.8-20.53,54.96-47.98,62.99Z"/>
  <path d="M520.99,213.91c-1.83-.38-1.85-1.96-2.02-3.46-.94-8.02,1.26-21.75,1.07-31.08-.18-8.8-1.81-19.09-2.08-27.92-.2-6.49.22-13.05.05-19.54,1.37-.25,1.51,1.78,1.72,2.75.85,3.96,1.64,9.75,2.14,13.87,2.68,21.83,2.9,43.67-.88,65.37Z"/>
  <path d="M414,162.9c11.63-9.74,24.99-16.51,35.02-28.47,5.61-6.69,8.81-14.62,13.97-21.52-4.79,23.99-25.19,44.76-48.99,49.99Z"/>
  <path d="M403,157.9c4.55-4.41,11.47-6.21,16.92-9.57,10.64-6.55,19.22-15.48,26.31-25.69l6.76-12.72c-3.15,23.86-25.47,46.52-49.99,47.99Z"/>
  <path d="M513.01,213.91l-5-73.99,4.87,27.61c.08,13.83,4.33,29.33,2.13,42.89-.24,1.49-.05,3.09-2,3.49Z"/>
  <path d="M482.99,219.91c-6.02-6.48-8.96-15.64-14.57-22.92-4.54-5.88-10.78-10.3-15.42-16.07,14.42,6.5,29.16,22.64,29.99,38.99Z"/>
  <path d="M464,165.9c8.94-6.57,18.36-11.09,25.51-19.98,4.87-6.06,6.48-13.3,11.48-19.01-2.97,19.08-17.99,35.18-36.99,38.99Z"/>
  <path d="M507.99,215.91c-1.99-.41-1.7-2.06-1.98-3.51-2.92-15.08-3.8-31.34-7-46.49,2.42,2.12,3.35,7.13,4.26,10.23,3.76,12.89,5.15,26.3,4.72,39.77Z"/>
  <path d="M186.01,32.92c1.78.69,1.12,5.93,1.03,7.54-.3,5.07-1.51,10.86-2.03,15.97-.27,2.58,1.57,11.94-3.5,10.48-1.84-.53-1.57-3.95-1.52-5.45.27-8.9,3.63-19.95,6.03-28.53Z"/>
  <path d="M488.99,215.91l-11.58-21.91-13.41-15.08c5.49.49,12.62,8.29,15.83,12.66,4.69,6.38,9.26,16.4,9.16,24.33Z"/>
  <path d="M222.99,69.91l-3.03-.44c-2.68-1.95,2.69-19.97,3.12-23.98l3.92-10.57-4,34.99Z"/>
  <path d="M497,216.91c-2.83.51-1.64-.67-2.25-2.19-2.59-6.49-2.97-13.77-7.23-19.82l-10.51-15.98c2.08-2.25,14.56,16.02,15.53,17.96,3.62,7.24,3.28,12.25,4.45,20.04Z"/>
  <path d="M502.99,216.91c-3.01.49-1.61-.74-2.02-2.42-3.19-12.93-5.97-25.83-9.96-38.57,9.03,11.28,11.57,26.9,11.98,40.99Z"/>
  <path d="M211.01,34.92c1.77.29,1.11,5.2,1.03,6.54-.37,6.11-1.25,14.81-2.16,20.83-1.31,8.57-5.35,11.5-4.87,1.15.41-9.02,4.4-19.56,6-28.52Z"/>
  <path d="M164.02,62.89c-.89-1.15,3.78-25.29,4.83-28.62.42-1.33.34-3.04,2.14-3.35l-2.19,30.29c-.26,2.3-3.82,2.92-4.78,1.68Z"/>
  <path d="M197.01,68.91c-.08-10.4,1.45-20.92,4.73-30.76.41-1.23.74-4.22,2.26-4.23l-3.93,34.55-3.05.44Z"/>
  <path d="M194.01,32.92c1.8.06,1.03,4.26,1.02,5.55-.06,7.96-1.51,19.06-3.06,26.91-.26,1.3-.81,2.86-2.45,2.53-1.71-1.16-1.62-2.6-1.55-4.44.38-9.43,4.49-21.07,6.05-30.54Z"/>
  <path d="M175.99,64.92h-3.99c-1.44-1.38,3.36-24.49,4.48-28.02.47-1.5.65-3.56,2.51-3.98l-3,32Z"/>
  <path d="M327.01,73.92c2.32.94,2.83,3.9,3.49,6,2.7,8.55,5.07,21.74,1,29.98-2.45-.03-1.29-12.15-1.51-14.47-.67-7.12-2.29-14.37-2.98-21.51Z"/>
  <path d="M233.01,33.92c1.72-.19,1.1,3.45,1.03,4.53-.56,8.5-2.45,15.9-3.94,24.06-.35,1.9.9,9.1-2.58,8.4-1.66-.34-1.48-2.99-1.44-4.34.34-10.09,5.91-22.35,6.93-32.65Z"/>
  <path d="M344.01,105.91l.49-38.01c4.43,9.79,4.44,23.62,2.06,34.07-.33,1.43-.88,3.57-2.55,3.94Z"/>
  <path d="M80,33.91c1.8,8.41.18,15.95-.13,24.37l-4.86,1.63c.89-8.15,1.81-16.37,3.02-24.49.26-1.74-.54-1.68,1.97-1.51Z"/>
  <path d="M153,54.41c-.37,2.93-2.1,9.24-6.01,6.99,2.21-8.25,2.03-17.51,4.33-25.69.29-1.04.23-3.03,1.69-2.8-.61,6.8.83,14.87,0,21.5Z"/>
  <path d="M122,56.41c-.2,1.3-2.23,3.59-2.01,5.5l-3.87-1.58c1.81-7.54,2.12-16.22,4.2-23.62.29-1.04.23-3.03,1.69-2.8-.74,6.96,1.01,15.8,0,22.5Z"/>
  <path d="M306.98,85.92c.35.33,3.39,7.66,3.74,8.77,1.97,6.22,3.31,13.87,1.26,20.22-2.61.31-1.57-.04-2.01-1.46-2.43-7.84-1.09-19.03-4.95-27.06l1.97-.48Z"/>
  <path d="M338.99,107.92c-1.4,1.48-1.82-.1-1.99-1.48-.63-4.92.41-10.88-.01-16-.5-6.15-2.52-12.35-2.98-18.51,2.2.91,2.61,4.2,3.25,6.24,2.93,9.48,3.74,20.04,1.73,29.76Z"/>
  <path d="M142.93,62.86l-2.93.06c-1.06-1.02,3.13-22.21,4-25.5.36-1.38-.03-3.11,1.99-3.5.17,9.67-.29,19.61-3.06,28.95Z"/>
  <path d="M219.99,34.92l-3.82,31.67c-.19,1.34-.79,3.67-2.66,3.32-2.05-.38-.75-2.63-.68-3.6.58-8.09,2.88-20.12,5.11-27.94.39-1.36.12-3.1,2.04-3.45Z"/>
  <path d="M326,110.41c-.09.36-1.65,1.75-1.99,1.5-1.64-11.18-.79-22.64-5.03-33.48,1.1-1.64,2.21.14,2.79,1.21.81,1.49,4.22,13.47,4.22,14.78,0,3.89.76,13.02,0,16Z"/>
  <path d="M73,33.91v16.5c0,.62-1.6,9.24-2.01,9.5-1.36.86-3.8-.32-3.93-2.39-.15-2.34,2.7-17.39,3.45-20.65.42-1.8-.09-3.53,2.5-2.95Z"/>
  <path d="M365.99,90.92c-1.73-.06-2.1.67-1.77-1.26,2.02-11.67,3.15-22.88,3.27-34.74,5.88,11.19.87,24.51-1.51,36Z"/>
  <path d="M105,52.41c-.18,1.63-1.54,4.43-1.44,6.56l-4.58.42c2.05-7.22,2.03-15.99,3.97-23.03.38-1.38.13-3.11,2.05-3.45-.5,6.24.69,13.39,0,19.5Z"/>
  <path d="M127.88,61.79l-3.88.13c.89-7.63,1.54-15.94,3.01-23.49.28-1.46-.01-3.1,1.98-3.51.72,8.91.67,18-1.11,26.88Z"/>
  <path d="M108.01,60.91l4.98-26.99c.83,2.5,1.13,4.84,1.07,7.5-.07,3.3-1.05,16.95-2.56,18.49-1.19,1.22-1.88,1.16-3.49,1Z"/>
  <path d="M159.97,61.9l-3.99-.5c2.1-8.33,2.62-17.84,4.97-26.03.39-1.36.12-3.1,2.04-3.45l-3.02,29.99Z"/>
  <path d="M136.99,33.92l-2,29h-3.99c1.58-9.09,2.33-18.43,4.03-27.5.3-1.63-.65-1.73,1.96-1.5Z"/>
  <path d="M358.99,97.91c-1.76-.29-1.11-5.2-1.04-6.54.15-2.81,1.01-5.32,1.09-7.91.24-7.53-.29-15.09-.54-22.55,5.37,11.67,3.69,24.94.49,37Z"/>
  <path d="M282.99,135.91l-11.98-26.99c7.69,5.88,14.32,17.23,11.98,26.99Z"/>
  <path d="M89,55.41c-.29,1.79-2.01,5.31-4.49,4.51-2.33-.32,2.44-20.76,3.01-23,.3-1.15-.07-3.24,1.48-3.01-.75,6.57,1.03,15.22,0,21.5Z"/>
  <path d="M97,34.91v20.5c0,.73-1.52,2.92-1.08,4.41l-3.91.09c.51-7.83,1.86-15.7,3.02-23.5.26-1.75-.53-1.67,1.98-1.5Z"/>
  <path d="M481.99,84.91c-4.45-5.46-5.99-13.8-8.98-20.51-1.44-3.24-3.72-6.16-5.01-9.48,2.25-2.16,8.56,9.87,9.18,11.31,2.41,5.69,3.76,12.59,4.81,18.68Z"/>
  <path d="M460,73.91c-2.66.55-1.72-.67-2.48-1.97-5.01-8.54-8.45-18.04-14.51-26.02,1.98-1.93,10.03,10.26,10.81,11.68,1.12,2.04,6.81,15.55,6.19,16.3Z"/>
  <path d="M56.99,35.92c.13,6.45-.3,13.03-1.1,19.42-.72,5.73-5.02,4.44-4.85.23.13-3.28,2.59-14.07,3.68-17.47.54-1.68-.44-2.64,2.27-2.18Z"/>
  <path d="M313.99,80.91c2.83,11.01,7.55,21.4,4,32.99l-5.8-31.7,1.8-1.3Z"/>
  <path d="M353,63.92c.31,10.85,3.01,25.27.14,35.69-.47,1.71.72,2.78-2.13,2.3.14-12.18,2.45-24.65.21-36.73-.36-1.93.09-1.21,1.78-1.26Z"/>
  <path d="M297.99,120.91c-3.9-2.25-2.44-7.75-3.25-11.24-1.31-5.67-3.52-11.08-4.73-16.76,7.27,6.47,9.04,18.72,7.98,28Z"/>
  <path d="M64.99,34.92c.58,8.09-.88,15.98-2.06,23.93l-3.93.06c1.62-6.86,2.06-15,3.86-21.68.46-1.72-.71-2.78,2.13-2.31Z"/>
  <path d="M298.98,89.92c2.85,2.4,9.16,23.15,4.51,26.99l-6.48-26.51,1.96-.47Z"/>
  <path d="M278.98,102.92c.43.36,5.33,8.44,5.9,9.62,2.68,5.61,3.69,11.13,3.11,17.38-3.38-3.32-3.51-9.5-5.23-14.26-1.44-3.98-3.66-8.53-5.75-12.25l1.97-.48Z"/>
  <path d="M277.99,139.91l-2.46-1.99-9.53-21.01c7.58,5.31,12.5,13.51,11.98,22.99Z"/>
  <path d="M470.99,78.91l-13.99-26.99c6.21,1.84,9.02,10.85,11.02,16.47,1.19,3.35,2.64,6.98,2.97,10.52Z"/>
  <path d="M446.99,66.91l-13.99-22.99c3.09-2.88,15.75,19.09,13.99,22.99Z"/>
  <path d="M40,55.91l-3.52-.97c-2.07-3.01.88-16.4,3.03-20.02l.49,20.99Z"/>
  <path d="M291.99,122.91l-8.98-25.99c6.67,6.45,10.11,16.62,8.98,25.99Z"/>
  <path d="M47.99,35.92c-.31,5.91-.02,13.78-.99,19.5-.57,3.35-3.71,3.73-3.56-.48.16-4.46,1.06-11.43,2.41-15.66.42-1.33.34-3.04,2.14-3.35Z"/>
  <path d="M32,52.91l-3.06-.44c-2.32-1.69-.45-16.73,3.06-18.56v19Z"/>
  <path d="M435.99,61.91l-2.82-2.67-12.16-19.33c7.96,4.03,11.78,14.04,14.98,22Z"/>
  <path d="M520.99,83.92c1.58,1.53,3.31,23.3,3,26.99-1.45.23-1.39-1.76-1.68-2.8-2.11-7.46-1.69-15.37-3.09-22.94-.37-1.98,1.23-1.78,1.77-1.26Z"/>
  <path d="M424.99,56.91c-6.04-5.07-9.89-12.41-13.99-18.99,2.48-2.28,14.58,15.79,13.99,18.99Z"/>
  <path d="M512.99,85.92c1.79,6.83,3.44,13.87,3,21-1.7-.38-2.19-2.5-2.54-3.95-1.05-4.27-1.81-11.08-2.37-15.65-.24-1.97.2-1.44,1.91-1.4Z"/>
  <path d="M271.99,142.91c-2.99-.57-8.6-15.33-7.99-15.99,2.18-.51,2.22,1.22,3.2,2.29,3.54,3.81,5.32,8.44,4.78,13.71Z"/>
  <path d="M24.99,32.92l-.12,7.37-2.36,8.61c-3.63-2.37-1.15-11.47.24-14.74.6-1.43.22-1.53,2.25-1.25Z"/>
  <path d="M498.99,75.91c-4.42-4.35-8.66-11.78-9.98-18,5.9,3.7,8.22,11.59,9.98,18Z"/>
  <path d="M411.99,51.91l-11.98-16.99c1.91-1.9,10.07,11.09,10.82,12.67.67,1.42,1.51,2.63,1.16,4.33Z"/>
  <path d="M487.99,76.91l-7.86-14.63-1.12-4.37c5.88,3.97,7.93,12.29,8.98,19Z"/>
  <path d="M402.99,49.91c-5.25-4.16-9.22-10.46-12.99-15.99,1.88-1.84,13.46,13.11,12.99,15.99Z"/>
  <path d="M501.69,61.24c2.02,1.91,6.02,9.65,6.3,12.68-4.41-3.28-5.96-9.62-9.98-13.5.63-1.34,3.02.21,3.68.83Z"/>
  <path d="M391.99,46.91c-4.06-3.61-7.47-8.21-9.99-12.99,1.88-1.87,10.58,10.51,9.99,12.99Z"/>
  <path d="M504.99,87.91l2,16c-3.57-2.97-3.34-9.97-3.92-14.59-.25-1.98.23-1.44,1.92-1.42Z"/>
  <path d="M265.99,145.91c-2.03,2.26-6.46-9.43-5.98-10.99,3.92,2.11,5.75,6.71,5.98,10.99Z"/>
  <path d="M258.99,149.91c-2.39.73-2.83-2.38-3.43-4.04-.67-1.84-2.39-3.47-.07-4.93,3.36,2.39,4.03,4.91,3.49,8.97Z"/>
  <path d="M510.98,60.92l5.02,10.98c-1.74,1.74-6.61-8.49-6.91-9.59-.51-1.87.47-1.49,1.89-1.39Z"/>
  <path d="M336.73,158.16c10.12-1.66,15.01,5.54,15.86,14.8-1.32,4.67-19.02,12.99-24.12,14.64-9.56-10.3-7.09-26.91,8.26-29.43ZM344.69,163.23c-5.21-4.71-15.63.66-17.22,6.67-1.05,3.93.3,13.35,5.56,11.61,1.15-.38,15.05-7.83,15.53-8.58,1.19-1.86-2.41-8.39-3.87-9.7Z"/>
  <path d="M247,190.91l2,24-3.85-.15c-2.13-1.26-.56-18.91-.15-22.37.22-1.84-.29-1.61,2-1.48Z"/>
  <path d="M270.99,190.92c1.13,1.11,5.48,24.66-2.98,21.99.7-6.38.21-14.36.99-20.51.18-1.39.54-2.9,1.99-1.48Z"/>
  <path d="M260,213.92c1.05-6.36.25-13.22.96-19.54.17-1.5.21-3.09,2.03-3.46-.87,6.36,7.3,23.92-2.99,23Z"/>
  <path d="M275,211.91l2.49-25.99c2.51,4.15,3.88,21.71,1.5,24.49-.53.62-3.48,1.99-3.99,1.49Z"/>
  <path d="M283.01,209.91l2.49-24.99c3.23,3.45,3.54,21.11,1.5,23.49-.53.62-3.51,1.99-3.99,1.5Z"/>
  <path d="M224.99,211.91c-8.83.45-4.01-18.23-1.49-22.99l1.49,22.99Z"/>
  <path d="M234,213.91l-5.03-1.67c.27-6.96-.92-14.93,2.54-21.32l2.49,22.99Z"/>
  <path d="M252,193.41c.05-.42.97-4.78,1.99-4.49l2.05,23.48-4.04,1.51c.52-6.56-.71-14.07,0-20.5Z"/>
  <path d="M292,183.91c1.67.42,2.39,4.31,2.73,5.78,1.17,5.06,3.93,16.58-3.22,17.23-1.41-.18.49-1.28.49-1.51v-21.5Z"/>
  <path d="M217,208.41c0,.24,1.9,1.33.49,1.51-9.08-1.36-2.34-14.91-2.48-21.01.26-.33,1.99,1.28,1.99,1.5,0,5.99-.15,12.02,0,18Z"/>
  <path d="M239.99,190.92l2,22.99-3.42.06c-2.87-3.92-.75-7.82-.58-11.57.14-3.23-.39-6.97,0-10.01.18-1.38.73-3.12,2-1.48Z"/>
  <path d="M308.73,199.65c-.54.59-3.3,1.71-3.73,1.26l1-19.99c1.44-.24,1.4,1.76,1.68,2.79,1.03,3.68,3.68,13.08,1.04,15.94Z"/>
  <path d="M314.99,176.92c-1.26,6.67,5.27,18.22-2.98,20.99,1.56-6.31.22-13.5.99-19.52.19-1.46.78-3.12,2-1.48Z"/>
  <path d="M303,202.92h-3.99c1.09-6.67,1.09-12.34,0-19,3.84,1.25,4.8,18.23,3.99,19Z"/>
  <path d="M208,185.91v16.5c0,.41,2.58,1.75-.49,1.49-3.76-3.62-2.95-10.96-1.65-15.68.47-1.72-.73-2.77,2.14-2.32Z"/>
  <path d="M319,193.91v-18l2.74,8.75c.23,3.12,1.77,9.23-2.74,9.25Z"/>
  <path d="M204.99,131.92c-3.21,10.22-1.95,19.71-2.49,29.99-4.46-6.98-5.25-20.79-.71-27.7.87-1.32,1.18-2.7,3.2-2.29Z"/>
  <path d="M194.99,127.92c-.61,10.31-3.1,20.28-.01,30.51l-1.97.48c-2.93-9.13-5.23-20.01-.53-29.06.75-1.44-.03-2.43,2.51-1.94Z"/>
  <path d="M185.99,155.91c-6.52-6.69-7.04-22.35,0-29-.3,9.86-1.97,19.11,0,29Z"/>
  <path d="M308,133.91c2.8-.47,1.67.6,2.25,2.2,1.79,4.93,4.6,17.28-3.25,16.8-.39-1.09,1-2.19,1-2.49v-16.5Z"/>
  <path d="M302,135.91l1.62,16.56-4.6,3.45c1.47-5.98.26-12.83.99-18.52.18-1.37.75-3.15,2-1.49Z"/>
  <path d="M276.99,254.91c-8.15-3.12-9.21-15.38-9.98-22.99,2.73,1.74,10.84,22.07,9.98,22.99Z"/>
  <path d="M269,254.91c-2.14,2.23-6.74-8.08-7.17-9.32-1.59-4.63-2.28-8.72-1.82-13.67l8.99,22.99Z"/>
  <path d="M274.98,230.92l9.01,21.99c-3.55,3.71-10.73-18.61-10.96-20.54s.28-1.52,1.95-1.45Z"/>
  <path d="M261,255.91c-1.84.58-3.77-2.9-4.42-4.07-3.4-6.12-4.01-13.01-3.57-19.92l7.99,23.99Z"/>
  <path d="M240.99,232.92l4,19.99c-3.09,2.74-6.47-8.54-6.74-10.76s-.88-9.68,2.74-9.23Z"/>
  <path d="M290.99,251.91c-3.43,3.55-11.71-19.48-10.98-21.99,5.31,6.18,7.93,14.51,10.98,21.99Z"/>
  <path d="M288.98,228.92l8.01,21c-4.76-3.11-9.31-14.12-9.96-19.55-.23-1.97.27-1.51,1.95-1.44Z"/>
  <path d="M232.99,230.92l4.01,18.99c-2.16,2.49-5.56-8.62-5.75-9.74-.21-1.2-1.18-12.19,1.75-9.26Z"/>
  <path d="M303,246.91c-2.38.3-3.43-2.46-4.38-4.11-2.56-4.45-3.98-10.03-5.61-14.88,1.94-1.95,7,9.83,7.49,11,1.02,2.47,2,5.36,2.51,7.98Z"/>
  <path d="M251.99,253.91c-5.98-3.72-9.23-14.91-5.48-20.99l5.48,20.99Z"/>
  <path d="M306.98,225.92c1.51,3.84,4.03,7.3,5.22,11.3.55,1.84,1.5,2.11-.71,3.67-3.34-3.89-4.56-8.99-6.35-13.65l1.83-1.32Z"/>
  <path d="M301.98,228.92l6.01,14.99c-2.55.58-1.75-.66-2.59-1.87-1.66-2.39-4.53-8.92-5.31-11.73-.52-1.87.47-1.46,1.89-1.38Z"/>
  <path d="M318,237.91c-2.7,2.71-6.51-12.31-5.99-13.99,3.69,3.51,4.53,9.42,5.99,13.99Z"/>
  <path d="M321.99,234.91c-1.45.23-1.38-1.76-1.68-2.8-1.03-3.6-1.5-7.44-1.3-11.2,3.89,3.16,3.81,9.51,2.98,13.99Z"/>
</svg>