<?xml version="1.0" encoding="UTF-8"?>
<svg id="Capa_1" xmlns="http://www.w3.org/2000/svg" version="1.1" xmlns:serif="http://www.serif.com/" viewBox="0 0 32 30.06">
  <!-- Generator: Adobe Illustrator 29.6.1, SVG Export Plug-In . SVG Version: 2.1.1 Build 9)  -->
  <defs>
    <style>
      .st0 {
        fill-rule: evenodd;
      }
    </style>
  </defs>
  <path class="st0" d="M1.8,12.19c-.22.09-.3.3-.3.46v15.04c0,.28.22.5.5.5h28c.27,0,.5-.22.5-.5v-15.04s-.01-.06-.01-.09h0s-.02-.08-.04-.12c-.13-.32-2.74-6.18-9.37-8.62-.12-.04-.25-.04-.37.01L1.8,12.19ZM2.5,14.47h25.13c.27,0,.5.22.5.5v4.05c0,.28-.23.5-.5.5H2.5v1.32h25.13c.27,0,.5.22.5.5v4.05c0,.28-.23.5-.5.5H2.5v1.32h27v-14.04H2.5v1.32ZM2.5,24.88h24.63v-3.05H2.5v3.05ZM2.5,15.47v3.05h24.63v-3.05H2.5ZM4.37,12.16h24.82c-.85-1.58-3.36-5.44-8.27-7.32L4.37,12.16Z"/>
</svg>