<?xml version="1.0" encoding="UTF-8"?>
<svg id="Capa_1" xmlns="http://www.w3.org/2000/svg" version="1.1" viewBox="0 0 81.25 80.31">
  <!-- Generator: Adobe Illustrator 29.6.1, SVG Export Plug-In . SVG Version: 2.1.1 Build 9)  -->
  <path d="M1.84,53.53c2.98,9.79,9.3,14.84,18.57,17.26-.67,2.09-.48,4.53.62,6.49,1.08,1.93,2.84,3.04,4.83,3.04h29.33c1.98,0,3.73-1.1,4.82-3.02,1.09-1.94,1.3-4.36.64-6.45,9.37-2.39,15.76-7.45,18.77-17.31.02-.05.03-.1.05-.15.93-3.12,1.54-6.7,1.79-10.84.07-1.24-.37-2.46-1.21-3.36-.84-.89-1.96-1.38-3.16-1.38h-.46c.02-.48-.02-.97-.17-1.43-.38-1.16-1.29-2.09-2.38-2.51-.07-.87-.36-1.77-.87-2.64-.41-.71-.91-1.31-1.39-1.88-.2-.25-.41-.5-.61-.76-.34-.44-.65-.9-.97-1.36-.61-.89-1.25-1.82-2.06-2.62-.31-.31-.65-.59-1-.85-.35-1.26-.93-2.41-1.67-3.27-.36-.42-.58-1.17-.62-2.14-.08-1.43-.73-3.07-1.96-3.87-.29-1.26-1.07-2.33-2.08-2.8-.38-.18-.81-.27-1.27-.27-.25,0-.71-.35-1.14-1.09-.5-.91-1.17-1.62-1.93-2.05-.91-.54-1.99-.7-3.03-.47-.69.15-1.18-.28-1.47-.66-.7-.93-1.56-1.63-2.51-2.04-.9-.38-1.89-.48-2.87-.3-.43.08-.99-.38-1.37-1.1-.51-.98-1.2-1.78-2-2.32-1.32-.87-2.91-1.04-4.39-.46-.27.11-.55.09-.8-.07-1.45-.9-3.13-1.09-4.6-.53-1.1.4-2.1,1.2-2.88,2.3-.31.43-.82.9-1.5.78-1.02-.2-2.07-.02-2.93.49-1.01.57-1.87,1.56-2.42,2.82-.28.66-.7,1.15-1.1,1.29-1.6.57-2.94,2.07-3.59,4-.17.53-.55.95-1.14,1.25-.71.38-1.32.98-1.73,1.75-.32.56-.53,1.22-.61,1.86-.13.84-.55,1.56-1.1,1.88-.67.39-1.25.95-1.74,1.66-.61.91-1.02,2.02-1.16,3.22-.09.73-.37,1.36-.82,1.84-.98,1.07-1.61,3.57-1.22,5.41-.68.37-1.27.89-1.66,1.57-1.22.43-2.27,1.35-2.84,2.51-.43.88-.54,1.88-.41,2.86h-.01c-1.2,0-2.32.49-3.16,1.38-.85.9-1.29,2.12-1.21,3.36.25,4.15.86,7.74,1.8,10.86.02.04.02.09.04.12h0ZM57.63,75.97c-.34.61-1.12,1.64-2.46,1.64h-29.33c-1.34,0-2.12-1.04-2.46-1.65-.77-1.37-.87-3.13-.33-4.56,5.09,1.01,10.97,1.38,17.57,1.38s12.32-.36,17.36-1.34c.53,1.43.42,3.18-.35,4.54h0ZM58.59,68.62s-.02,0-.03,0c-5.03,1.07-11,1.44-17.95,1.44s-13.08-.37-18.15-1.48c0,0-.01,0-.02,0-8.73-1.91-14.56-6.03-17.53-14.25h71.39c-3,8.28-8.88,12.4-17.72,14.29h0ZM7.24,36.14c.3-.62.94-1.1,1.62-1.23.49-.09.89-.45,1.05-.93.19-.6.98-1.04,1.59-.89.45.11.92-.02,1.26-.34.33-.32.48-.79.39-1.24-.14-.72.09-1.54.59-2.07.5-.54,1.29-.83,2.02-.74.74.08,1.42-.44,1.5-1.18.09-.74-.44-1.42-1.18-1.5-1.05-.12-2.11.13-3.04.63.52-.78.87-1.69.99-2.68.09-.77.34-1.49.71-2.03.25-.37.55-.66.87-.84,1.26-.74,2.16-2.16,2.41-3.84.04-.33.14-.65.3-.93.16-.3.39-.54.62-.66,1.22-.63,2.07-1.6,2.46-2.8.37-1.11,1.13-2.02,1.91-2.3,1.14-.39,2.1-1.38,2.7-2.77.31-.7.77-1.26,1.28-1.55.32-.19.7-.25,1.09-.18,1.59.29,3.12-.38,4.2-1.86.46-.65,1.04-1.12,1.63-1.34.7-.27,1.49-.16,2.22.29.99.62,2.18.72,3.24.28.64-.25,1.3-.18,1.88.2.41.28.8.74,1.1,1.31.98,1.86,2.62,2.82,4.27,2.51.46-.09.91-.04,1.32.14.5.21,1,.63,1.4,1.17,1.06,1.4,2.64,2.03,4.23,1.68.38-.09.73-.03,1.07.17.34.19.66.55.93,1.03.91,1.6,2.16,2.48,3.62,2.49.25.11.61.64.64,1.34.03.6.45,1.11,1.04,1.25.25.06.75.78.81,1.76.07,1.5.48,2.73,1.18,3.62-.95-.17-1.92-.2-2.88-.05-.74.11-1.25.81-1.13,1.55.12.74.81,1.24,1.55,1.13,1.91-.3,3.97.39,5.39,1.8.63.62,1.17,1.41,1.73,2.23.34.5.69,1.01,1.06,1.48.21.28.44.56.67.83.43.52.83,1,1.14,1.53.43.73.6,1.48.46,2.06-.1.41,0,.84.27,1.17.27.33.64.5,1.1.5.48-.02,1.01.38,1.17.88.06.19.08.4.05.61H7.13c-.17-.54-.14-1.16.11-1.66h0ZM3.19,41.04c.32-.34.74-.52,1.19-.52h72.49c.45,0,.87.19,1.19.52.34.36.52.84.48,1.34-.21,3.49-.67,6.55-1.38,9.23H4.08c-.7-2.68-1.17-5.74-1.38-9.23-.03-.5.14-.98.48-1.34h0ZM50.91,29.28c-.17.59-.71.98-1.3.98-.12,0-.25-.02-.38-.05l-2.01-.59c-.45-.13-.79-.48-.92-.92-.13-.45-.5-.84-.95-1s-.98-.09-1.36.18c-.44.3-1.02.32-1.47.04-.45-.28-.7-.79-.64-1.32.12-.96-.04-1.2-.04-1.2-.03.02-.24.03-.8.21l-3.63,1.16c-.71.23-1.47-.16-1.7-.88-.23-.71.16-1.47.88-1.7l3.63-1.16c.61-.2,1.89-.61,3.03.06.77.45,1.13,1.15,1.29,1.84.59-.04,1.18.03,1.73.23,1,.36,1.84,1.11,2.34,2.05l1.39.41c.72.21,1.13.96.92,1.68h0Z"/>
</svg>