<?xml version="1.0" encoding="UTF-8"?>
<svg id="Capa_1" xmlns="http://www.w3.org/2000/svg" version="1.1" viewBox="0 0 512 500.8">
  <!-- Generator: Adobe Illustrator 29.6.1, SVG Export Plug-In . SVG Version: 2.1.1 Build 9)  -->
  <path d="M91.65,368.97c-3.55,2.95-4.03,8.21-1.09,11.75,38.31,46.13,75.34,71.1,120.08,80.96.59.13,1.2.2,1.81.2,4.61,0,8.34-3.75,8.34-8.36,0-3.91-2.73-7.3-6.55-8.14-40.88-9.01-75.06-32.24-110.83-75.33-2.95-3.54-8.21-4.03-11.75-1.09Z"/>
  <path d="M86.65,316.25c4.21,1.87,9.15-.03,11.02-4.24.47-1.07.72-2.22.72-3.39v-30.88l49.96-8.33c4.55-.76,7.62-5.06,6.86-9.6-.14-.82-.4-1.62-.77-2.36-.27-.53-27.44-53.14-94.74-37.61-4.48,1.08-7.24,5.58-6.17,10.06,1.06,4.43,5.48,7.19,9.92,6.2,37.44-8.64,59.03,7.6,69.09,19.02l-43.87,7.31c-4.02.67-6.97,4.15-6.97,8.23v25.11l-30.97-13.76c-3.62-1.61-7.88-.45-10.18,2.78l-18.79,26.33c-14.55-28.92,6.86-52.56,7.95-53.72,3.13-3.38,2.94-8.66-.44-11.8-3.34-3.1-8.55-2.95-11.7.34-13.09,13.83-30.51,49.44-2.76,85.19,1.58,2.04,4.01,3.23,6.59,3.23h.17c2.64-.05,5.09-1.35,6.62-3.5l21.99-30.83,36.47,16.21Z"/>
  <path d="M52.47,258.74c4.61,0,8.35-3.74,8.35-8.35,0-2.2-.87-4.31-2.42-5.88-.27-.27-27.14-27.92-30.99-74.1-.35-4.6-4.35-8.04-8.95-7.7-4.6.35-8.04,4.35-7.7,8.95,0,.04,0,.09.01.13,4.38,52.52,34.52,83.22,35.8,84.5,1.56,1.57,3.68,2.45,5.89,2.45Z"/>
  <path d="M184.29,254.21c4.4-1.35,6.88-6.01,5.54-10.42-.15-.48-14.19-48.09,16.94-65.38,27.73-15.41,37.09-46.09,40.25-65.38,10.22,10.54,22.88,28.21,18.5,47.93-1,4.5,1.84,8.96,6.34,9.96,3.93.87,7.93-1.18,9.5-4.89,1.59-3.76,32.13-76.97,23.84-130.47,36.35,33.6,99.67,103.42,85.5,171.43-.94,4.51,1.96,8.93,6.47,9.87,3.47.72,7.02-.83,8.85-3.87.18-.31,14.82-24.4,33.8-40.26-4.88,23.16-8.93,58.93,7.39,75.26,15.39,15.39,3.77,70.54-2.98,79.01-3.81,2.6-4.79,7.79-2.19,11.6,2.35,3.45,6.89,4.63,10.62,2.76,10.29-5.15,15.51-32.78,16.86-41.12,2.79-17.2,5.14-48.4-10.52-64.06-12.57-12.58-5.41-55.29,2.07-79.25,1.37-4.4-1.08-9.08-5.49-10.45-1.9-.59-3.94-.49-5.77.3-15.79,6.77-30.16,20.9-40.66,33.48-2.08-35.83-19.83-74.86-52.36-114.57-19.48-23.65-41.48-45.11-65.61-63.99-3.69-2.77-8.92-2.02-11.69,1.66-2.2,2.93-2.23,6.96-.07,9.92,18.49,25.42,9.06,77.1-2.08,114.12-10.33-22.6-31.01-37.33-32.29-38.22-3.78-2.64-8.98-1.72-11.63,2.05-.98,1.4-1.51,3.07-1.51,4.79,0,.49-.38,49.56-33.27,67.82-18.06,10.04-28.02,28.16-28.81,52.41-.29,10.96,1.06,21.9,4.02,32.46,1.35,4.4,6.01,6.87,10.41,5.52Z"/>
  <path d="M370.59,329.04c4.25,1.79,9.14-.21,10.93-4.45,28.85-68.52-31.01-118.9-66.69-135.97-4.16-1.99-9.14-.23-11.13,3.93-.8,1.68-1.02,3.59-.62,5.41,6.89,31.05,9.31,62.72,5.41,69.42-5.08-.58-17.99-16.85-27.23-37.13-1.91-4.2-6.86-6.05-11.06-4.14-1.95.89-3.49,2.5-4.29,4.49-26.48,66.2-.07,102.58,1.07,104.1,2.75,3.66,7.93,4.41,11.61,1.68,3.68-2.74,4.48-7.93,1.79-11.64-.8-1.1-17.29-24.67-5.09-69.74,18.11,30.41,33.24,29.72,37.96,28.54,17.08-4.27,15.72-37.64,9.85-70.67,9.53,6.35,18.29,13.78,26.12,22.14,23.63,25.68,29.32,53.64,16.91,83.1-1.79,4.25.21,9.14,4.45,10.93Z"/>
  <path d="M506.07,330.47c-4.53-2.87-10.39-2.49-14.5.95-24.84,20.34-112.99,85.43-204.5,68.93-56.28-10.14-104.7-49.37-143.92-116.59-2.29-4-7.39-5.39-11.39-3.1-4,2.29-5.39,7.39-3.1,11.39.02.04.05.08.07.12,41.78,71.63,94.06,113.56,155.37,124.61,88.45,15.92,172.64-37.79,207.93-64.5-25.21,77.09-114.65,131.84-218.38,131.84-109.87,0-205.57-63.58-222.62-147.9-.96-4.51-5.39-7.39-9.9-6.43-4.45.94-7.32,5.28-6.46,9.74,18.9,93.45,119.4,161.28,238.99,161.28s216.82-65.93,238-156.78c1.23-5.25-1.02-10.7-5.59-13.56Z"/>
</svg>