<?xml version="1.0" encoding="UTF-8"?>
<svg id="Capa_1" xmlns="http://www.w3.org/2000/svg" version="1.1" xmlns:serif="http://www.serif.com/" viewBox="0 0 32 26.32">
  <!-- Generator: Adobe Illustrator 29.6.1, SVG Export Plug-In . SVG Version: 2.1.1 Build 9)  -->
  <defs>
    <style>
      .st0 {
        fill-rule: evenodd;
      }
    </style>
  </defs>
  <path class="st0" d="M16.25,8.66c-.45-.04-.92.12-1.27.46h0c-.33.33-.49.79-.45,1.25-.47.49-.84,1.05-1.09,1.66-.01,0-.03,0-.04,0h-6.22c-1.36,0-2.66.54-3.62,1.5-.92.92-1.45,2.14-1.5,3.43-.05.04-.09.08-.14.12-.28.28-.43.65-.43,1.04h0c0,.48.21.94.57,1.25,0,2.98,2.42,5.38,5.4,5.38h7.46c1.4,0,2.75-.56,3.74-1.55.12-.12.39-.42.57-.64l.64.64c2.06,2.06,5.39,2.07,7.45.03.45.01.89-.16,1.21-.48,0,0,0,0,0,0,.34-.34.5-.78.48-1.22,1.97-2,1.95-5.21-.03-7.2-1.73-1.74-3.86-3.86-5.6-5.6-1.97-1.97-5.15-2-7.15-.08ZM16.9,20.24c-.15.09-.3.16-.46.21-.69.22-1.46.08-2.03-.42-.07-.06-.14-.12-.21-.19-.46-.41-1.16-.41-1.62,0,0,0,0,0,0,0-.84.74-2.09.74-2.94,0,0,0,0,0,0,0-.46-.41-1.16-.41-1.62,0-.07.06-.14.12-.21.19-.72.63-1.77.69-2.56.16-.32-.21-.74-.4-1.1-.48-.16-.04-.29-.07-.38-.04-.22.09-.46.13-.69.12.21,2.23,2.09,3.97,4.38,3.97h7.46c1.14,0,2.23-.45,3.03-1.26.12-.13.41-.45.57-.65l-1.62-1.62ZM15,11.36c-.63.78-.97,1.75-.97,2.76,0,1.17.46,2.29,1.29,3.11,1.66,1.65,3.63,3.63,5.27,5.27,1.56,1.56,4.02,1.67,5.71.32-.25-.22-.44-.52-.52-.86-.03-.03-.12-.1-.18-.14-.29-.18-.72-.33-1.1-.41h0c-.89-.18-1.56-.93-1.62-1.84,0-.12-.02-.24-.02-.35-.04-.62-.53-1.11-1.15-1.15h0c-1.11-.07-2-.96-2.08-2.08h0c-.04-.62-.53-1.11-1.14-1.15-.12,0-.24-.02-.35-.02-.91-.06-1.66-.72-1.84-1.62h0c-.07-.38-.27-.84-.5-1.18-.11-.16-.21-.31-.32-.36h0c-.18-.08-.34-.18-.47-.32ZM16.55,9.83l11.29,11.29c.26.26.26.67,0,.93,0,0,0,0,0,0-.17.17-.42.23-.65.16-.23-.07-.4-.26-.45-.49-.04-.19-.18-.42-.44-.62-.37-.28-1.03-.55-1.62-.66-.45-.09-.78-.47-.81-.92,0-.12-.02-.23-.02-.35-.08-1.11-.96-2-2.08-2.08h0c-.61-.04-1.1-.53-1.14-1.15h0c-.07-1.12-.96-2-2.08-2.08-.12,0-.24-.02-.35-.02-.46-.03-.84-.36-.92-.81-.11-.59-.44-1.31-.8-1.76-.2-.25-.41-.42-.6-.51-.17-.07-.3-.23-.33-.42-.04-.18.02-.38.16-.51h0c.24-.24.62-.24.86,0ZM28.62,20.49c1.27-1.62,1.16-3.96-.33-5.45l-5.6-5.6c-1.49-1.49-3.83-1.6-5.45-.33,0,0,0,0,0,0l11.29,11.29s.05.05.07.08ZM14.34,17.65s-.05,0-.07,0H2.97c-.13,0-.25.05-.34.14-.09.09-.14.21-.14.34h0c0,.22.11.42.29.55.18.12.41.15.61.07.18-.07.43-.1.73-.05.51.08,1.19.35,1.68.67.42.28.97.24,1.34-.09.07-.06.14-.12.21-.19.84-.74,2.1-.74,2.93,0,0,0,0,0,0,0,.46.41,1.16.41,1.62,0,0,0,0,0,0,0,.84-.74,2.1-.74,2.93,0,.07.06.14.12.21.19.3.26.7.34,1.06.22,0,0,.01,0,.02,0l-1.55-1.55c-.09-.09-.18-.19-.27-.29ZM13.14,13.03h-5.95c-1.09,0-2.14.43-2.91,1.21-.65.65-1.07,1.5-1.18,2.41h10.56c-.41-.77-.63-1.64-.63-2.53,0-.37.04-.73.11-1.09ZM14.53,10.39s-.04.08-.05.13c.01-.04.03-.07.06-.08,0-.01,0-.03,0-.04ZM16.39,8.67s-.07-.03-.12-.01c.04,0,.08,0,.12.01Z"/>
</svg>