<?xml version="1.0" encoding="UTF-8"?>
<svg id="Capa_1" xmlns="http://www.w3.org/2000/svg" version="1.1" viewBox="0 0 79.66 93.62">
  <!-- Generator: Adobe Illustrator 29.6.1, SVG Export Plug-In . SVG Version: 2.1.1 Build 9)  -->
  <path d="M62.76,60.01c-.69-1.54-2.44-2.3-4.04-1.76l-2.44.82c-.33.11-.6.37-.72.7s-.09.7.08,1l1.29,2.23c.87,1.52,2.78,2.08,4.34,1.28s2.21-2.68,1.5-4.27h0ZM60.15,62.22c-.44.2-.96.04-1.2-.39l-.57-.99,1.08-.36h0c.47-.16.98.08,1.17.54.18.46-.03.99-.48,1.2h0Z"/>
  <path d="M56.93,51.99l-1.29,2.23c-.18.3-.21.67-.08,1,.12.33.39.59.72.7l2.44.82c1.6.54,3.35-.22,4.04-1.76.71-1.59.05-3.47-1.5-4.26-1.55-.8-3.46-.23-4.33,1.28h0ZM60.15,52.77c.45.2.67.73.48,1.2-.18.46-.7.7-1.17.54l-1.08-.36.57-.99h0c.24-.42.75-.59,1.2-.39Z"/>
  <path d="M53.6,48.63l2.53.48c.2.04.41.06.62.06,1.21,0,2.32-.67,2.89-1.74.57-1.07.5-2.37-.18-3.38s-1.86-1.55-3.06-1.43c-1.21.13-2.24.91-2.7,2.03l-.96,2.38h0c-.13.33-.11.7.06,1,.17.31.46.52.81.59h0ZM55.87,45.54c.19-.46.7-.7,1.17-.53.47.16.73.67.59,1.15-.14.46-.6.75-1.07.66l-1.12-.21.43-1.06Z"/>
  <path d="M53.7,70.33c.5,1.24,1.7,2.05,3.04,2.05.31,0,.63-.05.93-.14,1.68-.49,2.68-2.21,2.27-3.91-.41-1.7-2.08-2.78-3.8-2.46l-2.53.48h0c-.35.07-.64.29-.81.59s-.19.68-.06,1l.96,2.38ZM56.57,68.18c.47-.09.94.19,1.07.66.14.48-.12.98-.59,1.15-.47.16-.98-.07-1.17-.54l-.43-1.06,1.12-.21Z"/>
  <path d="M39.2,93.62h1.25c21.62,0,39.2-17.59,39.2-39.2v-1.55c0-15.07-12.26-27.32-27.32-27.32h-1.69l9.82-9.36c.38-.37.47-.95.22-1.41-.25-.46-.79-.7-1.31-.57l-9.23,2.27c2.11-3.25,3.65-7.55,4.59-12.84h0c.16-.89-.09-1.8-.66-2.49-.57-.7-1.43-1.1-2.33-1.11L49.62,0h-.04c-1.5,0-2.78,1.07-3.03,2.55-.64,3.66-1.86,6.71-3.71,9.27l-.9-1.39h0c-.22-.34-.61-.55-1.02-.53-.41.01-.78.24-.98.6l-3.85,6.89-13.79-3.18c-.51-.12-1.04.12-1.29.58-.25.46-.16,1.04.21,1.4l9.64,9.36h-3.53C12.26,25.55,0,37.81,0,52.87v1.55c0,21.62,17.59,39.2,39.2,39.2h0ZM41.26,77.61h0c2.46-.03,4.45-2.03,4.45-4.5v-4.7c0-.38.31-.69.69-.69h3.12c.39,0,.76-.2.98-.52.21-.32.26-.74.11-1.1l-1.53-3.69,2.82-.71h0c.4-.1.71-.41.84-.8.12-.39.02-.82-.26-1.13l-2.27-2.48,2.16-1.82c.27-.23.43-.58.41-.94-.01-.36-.19-.7-.48-.91l-2.87-2.07,1.2-3.06c.14-.36.09-.77-.12-1.09-.22-.32-.58-.51-.97-.51h-2.02c-.3,0-.59-.08-.84-.23l-.19-.11h0c-.73-.44-1.18-1.23-1.18-2.08v-4.25c0-1.34,1.09-2.43,2.43-2.43h4.97,0c7.7,0,13.94,6.25,13.95,13.94v5.09c0,6.27-2.5,12.28-6.94,16.71-4.43,4.43-10.44,6.93-16.72,6.94h-1.73v-2.87ZM52.33,27.89c6.62,0,12.97,2.64,17.66,7.32s7.32,11.03,7.32,17.66v1.55c0,20.06-16.1,36.42-36.06,36.85v-8.45h1.73c14.34,0,26-11.66,26-26v-5.09c0-4.32-1.72-8.46-4.78-11.52-3.05-3.05-7.2-4.77-11.51-4.77h-4.97c-2.63,0-4.77,2.14-4.77,4.77v4.25c0,1.68.88,3.23,2.32,4.09l.19.11c.62.37,1.33.57,2.05.57h.3l-.9,2.3c-.2.5-.03,1.06.41,1.38l2.39,1.73-1.94,1.64c-.24.21-.39.5-.41.82-.02.32.09.63.3.87l1.77,1.94-2.23.56h0c-.33.08-.61.3-.76.61-.15.3-.17.66-.04.97l1.38,3.32h-1.37c-1.67,0-3.03,1.36-3.03,3.04v4.7c0,1.17-.94,2.12-2.11,2.15V27.89h11.07ZM48.85,2.95c.06-.35.36-.61.72-.61h.01l2.14.03c.21,0,.42.1.55.27h0c.13.16.19.38.15.59-1.12,6.32-3.11,11.07-5.91,14.14l-.08.02-2.25-3.48c2.34-2.97,3.91-6.65,4.66-10.96h0ZM25.85,17.43l10.56,2.43c.51.12,1.03-.11,1.29-.57l3.33-5.96,3.9,6.03h0c.27.42.78.62,1.26.5l9.47-2.33-8.41,8.02h-13.03l-8.36-8.12ZM2.34,52.87c0-6.62,2.64-12.97,7.32-17.66s11.03-7.32,17.66-7.32h11.59v63.38c-20.19-.15-36.57-16.62-36.57-36.85v-1.55Z"/>
  <path d="M13.92,75c.25-.19.41-.46.46-.77.04-.31-.04-.62-.22-.87-.21-.29-.43-.57-.62-.86h0c-.37-.53-1.11-.66-1.63-.29-.53.38-.66,1.11-.29,1.64.21.3.44.61.66.91.19.25.46.41.77.46.3.05.62-.04.87-.22h0Z"/>
  <path d="M26.61,86.59c.58.29,1.28.04,1.57-.54.28-.58.04-1.28-.55-1.57-4.04-1.96-7.7-4.64-10.77-7.92-.45-.47-1.19-.5-1.66-.05-.47.44-.5,1.18-.05,1.66,3.27,3.48,7.16,6.34,11.46,8.42h0Z"/>
</svg>