<?xml version="1.0" encoding="UTF-8"?>
<svg id="Capa_1" xmlns="http://www.w3.org/2000/svg" version="1.1" viewBox="0 0 83.24 91.43">
  <!-- Generator: Adobe Illustrator 29.6.1, SVG Export Plug-In . SVG Version: 2.1.1 Build 9)  -->
  <path d="M61.3,0s-.06,0-.09.01c-.05,0-.1,0-.15.01-.07,0-.14.02-.21.04-.05.02-.1.04-.15.06-.07.02-.13.05-.19.09-.05.03-.09.06-.14.1-.04.02-.07.05-.1.07-.02.02-.03.03-.04.05-.02.02-.04.03-.05.04,0,0-5.28,5.82-10.52,13.49-5.24,7.66-10.59,17.1-10.43,25.07.24,12.14,9.87,22.06,22.01,22.06s21.77-9.92,22.01-22.06c.16-7.98-5.19-17.41-10.43-25.07C67.58,6.31,62.32.5,62.29.47h0s-.06-.07-.09-.1c-.03-.02-.06-.05-.1-.07-.05-.04-.1-.08-.16-.11-.05-.03-.11-.05-.16-.07-.05-.02-.11-.05-.18-.06-.06-.02-.12-.02-.18-.03-.04,0-.07-.02-.11-.02h0ZM61.23,3.59c1.76,2.04,5.48,6.52,9.21,11.98,5.12,7.48,10.06,16.83,9.93,23.41-.21,10.67-8.56,19.25-19.15,19.25s-18.94-8.59-19.15-19.25c-.13-6.59,4.82-15.93,9.94-23.41,3.73-5.46,7.46-9.93,9.21-11.98h0ZM28.98,10.89h0c-.11,0-.23,0-.34.03-.01,0-.02,0-.04,0-.13.03-.25.07-.37.14-.02,0-.04.02-.05.03-.08.05-.16.11-.23.17-.02.02-.05.05-.07.07,0,0-.02.02-.02.02,0,0-7.03,7.73-14.02,17.93C6.86,39.48-.2,52.06,0,62.47c.31,15.95,12.96,28.96,28.91,28.96s27.5-11.9,28.81-26.89h0c.07-.78-.52-1.47-1.3-1.54-.79-.07-1.48.51-1.55,1.3-1.18,13.59-12.18,24.28-25.97,24.28S3.13,76.89,2.85,62.42c-.18-9.02,6.5-21.5,13.36-31.51,5.27-7.7,10.54-13.94,12.71-16.43,1.66,1.91,5.11,5.98,8.98,11.22h0c.23.3.57.51.94.56.38.05.76-.04,1.06-.27.63-.47.76-1.36.29-1.99-5.47-7.38-10.12-12.51-10.21-12.61,0,0-.01-.02-.02-.02-.01,0-.02-.02-.03-.03-.02-.02-.04-.04-.07-.06,0,0,0,0-.02-.01-.1-.09-.21-.16-.32-.21l-.06-.04c-.12-.05-.24-.08-.36-.1-.02,0-.05,0-.07,0-.02,0-.04,0-.06-.01h0ZM48,37h0c-.38,0-.74.15-1.01.42-.27.27-.42.63-.42,1.01,0,5.96,3.61,11.35,9.11,13.61.73.29,1.55-.05,1.86-.78s-.04-1.56-.77-1.87c-4.44-1.82-7.34-6.15-7.34-10.97h0c0-.78-.64-1.42-1.43-1.42h0ZM11.25,60.25c-.38,0-.74.16-1.01.42-.27.27-.41.63-.41,1.01,0,7.77,4.69,14.77,11.86,17.72.35.14.75.14,1.1,0,.35-.15.62-.43.77-.78.14-.35.14-.75,0-1.09-.14-.35-.43-.63-.78-.77-6.11-2.5-10.09-8.45-10.09-15.07,0-.38-.15-.75-.42-1.02-.27-.27-.64-.42-1.02-.42h0Z"/>
</svg>