  0
SECTION
  2
HEADER
  9
$ACADVER
  1
AC1032
  9
$ACADMAINTVER
 90
      427
  9
$DWGCODEPAGE
  3
ANSI_1252
  9
$REQUIREDVERSIONS
160
                 0
  9
$INSBASE
 10
0.0
 20
0.0
 30
0.0
  9
$EXTMIN
 10
5.134329585746055
 20
2.417706504157229
 30
0.0
  9
$EXTMAX
 10
13.1774699039208
 20
8.741621112173993
 30
0.0
  9
$LIMMIN
 10
0.0
 20
0.0
  9
$LIMMAX
 10
12.0
 20
9.0
  9
$ORTHOMODE
 70
     0
  9
$REGENMODE
 70
     1
  9
$FILLMODE
 70
     1
  9
$QTEXTMODE
 70
     0
  9
$MIRRTEXT
 70
     0
  9
$LTSCALE
 40
1.0
  9
$ATTMODE
 70
     1
  9
$TEXTSIZE
 40
0.2
  9
$TRACEWID
 40
0.05
  9
$TEXTSTYLE
  7
Standard
  9
$CLAYER
  8
0
  9
$CELTYPE
  6
ByLayer
  9
$CECOLOR
 62
   256
  9
$CELTSCALE
 40
1.0
  9
$DISPSILH
 70
     0
  9
$DIMSCALE
 40
1.0
  9
$DIMASZ
 40
0.18
  9
$DIMEXO
 40
0.0625
  9
$DIMDLI
 40
0.38
  9
$DIMRND
 40
0.0
  9
$DIMDLE
 40
0.0
  9
$DIMEXE
 40
0.18
  9
$DIMTP
 40
0.0
  9
$DIMTM
 40
0.0
  9
$DIMTXT
 40
0.18
  9
$DIMCEN
 40
0.09
  9
$DIMTSZ
 40
0.0
  9
$DIMTOL
 70
     0
  9
$DIMLIM
 70
     0
  9
$DIMTIH
 70
     1
  9
$DIMTOH
 70
     1
  9
$DIMSE1
 70
     0
  9
$DIMSE2
 70
     0
  9
$DIMTAD
 70
     0
  9
$DIMZIN
 70
     0
  9
$DIMBLK
  1

  9
$DIMASO
 70
     1
  9
$DIMSHO
 70
     1
  9
$DIMPOST
  1

  9
$DIMAPOST
  1

  9
$DIMALT
 70
     0
  9
$DIMALTD
 70
     2
  9
$DIMALTF
 40
25.4
  9
$DIMLFAC
 40
1.0
  9
$DIMTOFL
 70
     0
  9
$DIMTVP
 40
0.0
  9
$DIMTIX
 70
     0
  9
$DIMSOXD
 70
     0
  9
$DIMSAH
 70
     0
  9
$DIMBLK1
  1

  9
$DIMBLK2
  1

  9
$DIMSTYLE
  2
Standard
  9
$DIMCLRD
 70
     0
  9
$DIMCLRE
 70
     0
  9
$DIMCLRT
 70
     0
  9
$DIMTFAC
 40
1.0
  9
$DIMGAP
 40
0.09
  9
$DIMJUST
 70
     0
  9
$DIMSD1
 70
     0
  9
$DIMSD2
 70
     0
  9
$DIMTOLJ
 70
     1
  9
$DIMTZIN
 70
     0
  9
$DIMALTZ
 70
     0
  9
$DIMALTTZ
 70
     0
  9
$DIMUPT
 70
     0
  9
$DIMDEC
 70
     4
  9
$DIMTDEC
 70
     4
  9
$DIMALTU
 70
     2
  9
$DIMALTTD
 70
     2
  9
$DIMTXSTY
  7
Standard
  9
$DIMAUNIT
 70
     0
  9
$DIMADEC
 70
     0
  9
$DIMALTRND
 40
0.0
  9
$DIMAZIN
 70
     0
  9
$DIMDSEP
 70
    46
  9
$DIMATFIT
 70
     3
  9
$DIMFRAC
 70
     0
  9
$DIMLDRBLK
  1

  9
$DIMLUNIT
 70
     2
  9
$DIMLWD
 70
    -2
  9
$DIMLWE
 70
    -2
  9
$DIMTMOVE
 70
     0
  9
$DIMFXL
 40
1.0
  9
$DIMFXLON
 70
     0
  9
$DIMJOGANG
 40
0.7853981633974483
  9
$DIMTFILL
 70
     0
  9
$DIMTFILLCLR
 70
     0
  9
$DIMARCSYM
 70
     0
  9
$DIMLTYPE
  6

  9
$DIMLTEX1
  6

  9
$DIMLTEX2
  6

  9
$DIMTXTDIRECTION
 70
     0
  9
$LUNITS
 70
     2
  9
$LUPREC
 70
     4
  9
$SKETCHINC
 40
0.1
  9
$FILLETRAD
 40
0.0
  9
$AUNITS
 70
     0
  9
$AUPREC
 70
     0
  9
$MENU
  1
.
  9
$ELEVATION
 40
0.0
  9
$PELEVATION
 40
0.0
  9
$THICKNESS
 40
0.0
  9
$LIMCHECK
 70
     0
  9
$CHAMFERA
 40
0.0
  9
$CHAMFERB
 40
0.0
  9
$CHAMFERC
 40
0.0
  9
$CHAMFERD
 40
0.0
  9
$SKPOLY
 70
     0
  9
$TDCREATE
 40
2461291.912291667
  9
$TDUCREATE
 40
2461292.120625000
  9
$TDUPDATE
 40
2461291.912291667
  9
$TDUUPDATE
 40
2461292.120625000
  9
$TDINDWG
 40
0.0000115741
  9
$TDUSRTIMER
 40
0.0000115741
  9
$USRTIMER
 70
     1
  9
$ANGBASE
 50
0.0
  9
$ANGDIR
 70
     0
  9
$PDMODE
 70
     0
  9
$PDSIZE
 40
0.0
  9
$PLINEWID
 40
0.0
  9
$SPLFRAME
 70
     0
  9
$SPLINETYPE
 70
     6
  9
$SPLINESEGS
 70
     8
  9
$HANDSEED
  5
2F7
  9
$SURFTAB1
 70
     6
  9
$SURFTAB2
 70
     6
  9
$SURFTYPE
 70
     6
  9
$SURFU
 70
     6
  9
$SURFV
 70
     6
  9
$UCSBASE
  2

  9
$UCSNAME
  2

  9
$UCSORG
 10
0.0
 20
0.0
 30
0.0
  9
$UCSXDIR
 10
1.0
 20
0.0
 30
0.0
  9
$UCSYDIR
 10
0.0
 20
1.0
 30
0.0
  9
$UCSORTHOREF
  2

  9
$UCSORTHOVIEW
 70
     0
  9
$UCSORGTOP
 10
0.0
 20
0.0
 30
0.0
  9
$UCSORGBOTTOM
 10
0.0
 20
0.0
 30
0.0
  9
$UCSORGLEFT
 10
0.0
 20
0.0
 30
0.0
  9
$UCSORGRIGHT
 10
0.0
 20
0.0
 30
0.0
  9
$UCSORGFRONT
 10
0.0
 20
0.0
 30
0.0
  9
$UCSORGBACK
 10
0.0
 20
0.0
 30
0.0
  9
$PUCSBASE
  2

  9
$PUCSNAME
  2

  9
$PUCSORG
 10
0.0
 20
0.0
 30
0.0
  9
$PUCSXDIR
 10
1.0
 20
0.0
 30
0.0
  9
$PUCSYDIR
 10
0.0
 20
1.0
 30
0.0
  9
$PUCSORTHOREF
  2

  9
$PUCSORTHOVIEW
 70
     0
  9
$PUCSORGTOP
 10
0.0
 20
0.0
 30
0.0
  9
$PUCSORGBOTTOM
 10
0.0
 20
0.0
 30
0.0
  9
$PUCSORGLEFT
 10
0.0
 20
0.0
 30
0.0
  9
$PUCSORGRIGHT
 10
0.0
 20
0.0
 30
0.0
  9
$PUCSORGFRONT
 10
0.0
 20
0.0
 30
0.0
  9
$PUCSORGBACK
 10
0.0
 20
0.0
 30
0.0
  9
$USERI1
 70
     0
  9
$USERI2
 70
     0
  9
$USERI3
 70
     0
  9
$USERI4
 70
     0
  9
$USERI5
 70
     0
  9
$USERR1
 40
0.0
  9
$USERR2
 40
0.0
  9
$USERR3
 40
0.0
  9
$USERR4
 40
0.0
  9
$USERR5
 40
0.0
  9
$WORLDVIEW
 70
     1
  9
$SHADEDGE
 70
     3
  9
$SHADEDIF
 70
    70
  9
$TILEMODE
 70
     1
  9
$MAXACTVP
 70
    64
  9
$PINSBASE
 10
0.0
 20
0.0
 30
0.0
  9
$PLIMCHECK
 70
     0
  9
$PEXTMIN
 10
1.000000000000000E+20
 20
1.000000000000000E+20
 30
1.000000000000000E+20
  9
$PEXTMAX
 10
-1.000000000000000E+20
 20
-1.000000000000000E+20
 30
-1.000000000000000E+20
  9
$PLIMMIN
 10
0.0
 20
0.0
  9
$PLIMMAX
 10
12.0
 20
9.0
  9
$UNITMODE
 70
     0
  9
$VISRETAIN
 70
     1
  9
$PLINEGEN
 70
     0
  9
$PSLTSCALE
 70
     1
  9
$TREEDEPTH
 70
  3020
  9
$CMLSTYLE
  2
Standard
  9
$CMLJUST
 70
     0
  9
$CMLSCALE
 40
1.0
  9
$PROXYGRAPHICS
 70
     1
  9
$MEASUREMENT
 70
     1
  9
$CELWEIGHT
370
    -1
  9
$ENDCAPS
280
     0
  9
$JOINSTYLE
280
     0
  9
$LWDISPLAY
290
     0
  9
$INSUNITS
 70
     6
  9
$HYPERLINKBASE
  1

  9
$STYLESHEET
  1

  9
$XEDIT
290
     1
  9
$CEPSNTYPE
380
     0
  9
$PSTYLEMODE
290
     1
  9
$FINGERPRINTGUID
  2
{84987955-8450-6344-B4DF-AC215250D5D0}
  9
$VERSIONGUID
  2
{AD687C55-FACF-CF45-AE1E-5943BD7D6309}
  9
$EXTNAMES
290
     1
  9
$PSVPSCALE
 40
0.0
  9
$OLESTARTUP
290
     0
  9
$SORTENTS
280
   127
  9
$INDEXCTL
280
     0
  9
$HIDETEXT
280
     1
  9
$XCLIPFRAME
280
     2
  9
$HALOGAP
280
     0
  9
$OBSCOLOR
 70
   257
  9
$OBSLTYPE
280
     0
  9
$INTERSECTIONDISPLAY
280
     0
  9
$INTERSECTIONCOLOR
 70
   257
  9
$DIMASSOC
280
     2
  9
$PROJECTNAME
  1

  9
$CAMERADISPLAY
290
     0
  9
$LENSLENGTH
 40
50.0
  9
$CAMERAHEIGHT
 40
0.0
  9
$STEPSPERSEC
 40
2.0
  9
$STEPSIZE
 40
6.0
  9
$3DDWFPREC
 40
2.0
  9
$PSOLWIDTH
 40
0.25
  9
$PSOLHEIGHT
 40
4.0
  9
$LOFTANG1
 40
1.570796326794896
  9
$LOFTANG2
 40
1.570796326794896
  9
$LOFTMAG1
 40
0.0
  9
$LOFTMAG2
 40
0.0
  9
$LOFTPARAM
 70
     7
  9
$LOFTNORMALS
280
     1
  9
$LATITUDE
 40
37.795
  9
$LONGITUDE
 40
-122.394
  9
$NORTHDIRECTION
 40
0.0
  9
$TIMEZONE
 70
 -8000
  9
$LIGHTGLYPHDISPLAY
280
     1
  9
$TILEMODELIGHTSYNCH
280
     1
  9
$CMATERIAL
347
11
  9
$SOLIDHIST
280
     0
  9
$SHOWHIST
280
     1
  9
$DWFFRAME
280
     2
  9
$DGNFRAME
280
     0
  9
$REALWORLDSCALE
290
     1
  9
$INTERFERECOLOR
 62
     1
  9
$INTERFEREOBJVS
345
33
  9
$INTERFEREVPVS
346
30
  9
$CSHADOW
280
     0
  9
$SHADOWPLANELOCATION
 40
0.0
  0
ENDSEC
  0
SECTION
  2
CLASSES
  0
CLASS
  1
ACDBDICTIONARYWDFLT
  2
AcDbDictionaryWithDefault
  3
ObjectDBX Classes
 90
        0
 91
        1
280
     0
281
     0
  0
CLASS
  1
MATERIAL
  2
AcDbMaterial
  3
ObjectDBX Classes
 90
     1153
 91
        3
280
     0
281
     0
  0
CLASS
  1
VISUALSTYLE
  2
AcDbVisualStyle
  3
ObjectDBX Classes
 90
     4095
 91
       24
280
     0
281
     0
  0
CLASS
  1
SCALE
  2
AcDbScale
  3
ObjectDBX Classes
 90
     1153
 91
       17
280
     0
281
     0
  0
CLASS
  1
TABLESTYLE
  2
AcDbTableStyle
  3
ObjectDBX Classes
 90
     4095
 91
        1
280
     0
281
     0
  0
CLASS
  1
MLEADERSTYLE
  2
AcDbMLeaderStyle
  3
ACDB_MLEADERSTYLE_CLASS
 90
     4095
 91
        1
280
     0
281
     0
  0
CLASS
  1
ACDBSECTIONVIEWSTYLE
  2
AcDbSectionViewStyle
  3
ObjectDBX Classes
 90
     1025
 91
        1
280
     0
281
     0
  0
CLASS
  1
ACDBDETAILVIEWSTYLE
  2
AcDbDetailViewStyle
  3
ObjectDBX Classes
 90
     1025
 91
        1
280
     0
281
     0
  0
CLASS
  1
RASTERVARIABLES
  2
AcDbRasterVariables
  3
ISM
 90
        0
 91
        1
280
     0
281
     0
  0
CLASS
  1
DICTIONARYVAR
  2
AcDbDictionaryVar
  3
ObjectDBX Classes
 90
        0
 91
        5
280
     0
281
     0
  0
CLASS
  1
CELLSTYLEMAP
  2
AcDbCellStyleMap
  3
ObjectDBX Classes
 90
     1152
 91
        2
280
     0
281
     0
  0
CLASS
  1
SORTENTSTABLE
  2
AcDbSortentsTable
  3
ObjectDBX Classes
 90
        0
 91
        1
280
     0
281
     0
  0
ENDSEC
  0
SECTION
  2
TABLES
  0
TABLE
  2
VPORT
  5
8
330
0
100
AcDbSymbolTable
 70
     1
  0
VPORT
  5
57
330
8
100
AcDbSymbolTableRecord
100
AcDbViewportTableRecord
  2
*Active
 70
     0
 10
0.0
 20
0.0
 11
1.0
 21
1.0
 12
9.155899744833428
 22
5.57966380816561
 13
0.0
 23
0.0
 14
1.0
 24
1.0
 15
0.0
 25
0.0
 16
0.0
 26
0.0
 36
1.0
 17
0.0
 27
0.0
 37
0.0
 40
6.323914608016763
 41
1.271860993818376
 42
50.0
 43
0.0
 44
0.0
 50
0.0
 51
0.0
 71
     0
 72
  1000
 73
     1
 74
     1
 75
     0
 76
     0
 77
     0
 78
     0
281
     0
 65
     1
110
0.0
120
0.0
130
0.0
111
1.0
121
0.0
131
0.0
112
0.0
122
1.0
132
0.0
 79
     0
146
0.0
 60
     3
 61
     5
292
     1
282
     1
141
0.0
142
0.0
 63
   250
421
  3355443
  0
ENDTAB
  0
TABLE
  2
LTYPE
  5
5
330
0
100
AcDbSymbolTable
 70
     2
  0
LTYPE
  5
5B
330
5
100
AcDbSymbolTableRecord
100
AcDbLinetypeTableRecord
  2
ByBlock
 70
     0
  3

 72
    65
 73
     0
 40
0.0
  0
LTYPE
  5
5C
330
5
100
AcDbSymbolTableRecord
100
AcDbLinetypeTableRecord
  2
ByLayer
 70
     0
  3

 72
    65
 73
     0
 40
0.0
  0
LTYPE
  5
5D
330
5
100
AcDbSymbolTableRecord
100
AcDbLinetypeTableRecord
  2
Continuous
 70
     0
  3
Solid line
 72
    65
 73
     0
 40
0.0
  0
LTYPE
  5
25E
330
5
100
AcDbSymbolTableRecord
100
AcDbLinetypeTableRecord
  2
Dash 500
 70
     0
  3

 72
    65
 73
     2
 40
0.0005292
 49
0.0
 74
     0
 49
-0.0005292
 74
     0
  0
ENDTAB
  0
TABLE
  2
LAYER
  5
2
330
0
100
AcDbSymbolTable
 70
    16
  0
LAYER
  5
54
330
2
100
AcDbSymbolTableRecord
100
AcDbLayerTableRecord
  2
0
 70
     0
 62
     7
  6
Continuous
370
    -3
390
F
347
21
348
0
  0
LAYER
  5
84
330
2
100
AcDbSymbolTableRecord
100
AcDbLayerTableRecord
  2
X-ARQ-MURO_PROJ
 70
     0
 62
   251
  6
Continuous
370
     9
390
F
347
21
348
0
  0
LAYER
  5
85
330
2
100
AcDbSymbolTableRecord
100
AcDbLayerTableRecord
  2
X-ARQ-PISOS_PROJ
 70
     0
 62
     8
  6
Continuous
370
     9
390
F
347
21
348
0
  0
LAYER
  5
88
330
2
100
AcDbSymbolTableRecord
100
AcDbLayerTableRecord
  2
X-ARQ-MOBILIARIO_PROJ
 70
     0
 62
     9
  6
Continuous
370
     9
390
F
347
21
348
0
  0
LAYER
  5
89
330
2
100
AcDbSymbolTableRecord
100
AcDbLayerTableRecord
  2
X-TEC-GEN
 70
     0
 62
   252
  6
Continuous
370
     9
390
F
347
21
348
0
  0
LAYER
  5
192
330
2
100
AcDbSymbolTableRecord
100
AcDbLayerTableRecord
  2
X-ARQ-MURO_CUT
 70
     0
 62
     5
  6
Continuous
370
     9
390
F
347
21
348
0
  0
LAYER
  5
1B4
330
2
100
AcDbSymbolTableRecord
100
AcDbLayerTableRecord
  2
X-ARQ-PUERTAS_CUT
 70
     0
 62
     3
  6
Continuous
370
     9
390
F
347
21
348
0
  0
LAYER
  5
1C0
330
2
100
AcDbSymbolTableRecord
100
AcDbLayerTableRecord
  2
X-ARQ-PROYECCIONES
 70
     0
 62
     8
  6
Continuous
370
     9
390
F
347
21
348
0
  0
LAYER
  5
242
330
2
100
AcDbSymbolTableRecord
100
AcDbLayerTableRecord
  2
X-ARQ-MOBILIARIO_CUT
 70
     0
 62
   146
  6
Continuous
370
     9
390
F
347
21
348
0
  0
LAYER
  5
26B
330
2
100
AcDbSymbolTableRecord
100
AcDbLayerTableRecord
  2
X-PLANO1
 70
     0
 62
     6
  6
Continuous
370
    90
390
F
347
21
348
0
  0
LAYER
  5
270
330
2
100
AcDbSymbolTableRecord
100
AcDbLayerTableRecord
  2
X-ESP-REF-SIMBOLOS
 70
     0
 62
     3
  6
Continuous
370
     9
390
F
347
21
348
0
  0
LAYER
  5
271
330
2
100
AcDbSymbolTableRecord
100
AcDbLayerTableRecord
  2
X-ESP-TEXTO
 70
     0
 62
     2
  6
Continuous
370
     9
390
F
347
21
348
0
  0
LAYER
  5
27B
330
2
100
AcDbSymbolTableRecord
100
AcDbLayerTableRecord
  2
X-ESP-REF-SIMBOLOS-100
 70
     0
 62
     3
  6
Continuous
370
     9
390
F
347
21
348
0
  0
LAYER
  5
290
330
2
100
AcDbSymbolTableRecord
100
AcDbLayerTableRecord
  2
Defpoints
 70
     0
 62
     7
  6
Continuous
290
     0
370
    -3
390
F
347
21
348
0
  0
ENDTAB
  0
TABLE
  2
STYLE
  5
3
330
0
100
AcDbSymbolTable
 70
     4
  0
STYLE
  5
55
330
3
100
AcDbSymbolTableRecord
100
AcDbTextStyleTableRecord
  2
Standard
 70
     0
 40
0.0
 41
1.0
 50
0.0
 71
     0
 42
0.2
  3
txt
  4

  0
STYLE
  5
5A
330
3
100
AcDbSymbolTableRecord
100
AcDbTextStyleTableRecord
  2
Annotative
 70
     0
 40
0.0
 41
1.0
 50
0.0
 71
     0
 42
0.2
  3
txt
  4

1001
AcadAnnotative
1000
AnnotativeData
1002
{
1070
     1
1070
     1
1002
}
  0
STYLE
  5
272
330
3
100
AcDbSymbolTableRecord
100
AcDbTextStyleTableRecord
  2
Arial
 70
     0
 40
0.2
 41
1.0
 50
0.0
 71
     0
 42
0.2
  3
arial.ttf
  4

1001
ACAD
1000
Arial
1071
       34
  0
STYLE
  5
285
330
3
100
AcDbSymbolTableRecord
100
AcDbTextStyleTableRecord
  2
Arial_1
 70
     0
 40
0.15
 41
1.0
 50
0.0
 71
     0
 42
0.2
  3
arial.ttf
  4

1001
ACAD
1000
Arial
1071
       34
  0
ENDTAB
  0
TABLE
  2
VIEW
  5
6
330
0
100
AcDbSymbolTable
 70
     0
  0
ENDTAB
  0
TABLE
  2
UCS
  5
7
330
0
100
AcDbSymbolTable
 70
     1
  0
UCS
  5
2ED
330
7
100
AcDbSymbolTableRecord
100
AcDbUCSTableRecord
  2
REVIT60-Internal
 70
     0
 10
0.2635430321786182
 20
-1.819227437178187
 30
0.0
 11
0.9943113333967216
 21
0.1065127798850139
 31
0.0
 12
-0.1065127798850139
 22
0.9943113333967216
 32
0.0
 79
     0
146
0.0
  0
ENDTAB
  0
TABLE
  2
APPID
  5
9
330
0
100
AcDbSymbolTable
 70
     3
  0
APPID
  5
56
330
9
100
AcDbSymbolTableRecord
100
AcDbRegAppTableRecord
  2
ACAD
 70
     0
  0
APPID
  5
5E
330
9
100
AcDbSymbolTableRecord
100
AcDbRegAppTableRecord
  2
AcadAnnotative
 70
     0
  0
APPID
  5
78
330
9
100
AcDbSymbolTableRecord
100
AcDbRegAppTableRecord
  2
REVIT
 70
     0
  0
ENDTAB
  0
TABLE
  2
DIMSTYLE
  5
A
330
0
100
AcDbSymbolTable
 70
     3
100
AcDbDimStyleTable
 71
     1
340
289
  0
DIMSTYLE
105
58
330
A
100
AcDbSymbolTableRecord
100
AcDbDimStyleTableRecord
  2
Standard
 70
     0
340
55
  0
DIMSTYLE
105
59
330
A
100
AcDbSymbolTableRecord
100
AcDbDimStyleTableRecord
  2
Annotative
 70
     0
340
55
1001
AcadAnnotative
1000
AnnotativeData
1002
{
1070
     1
1070
     1
1002
}
  0
DIMSTYLE
105
289
102
{ACAD_REACTORS
330
28E
102
}
330
A
100
AcDbSymbolTableRecord
100
AcDbDimStyleTableRecord
  2
00_PLANB_DIM__fondo_blanco_
 70
     0
  3
<>
 40
0.3048
 41
0.2460629921259842
 44
0.3280839895013123
 45
0.01
 49
0.3280839895013123
 69
     1
 73
     0
 74
     0
 77
     1
 78
     8
 90
        2
140
0.1530389099935455
145
1.0
147
0.0656167979002625
172
     1
173
     1
174
     1
179
     2
271
     2
290
     1
340
285
343
28A
344
28A
  0
ENDTAB
  0
TABLE
  2
BLOCK_RECORD
  5
1
330
0
100
AcDbSymbolTable
 70
    17
  0
BLOCK_RECORD
  5
70
102
{ACAD_XDICTIONARY
360
2F2
102
}
330
1
100
AcDbSymbolTableRecord
100
AcDbBlockTableRecord
  2
*Model_Space
340
73
 70
     0
280
     1
281
     0
  0
BLOCK_RECORD
  5
6C
330
1
100
AcDbSymbolTableRecord
100
AcDbBlockTableRecord
  2
*Paper_Space
340
6F
 70
     0
280
     1
281
     0
  0
BLOCK_RECORD
  5
74
330
1
100
AcDbSymbolTableRecord
100
AcDbBlockTableRecord
  2
*Paper_Space0
340
77
 70
     0
280
     1
281
     0
  0
BLOCK_RECORD
  5
1B3
330
1
100
AcDbSymbolTableRecord
100
AcDbBlockTableRecord
  2
AE_PUERTA BATIENTE MADERA - AE_PUERTA BATIENTE MADERA 0_70X2_20-8696333-Piso 1 - Arq
340
0
102
{BLKREFS
331
1C5
102
}
 70
     0
280
     1
281
     0
  0
BLOCK_RECORD
  5
1C6
330
1
100
AcDbSymbolTableRecord
100
AcDbBlockTableRecord
  2
Horno Padrino - Horno Padrino-8709530-Piso 1 - Arq
340
0
102
{BLKREFS
331
1D8
102
}
 70
     0
280
     1
281
     0
  0
BLOCK_RECORD
  5
1D9
330
1
100
AcDbSymbolTableRecord
100
AcDbBlockTableRecord
  2
A_Surface rec - A_Surface rec-7537305-Piso 1 - Arq
340
0
102
{BLKREFS
331
1E8
102
}
 70
     0
280
     1
281
     0
  0
BLOCK_RECORD
  5
1F9
330
1
100
AcDbSymbolTableRecord
100
AcDbBlockTableRecord
  2
AE_PUERTA BATIENTE MADERA - AE_PUERTA BATIENTE MADERA 0_70X2_20-8714395-Piso 1 - Arq
340
0
102
{BLKREFS
331
215
102
}
 70
     0
280
     1
281
     0
  0
BLOCK_RECORD
  5
216
330
1
100
AcDbSymbolTableRecord
100
AcDbBlockTableRecord
  2
EQU_NEVERA - EQU_NEVERA-7909127-Piso 1 - Arq
340
0
102
{BLKREFS
331
223
102
}
 70
     0
280
     1
281
     0
  0
BLOCK_RECORD
  5
224
330
1
100
AcDbSymbolTableRecord
100
AcDbBlockTableRecord
  2
Canastillas plásticas  31 - 31 x 40 x 60 - LAT HOLE - 3 STACK-8039155-Piso 1 - Arq
340
0
102
{BLKREFS
331
23B
331
23C
102
}
 70
     0
280
     1
281
     0
  0
BLOCK_RECORD
  5
23D
330
1
100
AcDbSymbolTableRecord
100
AcDbBlockTableRecord
  2
Repiza - Repiza-8718733-Piso 1 - Arq
340
0
102
{BLKREFS
331
25D
102
}
 70
     0
280
     1
281
     0
  0
BLOCK_RECORD
  5
28A
330
1
100
AcDbSymbolTableRecord
100
AcDbBlockTableRecord
  2
_Oblique
340
0
102
{BLKREFS
102
}
 70
     0
280
     1
281
     0
  0
BLOCK_RECORD
  5
291
330
1
100
AcDbSymbolTableRecord
100
AcDbBlockTableRecord
  2
DIMBLOCK1-Piso 1 - Arq
340
0
 70
     0
280
     1
281
     0
  0
BLOCK_RECORD
  5
2AB
330
1
100
AcDbSymbolTableRecord
100
AcDbBlockTableRecord
  2
DIMBLOCK2-Piso 1 - Arq
340
0
 70
     0
280
     1
281
     0
  0
BLOCK_RECORD
  5
2C5
330
1
100
AcDbSymbolTableRecord
100
AcDbBlockTableRecord
  2
DIMBLOCK3-Piso 1 - Arq
340
0
 70
     0
280
     1
281
     0
  0
BLOCK_RECORD
  5
2DF
330
1
100
AcDbSymbolTableRecord
100
AcDbBlockTableRecord
  2
DIMBLOCK4-Piso 1 - Arq
340
0
 70
     0
280
     1
281
     0
  0
ENDTAB
  0
ENDSEC
  0
SECTION
  2
BLOCKS
  0
BLOCK
  5
71
330
70
100
AcDbEntity
  8
0
100
AcDbBlockBegin
  2
*Model_Space
 70
     0
 10
0.0
 20
0.0
 30
0.0
  3
*Model_Space
  1

  0
ENDBLK
  5
72
330
70
100
AcDbEntity
  8
0
100
AcDbBlockEnd
  0
BLOCK
  5
6D
330
6C
100
AcDbEntity
 67
     1
  8
0
100
AcDbBlockBegin
  2
*Paper_Space
 70
     0
 10
0.0
 20
0.0
 30
0.0
  3
*Paper_Space
  1

  0
ENDBLK
  5
6E
330
6C
100
AcDbEntity
 67
     1
  8
0
100
AcDbBlockEnd
  0
BLOCK
  5
75
330
74
100
AcDbEntity
 67
     1
  8
0
100
AcDbBlockBegin
  2
*Paper_Space0
 70
     0
 10
0.0
 20
0.0
 30
0.0
  3
*Paper_Space0
  1

  0
ENDBLK
  5
76
330
74
100
AcDbEntity
 67
     1
  8
0
100
AcDbBlockEnd
  0
BLOCK
  5
1C3
330
1B3
100
AcDbEntity
  8
0
100
AcDbBlockBegin
  2
AE_PUERTA BATIENTE MADERA - AE_PUERTA BATIENTE MADERA 0_70X2_20-8696333-Piso 1 - Arq
 70
     0
 10
0.0
 20
0.0
 30
0.0
  3
AE_PUERTA BATIENTE MADERA - AE_PUERTA BATIENTE MADERA 0_70X2_20-8696333-Piso 1 - Arq
  1

  0
LINE
  5
1B5
330
1B3
100
AcDbEntity
  8
X-ARQ-PUERTAS_CUT
100
AcDbLine
 10
0.3499999999999901
 20
0.0649999999999912
 30
0.0
 11
0.3399999999999903
 21
0.0649999999999912
 31
0.0
1001
REVIT
1002
{
1070
     1
1000
8710629
1002
}
1002
{
1070
     5
1000
6947327
1002
}
  0
LINE
  5
1B6
330
1B3
100
AcDbEntity
  8
X-ARQ-PUERTAS_CUT
100
AcDbLine
 10
0.3399999999999903
 20
0.0649999999999912
 30
0.0
 11
0.3399999999999903
 21
0.0749999999999912
 31
0.0
1001
REVIT
1002
{
1070
     1
1000
8710629
1002
}
1002
{
1070
     5
1000
6947327
1002
}
  0
LINE
  5
1B7
330
1B3
100
AcDbEntity
  8
X-ARQ-PUERTAS_CUT
100
AcDbLine
 10
0.3399999999999903
 20
0.0749999999999912
 30
0.0
 11
0.3249999999999904
 21
0.0749999999999913
 31
0.0
1001
REVIT
1002
{
1070
     1
1000
8710629
1002
}
1002
{
1070
     5
1000
6947327
1002
}
  0
LINE
  5
1B8
330
1B3
100
AcDbEntity
  8
X-ARQ-PUERTAS_CUT
100
AcDbLine
 10
0.3249999999999904
 20
0.0749999999999913
 30
0.0
 11
0.3249999999999901
 21
0.0189745142208089
 31
0.0
1001
REVIT
1002
{
1070
     1
1000
8710629
1002
}
1002
{
1070
     5
1000
6947327
1002
}
  0
LINE
  5
1B9
330
1B3
100
AcDbEntity
  8
X-ARQ-PUERTAS_CUT
100
AcDbLine
 10
-0.3250000000000067
 20
0.0189745142208093
 30
0.0
 11
-0.3250000000000064
 21
0.0749999999999935
 31
0.0
1001
REVIT
1002
{
1070
     1
1000
8710629
1002
}
1002
{
1070
     5
1000
6947327
1002
}
  0
LINE
  5
1BA
330
1B3
100
AcDbEntity
  8
X-ARQ-PUERTAS_CUT
100
AcDbLine
 10
-0.3250000000000064
 20
0.0749999999999935
 30
0.0
 11
-0.3400000000000066
 21
0.0749999999999934
 31
0.0
1001
REVIT
1002
{
1070
     1
1000
8710629
1002
}
1002
{
1070
     5
1000
6947327
1002
}
  0
LINE
  5
1BB
330
1B3
100
AcDbEntity
  8
X-ARQ-PUERTAS_CUT
100
AcDbLine
 10
-0.3400000000000066
 20
0.0749999999999934
 30
0.0
 11
-0.3400000000000066
 21
0.0649999999999935
 31
0.0
1001
REVIT
1002
{
1070
     1
1000
8710629
1002
}
1002
{
1070
     5
1000
6947327
1002
}
  0
LINE
  5
1BC
330
1B3
100
AcDbEntity
  8
X-ARQ-PUERTAS_CUT
100
AcDbLine
 10
-0.3400000000000066
 20
0.0649999999999935
 30
0.0
 11
-0.3500000000000065
 21
0.0649999999999935
 31
0.0
1001
REVIT
1002
{
1070
     1
1000
8710629
1002
}
1002
{
1070
     5
1000
6947327
1002
}
  0
LINE
  5
1BD
330
1B3
100
AcDbEntity
  8
X-ARQ-PUERTAS_CUT
100
AcDbLine
 10
0.3199999999999898
 20
0.0189745142208089
 30
0.0
 11
0.3199999999999901
 21
0.0749999999999913
 31
0.0
1001
REVIT
1002
{
1070
     1
1000
8710629
1002
}
1002
{
1070
     5
1000
6947327
1002
}
  0
LINE
  5
1BE
330
1B3
100
AcDbEntity
  8
X-ARQ-PUERTAS_CUT
100
AcDbLine
 10
0.3199999999999901
 20
0.0749999999999913
 30
0.0
 11
-0.320000000000009
 21
0.0749999999999934
 31
0.0
1001
REVIT
1002
{
1070
     1
1000
8710629
1002
}
1002
{
1070
     5
1000
6947327
1002
}
  0
LINE
  5
1BF
330
1B3
100
AcDbEntity
  8
X-ARQ-PUERTAS_CUT
100
AcDbLine
 10
-0.3200000000000089
 20
0.0749999999999934
 30
0.0
 11
-0.3200000000000092
 21
0.0189745142208094
 31
0.0
1001
REVIT
1002
{
1070
     1
1000
8710629
1002
}
1002
{
1070
     5
1000
6947327
1002
}
  0
LINE
  5
1C1
330
1B3
100
AcDbEntity
  8
X-ARQ-PROYECCIONES
100
AcDbLine
 10
-0.3500000000000076
 20
0.0749999999999939
 30
0.0
 11
0.3499999999999921
 21
0.0749999999999939
 31
0.0
1001
REVIT
1002
{
1070
     1
1000
8710629
1002
}
1002
{
1070
     5
1000
6947327
1002
}
1002
{
1070
     3
1000
-2009501
1002
}
  0
ARC
  5
1C2
330
1B3
100
AcDbEntity
  8
X-ARQ-PROYECCIONES
100
AcDbCircle
 10
-0.32000000000001
 20
0.0749999999999939
 30
0.0
 40
0.6400000000000007
100
AcDbArc
 50
0.0000000000000318
 51
90.00000000000005
1001
REVIT
1002
{
1070
     1
1000
8710629
1002
}
1002
{
1070
     5
1000
6947327
1002
}
1002
{
1070
     3
1000
-2009501
1002
}
  0
ENDBLK
  5
1C4
330
1B3
100
AcDbEntity
  8
0
100
AcDbBlockEnd
  0
BLOCK
  5
1D6
330
1C6
100
AcDbEntity
  8
0
100
AcDbBlockBegin
  2
Horno Padrino - Horno Padrino-8709530-Piso 1 - Arq
 70
     0
 10
0.0
 20
0.0
 30
0.0
  3
Horno Padrino - Horno Padrino-8709530-Piso 1 - Arq
  1

  0
LINE
  5
1C7
330
1C6
100
AcDbEntity
  8
X-ARQ-MOBILIARIO_PROJ
100
AcDbLine
 10
0.31
 20
-0.4550000000000002
 30
0.0
 11
0.31
 21
-0.695
 31
0.0
1001
REVIT
1002
{
1070
     1
1000
8710689
1002
}
1002
{
1070
     5
1000
8709530
1002
}
  0
LINE
  5
1C8
330
1C6
100
AcDbEntity
  8
X-ARQ-MOBILIARIO_PROJ
100
AcDbLine
 10
-0.31
 20
-0.695
 30
0.0
 11
-0.31
 21
-0.4549999999999999
 31
0.0
1001
REVIT
1002
{
1070
     1
1000
8710689
1002
}
1002
{
1070
     5
1000
8709530
1002
}
  0
LINE
  5
1C9
330
1C6
100
AcDbEntity
  8
X-ARQ-MOBILIARIO_PROJ
100
AcDbLine
 10
-0.31
 20
-0.695
 30
0.0
 11
0.31
 21
-0.695
 31
0.0
1001
REVIT
1002
{
1070
     1
1000
8710689
1002
}
1002
{
1070
     5
1000
8709530
1002
}
  0
LINE
  5
1CA
330
1C6
100
AcDbEntity
  8
X-ARQ-MOBILIARIO_PROJ
100
AcDbLine
 10
0.045
 20
-0.458
 30
0.0
 11
0.045
 21
-0.455
 31
0.0
1001
REVIT
1002
{
1070
     1
1000
8710689
1002
}
1002
{
1070
     5
1000
8709530
1002
}
  0
LINE
  5
1CB
330
1C6
100
AcDbEntity
  8
X-ARQ-MOBILIARIO_PROJ
100
AcDbLine
 10
-0.045
 20
-0.455
 30
0.0
 11
-0.045
 21
-0.458
 31
0.0
1001
REVIT
1002
{
1070
     1
1000
8710689
1002
}
1002
{
1070
     5
1000
8709530
1002
}
  0
LINE
  5
1CC
330
1C6
100
AcDbEntity
  8
X-ARQ-MOBILIARIO_PROJ
100
AcDbLine
 10
-0.045
 20
-0.458
 30
0.0
 11
0.045
 21
-0.458
 31
0.0
1001
REVIT
1002
{
1070
     1
1000
8710689
1002
}
1002
{
1070
     5
1000
8709530
1002
}
  0
LINE
  5
1CD
330
1C6
100
AcDbEntity
  8
X-ARQ-MOBILIARIO_PROJ
100
AcDbLine
 10
0.3799999999999999
 20
0.44
 30
0.0
 11
0.3799999999999999
 21
-0.4450000000000001
 31
0.0
1001
REVIT
1002
{
1070
     1
1000
8710689
1002
}
1002
{
1070
     5
1000
8709530
1002
}
  0
LINE
  5
1CE
330
1C6
100
AcDbEntity
  8
X-ARQ-MOBILIARIO_PROJ
100
AcDbLine
 10
-0.3799999999999999
 20
0.44
 30
0.0
 11
0.3800000000000001
 21
0.44
 31
0.0
1001
REVIT
1002
{
1070
     1
1000
8710689
1002
}
1002
{
1070
     5
1000
8709530
1002
}
  0
LINE
  5
1CF
330
1C6
100
AcDbEntity
  8
X-ARQ-MOBILIARIO_PROJ
100
AcDbLine
 10
-0.3800000000000001
 20
-0.445
 30
0.0
 11
-0.3799999999999999
 21
0.44
 31
0.0
1001
REVIT
1002
{
1070
     1
1000
8710689
1002
}
1002
{
1070
     5
1000
8709530
1002
}
  0
LINE
  5
1D0
330
1C6
100
AcDbEntity
  8
X-ARQ-MOBILIARIO_PROJ
100
AcDbLine
 10
-0.3800000000000001
 20
-0.4450000000000001
 30
0.0
 11
0.3799999999999999
 21
-0.4450000000000001
 31
0.0
1001
REVIT
1002
{
1070
     1
1000
8710689
1002
}
1002
{
1070
     5
1000
8709530
1002
}
  0
LINE
  5
1D1
330
1C6
100
AcDbEntity
  8
X-ARQ-MOBILIARIO_PROJ
100
AcDbLine
 10
-0.385
 20
-0.435
 30
0.0
 11
-0.385
 21
-0.455
 31
0.0
1001
REVIT
1002
{
1070
     1
1000
8710689
1002
}
1002
{
1070
     5
1000
8709530
1002
}
  0
LINE
  5
1D2
330
1C6
100
AcDbEntity
  8
X-ARQ-MOBILIARIO_PROJ
100
AcDbLine
 10
0.3850000000000001
 20
-0.455
 30
0.0
 11
-0.3850000000000001
 21
-0.455
 31
0.0
1001
REVIT
1002
{
1070
     1
1000
8710689
1002
}
1002
{
1070
     5
1000
8709530
1002
}
  0
LINE
  5
1D3
330
1C6
100
AcDbEntity
  8
X-ARQ-MOBILIARIO_PROJ
100
AcDbLine
 10
0.3850000000000001
 20
-0.455
 30
0.0
 11
0.3850000000000001
 21
-0.435
 31
0.0
1001
REVIT
1002
{
1070
     1
1000
8710689
1002
}
1002
{
1070
     5
1000
8709530
1002
}
  0
LINE
  5
1D4
330
1C6
100
AcDbEntity
  8
X-ARQ-MOBILIARIO_PROJ
100
AcDbLine
 10
0.3850000000000001
 20
-0.435
 30
0.0
 11
0.3800000000000001
 21
-0.435
 31
0.0
1001
REVIT
1002
{
1070
     1
1000
8710689
1002
}
1002
{
1070
     5
1000
8709530
1002
}
  0
LINE
  5
1D5
330
1C6
100
AcDbEntity
  8
X-ARQ-MOBILIARIO_PROJ
100
AcDbLine
 10
-0.3799999999999999
 20
-0.435
 30
0.0
 11
-0.385
 21
-0.435
 31
0.0
1001
REVIT
1002
{
1070
     1
1000
8710689
1002
}
1002
{
1070
     5
1000
8709530
1002
}
  0
ENDBLK
  5
1D7
330
1C6
100
AcDbEntity
  8
0
100
AcDbBlockEnd
  0
BLOCK
  5
1E6
330
1D9
100
AcDbEntity
  8
0
100
AcDbBlockBegin
  2
A_Surface rec - A_Surface rec-7537305-Piso 1 - Arq
 70
     0
 10
0.0
 20
0.0
 30
0.0
  3
A_Surface rec - A_Surface rec-7537305-Piso 1 - Arq
  1

  0
LINE
  5
1DA
330
1D9
100
AcDbEntity
  8
X-ARQ-MOBILIARIO_PROJ
100
AcDbLine
 10
-0.5429289321881332
 20
0.3929289321881335
 30
0.0
 11
-0.542928932188133
 21
-0.3929289321881404
 31
0.0
1001
REVIT
1002
{
1070
     1
1000
8710690
1002
}
1002
{
1070
     5
1000
7537305
1002
}
  0
LINE
  5
1DB
330
1D9
100
AcDbEntity
  8
X-ARQ-MOBILIARIO_PROJ
100
AcDbLine
 10
-0.5429289321881332
 20
-0.3929289321881403
 30
0.0
 11
0.5429289321881395
 21
-0.3929289321881404
 31
0.0
1001
REVIT
1002
{
1070
     1
1000
8710690
1002
}
1002
{
1070
     5
1000
7537305
1002
}
  0
LINE
  5
1DC
330
1D9
100
AcDbEntity
  8
X-ARQ-MOBILIARIO_PROJ
100
AcDbLine
 10
0.5429289321881392
 20
-0.3929289321881403
 30
0.0
 11
0.5429289321881392
 21
0.3929289321881336
 31
0.0
1001
REVIT
1002
{
1070
     1
1000
8710690
1002
}
1002
{
1070
     5
1000
7537305
1002
}
  0
LINE
  5
1DD
330
1D9
100
AcDbEntity
  8
X-ARQ-MOBILIARIO_PROJ
100
AcDbLine
 10
0.5429289321881392
 20
0.3929289321881335
 30
0.0
 11
-0.5429289321881332
 21
0.3929289321881335
 31
0.0
1001
REVIT
1002
{
1070
     1
1000
8710690
1002
}
1002
{
1070
     5
1000
7537305
1002
}
  0
LINE
  5
1DE
330
1D9
100
AcDbEntity
  8
X-ARQ-MOBILIARIO_PROJ
100
AcDbLine
 10
-0.5499999999999983
 20
0.3999999999999986
 30
0.0
 11
-0.5499999999999983
 21
-0.4000000000000055
 31
0.0
1001
REVIT
1002
{
1070
     1
1000
8710690
1002
}
1002
{
1070
     5
1000
7537305
1002
}
  0
LINE
  5
1DF
330
1D9
100
AcDbEntity
  8
X-ARQ-MOBILIARIO_PROJ
100
AcDbLine
 10
-0.5499999999999983
 20
-0.4000000000000055
 30
0.0
 11
-0.5429289321881332
 21
-0.3929289321881404
 31
0.0
1001
REVIT
1002
{
1070
     1
1000
8710690
1002
}
1002
{
1070
     5
1000
7537305
1002
}
  0
LINE
  5
1E0
330
1D9
100
AcDbEntity
  8
X-ARQ-MOBILIARIO_PROJ
100
AcDbLine
 10
-0.5499999999999983
 20
-0.4000000000000056
 30
0.0
 11
0.5500000000000044
 21
-0.4000000000000056
 31
0.0
1001
REVIT
1002
{
1070
     1
1000
8710690
1002
}
1002
{
1070
     5
1000
7537305
1002
}
  0
LINE
  5
1E1
330
1D9
100
AcDbEntity
  8
X-ARQ-MOBILIARIO_PROJ
100
AcDbLine
 10
0.5500000000000044
 20
-0.4000000000000055
 30
0.0
 11
0.5429289321881392
 21
-0.3929289321881404
 31
0.0
1001
REVIT
1002
{
1070
     1
1000
8710690
1002
}
1002
{
1070
     5
1000
7537305
1002
}
  0
LINE
  5
1E2
330
1D9
100
AcDbEntity
  8
X-ARQ-MOBILIARIO_PROJ
100
AcDbLine
 10
0.5500000000000044
 20
-0.4000000000000055
 30
0.0
 11
0.5500000000000044
 21
0.3999999999999986
 31
0.0
1001
REVIT
1002
{
1070
     1
1000
8710690
1002
}
1002
{
1070
     5
1000
7537305
1002
}
  0
LINE
  5
1E3
330
1D9
100
AcDbEntity
  8
X-ARQ-MOBILIARIO_PROJ
100
AcDbLine
 10
0.5500000000000044
 20
0.3999999999999986
 30
0.0
 11
0.5429289321881392
 21
0.3929289321881335
 31
0.0
1001
REVIT
1002
{
1070
     1
1000
8710690
1002
}
1002
{
1070
     5
1000
7537305
1002
}
  0
LINE
  5
1E4
330
1D9
100
AcDbEntity
  8
X-ARQ-MOBILIARIO_PROJ
100
AcDbLine
 10
0.5500000000000044
 20
0.3999999999999986
 30
0.0
 11
-0.5499999999999983
 21
0.3999999999999986
 31
0.0
1001
REVIT
1002
{
1070
     1
1000
8710690
1002
}
1002
{
1070
     5
1000
7537305
1002
}
  0
LINE
  5
1E5
330
1D9
100
AcDbEntity
  8
X-ARQ-MOBILIARIO_PROJ
100
AcDbLine
 10
-0.5429289321881332
 20
0.3929289321881335
 30
0.0
 11
-0.5499999999999983
 21
0.3999999999999986
 31
0.0
1001
REVIT
1002
{
1070
     1
1000
8710690
1002
}
1002
{
1070
     5
1000
7537305
1002
}
  0
ENDBLK
  5
1E7
330
1D9
100
AcDbEntity
  8
0
100
AcDbBlockEnd
  0
BLOCK
  5
213
330
1F9
100
AcDbEntity
  8
0
100
AcDbBlockBegin
  2
AE_PUERTA BATIENTE MADERA - AE_PUERTA BATIENTE MADERA 0_70X2_20-8714395-Piso 1 - Arq
 70
     0
 10
0.0
 20
0.0
 30
0.0
  3
AE_PUERTA BATIENTE MADERA - AE_PUERTA BATIENTE MADERA 0_70X2_20-8714395-Piso 1 - Arq
  1

  0
LINE
  5
1FA
330
1F9
100
AcDbEntity
  8
X-ARQ-PUERTAS_CUT
100
AcDbLine
 10
0.3099999999999901
 20
0.0099999999999913
 30
0.0
 11
0.3099999999999898
 21
-0.0749999999999995
 31
0.0
1001
REVIT
1002
{
1070
     1
1000
8714324
1002
}
1002
{
1070
     5
1000
6947327
1002
}
  0
LINE
  5
1FB
330
1F9
100
AcDbEntity
  8
X-ARQ-PUERTAS_CUT
100
AcDbLine
 10
0.3099999999999898
 20
-0.0749999999999995
 30
0.0
 11
0.3399999999999897
 21
-0.0749999999999995
 31
0.0
1001
REVIT
1002
{
1070
     1
1000
8714324
1002
}
1002
{
1070
     5
1000
6947327
1002
}
  0
LINE
  5
1FC
330
1F9
100
AcDbEntity
  8
X-ARQ-PUERTAS_CUT
100
AcDbLine
 10
0.3399999999999897
 20
-0.0749999999999995
 30
0.0
 11
0.3399999999999897
 21
-0.0649999999999996
 31
0.0
1001
REVIT
1002
{
1070
     1
1000
8714324
1002
}
1002
{
1070
     5
1000
6947327
1002
}
  0
LINE
  5
1FD
330
1F9
100
AcDbEntity
  8
X-ARQ-PUERTAS_CUT
100
AcDbLine
 10
0.3399999999999897
 20
-0.0649999999999996
 30
0.0
 11
0.3499999999999896
 21
-0.0649999999999996
 31
0.0
1001
REVIT
1002
{
1070
     1
1000
8714324
1002
}
1002
{
1070
     5
1000
6947327
1002
}
  0
LINE
  5
1FE
330
1F9
100
AcDbEntity
  8
X-ARQ-PUERTAS_CUT
100
AcDbLine
 10
0.3499999999999901
 20
0.0649999999999912
 30
0.0
 11
0.3399999999999903
 21
0.0649999999999912
 31
0.0
1001
REVIT
1002
{
1070
     1
1000
8714324
1002
}
1002
{
1070
     5
1000
6947327
1002
}
  0
LINE
  5
1FF
330
1F9
100
AcDbEntity
  8
X-ARQ-PUERTAS_CUT
100
AcDbLine
 10
0.3399999999999903
 20
0.0649999999999912
 30
0.0
 11
0.3399999999999903
 21
0.0749999999999912
 31
0.0
1001
REVIT
1002
{
1070
     1
1000
8714324
1002
}
1002
{
1070
     5
1000
6947327
1002
}
  0
LINE
  5
200
330
1F9
100
AcDbEntity
  8
X-ARQ-PUERTAS_CUT
100
AcDbLine
 10
0.3399999999999903
 20
0.0749999999999912
 30
0.0
 11
0.3249999999999904
 21
0.0749999999999913
 31
0.0
1001
REVIT
1002
{
1070
     1
1000
8714324
1002
}
1002
{
1070
     5
1000
6947327
1002
}
  0
LINE
  5
201
330
1F9
100
AcDbEntity
  8
X-ARQ-PUERTAS_CUT
100
AcDbLine
 10
0.3249999999999904
 20
0.0749999999999913
 30
0.0
 11
0.3249999999999901
 21
0.0099999999999913
 31
0.0
1001
REVIT
1002
{
1070
     1
1000
8714324
1002
}
1002
{
1070
     5
1000
6947327
1002
}
  0
LINE
  5
202
330
1F9
100
AcDbEntity
  8
X-ARQ-PUERTAS_CUT
100
AcDbLine
 10
0.3249999999999901
 20
0.0099999999999913
 30
0.0
 11
0.3099999999999901
 21
0.0099999999999913
 31
0.0
1001
REVIT
1002
{
1070
     1
1000
8714324
1002
}
1002
{
1070
     5
1000
6947327
1002
}
  0
LINE
  5
203
330
1F9
100
AcDbEntity
  8
X-ARQ-PUERTAS_CUT
100
AcDbLine
 10
-0.3100000000000071
 20
0.0099999999999933
 30
0.0
 11
-0.3250000000000068
 21
0.0099999999999934
 31
0.0
1001
REVIT
1002
{
1070
     1
1000
8714324
1002
}
1002
{
1070
     5
1000
6947327
1002
}
  0
LINE
  5
204
330
1F9
100
AcDbEntity
  8
X-ARQ-PUERTAS_CUT
100
AcDbLine
 10
-0.3250000000000068
 20
0.0099999999999934
 30
0.0
 11
-0.3250000000000064
 21
0.0749999999999935
 31
0.0
1001
REVIT
1002
{
1070
     1
1000
8714324
1002
}
1002
{
1070
     5
1000
6947327
1002
}
  0
LINE
  5
205
330
1F9
100
AcDbEntity
  8
X-ARQ-PUERTAS_CUT
100
AcDbLine
 10
-0.3250000000000064
 20
0.0749999999999935
 30
0.0
 11
-0.3400000000000066
 21
0.0749999999999934
 31
0.0
1001
REVIT
1002
{
1070
     1
1000
8714324
1002
}
1002
{
1070
     5
1000
6947327
1002
}
  0
LINE
  5
206
330
1F9
100
AcDbEntity
  8
X-ARQ-PUERTAS_CUT
100
AcDbLine
 10
-0.3400000000000066
 20
0.0749999999999934
 30
0.0
 11
-0.3400000000000066
 21
0.0649999999999935
 31
0.0
1001
REVIT
1002
{
1070
     1
1000
8714324
1002
}
1002
{
1070
     5
1000
6947327
1002
}
  0
LINE
  5
207
330
1F9
100
AcDbEntity
  8
X-ARQ-PUERTAS_CUT
100
AcDbLine
 10
-0.3400000000000066
 20
0.0649999999999935
 30
0.0
 11
-0.3500000000000065
 21
0.0649999999999935
 31
0.0
1001
REVIT
1002
{
1070
     1
1000
8714324
1002
}
1002
{
1070
     5
1000
6947327
1002
}
  0
LINE
  5
208
330
1F9
100
AcDbEntity
  8
X-ARQ-PUERTAS_CUT
100
AcDbLine
 10
-0.3500000000000071
 20
-0.0649999999999972
 30
0.0
 11
-0.3400000000000072
 21
-0.0649999999999973
 31
0.0
1001
REVIT
1002
{
1070
     1
1000
8714324
1002
}
1002
{
1070
     5
1000
6947327
1002
}
  0
LINE
  5
209
330
1F9
100
AcDbEntity
  8
X-ARQ-PUERTAS_CUT
100
AcDbLine
 10
-0.3400000000000072
 20
-0.0649999999999973
 30
0.0
 11
-0.3400000000000072
 21
-0.0749999999999972
 31
0.0
1001
REVIT
1002
{
1070
     1
1000
8714324
1002
}
1002
{
1070
     5
1000
6947327
1002
}
  0
LINE
  5
20A
330
1F9
100
AcDbEntity
  8
X-ARQ-PUERTAS_CUT
100
AcDbLine
 10
-0.3400000000000072
 20
-0.0749999999999972
 30
0.0
 11
-0.3100000000000072
 21
-0.0749999999999974
 31
0.0
1001
REVIT
1002
{
1070
     1
1000
8714324
1002
}
1002
{
1070
     5
1000
6947327
1002
}
  0
LINE
  5
20B
330
1F9
100
AcDbEntity
  8
X-ARQ-PUERTAS_CUT
100
AcDbLine
 10
-0.3100000000000072
 20
-0.0749999999999974
 30
0.0
 11
-0.3100000000000071
 21
0.0099999999999933
 31
0.0
1001
REVIT
1002
{
1070
     1
1000
8714324
1002
}
1002
{
1070
     5
1000
6947327
1002
}
  0
LINE
  5
20C
330
1F9
100
AcDbEntity
  8
X-ARQ-PUERTAS_CUT
100
AcDbLine
 10
-0.3200000000000092
 20
0.0149999999999934
 30
0.0
 11
0.3199999999999899
 21
0.0149999999999913
 31
0.0
1001
REVIT
1002
{
1070
     1
1000
8714324
1002
}
1002
{
1070
     5
1000
6947327
1002
}
  0
LINE
  5
20D
330
1F9
100
AcDbEntity
  8
X-ARQ-PUERTAS_CUT
100
AcDbLine
 10
0.3199999999999898
 20
0.0149999999999913
 30
0.0
 11
0.3199999999999901
 21
0.0749999999999913
 31
0.0
1001
REVIT
1002
{
1070
     1
1000
8714324
1002
}
1002
{
1070
     5
1000
6947327
1002
}
  0
LINE
  5
20E
330
1F9
100
AcDbEntity
  8
X-ARQ-PUERTAS_CUT
100
AcDbLine
 10
0.3199999999999901
 20
0.0749999999999913
 30
0.0
 11
-0.320000000000009
 21
0.0749999999999934
 31
0.0
1001
REVIT
1002
{
1070
     1
1000
8714324
1002
}
1002
{
1070
     5
1000
6947327
1002
}
  0
LINE
  5
20F
330
1F9
100
AcDbEntity
  8
X-ARQ-PUERTAS_CUT
100
AcDbLine
 10
-0.3200000000000089
 20
0.0749999999999934
 30
0.0
 11
-0.3200000000000092
 21
0.0149999999999934
 31
0.0
1001
REVIT
1002
{
1070
     1
1000
8714324
1002
}
1002
{
1070
     5
1000
6947327
1002
}
  0
LINE
  5
210
330
1F9
100
AcDbEntity
  8
X-ARQ-PROYECCIONES
100
AcDbLine
 10
-0.3500000000000076
 20
0.0749999999999939
 30
0.0
 11
0.3499999999999921
 21
0.0749999999999939
 31
0.0
1001
REVIT
1002
{
1070
     1
1000
8714324
1002
}
1002
{
1070
     5
1000
6947327
1002
}
1002
{
1070
     3
1000
-2009501
1002
}
  0
LINE
  5
211
330
1F9
100
AcDbEntity
  8
X-ARQ-PROYECCIONES
100
AcDbLine
 10
-0.3500000000000071
 20
-0.075
 30
0.0
 11
0.3499999999999927
 21
-0.075
 31
0.0
1001
REVIT
1002
{
1070
     1
1000
8714324
1002
}
1002
{
1070
     5
1000
6947327
1002
}
1002
{
1070
     3
1000
-2009501
1002
}
  0
ARC
  5
212
330
1F9
100
AcDbEntity
  8
X-ARQ-PROYECCIONES
100
AcDbCircle
 10
-0.32000000000001
 20
0.0749999999999939
 30
0.0
 40
0.6400000000000007
100
AcDbArc
 50
0.0000000000000318
 51
90.00000000000005
1001
REVIT
1002
{
1070
     1
1000
8714324
1002
}
1002
{
1070
     5
1000
6947327
1002
}
1002
{
1070
     3
1000
-2009501
1002
}
  0
ENDBLK
  5
214
330
1F9
100
AcDbEntity
  8
0
100
AcDbBlockEnd
  0
BLOCK
  5
221
330
216
100
AcDbEntity
  8
0
100
AcDbBlockBegin
  2
EQU_NEVERA - EQU_NEVERA-7909127-Piso 1 - Arq
 70
     0
 10
0.0
 20
0.0
 30
0.0
  3
EQU_NEVERA - EQU_NEVERA-7909127-Piso 1 - Arq
  1

  0
LINE
  5
217
330
216
100
AcDbEntity
  8
X-TEC-GEN
100
AcDbLine
 10
0.3500000000000009
 20
0.3500000000000018
 30
0.0
 11
-0.3499999999999988
 21
0.3500000000000019
 31
0.0
1001
REVIT
1002
{
1070
     1
1000
8714906
1002
}
1002
{
1070
     5
1000
7909127
1002
}
  0
LINE
  5
218
330
216
100
AcDbEntity
  8
X-TEC-GEN
100
AcDbLine
 10
-0.3499999999999988
 20
0.3500000000000019
 30
0.0
 11
-0.3499999999999989
 21
-0.2900724159076788
 31
0.0
1001
REVIT
1002
{
1070
     1
1000
8714906
1002
}
1002
{
1070
     5
1000
7909127
1002
}
  0
LINE
  5
219
330
216
100
AcDbEntity
  8
X-TEC-GEN
100
AcDbLine
 10
-0.3499999999999989
 20
-0.2900724159076788
 30
0.0
 11
0.3500000000000009
 21
-0.2900724159076788
 31
0.0
1001
REVIT
1002
{
1070
     1
1000
8714906
1002
}
1002
{
1070
     5
1000
7909127
1002
}
  0
LINE
  5
21A
330
216
100
AcDbEntity
  8
X-TEC-GEN
100
AcDbLine
 10
0.3500000000000009
 20
-0.2900724159076788
 30
0.0
 11
0.3500000000000009
 21
0.3500000000000019
 31
0.0
1001
REVIT
1002
{
1070
     1
1000
8714906
1002
}
1002
{
1070
     5
1000
7909127
1002
}
  0
LINE
  5
21B
330
216
100
AcDbEntity
  8
X-TEC-GEN
100
AcDbLine
 10
0.3500000000000009
 20
-0.3500000000000027
 30
0.0
 11
0.3500000000000009
 21
-0.3000724159076833
 31
0.0
1001
REVIT
1002
{
1070
     1
1000
8714906
1002
}
1002
{
1070
     5
1000
7909127
1002
}
  0
LINE
  5
21C
330
216
100
AcDbEntity
  8
X-TEC-GEN
100
AcDbLine
 10
0.3500000000000009
 20
-0.3000724159076833
 30
0.0
 11
-0.3499999999999988
 21
-0.3000724159076833
 31
0.0
1001
REVIT
1002
{
1070
     1
1000
8714906
1002
}
1002
{
1070
     5
1000
7909127
1002
}
  0
LINE
  5
21D
330
216
100
AcDbEntity
  8
X-TEC-GEN
100
AcDbLine
 10
-0.3499999999999989
 20
-0.3000724159076833
 30
0.0
 11
-0.3499999999999988
 21
-0.3500000000000025
 31
0.0
1001
REVIT
1002
{
1070
     1
1000
8714906
1002
}
1002
{
1070
     5
1000
7909127
1002
}
  0
LINE
  5
21E
330
216
100
AcDbEntity
  8
X-TEC-GEN
100
AcDbLine
 10
-0.3499999999999988
 20
-0.3500000000000025
 30
0.0
 11
0.3500000000000009
 21
-0.3500000000000027
 31
0.0
1001
REVIT
1002
{
1070
     1
1000
8714906
1002
}
1002
{
1070
     5
1000
7909127
1002
}
  0
LINE
  5
21F
330
216
100
AcDbEntity
  8
X-ARQ-PROYECCIONES
100
AcDbLine
 10
0.3500000000000009
 20
-0.3500000000000027
 30
0.0
 11
0.3499999999999997
 21
-1.05
 31
0.0
1001
REVIT
1002
{
1070
     1
1000
8714906
1002
}
1002
{
1070
     5
1000
7909127
1002
}
1002
{
1070
     3
1000
-2009520
1002
}
  0
ARC
  5
220
330
216
100
AcDbEntity
  8
X-ARQ-PROYECCIONES
100
AcDbCircle
 10
0.3500000000000009
 20
-0.3500000000000027
 30
0.0
 40
0.6999999999999988
100
AcDbArc
 50
179.9999999999994
 51
269.9999999999992
1001
REVIT
1002
{
1070
     1
1000
8714906
1002
}
1002
{
1070
     5
1000
7909127
1002
}
1002
{
1070
     3
1000
-2009520
1002
}
  0
ENDBLK
  5
222
330
216
100
AcDbEntity
  8
0
100
AcDbBlockEnd
  0
BLOCK
  5
239
330
224
100
AcDbEntity
  8
0
100
AcDbBlockBegin
  2
Canastillas plásticas  31 - 31 x 40 x 60 - LAT HOLE - 3 STACK-8039155-Piso 1 - Arq
 70
     0
 10
0.0
 20
0.0
 30
0.0
  3
Canastillas plásticas  31 - 31 x 40 x 60 - LAT HOLE - 3 STACK-8039155-Piso 1 - Arq
  1

  0
LINE
  5
225
330
224
100
AcDbEntity
  8
X-ARQ-MOBILIARIO_PROJ
100
AcDbLine
 10
0.3000000000000189
 20
0.1799999999999732
 30
0.0
 11
0.3000000000000189
 21
-0.1750000000000303
 31
0.0
1001
REVIT
1002
{
1070
     1
1000
8716580
1002
}
1002
{
1070
     5
1000
8039155
1002
}
  0
LINE
  5
226
330
224
100
AcDbEntity
  8
X-ARQ-MOBILIARIO_PROJ
100
AcDbLine
 10
0.2750000000000188
 20
-0.2000000000000297
 30
0.0
 11
-0.2749999999999813
 21
-0.2000000000000297
 31
0.0
1001
REVIT
1002
{
1070
     1
1000
8716580
1002
}
1002
{
1070
     5
1000
8039155
1002
}
  0
LINE
  5
227
330
224
100
AcDbEntity
  8
X-ARQ-MOBILIARIO_PROJ
100
AcDbLine
 10
-0.2999999999999809
 20
-0.1750000000000304
 30
0.0
 11
-0.2999999999999809
 21
0.1799535809006046
 31
0.0
1001
REVIT
1002
{
1070
     1
1000
8716580
1002
}
1002
{
1070
     5
1000
8039155
1002
}
  0
LINE
  5
228
330
224
100
AcDbEntity
  8
X-ARQ-MOBILIARIO_PROJ
100
AcDbLine
 10
-0.2799535809006129
 20
0.1999999999999726
 30
0.0
 11
0.2800000000000189
 21
0.1999999999999726
 31
0.0
1001
REVIT
1002
{
1070
     1
1000
8716580
1002
}
1002
{
1070
     5
1000
8039155
1002
}
  0
LINE
  5
229
330
224
100
AcDbEntity
  8
X-ARQ-MOBILIARIO_PROJ
100
AcDbLine
 10
0.2825000000000192
 20
-0.1750000000000303
 30
0.0
 11
0.2825000000000192
 21
0.1799999999999732
 31
0.0
1001
REVIT
1002
{
1070
     1
1000
8716580
1002
}
1002
{
1070
     5
1000
8039155
1002
}
  0
ARC
  5
22A
330
224
100
AcDbEntity
  8
X-ARQ-MOBILIARIO_PROJ
100
AcDbCircle
 10
0.2750000000000189
 20
-0.1750000000000303
 30
0.0
 40
0.0075000000000003
100
AcDbArc
 50
269.9999999999992
 51
359.9999999999994
1001
REVIT
1002
{
1070
     1
1000
8716580
1002
}
1002
{
1070
     5
1000
8039155
1002
}
  0
LINE
  5
22B
330
224
100
AcDbEntity
  8
X-ARQ-MOBILIARIO_PROJ
100
AcDbLine
 10
-0.2749999999999813
 20
-0.1825000000000305
 30
0.0
 11
0.2750000000000188
 21
-0.1825000000000305
 31
0.0
1001
REVIT
1002
{
1070
     1
1000
8716580
1002
}
1002
{
1070
     5
1000
8039155
1002
}
  0
ARC
  5
22C
330
224
100
AcDbEntity
  8
X-ARQ-MOBILIARIO_PROJ
100
AcDbCircle
 10
-0.2749999999999813
 20
-0.1750000000000302
 30
0.0
 40
0.0075000000000004
100
AcDbArc
 50
180.0000000000002
 51
269.9999999999994
1001
REVIT
1002
{
1070
     1
1000
8716580
1002
}
1002
{
1070
     5
1000
8039155
1002
}
  0
LINE
  5
22D
330
224
100
AcDbEntity
  8
X-ARQ-MOBILIARIO_PROJ
100
AcDbLine
 10
-0.2824999999999817
 20
0.1799535809006045
 30
0.0
 11
-0.2824999999999817
 21
-0.1750000000000302
 31
0.0
1001
REVIT
1002
{
1070
     1
1000
8716580
1002
}
1002
{
1070
     5
1000
8039155
1002
}
  0
ARC
  5
22E
330
224
100
AcDbEntity
  8
X-ARQ-MOBILIARIO_PROJ
100
AcDbCircle
 10
-0.2799535809006128
 20
0.1799535809006046
 30
0.0
 40
0.0025464190993689
100
AcDbArc
 50
90.0
 51
180.0
1001
REVIT
1002
{
1070
     1
1000
8716580
1002
}
1002
{
1070
     5
1000
8039155
1002
}
  0
LINE
  5
22F
330
224
100
AcDbEntity
  8
X-ARQ-MOBILIARIO_PROJ
100
AcDbLine
 10
0.280000000000019
 20
0.1824999999999734
 30
0.0
 11
-0.2799535809006127
 21
0.1824999999999734
 31
0.0
1001
REVIT
1002
{
1070
     1
1000
8716580
1002
}
1002
{
1070
     5
1000
8039155
1002
}
  0
ARC
  5
230
330
224
100
AcDbEntity
  8
X-ARQ-MOBILIARIO_PROJ
100
AcDbCircle
 10
0.2800000000000189
 20
0.1799999999999732
 30
0.0
 40
0.0025000000000003
100
AcDbArc
 50
359.999999999999
 51
90.00000000000063
1001
REVIT
1002
{
1070
     1
1000
8716580
1002
}
1002
{
1070
     5
1000
8039155
1002
}
  0
ARC
  5
231
330
224
100
AcDbEntity
  8
X-ARQ-MOBILIARIO_PROJ
100
AcDbCircle
 10
0.2800000000000189
 20
0.1799999999999732
 30
0.0
 40
0.0199999999999994
100
AcDbArc
 50
359.9999999999992
 51
89.99999999999955
1001
REVIT
1002
{
1070
     1
1000
8716580
1002
}
1002
{
1070
     5
1000
8039155
1002
}
  0
ARC
  5
232
330
224
100
AcDbEntity
  8
X-ARQ-MOBILIARIO_PROJ
100
AcDbCircle
 10
0.2750000000000189
 20
-0.1750000000000303
 30
0.0
 40
0.0249999999999994
100
AcDbArc
 50
269.9999999999991
 51
359.9999999999993
1001
REVIT
1002
{
1070
     1
1000
8716580
1002
}
1002
{
1070
     5
1000
8039155
1002
}
  0
ARC
  5
233
330
224
100
AcDbEntity
  8
X-ARQ-MOBILIARIO_PROJ
100
AcDbCircle
 10
-0.2749999999999813
 20
-0.1750000000000302
 30
0.0
 40
0.0249999999999996
100
AcDbArc
 50
180.0000000000003
 51
269.9999999999995
1001
REVIT
1002
{
1070
     1
1000
8716580
1002
}
1002
{
1070
     5
1000
8039155
1002
}
  0
ARC
  5
234
330
224
100
AcDbEntity
  8
X-ARQ-MOBILIARIO_PROJ
100
AcDbCircle
 10
-0.2799535809006128
 20
0.1799535809006046
 30
0.0
 40
0.020046419099368
100
AcDbArc
 50
89.99999999999996
 51
180.0
1001
REVIT
1002
{
1070
     1
1000
8716580
1002
}
1002
{
1070
     5
1000
8039155
1002
}
  0
ARC
  5
235
330
224
100
AcDbEntity
  8
X-ARQ-MOBILIARIO_PROJ
100
AcDbCircle
 10
-0.2749999999999813
 20
-0.1750000000000302
 30
0.0
 40
0.0249999999999984
100
AcDbArc
 50
179.9999999999998
 51
269.9999999999989
1001
REVIT
1002
{
1070
     1
1000
8716580
1002
}
1002
{
1070
     5
1000
8039155
1002
}
  0
ARC
  5
236
330
224
100
AcDbEntity
  8
X-ARQ-MOBILIARIO_PROJ
100
AcDbCircle
 10
0.2750000000000189
 20
-0.1750000000000303
 30
0.0
 40
0.0249999999999982
100
AcDbArc
 50
269.9999999999988
 51
359.9999999999988
1001
REVIT
1002
{
1070
     1
1000
8716580
1002
}
1002
{
1070
     5
1000
8039155
1002
}
  0
ARC
  5
237
330
224
100
AcDbEntity
  8
X-ARQ-MOBILIARIO_PROJ
100
AcDbCircle
 10
0.2800000000000189
 20
0.1799999999999732
 30
0.0
 40
0.0199999999999983
100
AcDbArc
 50
359.9999999999988
 51
89.99999999999928
1001
REVIT
1002
{
1070
     1
1000
8716580
1002
}
1002
{
1070
     5
1000
8039155
1002
}
  0
ARC
  5
238
330
224
100
AcDbEntity
  8
X-ARQ-MOBILIARIO_PROJ
100
AcDbCircle
 10
-0.2799535809006128
 20
0.1799535809006046
 30
0.0
 40
0.0200464190993669
100
AcDbArc
 50
89.99999999999948
 51
179.9999999999996
1001
REVIT
1002
{
1070
     1
1000
8716580
1002
}
1002
{
1070
     5
1000
8039155
1002
}
  0
ENDBLK
  5
23A
330
224
100
AcDbEntity
  8
0
100
AcDbBlockEnd
  0
BLOCK
  5
25B
330
23D
100
AcDbEntity
  8
0
100
AcDbBlockBegin
  2
Repiza - Repiza-8718733-Piso 1 - Arq
 70
     0
 10
0.0
 20
0.0
 30
0.0
  3
Repiza - Repiza-8718733-Piso 1 - Arq
  1

  0
LINE
  5
23E
330
23D
100
AcDbEntity
  8
X-ARQ-MOBILIARIO_PROJ
100
AcDbLine
 10
0.4229999999999954
 20
0.1500000000000034
 30
0.0
 11
-0.4229999999999983
 21
0.1500000000000034
 31
0.0
1001
REVIT
1002
{
1070
     1
1000
8718779
1002
}
1002
{
1070
     5
1000
8718733
1002
}
  0
LINE
  5
23F
330
23D
100
AcDbEntity
  8
X-ARQ-MOBILIARIO_PROJ
100
AcDbLine
 10
-0.4499999999999932
 20
0.1229999999999995
 30
0.0
 11
-0.4499999999999932
 21
-0.1229999999999912
 31
0.0
1001
REVIT
1002
{
1070
     1
1000
8718779
1002
}
1002
{
1070
     5
1000
8718733
1002
}
  0
LINE
  5
240
330
23D
100
AcDbEntity
  8
X-ARQ-MOBILIARIO_PROJ
100
AcDbLine
 10
-0.4229999999999993
 20
-0.1500000000000041
 30
0.0
 11
0.422999999999996
 21
-0.1500000000000041
 31
0.0
1001
REVIT
1002
{
1070
     1
1000
8718779
1002
}
1002
{
1070
     5
1000
8718733
1002
}
  0
LINE
  5
241
330
23D
100
AcDbEntity
  8
X-ARQ-MOBILIARIO_PROJ
100
AcDbLine
 10
0.4500000000000068
 20
-0.122999999999993
 30
0.0
 11
0.4500000000000068
 21
0.1229999999999966
 31
0.0
1001
REVIT
1002
{
1070
     1
1000
8718779
1002
}
1002
{
1070
     5
1000
8718733
1002
}
  0
LINE
  5
243
330
23D
100
AcDbEntity
  8
X-ARQ-MOBILIARIO_CUT
100
AcDbLine
 10
0.4230000000000013
 20
0.1499999999999995
 30
0.0
 11
0.4500000000000006
 21
0.1499999999999995
 31
0.0
1001
REVIT
1002
{
1070
     1
1000
8718779
1002
}
1002
{
1070
     5
1000
8718733
1002
}
  0
LINE
  5
244
330
23D
100
AcDbEntity
  8
X-ARQ-MOBILIARIO_CUT
100
AcDbLine
 10
0.4500000000000006
 20
0.1499999999999995
 30
0.0
 11
0.4500000000000006
 21
0.1229999999999991
 31
0.0
1001
REVIT
1002
{
1070
     1
1000
8718779
1002
}
1002
{
1070
     5
1000
8718733
1002
}
  0
LINE
  5
245
330
23D
100
AcDbEntity
  8
X-ARQ-MOBILIARIO_CUT
100
AcDbLine
 10
0.4500000000000006
 20
0.1229999999999991
 30
0.0
 11
0.4530000000000021
 21
0.1229999999999991
 31
0.0
1001
REVIT
1002
{
1070
     1
1000
8718779
1002
}
1002
{
1070
     5
1000
8718733
1002
}
  0
LINE
  5
246
330
23D
100
AcDbEntity
  8
X-ARQ-MOBILIARIO_CUT
100
AcDbLine
 10
0.4530000000000021
 20
0.1229999999999991
 30
0.0
 11
0.4530000000000021
 21
0.1530000000000031
 31
0.0
1001
REVIT
1002
{
1070
     1
1000
8718779
1002
}
1002
{
1070
     5
1000
8718733
1002
}
  0
LINE
  5
247
330
23D
100
AcDbEntity
  8
X-ARQ-MOBILIARIO_CUT
100
AcDbLine
 10
0.4530000000000021
 20
0.1530000000000031
 30
0.0
 11
0.4230000000000013
 21
0.1530000000000031
 31
0.0
1001
REVIT
1002
{
1070
     1
1000
8718779
1002
}
1002
{
1070
     5
1000
8718733
1002
}
  0
LINE
  5
248
330
23D
100
AcDbEntity
  8
X-ARQ-MOBILIARIO_CUT
100
AcDbLine
 10
0.4230000000000013
 20
0.1530000000000031
 30
0.0
 11
0.4230000000000013
 21
0.1499999999999995
 31
0.0
1001
REVIT
1002
{
1070
     1
1000
8718779
1002
}
1002
{
1070
     5
1000
8718733
1002
}
  0
LINE
  5
249
330
23D
100
AcDbEntity
  8
X-ARQ-MOBILIARIO_CUT
100
AcDbLine
 10
-0.4499999999999984
 20
0.1230000000000023
 30
0.0
 11
-0.4499999999999984
 21
0.1499999999999995
 31
0.0
1001
REVIT
1002
{
1070
     1
1000
8718779
1002
}
1002
{
1070
     5
1000
8718733
1002
}
  0
LINE
  5
24A
330
23D
100
AcDbEntity
  8
X-ARQ-MOBILIARIO_CUT
100
AcDbLine
 10
-0.4499999999999984
 20
0.1499999999999995
 30
0.0
 11
-0.4229999999999981
 21
0.1499999999999995
 31
0.0
1001
REVIT
1002
{
1070
     1
1000
8718779
1002
}
1002
{
1070
     5
1000
8718733
1002
}
  0
LINE
  5
24B
330
23D
100
AcDbEntity
  8
X-ARQ-MOBILIARIO_CUT
100
AcDbLine
 10
-0.4229999999999981
 20
0.1499999999999995
 30
0.0
 11
-0.4229999999999981
 21
0.1530000000000031
 31
0.0
1001
REVIT
1002
{
1070
     1
1000
8718779
1002
}
1002
{
1070
     5
1000
8718733
1002
}
  0
LINE
  5
24C
330
23D
100
AcDbEntity
  8
X-ARQ-MOBILIARIO_CUT
100
AcDbLine
 10
-0.4229999999999981
 20
0.1530000000000031
 30
0.0
 11
-0.453000000000001
 21
0.1530000000000031
 31
0.0
1001
REVIT
1002
{
1070
     1
1000
8718779
1002
}
1002
{
1070
     5
1000
8718733
1002
}
  0
LINE
  5
24D
330
23D
100
AcDbEntity
  8
X-ARQ-MOBILIARIO_CUT
100
AcDbLine
 10
-0.453000000000001
 20
0.1530000000000031
 30
0.0
 11
-0.453000000000001
 21
0.1230000000000023
 31
0.0
1001
REVIT
1002
{
1070
     1
1000
8718779
1002
}
1002
{
1070
     5
1000
8718733
1002
}
  0
LINE
  5
24E
330
23D
100
AcDbEntity
  8
X-ARQ-MOBILIARIO_CUT
100
AcDbLine
 10
-0.453000000000001
 20
0.1230000000000023
 30
0.0
 11
-0.4499999999999984
 21
0.1230000000000023
 31
0.0
1001
REVIT
1002
{
1070
     1
1000
8718779
1002
}
1002
{
1070
     5
1000
8718733
1002
}
  0
LINE
  5
24F
330
23D
100
AcDbEntity
  8
X-ARQ-MOBILIARIO_CUT
100
AcDbLine
 10
-0.4229999999999992
 20
-0.1499999999999973
 30
0.0
 11
-0.4499999999999984
 21
-0.1499999999999973
 31
0.0
1001
REVIT
1002
{
1070
     1
1000
8718779
1002
}
1002
{
1070
     5
1000
8718733
1002
}
  0
LINE
  5
250
330
23D
100
AcDbEntity
  8
X-ARQ-MOBILIARIO_CUT
100
AcDbLine
 10
-0.4499999999999984
 20
-0.1499999999999973
 30
0.0
 11
-0.4499999999999984
 21
-0.1229999999999969
 31
0.0
1001
REVIT
1002
{
1070
     1
1000
8718779
1002
}
1002
{
1070
     5
1000
8718733
1002
}
  0
LINE
  5
251
330
23D
100
AcDbEntity
  8
X-ARQ-MOBILIARIO_CUT
100
AcDbLine
 10
-0.4499999999999984
 20
-0.1229999999999969
 30
0.0
 11
-0.453000000000001
 21
-0.1229999999999969
 31
0.0
1001
REVIT
1002
{
1070
     1
1000
8718779
1002
}
1002
{
1070
     5
1000
8718733
1002
}
  0
LINE
  5
252
330
23D
100
AcDbEntity
  8
X-ARQ-MOBILIARIO_CUT
100
AcDbLine
 10
-0.453000000000001
 20
-0.1229999999999969
 30
0.0
 11
-0.453000000000001
 21
-0.1530000000000031
 31
0.0
1001
REVIT
1002
{
1070
     1
1000
8718779
1002
}
1002
{
1070
     5
1000
8718733
1002
}
  0
LINE
  5
253
330
23D
100
AcDbEntity
  8
X-ARQ-MOBILIARIO_CUT
100
AcDbLine
 10
-0.453000000000001
 20
-0.1530000000000031
 30
0.0
 11
-0.4229999999999992
 21
-0.1530000000000031
 31
0.0
1001
REVIT
1002
{
1070
     1
1000
8718779
1002
}
1002
{
1070
     5
1000
8718733
1002
}
  0
LINE
  5
254
330
23D
100
AcDbEntity
  8
X-ARQ-MOBILIARIO_CUT
100
AcDbLine
 10
-0.4229999999999992
 20
-0.1530000000000031
 30
0.0
 11
-0.4229999999999992
 21
-0.1499999999999973
 31
0.0
1001
REVIT
1002
{
1070
     1
1000
8718779
1002
}
1002
{
1070
     5
1000
8718733
1002
}
  0
LINE
  5
255
330
23D
100
AcDbEntity
  8
X-ARQ-MOBILIARIO_CUT
100
AcDbLine
 10
0.4500000000000006
 20
-0.1229999999999991
 30
0.0
 11
0.4500000000000006
 21
-0.1499999999999973
 31
0.0
1001
REVIT
1002
{
1070
     1
1000
8718779
1002
}
1002
{
1070
     5
1000
8718733
1002
}
  0
LINE
  5
256
330
23D
100
AcDbEntity
  8
X-ARQ-MOBILIARIO_CUT
100
AcDbLine
 10
0.4500000000000006
 20
-0.1499999999999973
 30
0.0
 11
0.4230000000000013
 21
-0.1499999999999973
 31
0.0
1001
REVIT
1002
{
1070
     1
1000
8718779
1002
}
1002
{
1070
     5
1000
8718733
1002
}
  0
LINE
  5
257
330
23D
100
AcDbEntity
  8
X-ARQ-MOBILIARIO_CUT
100
AcDbLine
 10
0.4230000000000013
 20
-0.1499999999999973
 30
0.0
 11
0.4230000000000013
 21
-0.1530000000000031
 31
0.0
1001
REVIT
1002
{
1070
     1
1000
8718779
1002
}
1002
{
1070
     5
1000
8718733
1002
}
  0
LINE
  5
258
330
23D
100
AcDbEntity
  8
X-ARQ-MOBILIARIO_CUT
100
AcDbLine
 10
0.4230000000000013
 20
-0.1530000000000031
 30
0.0
 11
0.4530000000000021
 21
-0.1530000000000031
 31
0.0
1001
REVIT
1002
{
1070
     1
1000
8718779
1002
}
1002
{
1070
     5
1000
8718733
1002
}
  0
LINE
  5
259
330
23D
100
AcDbEntity
  8
X-ARQ-MOBILIARIO_CUT
100
AcDbLine
 10
0.4530000000000021
 20
-0.1530000000000031
 30
0.0
 11
0.4530000000000021
 21
-0.1229999999999991
 31
0.0
1001
REVIT
1002
{
1070
     1
1000
8718779
1002
}
1002
{
1070
     5
1000
8718733
1002
}
  0
LINE
  5
25A
330
23D
100
AcDbEntity
  8
X-ARQ-MOBILIARIO_CUT
100
AcDbLine
 10
0.4530000000000021
 20
-0.1229999999999991
 30
0.0
 11
0.4500000000000006
 21
-0.1229999999999991
 31
0.0
1001
REVIT
1002
{
1070
     1
1000
8718779
1002
}
1002
{
1070
     5
1000
8718733
1002
}
  0
ENDBLK
  5
25C
330
23D
100
AcDbEntity
  8
0
100
AcDbBlockEnd
  0
BLOCK
  5
28C
330
28A
100
AcDbEntity
  8
0
100
AcDbBlockBegin
  2
_Oblique
 70
     0
 10
0.0
 20
0.0
 30
0.0
  3
_Oblique
  1

  0
LINE
  5
28B
330
28A
100
AcDbEntity
  8
0
  6
ByBlock
 62
     0
370
    -2
100
AcDbLine
 10
-0.5
 20
-0.5
 30
0.0
 11
0.5
 21
0.5
 31
0.0
  0
ENDBLK
  5
28D
330
28A
100
AcDbEntity
  8
0
100
AcDbBlockEnd
  0
BLOCK
  5
287
330
291
100
AcDbEntity
  8
0
100
AcDbBlockBegin
  2
DIMBLOCK1-Piso 1 - Arq
 70
     0
 10
0.0
 20
0.0
 30
0.0
  3
DIMBLOCK1-Piso 1 - Arq
  1

  0
LINE
  5
27C
330
291
100
AcDbEntity
  8
X-ESP-REF-SIMBOLOS-100
100
AcDbLine
 10
5.393319226700622
 20
4.884862606938721
 30
0.0
 11
5.393319226700622
 21
7.984862606938727
 31
0.0
1001
REVIT
1002
{
1070
     1
1000
8726626
1002
}
1002
{
1070
     5
1000
4016704
1002
}
1002
{
1070
     2
1000
-2000260
1002
}
  0
LINE
  5
27D
330
291
100
AcDbEntity
  8
X-ESP-REF-SIMBOLOS-100
370
    30
100
AcDbLine
 10
5.393319226700622
 20
7.984862606938727
 30
0.0
 11
5.430819226700622
 21
7.947362606938726
 31
0.0
1001
REVIT
1002
{
1070
     1
1000
8726626
1002
}
1002
{
1070
     5
1000
4016704
1002
}
1002
{
1070
     2
1000
-2000260
1002
}
  0
LINE
  5
27E
330
291
100
AcDbEntity
  8
X-ESP-REF-SIMBOLOS-100
370
    30
100
AcDbLine
 10
5.393319226700622
 20
7.984862606938727
 30
0.0
 11
5.355819226700622
 21
8.022362606938727
 31
0.0
1001
REVIT
1002
{
1070
     1
1000
8726626
1002
}
1002
{
1070
     5
1000
4016704
1002
}
1002
{
1070
     2
1000
-2000260
1002
}
  0
LINE
  5
27F
330
291
100
AcDbEntity
  8
X-ESP-REF-SIMBOLOS-100
100
AcDbLine
 10
5.393319226700622
 20
7.984862606938727
 30
0.0
 11
5.293319226700622
 21
7.984862606938727
 31
0.0
1001
REVIT
1002
{
1070
     1
1000
8726626
1002
}
1002
{
1070
     5
1000
4016704
1002
}
1002
{
1070
     2
1000
-2000260
1002
}
  0
LINE
  5
280
330
291
100
AcDbEntity
  8
X-ESP-REF-SIMBOLOS-100
100
AcDbLine
 10
5.393319226700622
 20
7.984862606938727
 30
0.0
 11
5.493319226700622
 21
7.984862606938727
 31
0.0
1001
REVIT
1002
{
1070
     1
1000
8726626
1002
}
1002
{
1070
     5
1000
4016704
1002
}
1002
{
1070
     2
1000
-2000260
1002
}
  0
LINE
  5
281
330
291
100
AcDbEntity
  8
X-ESP-REF-SIMBOLOS-100
370
    30
100
AcDbLine
 10
5.393319226700622
 20
4.884862606938721
 30
0.0
 11
5.430819226700622
 21
4.847362606938721
 31
0.0
1001
REVIT
1002
{
1070
     1
1000
8726626
1002
}
1002
{
1070
     5
1000
4016704
1002
}
1002
{
1070
     2
1000
-2000260
1002
}
  0
LINE
  5
282
330
291
100
AcDbEntity
  8
X-ESP-REF-SIMBOLOS-100
370
    30
100
AcDbLine
 10
5.393319226700622
 20
4.884862606938721
 30
0.0
 11
5.355819226700622
 21
4.922362606938722
 31
0.0
1001
REVIT
1002
{
1070
     1
1000
8726626
1002
}
1002
{
1070
     5
1000
4016704
1002
}
1002
{
1070
     2
1000
-2000260
1002
}
  0
LINE
  5
283
330
291
100
AcDbEntity
  8
X-ESP-REF-SIMBOLOS-100
100
AcDbLine
 10
5.393319226700622
 20
4.884862606938721
 30
0.0
 11
5.293319226700622
 21
4.884862606938721
 31
0.0
1001
REVIT
1002
{
1070
     1
1000
8726626
1002
}
1002
{
1070
     5
1000
4016704
1002
}
1002
{
1070
     2
1000
-2000260
1002
}
  0
LINE
  5
284
330
291
100
AcDbEntity
  8
X-ESP-REF-SIMBOLOS-100
100
AcDbLine
 10
5.393319226700622
 20
4.884862606938721
 30
0.0
 11
5.493319226700622
 21
4.884862606938721
 31
0.0
1001
REVIT
1002
{
1070
     1
1000
8726626
1002
}
1002
{
1070
     5
1000
4016704
1002
}
1002
{
1070
     2
1000
-2000260
1002
}
  0
MTEXT
  5
286
330
291
100
AcDbEntity
  8
X-ESP-REF-SIMBOLOS-100
 62
     0
100
AcDbMText
 10
5.178584776087125
 20
6.290064253637138
 30
0.0
 40
0.15
 41
0.3475160479238049
 46
0.0
 71
     1
 72
     1
  1
3.1
  7
Arial_1
 11
0.0
 21
1.0
 31
0.0
 73
     2
 44
0.9417779076525878
 90
        3
 63
     9
421
 13158600
 45
1.25
441
        0
1001
REVIT
1002
{
1070
     1
1000
8726626
1002
}
1002
{
1070
     5
1000
4016704
1002
}
1002
{
1070
     2
1000
-2000260
1002
}
  0
ENDBLK
  5
288
330
291
100
AcDbEntity
  8
0
100
AcDbBlockEnd
  0
BLOCK
  5
2A8
330
2AB
100
AcDbEntity
  8
0
100
AcDbBlockBegin
  2
DIMBLOCK2-Piso 1 - Arq
 70
     0
 10
0.0
 20
0.0
 30
0.0
  3
DIMBLOCK2-Piso 1 - Arq
  1

  0
LINE
  5
29E
330
2AB
100
AcDbEntity
  8
X-ESP-REF-SIMBOLOS-100
100
AcDbLine
 10
5.998592231577759
 20
8.526886661560496
 30
0.0
 11
9.198592231577759
 21
8.526886661560496
 31
0.0
1001
REVIT
1002
{
1070
     1
1000
8726633
1002
}
1002
{
1070
     5
1000
4016704
1002
}
1002
{
1070
     2
1000
-2000260
1002
}
  0
LINE
  5
29F
330
2AB
100
AcDbEntity
  8
X-ESP-REF-SIMBOLOS-100
370
    30
100
AcDbLine
 10
9.198592231577759
 20
8.526886661560496
 30
0.0
 11
9.161092231577759
 21
8.489386661560494
 31
0.0
1001
REVIT
1002
{
1070
     1
1000
8726633
1002
}
1002
{
1070
     5
1000
4016704
1002
}
1002
{
1070
     2
1000
-2000260
1002
}
  0
LINE
  5
2A0
330
2AB
100
AcDbEntity
  8
X-ESP-REF-SIMBOLOS-100
370
    30
100
AcDbLine
 10
9.198592231577759
 20
8.526886661560496
 30
0.0
 11
9.23609223157776
 21
8.564386661560495
 31
0.0
1001
REVIT
1002
{
1070
     1
1000
8726633
1002
}
1002
{
1070
     5
1000
4016704
1002
}
1002
{
1070
     2
1000
-2000260
1002
}
  0
LINE
  5
2A1
330
2AB
100
AcDbEntity
  8
X-ESP-REF-SIMBOLOS-100
100
AcDbLine
 10
9.198592231577759
 20
8.526886661560496
 30
0.0
 11
9.198592231577759
 21
8.626886661560495
 31
0.0
1001
REVIT
1002
{
1070
     1
1000
8726633
1002
}
1002
{
1070
     5
1000
4016704
1002
}
1002
{
1070
     2
1000
-2000260
1002
}
  0
LINE
  5
2A2
330
2AB
100
AcDbEntity
  8
X-ESP-REF-SIMBOLOS-100
100
AcDbLine
 10
9.198592231577759
 20
8.526886661560496
 30
0.0
 11
9.198592231577759
 21
8.426886661560494
 31
0.0
1001
REVIT
1002
{
1070
     1
1000
8726633
1002
}
1002
{
1070
     5
1000
4016704
1002
}
1002
{
1070
     2
1000
-2000260
1002
}
  0
LINE
  5
2A3
330
2AB
100
AcDbEntity
  8
X-ESP-REF-SIMBOLOS-100
370
    30
100
AcDbLine
 10
5.998592231577759
 20
8.526886661560496
 30
0.0
 11
5.961092231577759
 21
8.489386661560494
 31
0.0
1001
REVIT
1002
{
1070
     1
1000
8726633
1002
}
1002
{
1070
     5
1000
4016704
1002
}
1002
{
1070
     2
1000
-2000260
1002
}
  0
LINE
  5
2A4
330
2AB
100
AcDbEntity
  8
X-ESP-REF-SIMBOLOS-100
370
    30
100
AcDbLine
 10
5.998592231577759
 20
8.526886661560496
 30
0.0
 11
6.036092231577759
 21
8.564386661560495
 31
0.0
1001
REVIT
1002
{
1070
     1
1000
8726633
1002
}
1002
{
1070
     5
1000
4016704
1002
}
1002
{
1070
     2
1000
-2000260
1002
}
  0
LINE
  5
2A5
330
2AB
100
AcDbEntity
  8
X-ESP-REF-SIMBOLOS-100
100
AcDbLine
 10
5.998592231577759
 20
8.526886661560496
 30
0.0
 11
5.998592231577759
 21
8.626886661560495
 31
0.0
1001
REVIT
1002
{
1070
     1
1000
8726633
1002
}
1002
{
1070
     5
1000
4016704
1002
}
1002
{
1070
     2
1000
-2000260
1002
}
  0
LINE
  5
2A6
330
2AB
100
AcDbEntity
  8
X-ESP-REF-SIMBOLOS-100
100
AcDbLine
 10
5.998592231577759
 20
8.526886661560496
 30
0.0
 11
5.998592231577759
 21
8.426886661560494
 31
0.0
1001
REVIT
1002
{
1070
     1
1000
8726633
1002
}
1002
{
1070
     5
1000
4016704
1002
}
1002
{
1070
     2
1000
-2000260
1002
}
  0
MTEXT
  5
2A7
330
2AB
100
AcDbEntity
  8
X-ESP-REF-SIMBOLOS-100
 62
     0
100
AcDbMText
 10
7.453793878276174
 20
8.741621112173993
 30
0.0
 40
0.15
 41
0.3475160479238049
 46
0.0
 71
     1
 72
     1
  1
3.2
  7
Arial_1
 73
     2
 44
0.9417779076525878
 90
        3
 63
     9
421
 13158600
 45
1.25
441
        0
1001
REVIT
1002
{
1070
     1
1000
8726633
1002
}
1002
{
1070
     5
1000
4016704
1002
}
1002
{
1070
     2
1000
-2000260
1002
}
  0
ENDBLK
  5
2A9
330
2AB
100
AcDbEntity
  8
0
100
AcDbBlockEnd
  0
BLOCK
  5
2C2
330
2C5
100
AcDbEntity
  8
0
100
AcDbBlockBegin
  2
DIMBLOCK3-Piso 1 - Arq
 70
     0
 10
0.0
 20
0.0
 30
0.0
  3
DIMBLOCK3-Piso 1 - Arq
  1

  0
LINE
  5
2B8
330
2C5
100
AcDbEntity
  8
X-ESP-REF-SIMBOLOS-100
100
AcDbLine
 10
8.243551599213722
 20
5.882889579295754
 30
0.0
 11
8.243551599213711
 21
6.978889579295755
 31
0.0
1001
REVIT
1002
{
1070
     1
1000
8726640
1002
}
1002
{
1070
     5
1000
4016704
1002
}
1002
{
1070
     2
1000
-2000260
1002
}
  0
LINE
  5
2B9
330
2C5
100
AcDbEntity
  8
X-ESP-REF-SIMBOLOS-100
370
    30
100
AcDbLine
 10
8.243551599213711
 20
6.978889579295755
 30
0.0
 11
8.281051599213713
 21
6.941389579295755
 31
0.0
1001
REVIT
1002
{
1070
     1
1000
8726640
1002
}
1002
{
1070
     5
1000
4016704
1002
}
1002
{
1070
     2
1000
-2000260
1002
}
  0
LINE
  5
2BA
330
2C5
100
AcDbEntity
  8
X-ESP-REF-SIMBOLOS-100
370
    30
100
AcDbLine
 10
8.243551599213711
 20
6.978889579295755
 30
0.0
 11
8.206051599213711
 21
7.016389579295755
 31
0.0
1001
REVIT
1002
{
1070
     1
1000
8726640
1002
}
1002
{
1070
     5
1000
4016704
1002
}
1002
{
1070
     2
1000
-2000260
1002
}
  0
LINE
  5
2BB
330
2C5
100
AcDbEntity
  8
X-ESP-REF-SIMBOLOS-100
100
AcDbLine
 10
8.243551599213711
 20
6.978889579295754
 30
0.0
 11
8.343551599213711
 21
6.978889579295755
 31
0.0
1001
REVIT
1002
{
1070
     1
1000
8726640
1002
}
1002
{
1070
     5
1000
4016704
1002
}
1002
{
1070
     2
1000
-2000260
1002
}
  0
LINE
  5
2BC
330
2C5
100
AcDbEntity
  8
X-ESP-REF-SIMBOLOS-100
100
AcDbLine
 10
8.243551599213711
 20
6.978889579295754
 30
0.0
 11
8.143551599213711
 21
6.978889579295753
 31
0.0
1001
REVIT
1002
{
1070
     1
1000
8726640
1002
}
1002
{
1070
     5
1000
4016704
1002
}
1002
{
1070
     2
1000
-2000260
1002
}
  0
LINE
  5
2BD
330
2C5
100
AcDbEntity
  8
X-ESP-REF-SIMBOLOS-100
370
    30
100
AcDbLine
 10
8.243551599213722
 20
5.882889579295754
 30
0.0
 11
8.281051599213721
 21
5.845389579295754
 31
0.0
1001
REVIT
1002
{
1070
     1
1000
8726640
1002
}
1002
{
1070
     5
1000
4016704
1002
}
1002
{
1070
     2
1000
-2000260
1002
}
  0
LINE
  5
2BE
330
2C5
100
AcDbEntity
  8
X-ESP-REF-SIMBOLOS-100
370
    30
100
AcDbLine
 10
8.243551599213722
 20
5.882889579295754
 30
0.0
 11
8.206051599213722
 21
5.920389579295754
 31
0.0
1001
REVIT
1002
{
1070
     1
1000
8726640
1002
}
1002
{
1070
     5
1000
4016704
1002
}
1002
{
1070
     2
1000
-2000260
1002
}
  0
LINE
  5
2BF
330
2C5
100
AcDbEntity
  8
X-ESP-REF-SIMBOLOS-100
100
AcDbLine
 10
8.243551599213722
 20
5.882889579295753
 30
0.0
 11
8.343551599213721
 21
5.882889579295754
 31
0.0
1001
REVIT
1002
{
1070
     1
1000
8726640
1002
}
1002
{
1070
     5
1000
4016704
1002
}
1002
{
1070
     2
1000
-2000260
1002
}
  0
LINE
  5
2C0
330
2C5
100
AcDbEntity
  8
X-ESP-REF-SIMBOLOS-100
100
AcDbLine
 10
8.243551599213722
 20
5.882889579295753
 30
0.0
 11
8.143551599213722
 21
5.882889579295752
 31
0.0
1001
REVIT
1002
{
1070
     1
1000
8726640
1002
}
1002
{
1070
     5
1000
4016704
1002
}
1002
{
1070
     2
1000
-2000260
1002
}
  0
MTEXT
  5
2C1
330
2C5
100
AcDbEntity
  8
X-ESP-REF-SIMBOLOS-100
 62
     0
100
AcDbMText
 10
8.02881714860022
 20
6.286091225994168
 30
0.0
 40
0.15
 41
0.3475160479238049
 46
0.0
 71
     1
 72
     1
  1
1.1
  7
Arial_1
 11
0.0
 21
1.0
 31
0.0
 73
     2
 44
0.9417779076525878
 90
        3
 63
     9
421
 13158600
 45
1.25
441
        0
1001
REVIT
1002
{
1070
     1
1000
8726640
1002
}
1002
{
1070
     5
1000
4016704
1002
}
1002
{
1070
     2
1000
-2000260
1002
}
  0
ENDBLK
  5
2C3
330
2C5
100
AcDbEntity
  8
0
100
AcDbBlockEnd
  0
BLOCK
  5
2DC
330
2DF
100
AcDbEntity
  8
0
100
AcDbBlockBegin
  2
DIMBLOCK4-Piso 1 - Arq
 70
     0
 10
0.0
 20
0.0
 30
0.0
  3
DIMBLOCK4-Piso 1 - Arq
  1

  0
LINE
  5
2D2
330
2DF
100
AcDbEntity
  8
X-ESP-REF-SIMBOLOS-100
100
AcDbLine
 10
7.19648269306007
 20
7.065229034630702
 30
0.0
 11
7.992482693060073
 21
7.065229034630702
 31
0.0
1001
REVIT
1002
{
1070
     1
1000
8726647
1002
}
1002
{
1070
     5
1000
4016704
1002
}
1002
{
1070
     2
1000
-2000260
1002
}
  0
LINE
  5
2D3
330
2DF
100
AcDbEntity
  8
X-ESP-REF-SIMBOLOS-100
370
    30
100
AcDbLine
 10
7.992482693060073
 20
7.065229034630702
 30
0.0
 11
7.954982693060072
 21
7.027729034630701
 31
0.0
1001
REVIT
1002
{
1070
     1
1000
8726647
1002
}
1002
{
1070
     5
1000
4016704
1002
}
1002
{
1070
     2
1000
-2000260
1002
}
  0
LINE
  5
2D4
330
2DF
100
AcDbEntity
  8
X-ESP-REF-SIMBOLOS-100
370
    30
100
AcDbLine
 10
7.992482693060073
 20
7.065229034630702
 30
0.0
 11
8.029982693060073
 21
7.102729034630702
 31
0.0
1001
REVIT
1002
{
1070
     1
1000
8726647
1002
}
1002
{
1070
     5
1000
4016704
1002
}
1002
{
1070
     2
1000
-2000260
1002
}
  0
LINE
  5
2D5
330
2DF
100
AcDbEntity
  8
X-ESP-REF-SIMBOLOS-100
100
AcDbLine
 10
7.992482693060073
 20
7.065229034630702
 30
0.0
 11
7.992482693060073
 21
7.165229034630701
 31
0.0
1001
REVIT
1002
{
1070
     1
1000
8726647
1002
}
1002
{
1070
     5
1000
4016704
1002
}
1002
{
1070
     2
1000
-2000260
1002
}
  0
LINE
  5
2D6
330
2DF
100
AcDbEntity
  8
X-ESP-REF-SIMBOLOS-100
100
AcDbLine
 10
7.992482693060073
 20
7.065229034630702
 30
0.0
 11
7.992482693060073
 21
6.965229034630702
 31
0.0
1001
REVIT
1002
{
1070
     1
1000
8726647
1002
}
1002
{
1070
     5
1000
4016704
1002
}
1002
{
1070
     2
1000
-2000260
1002
}
  0
LINE
  5
2D7
330
2DF
100
AcDbEntity
  8
X-ESP-REF-SIMBOLOS-100
370
    30
100
AcDbLine
 10
7.19648269306007
 20
7.065229034630702
 30
0.0
 11
7.158982693060069
 21
7.027729034630701
 31
0.0
1001
REVIT
1002
{
1070
     1
1000
8726647
1002
}
1002
{
1070
     5
1000
4016704
1002
}
1002
{
1070
     2
1000
-2000260
1002
}
  0
LINE
  5
2D8
330
2DF
100
AcDbEntity
  8
X-ESP-REF-SIMBOLOS-100
370
    30
100
AcDbLine
 10
7.19648269306007
 20
7.065229034630702
 30
0.0
 11
7.233982693060069
 21
7.102729034630702
 31
0.0
1001
REVIT
1002
{
1070
     1
1000
8726647
1002
}
1002
{
1070
     5
1000
4016704
1002
}
1002
{
1070
     2
1000
-2000260
1002
}
  0
LINE
  5
2D9
330
2DF
100
AcDbEntity
  8
X-ESP-REF-SIMBOLOS-100
100
AcDbLine
 10
7.19648269306007
 20
7.065229034630702
 30
0.0
 11
7.19648269306007
 21
7.165229034630701
 31
0.0
1001
REVIT
1002
{
1070
     1
1000
8726647
1002
}
1002
{
1070
     5
1000
4016704
1002
}
1002
{
1070
     2
1000
-2000260
1002
}
  0
LINE
  5
2DA
330
2DF
100
AcDbEntity
  8
X-ESP-REF-SIMBOLOS-100
100
AcDbLine
 10
7.19648269306007
 20
7.065229034630702
 30
0.0
 11
7.19648269306007
 21
6.965229034630702
 31
0.0
1001
REVIT
1002
{
1070
     1
1000
8726647
1002
}
1002
{
1070
     5
1000
4016704
1002
}
1002
{
1070
     2
1000
-2000260
1002
}
  0
MTEXT
  5
2DB
330
2DF
100
AcDbEntity
  8
X-ESP-REF-SIMBOLOS-100
 62
     0
100
AcDbMText
 10
7.449684339758486
 20
7.279963485244199
 30
0.0
 40
0.15
 41
0.3475160479238049
 46
0.0
 71
     1
 72
     1
  1
0.8
  7
Arial_1
 73
     2
 44
0.9417779076525878
 90
        3
 63
     9
421
 13158600
 45
1.25
441
        0
1001
REVIT
1002
{
1070
     1
1000
8726647
1002
}
1002
{
1070
     5
1000
4016704
1002
}
1002
{
1070
     2
1000
-2000260
1002
}
  0
ENDBLK
  5
2DD
330
2DF
100
AcDbEntity
  8
0
100
AcDbBlockEnd
  0
ENDSEC
  0
SECTION
  2
ENTITIES
  0
HATCH
  5
92
330
70
100
AcDbEntity
  8
X-ARQ-MURO_PROJ
100
AcDbHatch
 10
0.0
 20
0.0
 30
0.0
210
0.0
220
0.0
230
1.0
  2
SOLID
 70
     1
 71
     0
 91
        2
 92
        1
 93
        4
 72
     1
 10
5.863592231577766
 20
8.119862606938735
 11
7.040745298888718
 21
8.119862606938742
 72
     1
 10
7.040745298888718
 20
8.119862606938742
 11
7.040745298888718
 21
8.134862606938744
 72
     1
 10
7.040745298888718
 20
8.134862606938744
 11
5.863592231577766
 21
8.134862606938735
 72
     1
 10
5.863592231577766
 20
8.134862606938735
 11
5.863592231577766
 21
8.119862606938735
 97
        0
 92
        1
 93
        4
 72
     1
 10
8.040745298888719
 20
8.119862606938751
 11
9.34859223157777
 21
8.11986260693876
 72
     1
 10
9.34859223157777
 20
8.11986260693876
 11
9.34859223157777
 21
8.134862606938758
 72
     1
 10
9.34859223157777
 20
8.134862606938758
 11
8.040745298888719
 21
8.134862606938749
 72
     1
 10
8.040745298888719
 20
8.134862606938749
 11
8.040745298888719
 21
8.119862606938751
 97
        0
 75
     0
 76
     1
 98
        1
 10
0.0
 20
0.0
450
        0
451
        0
460
0.0
461
0.0
452
        0
462
0.0
453
        0
470

1001
REVIT
1002
{
1070
     1
1000
8710583
1002
}
1002
{
1070
     5
1000
6929785
1002
}
1002
{
1070
     2
1000
-2000011
1002
}
  0
HATCH
  5
A1
330
70
100
AcDbEntity
  8
X-ARQ-MURO_PROJ
100
AcDbHatch
 10
0.0
 20
0.0
 30
0.0
210
0.0
220
0.0
230
1.0
  2
SOLID
 70
     1
 71
     0
 91
        2
 92
        1
 93
        7
 72
     1
 10
5.983592231577766
 20
7.999862606938735
 11
7.025745298888719
 21
7.999862606938742
 72
     1
 10
7.025745298888719
 20
7.999862606938742
 11
7.025745298888718
 21
8.059862606938743
 72
     1
 10
7.025745298888718
 20
8.059862606938743
 11
7.040745298888718
 21
8.059862606938743
 72
     1
 10
7.040745298888718
 20
8.059862606938743
 11
7.040745298888718
 21
8.119862606938742
 72
     1
 10
7.040745298888718
 20
8.119862606938742
 11
5.983592231577766
 21
8.119862606938735
 72
     1
 10
5.983592231577766
 20
8.119862606938735
 11
5.983592231577766
 21
8.059862606938743
 72
     1
 10
5.983592231577766
 20
8.059862606938743
 11
5.983592231577766
 21
7.999862606938735
 97
        0
 92
        1
 93
        7
 72
     1
 10
8.055745298888719
 20
7.99986260693875
 11
9.333592231577769
 21
7.999862606938756
 72
     1
 10
9.333592231577769
 20
7.999862606938756
 11
9.333592231577769
 21
8.11986260693876
 72
     1
 10
9.333592231577769
 20
8.11986260693876
 11
8.040745298888719
 21
8.119862606938751
 72
     1
 10
8.040745298888719
 20
8.119862606938751
 11
8.040745298888719
 21
8.05986260693875
 72
     1
 10
8.040745298888719
 20
8.05986260693875
 11
8.055745298888719
 21
8.05986260693875
 72
     1
 10
8.055745298888719
 20
8.05986260693875
 11
8.055745298888719
 21
8.016223548313339
 72
     1
 10
8.055745298888719
 20
8.016223548313339
 11
8.055745298888719
 21
7.99986260693875
 97
        0
 75
     0
 76
     1
 98
        1
 10
0.0
 20
0.0
450
        0
451
        0
460
0.0
461
0.0
452
        0
462
0.0
453
        0
470

1001
REVIT
1002
{
1070
     1
1000
8710583
1002
}
1002
{
1070
     5
1000
6929785
1002
}
1002
{
1070
     2
1000
-2000011
1002
}
  0
HATCH
  5
AF
330
70
100
AcDbEntity
  8
X-ARQ-MURO_PROJ
100
AcDbHatch
 10
0.0
 20
0.0
 30
0.0
210
0.0
220
0.0
230
1.0
  2
SOLID
 70
     1
 71
     0
 91
        2
 92
        1
 93
        6
 72
     1
 10
5.998592231577766
 20
7.984862606938736
 11
7.040745298888719
 21
7.984862606938743
 72
     1
 10
7.040745298888719
 20
7.984862606938743
 11
7.040745298888718
 21
8.059862606938743
 72
     1
 10
7.040745298888718
 20
8.059862606938743
 11
7.025745298888718
 21
8.059862606938743
 72
     1
 10
7.025745298888718
 20
8.059862606938743
 11
7.025745298888719
 21
7.999862606938742
 72
     1
 10
7.025745298888719
 20
7.999862606938742
 11
5.998592231577766
 21
7.999862606938735
 72
     1
 10
5.998592231577766
 20
7.999862606938735
 11
5.998592231577766
 21
7.984862606938736
 97
        0
 92
        1
 93
        7
 72
     1
 10
8.040745298888721
 20
7.984862606938749
 11
9.213592231577772
 21
7.984862606938756
 72
     1
 10
9.213592231577772
 20
7.984862606938756
 11
9.213592231577768
 21
7.999862606938756
 72
     1
 10
9.213592231577768
 20
7.999862606938756
 11
8.055745298888719
 21
7.99986260693875
 72
     1
 10
8.055745298888719
 20
7.99986260693875
 11
8.055745298888719
 21
8.05986260693875
 72
     1
 10
8.055745298888719
 20
8.05986260693875
 11
8.040745298888719
 21
8.05986260693875
 72
     1
 10
8.040745298888719
 20
8.05986260693875
 11
8.040745298888721
 21
7.999862606938756
 72
     1
 10
8.040745298888721
 20
7.999862606938756
 11
8.040745298888721
 21
7.984862606938749
 97
        0
 75
     0
 76
     1
 98
        1
 10
0.0
 20
0.0
450
        0
451
        0
460
0.0
461
0.0
452
        0
462
0.0
453
        0
470

1001
REVIT
1002
{
1070
     1
1000
8710583
1002
}
1002
{
1070
     5
1000
6929785
1002
}
1002
{
1070
     2
1000
-2000011
1002
}
  0
HATCH
  5
BA
330
70
100
AcDbEntity
  8
X-ARQ-MURO_PROJ
100
AcDbHatch
 10
0.0
 20
0.0
 30
0.0
210
0.0
220
0.0
230
1.0
  2
SOLID
 70
     1
 71
     0
 91
        2
 92
        1
 93
        5
 72
     1
 10
8.686937516554088
 20
4.869862606938734
 11
9.348592231577773
 21
4.869862606938735
 72
     1
 10
9.348592231577773
 20
4.869862606938735
 11
9.348592231577773
 21
4.884862606938735
 72
     1
 10
9.348592231577773
 20
4.884862606938735
 11
8.54859223157778
 21
4.884862606938733
 72
     1
 10
8.54859223157778
 20
4.884862606938733
 11
8.54859223157778
 21
4.869862606938734
 72
     1
 10
8.54859223157778
 20
4.869862606938734
 11
8.686937516554088
 21
4.869862606938734
 97
        0
 92
        1
 93
        5
 72
     1
 10
7.548592231577779
 20
4.869862606938734
 11
7.548592231577779
 21
4.884862606938733
 72
     1
 10
7.548592231577779
 20
4.884862606938733
 11
6.698592231577774
 21
4.884862606938733
 72
     1
 10
6.698592231577774
 20
4.884862606938733
 11
6.698592231577774
 21
4.869862606938734
 72
     1
 10
6.698592231577774
 20
4.869862606938734
 11
7.502734920354587
 21
4.869862606938734
 72
     1
 10
7.502734920354587
 20
4.869862606938734
 11
7.548592231577779
 21
4.869862606938734
 97
        0
 75
     0
 76
     1
 98
        1
 10
0.0
 20
0.0
450
        0
451
        0
460
0.0
461
0.0
452
        0
462
0.0
453
        0
470

1001
REVIT
1002
{
1070
     1
1000
8710587
1002
}
1002
{
1070
     5
1000
6929785
1002
}
1002
{
1070
     2
1000
-2000011
1002
}
  0
HATCH
  5
CB
330
70
100
AcDbEntity
  8
X-ARQ-MURO_PROJ
100
AcDbHatch
 10
0.0
 20
0.0
 30
0.0
210
0.0
220
0.0
230
1.0
  2
SOLID
 70
     1
 71
     0
 91
        3
 92
        1
 93
        5
 72
     1
 10
9.348592231577775
 20
4.828837121159542
 11
9.348592231577773
 21
4.869862606938735
 72
     1
 10
9.348592231577773
 20
4.869862606938735
 11
8.54859223157778
 21
4.869862606938734
 72
     1
 10
8.54859223157778
 20
4.869862606938734
 11
8.54859223157778
 21
4.828837121159542
 72
     1
 10
8.54859223157778
 20
4.828837121159542
 11
8.811842125966679
 21
4.828837121159542
 72
     1
 10
8.811842125966679
 20
4.828837121159542
 11
9.348592231577775
 21
4.828837121159542
 97
        0
 92
        1
 93
        5
 72
     1
 10
5.988720417300176
 20
4.828837121159542
 11
5.998592231577776
 21
4.828837121159542
 72
     1
 10
5.998592231577776
 20
4.828837121159542
 11
5.998592231577776
 21
4.869862606938734
 72
     1
 10
5.998592231577776
 20
4.869862606938734
 11
5.983592231577777
 21
4.869862606938734
 72
     1
 10
5.983592231577777
 20
4.869862606938734
 11
5.983592231577777
 21
4.828837121159542
 72
     1
 10
5.983592231577777
 20
4.828837121159542
 11
5.988720417300176
 21
4.828837121159542
 97
        0
 92
        1
 93
        6
 72
     1
 10
6.713592231577774
 20
4.828837121159542
 11
7.548592231577779
 21
4.828837121159542
 72
     1
 10
7.548592231577779
 20
4.828837121159542
 11
7.548592231577779
 21
4.869862606938734
 72
     1
 10
7.548592231577779
 20
4.869862606938734
 11
6.698592231577774
 21
4.869862606938734
 72
     1
 10
6.698592231577774
 20
4.869862606938734
 11
6.698592231577774
 21
4.828837121159542
 72
     1
 10
6.698592231577774
 20
4.828837121159542
 11
6.708848603022572
 21
4.828837121159542
 72
     1
 10
6.708848603022572
 20
4.828837121159542
 11
6.713592231577774
 21
4.828837121159542
 97
        0
 75
     0
 76
     1
 98
        1
 10
0.0
 20
0.0
450
        0
451
        0
460
0.0
461
0.0
452
        0
462
0.0
453
        0
470

1001
REVIT
1002
{
1070
     1
1000
8710587
1002
}
1002
{
1070
     5
1000
6929785
1002
}
1002
{
1070
     2
1000
-2000011
1002
}
  0
HATCH
  5
16B
330
70
100
AcDbEntity
  8
X-ARQ-PISOS_PROJ
100
AcDbHatch
 10
0.0
 20
0.0
 30
0.0
210
0.0
220
0.0
230
1.0
  2
SOLID
 70
     1
 71
     0
 91
       11
 92
        1
 93
       45
 72
     1
 10
6.668592231577773
 20
4.828837121159542
 11
6.673592231577773
 21
4.828837121159542
 72
     1
 10
6.673592231577773
 20
4.828837121159542
 11
6.673592231577773
 21
4.884862606938733
 72
     1
 10
6.673592231577773
 20
4.884862606938733
 11
6.688592231577772
 21
4.884862606938733
 72
     1
 10
6.688592231577772
 20
4.884862606938733
 11
6.688592231577772
 21
4.874862606938724
 72
     1
 10
6.688592231577772
 20
4.874862606938724
 11
6.698592231577774
 21
4.874862606938724
 72
     1
 10
6.698592231577774
 20
4.874862606938724
 11
6.698592231577774
 21
4.884862606938733
 72
     1
 10
6.698592231577774
 20
4.884862606938733
 11
9.208592231577787
 21
4.884862606938735
 72
     1
 10
9.208592231577787
 20
4.884862606938735
 11
9.208592231577787
 21
4.894862606938737
 72
     1
 10
9.208592231577787
 20
4.894862606938737
 11
9.198592231577778
 21
4.894862606938737
 72
     1
 10
9.198592231577778
 20
4.894862606938737
 11
9.198592231577778
 21
4.909862606938736
 72
     1
 10
9.198592231577778
 20
4.909862606938736
 11
9.263592231577788
 21
4.909862606938736
 72
     1
 10
9.263592231577788
 20
4.909862606938736
 11
9.263592231577788
 21
4.924862606938737
 72
     1
 10
9.263592231577788
 20
4.924862606938737
 11
9.348592231577773
 21
4.924862606938737
 72
     1
 10
9.348592231577773
 20
4.924862606938737
 11
9.348592231577773
 21
4.894862606938737
 72
     1
 10
9.348592231577773
 20
4.894862606938737
 11
9.338592231577779
 21
4.894862606938737
 72
     1
 10
9.338592231577779
 20
4.894862606938737
 11
9.338592231577779
 21
4.884862606938735
 72
     1
 10
9.338592231577779
 20
4.884862606938735
 11
9.348592231577773
 21
4.884862606938735
 72
     1
 10
9.348592231577773
 20
4.884862606938735
 11
9.348592231577773
 21
4.828837121159542
 72
     1
 10
9.348592231577773
 20
4.828837121159542
 11
9.87114011275359
 21
4.828837121159542
 72
     1
 10
9.87114011275359
 20
4.828837121159542
 11
9.87114011275359
 21
5.964173523130985
 72
     1
 10
9.87114011275359
 20
5.964173523130985
 11
9.348592231577782
 21
5.964173523130985
 72
     1
 10
9.348592231577782
 20
5.964173523130985
 11
9.348592231577773
 21
5.584862606938736
 72
     1
 10
9.348592231577773
 20
5.584862606938736
 11
9.338592231577779
 21
5.584862606938736
 72
     1
 10
9.338592231577779
 20
5.584862606938736
 11
9.338592231577779
 21
5.574862606938734
 72
     1
 10
9.338592231577779
 20
5.574862606938734
 11
9.348592231577773
 21
5.574862606938734
 72
     1
 10
9.348592231577773
 20
5.574862606938734
 11
9.348592231577773
 21
5.544862606938735
 72
     1
 10
9.348592231577773
 20
5.544862606938735
 11
9.263592231577788
 21
5.544862606938735
 72
     1
 10
9.263592231577788
 20
5.544862606938735
 11
9.263592231577788
 21
5.559862606938734
 72
     1
 10
9.263592231577788
 20
5.559862606938734
 11
9.198592231577778
 21
5.559862606938734
 72
     1
 10
9.198592231577778
 20
5.559862606938734
 11
9.198592231577778
 21
5.574862606938734
 72
     1
 10
9.198592231577778
 20
5.574862606938734
 11
9.208592231577787
 21
5.574862606938734
 72
     1
 10
9.208592231577787
 20
5.574862606938734
 11
9.208592231577787
 21
5.584862606938735
 72
     1
 10
9.208592231577787
 20
5.584862606938735
 11
9.198592231577778
 21
5.584862606938735
 72
     1
 10
9.198592231577778
 20
5.584862606938735
 11
9.198592231577778
 21
7.984862606938756
 72
     1
 10
9.198592231577778
 20
7.984862606938756
 11
5.998592231577766
 21
7.984862606938736
 72
     1
 10
5.998592231577766
 20
7.984862606938736
 11
5.998592231577767
 21
4.874862606938726
 72
     1
 10
5.998592231577767
 20
4.874862606938726
 11
6.008592231577767
 21
4.874862606938726
 72
     1
 10
6.008592231577767
 20
4.874862606938726
 11
6.008592231577767
 21
4.884862606938726
 72
     1
 10
6.008592231577767
 20
4.884862606938726
 11
6.023592231577775
 21
4.884862606938726
 72
     1
 10
6.023592231577775
 20
4.884862606938726
 11
6.023592231577775
 21
4.828837121159542
 72
     1
 10
6.023592231577775
 20
4.828837121159542
 11
6.028592231577773
 21
4.828837121159542
 72
     1
 10
6.028592231577773
 20
4.828837121159542
 11
6.028592231577773
 21
4.884862606938726
 72
     1
 10
6.028592231577773
 20
4.884862606938726
 11
6.668592231577773
 21
4.884862606938733
 72
     1
 10
6.668592231577773
 20
4.884862606938733
 11
6.668592231577773
 21
4.869862606938734
 72
     1
 10
6.668592231577773
 20
4.869862606938734
 11
6.668592231577773
 21
4.828837121159542
 97
        0
 92
        1
 93
        5
 72
     1
 10
9.258592231577788
 20
4.914862606938735
 11
9.198592231577778
 21
4.914862606938735
 72
     1
 10
9.198592231577778
 20
4.914862606938735
 11
9.198592231577778
 21
5.554862606938734
 72
     1
 10
9.198592231577778
 20
5.554862606938734
 11
9.258592231577788
 21
5.554862606938734
 72
     1
 10
9.258592231577788
 20
5.554862606938734
 11
9.258592231577788
 21
4.924862606938737
 72
     1
 10
9.258592231577788
 20
4.924862606938737
 11
9.258592231577788
 21
4.914862606938735
 97
        0
 92
        1
 93
       22
 72
     1
 10
6.023592231577775
 20
5.675609657500696
 11
6.005592231577768
 21
5.675609657500696
 72
     1
 10
6.005592231577768
 20
5.675609657500696
 11
6.005592231577768
 21
5.705609657500699
 72
     1
 10
6.005592231577768
 20
5.705609657500699
 11
6.008592231577767
 21
5.705609657500699
 72
     1
 10
6.008592231577767
 20
5.705609657500699
 11
6.008592231577767
 21
6.5516096575007
 72
     1
 10
6.008592231577767
 20
6.5516096575007
 11
6.005592231577768
 21
6.5516096575007
 72
     1
 10
6.005592231577768
 20
6.5516096575007
 11
6.005592231577768
 21
6.5816096575007
 72
     1
 10
6.005592231577768
 20
6.5816096575007
 11
6.035592231577772
 21
6.5816096575007
 72
     1
 10
6.035592231577772
 20
6.5816096575007
 11
6.035592231577772
 21
6.578609657500705
 72
     1
 10
6.035592231577772
 20
6.578609657500705
 11
6.281592231577771
 21
6.578609657500705
 72
     1
 10
6.281592231577771
 20
6.578609657500705
 11
6.281592231577771
 21
6.5816096575007
 72
     1
 10
6.281592231577771
 20
6.5816096575007
 11
6.311592231577774
 21
6.5816096575007
 72
     1
 10
6.311592231577774
 20
6.5816096575007
 11
6.311592231577775
 21
6.5516096575007
 72
     1
 10
6.311592231577775
 20
6.5516096575007
 11
6.308592231577775
 21
6.5516096575007
 72
     1
 10
6.308592231577775
 20
6.5516096575007
 11
6.308592231577775
 21
5.705609657500698
 72
     1
 10
6.308592231577775
 20
5.705609657500698
 11
6.311592231577775
 21
5.705609657500698
 72
     1
 10
6.311592231577775
 20
5.705609657500698
 11
6.311592231577775
 21
5.675609657500696
 72
     1
 10
6.311592231577775
 20
5.675609657500696
 11
6.28159223157777
 21
5.675609657500696
 72
     1
 10
6.28159223157777
 20
5.675609657500696
 11
6.28159223157777
 21
5.678609657500704
 72
     1
 10
6.28159223157777
 20
5.678609657500704
 11
6.03559223157777
 21
5.678609657500704
 72
     1
 10
6.03559223157777
 20
5.678609657500704
 11
6.03559223157777
 21
5.675609657500696
 72
     1
 10
6.03559223157777
 20
5.675609657500696
 11
6.028592231577773
 21
5.675609657500696
 72
     1
 10
6.028592231577773
 20
5.675609657500696
 11
6.023592231577775
 21
5.675609657500696
 97
        0
 92
        1
 93
        5
 72
     1
 10
7.994482693060094
 20
5.880889579295748
 11
7.194482693060076
 21
5.880889579295748
 72
     1
 10
7.194482693060076
 20
5.880889579295748
 11
7.194482693060076
 21
6.98088957929576
 72
     1
 10
7.194482693060076
 20
6.98088957929576
 11
7.994482693060094
 21
6.98088957929576
 72
     1
 10
7.994482693060094
 20
6.98088957929576
 11
7.994482693060094
 21
5.882889579295757
 72
     1
 10
7.994482693060094
 20
5.882889579295757
 11
7.994482693060094
 21
5.880889579295748
 97
        0
 92
        1
 93
       13
 72
     1
 10
6.318532324155086
 20
6.826916551652749
 11
6.085373154542391
 21
6.826916551652749
 72
     1
 10
6.085373154542391
 20
6.826916551652749
 11
6.085373154542391
 21
7.066916551652744
 72
     1
 10
6.085373154542391
 20
7.066916551652744
 11
6.010373154542391
 21
7.066916551652743
 72
     1
 10
6.010373154542391
 20
7.066916551652743
 11
6.010373154542391
 21
7.086916551652743
 72
     1
 10
6.010373154542391
 20
7.086916551652743
 11
6.01537315454239
 21
7.086916551652743
 72
     1
 10
6.01537315454239
 20
7.086916551652743
 11
6.01537315454239
 21
7.96191655165275
 72
     1
 10
6.01537315454239
 20
7.96191655165275
 11
6.775373154542392
 21
7.96191655165275
 72
     1
 10
6.775373154542392
 20
7.96191655165275
 11
6.775373154542392
 21
7.086916551652748
 72
     1
 10
6.775373154542392
 20
7.086916551652748
 11
6.780373154542392
 21
7.086916551652748
 72
     1
 10
6.780373154542392
 20
7.086916551652748
 11
6.780373154542392
 21
7.066916551652749
 72
     1
 10
6.780373154542392
 20
7.066916551652749
 11
6.705373154542393
 21
7.066916551652744
 72
     1
 10
6.705373154542393
 20
7.066916551652744
 11
6.705373154542393
 21
6.826916551652749
 72
     1
 10
6.705373154542393
 20
6.826916551652749
 11
6.318532324155086
 21
6.826916551652749
 97
        0
 92
        1
 93
        6
 72
     1
 10
8.530300738634714
 20
7.266916551652768
 11
8.480373154542395
 21
7.266916551652768
 72
     1
 10
8.480373154542395
 20
7.266916551652768
 11
8.480373154542395
 21
7.316844135745087
 72
     1
 10
8.480373154542395
 20
7.316844135745087
 11
9.18037315454239
 21
7.316844135745087
 72
     1
 10
9.18037315454239
 20
7.316844135745087
 11
9.18037315454239
 21
7.266916551652768
 72
     1
 10
9.18037315454239
 20
7.266916551652768
 11
8.686937516554088
 21
7.266916551652768
 72
     1
 10
8.686937516554088
 20
7.266916551652768
 11
8.530300738634714
 21
7.266916551652768
 97
        0
 92
        1
 93
        5
 72
     1
 10
9.130445570450072
 20
7.326844135745091
 11
8.480373154542395
 21
7.326844135745097
 72
     1
 10
8.480373154542395
 20
7.326844135745097
 11
8.480373154542395
 21
7.966916551652773
 72
     1
 10
8.480373154542395
 20
7.966916551652773
 11
9.18037315454239
 21
7.966916551652778
 72
     1
 10
9.18037315454239
 20
7.966916551652778
 11
9.18037315454239
 21
7.326844135745097
 72
     1
 10
9.18037315454239
 20
7.326844135745097
 11
9.130445570450072
 21
7.326844135745091
 97
        0
 92
        1
 93
       26
 72
     1
 10
8.094836218454336
 20
7.544173523151863
 11
7.815370365610382
 21
7.544855006626089
 72
     1
 10
7.815370365610382
 20
7.544855006626089
 11
7.810546746512434
 21
7.546853015076182
 72
     1
 10
7.810546746512434
 20
7.546853015076182
 11
7.805357229890465
 21
7.551396361020077
 72
     1
 10
7.805357229890465
 20
7.551396361020077
 11
7.803226238436745
 21
7.55417352315187
 72
     1
 10
7.803226238436745
 20
7.55417352315187
 11
7.800717117380989
 21
7.562879427926357
 72
     1
 10
7.800717117380989
 20
7.562879427926357
 11
7.800546746512434
 21
7.57167352315187
 72
     1
 10
7.800546746512434
 20
7.57167352315187
 11
7.801647374076299
 21
7.926244590963738
 72
     1
 10
7.801647374076299
 20
7.926244590963738
 11
7.80508176228058
 21
7.933218693439542
 72
     1
 10
7.80508176228058
 20
7.933218693439542
 11
7.807869076982774
 21
7.936851192681535
 72
     1
 10
7.807869076982774
 20
7.936851192681535
 11
7.813046746512438
 21
7.940824158246483
 72
     1
 10
7.813046746512438
 20
7.940824158246483
 11
7.822958556061412
 21
7.94383278141476
 72
     1
 10
7.822958556061412
 20
7.94383278141476
 11
7.828046746512439
 21
7.944173523151865
 72
     1
 10
7.828046746512439
 20
7.944173523151865
 11
8.382617814324303
 21
7.943072895588005
 72
     1
 10
8.382617814324303
 20
7.943072895588005
 11
8.390886867504212
 21
7.938644856760362
 72
     1
 10
8.390886867504212
 20
7.938644856760362
 11
8.393224416042102
 21
7.936851192681529
 72
     1
 10
8.393224416042102
 20
7.936851192681529
 11
8.397197381607048
 21
7.931673523151866
 72
     1
 10
8.397197381607048
 20
7.931673523151866
 11
8.400206004775329
 21
7.921761713602888
 72
     1
 10
8.400206004775329
 20
7.921761713602888
 11
8.400546746512437
 21
7.916617722464782
 72
     1
 10
8.400546746512437
 20
7.916617722464782
 11
8.399863681345758
 21
7.559031547202208
 72
     1
 10
8.399863681345758
 20
7.559031547202208
 11
8.395712234840461
 21
7.551396361020077
 72
     1
 10
8.395712234840461
 20
7.551396361020077
 11
8.394675286296736
 21
7.55004498336756
 72
     1
 10
8.394675286296736
 20
7.55004498336756
 11
8.390523536962749
 21
7.54685923405627
 72
     1
 10
8.390523536962749
 20
7.54685923405627
 11
8.381806436785552
 21
7.544345475712877
 72
     1
 10
8.381806436785552
 20
7.544345475712877
 11
8.372383701938595
 21
7.544173523151863
 72
     1
 10
8.372383701938595
 20
7.544173523151863
 11
8.194713413179099
 21
7.544173523151863
 72
     1
 10
8.194713413179099
 20
7.544173523151863
 11
8.094836218454336
 21
7.544173523151863
 97
        0
 92
        1
 93
       26
 72
     1
 10
7.206684271304712
 20
7.544173523151863
 11
7.155370365610382
 21
7.544855006626089
 72
     1
 10
7.155370365610382
 20
7.544855006626089
 11
7.150546746512434
 21
7.546853015076182
 72
     1
 10
7.150546746512434
 20
7.546853015076182
 11
7.145357229890464
 21
7.551396361020077
 72
     1
 10
7.145357229890464
 20
7.551396361020077
 11
7.143226238436745
 21
7.55417352315187
 72
     1
 10
7.143226238436745
 20
7.55417352315187
 11
7.140717117380988
 21
7.562879427926357
 72
     1
 10
7.140717117380988
 20
7.562879427926357
 11
7.140546746512433
 21
7.57167352315187
 72
     1
 10
7.140546746512433
 20
7.57167352315187
 11
7.141647374076299
 21
7.926244590963738
 72
     1
 10
7.141647374076299
 20
7.926244590963738
 11
7.145081762280579
 21
7.933218693439542
 72
     1
 10
7.145081762280579
 20
7.933218693439542
 11
7.151174774607859
 21
7.939387743683361
 72
     1
 10
7.151174774607859
 20
7.939387743683361
 11
7.153046746512437
 21
7.940824158246483
 72
     1
 10
7.153046746512437
 20
7.940824158246483
 11
7.162958556061412
 21
7.94383278141476
 72
     1
 10
7.162958556061412
 20
7.94383278141476
 11
7.169677940173476
 21
7.944173523151865
 72
     1
 10
7.169677940173476
 20
7.944173523151865
 11
7.722017222640001
 21
7.943321668809091
 72
     1
 10
7.722017222640001
 20
7.943321668809091
 11
7.728046746512437
 21
7.940824158246477
 72
     1
 10
7.728046746512437
 20
7.940824158246477
 11
7.733224416042101
 21
7.936851192681529
 72
     1
 10
7.733224416042101
 20
7.936851192681529
 11
7.737197381607049
 21
7.931673523151866
 72
     1
 10
7.737197381607049
 20
7.931673523151866
 11
7.740206004775328
 21
7.921761713602888
 72
     1
 10
7.740206004775328
 20
7.921761713602888
 11
7.740546746512437
 21
7.916617722464782
 72
     1
 10
7.740546746512437
 20
7.916617722464782
 11
7.739863681345758
 21
7.559031547202208
 72
     1
 10
7.739863681345758
 20
7.559031547202208
 11
7.735712234840462
 21
7.551396361020077
 72
     1
 10
7.735712234840462
 20
7.551396361020077
 11
7.734675286296736
 21
7.55004498336756
 72
     1
 10
7.734675286296736
 20
7.55004498336756
 11
7.730523536962748
 21
7.54685923405627
 72
     1
 10
7.730523536962748
 20
7.54685923405627
 11
7.721806436785549
 21
7.544345475712877
 72
     1
 10
7.721806436785549
 20
7.544345475712877
 11
7.713046746512432
 21
7.544173523151863
 72
     1
 10
7.713046746512432
 20
7.544173523151863
 11
7.343880079845766
 21
7.544173523151863
 72
     1
 10
7.343880079845766
 20
7.544173523151863
 11
7.206684271304712
 21
7.544173523151863
 97
        0
 92
        1
 93
        3
 72
     1
 10
7.720500327413065
 20
7.561673523151863
 11
7.722300917625972
 21
7.562419352038324
 72
     1
 10
7.722300917625972
 20
7.562419352038324
 11
7.721246156299527
 21
7.562419352038324
 72
     1
 10
7.721246156299527
 20
7.562419352038324
 11
7.720500327413065
 21
7.561673523151863
 97
        0
 92
        1
 93
        3
 72
     1
 10
8.380500327413065
 20
7.561673523151863
 11
8.382300917625972
 21
7.562419352038324
 72
     1
 10
8.382300917625972
 20
7.562419352038324
 11
8.381246156299528
 21
7.562419352038324
 72
     1
 10
8.381246156299528
 20
7.562419352038324
 11
8.380500327413065
 21
7.561673523151863
 97
        0
 75
     0
 76
     1
 98
        1
 10
0.0
 20
0.0
450
        0
451
        0
460
0.0
461
0.0
452
        0
462
0.0
453
        0
470

1001
REVIT
1002
{
1070
     1
1000
8710598
1002
}
1002
{
1070
     5
1000
2697644
1002
}
1002
{
1070
     2
1000
-2000032
1002
}
1002
{
1070
     3
1000
-2000541
1002
}
  0
HATCH
  5
171
330
70
100
AcDbEntity
  8
X-ARQ-MURO_PROJ
100
AcDbHatch
 10
0.0
 20
0.0
 30
0.0
210
0.0
220
0.0
230
1.0
  2
SOLID
 70
     1
 71
     0
 91
        1
 92
        1
 93
        5
 72
     1
 10
5.853055330342623
 20
4.828837121159542
 11
5.863592231577777
 21
4.828837121159542
 72
     1
 10
5.863592231577777
 20
4.828837121159542
 11
5.863592231577766
 21
8.134862606938735
 72
     1
 10
5.863592231577766
 20
8.134862606938735
 11
5.848592231577765
 21
8.134862606938735
 72
     1
 10
5.848592231577765
 20
8.134862606938735
 11
5.848592231577776
 21
4.828837121159542
 72
     1
 10
5.848592231577776
 20
4.828837121159542
 11
5.853055330342623
 21
4.828837121159542
 97
        0
 75
     0
 76
     1
 98
        1
 10
0.0
 20
0.0
450
        0
451
        0
460
0.0
461
0.0
452
        0
462
0.0
453
        0
470

1001
REVIT
1002
{
1070
     1
1000
8713474
1002
}
1002
{
1070
     5
1000
6929785
1002
}
1002
{
1070
     2
1000
-2000011
1002
}
  0
HATCH
  5
176
330
70
100
AcDbEntity
  8
X-ARQ-MURO_PROJ
100
AcDbHatch
 10
0.0
 20
0.0
 30
0.0
210
0.0
220
0.0
230
1.0
  2
SOLID
 70
     1
 71
     0
 91
        1
 92
        1
 93
        4
 72
     1
 10
5.998592231577776
 20
4.869862606938734
 11
5.998592231577767
 21
7.999862606938736
 72
     1
 10
5.998592231577767
 20
7.999862606938736
 11
5.983592231577766
 21
7.999862606938735
 72
     1
 10
5.983592231577766
 20
7.999862606938735
 11
5.983592231577776
 21
4.869862606938734
 72
     1
 10
5.983592231577776
 20
4.869862606938734
 11
5.998592231577776
 21
4.869862606938734
 97
        0
 75
     0
 76
     1
 98
        1
 10
0.0
 20
0.0
450
        0
451
        0
460
0.0
461
0.0
452
        0
462
0.0
453
        0
470

1001
REVIT
1002
{
1070
     1
1000
8713474
1002
}
1002
{
1070
     5
1000
6929785
1002
}
1002
{
1070
     2
1000
-2000011
1002
}
  0
HATCH
  5
17C
330
70
100
AcDbEntity
  8
X-ARQ-MURO_PROJ
100
AcDbHatch
 10
0.0
 20
0.0
 30
0.0
210
0.0
220
0.0
230
1.0
  2
SOLID
 70
     1
 71
     0
 91
        1
 92
        1
 93
        5
 72
     1
 10
5.863592231577777
 20
4.828837121159542
 11
5.983592231577777
 21
4.828837121159542
 72
     1
 10
5.983592231577777
 20
4.828837121159542
 11
5.983592231577764
 21
8.119862606938735
 72
     1
 10
5.983592231577764
 20
8.119862606938735
 11
5.863592231577766
 21
8.119862606938735
 72
     1
 10
5.863592231577766
 20
8.119862606938735
 11
5.863592231577777
 21
4.869862606938734
 72
     1
 10
5.863592231577777
 20
4.869862606938734
 11
5.863592231577777
 21
4.828837121159542
 97
        0
 75
     0
 76
     1
 98
        1
 10
0.0
 20
0.0
450
        0
451
        0
460
0.0
461
0.0
452
        0
462
0.0
453
        0
470

1001
REVIT
1002
{
1070
     1
1000
8713474
1002
}
1002
{
1070
     5
1000
6929785
1002
}
1002
{
1070
     2
1000
-2000011
1002
}
  0
HATCH
  5
181
330
70
100
AcDbEntity
  8
X-ARQ-MURO_PROJ
100
AcDbHatch
 10
0.0
 20
0.0
 30
0.0
210
0.0
220
0.0
230
1.0
  2
SOLID
 70
     1
 71
     0
 91
        1
 92
        1
 93
        4
 72
     1
 10
9.213592231577777
 20
5.584862606938735
 11
9.213592231577768
 21
7.984862606938756
 72
     1
 10
9.213592231577768
 20
7.984862606938756
 11
9.198592231577769
 21
7.984862606938756
 72
     1
 10
9.198592231577769
 20
7.984862606938756
 11
9.198592231577778
 21
5.584862606938735
 72
     1
 10
9.198592231577778
 20
5.584862606938735
 11
9.213592231577777
 21
5.584862606938735
 97
        0
 75
     0
 76
     1
 98
        1
 10
0.0
 20
0.0
450
        0
451
        0
460
0.0
461
0.0
452
        0
462
0.0
453
        0
470

1001
REVIT
1002
{
1070
     1
1000
8713570
1002
}
1002
{
1070
     5
1000
6929785
1002
}
1002
{
1070
     2
1000
-2000011
1002
}
  0
HATCH
  5
189
330
70
100
AcDbEntity
  8
X-ARQ-MURO_PROJ
100
AcDbHatch
 10
0.0
 20
0.0
 30
0.0
210
0.0
220
0.0
230
1.0
  2
SOLID
 70
     1
 71
     0
 91
        1
 92
        1
 93
        7
 72
     1
 10
9.213592231577777
 20
5.584862606938735
 11
9.273592231577778
 21
5.584862606938736
 72
     1
 10
9.273592231577778
 20
5.584862606938736
 11
9.273592231577778
 21
5.599862606938735
 72
     1
 10
9.273592231577778
 20
5.599862606938735
 11
9.333592231577778
 21
5.599862606938735
 72
     1
 10
9.333592231577778
 20
5.599862606938735
 11
9.333592231577769
 21
7.999862606938757
 72
     1
 10
9.333592231577769
 20
7.999862606938757
 11
9.213592231577768
 21
7.999862606938756
 72
     1
 10
9.213592231577768
 20
7.999862606938756
 11
9.213592231577777
 21
5.599862606938735
 72
     1
 10
9.213592231577777
 20
5.599862606938735
 11
9.213592231577777
 21
5.584862606938735
 97
        0
 75
     0
 76
     1
 98
        1
 10
0.0
 20
0.0
450
        0
451
        0
460
0.0
461
0.0
452
        0
462
0.0
453
        0
470

1001
REVIT
1002
{
1070
     1
1000
8713570
1002
}
1002
{
1070
     5
1000
6929785
1002
}
1002
{
1070
     2
1000
-2000011
1002
}
  0
HATCH
  5
191
330
70
100
AcDbEntity
  8
X-ARQ-MURO_PROJ
100
AcDbHatch
 10
0.0
 20
0.0
 30
0.0
210
0.0
220
0.0
230
1.0
  2
SOLID
 70
     1
 71
     0
 91
        1
 92
        1
 93
        7
 72
     1
 10
9.333592231577769
 20
5.584862606938736
 11
9.348592231577779
 21
5.584862606938736
 72
     1
 10
9.348592231577779
 20
5.584862606938736
 11
9.34859223157777
 21
8.119862606938758
 72
     1
 10
9.34859223157777
 20
8.119862606938758
 11
9.333592231577769
 21
8.119862606938758
 72
     1
 10
9.333592231577769
 20
8.119862606938758
 11
9.333592231577778
 21
5.599862606938735
 72
     1
 10
9.333592231577778
 20
5.599862606938735
 11
9.273592231577778
 21
5.599862606938735
 72
     1
 10
9.273592231577778
 20
5.599862606938735
 11
9.273592231577778
 21
5.584862606938736
 72
     1
 10
9.273592231577778
 20
5.584862606938736
 11
9.333592231577769
 21
5.584862606938736
 97
        0
 75
     0
 76
     1
 98
        1
 10
0.0
 20
0.0
450
        0
451
        0
460
0.0
461
0.0
452
        0
462
0.0
453
        0
470

1001
REVIT
1002
{
1070
     1
1000
8713570
1002
}
1002
{
1070
     5
1000
6929785
1002
}
1002
{
1070
     2
1000
-2000011
1002
}
  0
LINE
  5
193
330
70
100
AcDbEntity
  8
X-ARQ-MURO_CUT
100
AcDbLine
 10
5.998592231577759
 20
7.984862606938727
 30
0.0
 11
7.040745298888712
 21
7.984862606938734
 31
0.0
1001
REVIT
1002
{
1070
     1
1000
8710583
1002
}
1002
{
1070
     5
1000
6929785
1002
}
1002
{
1070
     2
1000
-2000011
1002
}
  0
LINE
  5
194
330
70
100
AcDbEntity
  8
X-ARQ-MURO_CUT
100
AcDbLine
 10
7.040745298888712
 20
7.984862606938734
 30
0.0
 11
7.040745298888711
 21
8.134862606938735
 31
0.0
1001
REVIT
1002
{
1070
     1
1000
8710583
1002
}
1002
{
1070
     5
1000
6929785
1002
}
1002
{
1070
     2
1000
-2000011
1002
}
  0
LINE
  5
195
330
70
100
AcDbEntity
  8
X-ARQ-MURO_CUT
100
AcDbLine
 10
7.040745298888711
 20
8.134862606938735
 30
0.0
 11
5.848592231577758
 21
8.134862606938726
 31
0.0
1001
REVIT
1002
{
1070
     1
1000
8710583
1002
}
1002
{
1070
     5
1000
6929785
1002
}
1002
{
1070
     2
1000
-2000011
1002
}
  0
LINE
  5
196
330
70
100
AcDbEntity
  8
X-ARQ-MURO_CUT
100
AcDbLine
 10
8.040745298888712
 20
7.984862606938741
 30
0.0
 11
9.198592231577759
 21
7.984862606938747
 31
0.0
1001
REVIT
1002
{
1070
     1
1000
8710583
1002
}
1002
{
1070
     5
1000
6929785
1002
}
1002
{
1070
     2
1000
-2000011
1002
}
  0
LINE
  5
199
330
70
100
AcDbEntity
  8
X-ARQ-MURO_CUT
100
AcDbLine
 10
9.348592231577759
 20
8.134862606938749
 30
0.0
 11
8.04074529888871
 21
8.134862606938741
 31
0.0
1001
REVIT
1002
{
1070
     1
1000
8710583
1002
}
1002
{
1070
     5
1000
6929785
1002
}
1002
{
1070
     2
1000
-2000011
1002
}
  0
LINE
  5
19A
330
70
100
AcDbEntity
  8
X-ARQ-MURO_CUT
100
AcDbLine
 10
8.04074529888871
 20
8.134862606938741
 30
0.0
 11
8.040745298888712
 21
7.984862606938741
 31
0.0
1001
REVIT
1002
{
1070
     1
1000
8710583
1002
}
1002
{
1070
     5
1000
6929785
1002
}
1002
{
1070
     2
1000
-2000011
1002
}
  0
LINE
  5
19D
330
70
100
AcDbEntity
  8
X-ARQ-MURO_CUT
100
AcDbLine
 10
9.333592231577759
 20
8.119862606938751
 30
0.0
 11
8.04074529888871
 21
8.119862606938742
 31
0.0
1001
REVIT
1002
{
1070
     1
1000
8710583
1002
}
1002
{
1070
     5
1000
6929785
1002
}
1002
{
1070
     2
1000
-2000011
1002
}
1002
{
1070
     3
1000
-2000586
1002
}
  0
LINE
  5
19E
330
70
100
AcDbEntity
  8
X-ARQ-MURO_CUT
100
AcDbLine
 10
8.055745298888711
 20
8.059862606938741
 30
0.0
 11
8.055745298888712
 21
7.999862606938741
 31
0.0
1001
REVIT
1002
{
1070
     1
1000
8710583
1002
}
1002
{
1070
     5
1000
6929785
1002
}
1002
{
1070
     2
1000
-2000011
1002
}
1002
{
1070
     3
1000
-2000586
1002
}
  0
LINE
  5
19F
330
70
100
AcDbEntity
  8
X-ARQ-MURO_CUT
100
AcDbLine
 10
8.055745298888712
 20
7.999862606938741
 30
0.0
 11
9.213592231577759
 21
7.999862606938747
 31
0.0
1001
REVIT
1002
{
1070
     1
1000
8710583
1002
}
1002
{
1070
     5
1000
6929785
1002
}
1002
{
1070
     2
1000
-2000011
1002
}
1002
{
1070
     3
1000
-2000586
1002
}
  0
LINE
  5
1A0
330
70
100
AcDbEntity
  8
X-ARQ-MURO_CUT
100
AcDbLine
 10
7.040745298888711
 20
8.119862606938735
 30
0.0
 11
5.86359223157776
 21
8.119862606938726
 31
0.0
1001
REVIT
1002
{
1070
     1
1000
8710583
1002
}
1002
{
1070
     5
1000
6929785
1002
}
1002
{
1070
     2
1000
-2000011
1002
}
1002
{
1070
     3
1000
-2000586
1002
}
  0
LINE
  5
1A2
330
70
100
AcDbEntity
  8
X-ARQ-MURO_CUT
100
AcDbLine
 10
8.055745298888711
 20
8.059862606938741
 30
0.0
 11
8.04074529888871
 21
8.059862606938741
 31
0.0
1001
REVIT
1002
{
1070
     1
1000
8710583
1002
}
1002
{
1070
     5
1000
6929785
1002
}
1002
{
1070
     2
1000
-2000011
1002
}
1002
{
1070
     3
1000
-2000586
1002
}
  0
LINE
  5
1A3
330
70
100
AcDbEntity
  8
X-ARQ-MURO_CUT
100
AcDbLine
 10
7.040745298888711
 20
8.059862606938734
 30
0.0
 11
7.025745298888711
 21
8.059862606938734
 31
0.0
1001
REVIT
1002
{
1070
     1
1000
8710583
1002
}
1002
{
1070
     5
1000
6929785
1002
}
1002
{
1070
     2
1000
-2000011
1002
}
1002
{
1070
     3
1000
-2000586
1002
}
  0
LINE
  5
1A4
330
70
100
AcDbEntity
  8
X-ARQ-MURO_CUT
100
AcDbLine
 10
7.025745298888712
 20
7.999862606938733
 30
0.0
 11
7.025745298888711
 21
8.059862606938734
 31
0.0
1001
REVIT
1002
{
1070
     1
1000
8710583
1002
}
1002
{
1070
     5
1000
6929785
1002
}
1002
{
1070
     2
1000
-2000011
1002
}
1002
{
1070
     3
1000
-2000586
1002
}
  0
LINE
  5
1A5
330
70
100
AcDbEntity
  8
X-ARQ-MURO_CUT
100
AcDbLine
 10
5.983592231577759
 20
7.999862606938727
 30
0.0
 11
7.025745298888712
 21
7.999862606938733
 31
0.0
1001
REVIT
1002
{
1070
     1
1000
8710583
1002
}
1002
{
1070
     5
1000
6929785
1002
}
1002
{
1070
     2
1000
-2000011
1002
}
1002
{
1070
     3
1000
-2000586
1002
}
  0
LINE
  5
1A6
330
70
100
AcDbEntity
  8
X-ARQ-MURO_PROJ
100
AcDbLine
 10
8.040745298888712
 20
7.984862606938741
 30
0.0
 11
7.040745298888712
 21
7.984862606938734
 31
0.0
1001
REVIT
1002
{
1070
     1
1000
8710583
1002
}
1002
{
1070
     5
1000
6929785
1002
}
1002
{
1070
     2
1000
-2000011
1002
}
  0
LINE
  5
1A7
330
70
100
AcDbEntity
  8
X-ARQ-MURO_PROJ
100
AcDbLine
 10
7.040745298888711
 20
8.134862606938735
 30
0.0
 11
8.04074529888871
 21
8.134862606938741
 31
0.0
1001
REVIT
1002
{
1070
     1
1000
8710583
1002
}
1002
{
1070
     5
1000
6929785
1002
}
1002
{
1070
     2
1000
-2000011
1002
}
  0
LINE
  5
1A8
330
70
100
AcDbEntity
  8
X-ARQ-MURO_CUT
100
AcDbLine
 10
7.548592231577771
 20
4.828837121159536
 30
0.0
 11
7.548592231577771
 21
4.884862606938727
 31
0.0
1001
REVIT
1002
{
1070
     1
1000
8710587
1002
}
1002
{
1070
     5
1000
6929785
1002
}
1002
{
1070
     2
1000
-2000011
1002
}
  0
LINE
  5
1A9
330
70
100
AcDbEntity
  8
X-ARQ-MURO_CUT
100
AcDbLine
 10
7.548592231577771
 20
4.884862606938727
 30
0.0
 11
6.698592231577767
 21
4.884862606938727
 31
0.0
1001
REVIT
1002
{
1070
     1
1000
8710587
1002
}
1002
{
1070
     5
1000
6929785
1002
}
1002
{
1070
     2
1000
-2000011
1002
}
  0
LINE
  5
1AA
330
70
100
AcDbEntity
  8
X-ARQ-MURO_CUT
100
AcDbLine
 10
6.698592231577767
 20
4.884862606938727
 30
0.0
 11
6.698592231577767
 21
4.828837121159536
 31
0.0
1001
REVIT
1002
{
1070
     1
1000
8710587
1002
}
1002
{
1070
     5
1000
6929785
1002
}
1002
{
1070
     2
1000
-2000011
1002
}
  0
LINE
  5
1AB
330
70
100
AcDbEntity
  8
X-ARQ-MURO_CUT
100
AcDbLine
 10
9.348592231577766
 20
4.828837121159536
 30
0.0
 11
9.348592231577763
 21
4.884862606938729
 31
0.0
1001
REVIT
1002
{
1070
     1
1000
8710587
1002
}
1002
{
1070
     5
1000
6929785
1002
}
1002
{
1070
     2
1000
-2000011
1002
}
  0
LINE
  5
1AC
330
70
100
AcDbEntity
  8
X-ARQ-MURO_CUT
100
AcDbLine
 10
9.348592231577763
 20
4.884862606938729
 30
0.0
 11
8.548592231577771
 21
4.884862606938727
 31
0.0
1001
REVIT
1002
{
1070
     1
1000
8710587
1002
}
1002
{
1070
     5
1000
6929785
1002
}
1002
{
1070
     2
1000
-2000011
1002
}
  0
LINE
  5
1AD
330
70
100
AcDbEntity
  8
X-ARQ-MURO_CUT
100
AcDbLine
 10
8.548592231577771
 20
4.884862606938727
 30
0.0
 11
8.548592231577771
 21
4.828837121159536
 31
0.0
1001
REVIT
1002
{
1070
     1
1000
8710587
1002
}
1002
{
1070
     5
1000
6929785
1002
}
1002
{
1070
     2
1000
-2000011
1002
}
  0
LINE
  5
1AE
330
70
100
AcDbEntity
  8
X-ARQ-MURO_CUT
100
AcDbLine
 10
5.99859223157777
 20
4.869862606938728
 30
0.0
 11
5.983592231577769
 21
4.869862606938728
 31
0.0
1001
REVIT
1002
{
1070
     1
1000
8710587
1002
}
1002
{
1070
     5
1000
6929785
1002
}
1002
{
1070
     2
1000
-2000011
1002
}
1002
{
1070
     3
1000
-2000586
1002
}
  0
LINE
  5
1AF
330
70
100
AcDbEntity
  8
X-ARQ-MURO_CUT
100
AcDbLine
 10
7.548592231577771
 20
4.869862606938728
 30
0.0
 11
6.698592231577767
 21
4.869862606938728
 31
0.0
1001
REVIT
1002
{
1070
     1
1000
8710587
1002
}
1002
{
1070
     5
1000
6929785
1002
}
1002
{
1070
     2
1000
-2000011
1002
}
1002
{
1070
     3
1000
-2000586
1002
}
  0
LINE
  5
1B0
330
70
100
AcDbEntity
  8
X-ARQ-MURO_CUT
100
AcDbLine
 10
9.348592231577763
 20
4.869862606938728
 30
0.0
 11
8.548592231577771
 21
4.869862606938728
 31
0.0
1001
REVIT
1002
{
1070
     1
1000
8710587
1002
}
1002
{
1070
     5
1000
6929785
1002
}
1002
{
1070
     2
1000
-2000011
1002
}
1002
{
1070
     3
1000
-2000586
1002
}
  0
LINE
  5
1B1
330
70
100
AcDbEntity
  8
X-ARQ-MURO_PROJ
100
AcDbLine
 10
7.548592231577771
 20
4.884862606938727
 30
0.0
 11
8.548592231577771
 21
4.884862606938727
 31
0.0
1001
REVIT
1002
{
1070
     1
1000
8710587
1002
}
1002
{
1070
     5
1000
6929785
1002
}
1002
{
1070
     2
1000
-2000011
1002
}
  0
LINE
  5
1B2
330
70
100
AcDbEntity
  8
X-ARQ-PISOS_PROJ
100
AcDbLine
 10
9.871140112753579
 20
5.964173523130978
 30
0.0
 11
9.348592231577772
 21
5.964173523130978
 31
0.0
1001
REVIT
1002
{
1070
     1
1000
8710598
1002
}
1002
{
1070
     5
1000
2697644
1002
}
1002
{
1070
     2
1000
-2000032
1002
}
  0
INSERT
  5
1C5
330
70
100
AcDbEntity
  8
X-ARQ-PROYECCIONES
100
AcDbBlockReference
  2
AE_PUERTA BATIENTE MADERA - AE_PUERTA BATIENTE MADERA 0_70X2_20-8696333-Piso 1 - Arq
 10
6.348592231577775
 20
4.809862606938727
 30
0.0
1001
REVIT
1002
{
1070
     1
1000
8710629
1002
}
1002
{
1070
     5
1000
6947327
1002
}
1002
{
1070
     2
1000
-2000023
1002
}
1002
{
1070
     3
1000
-2009501
1002
}
  0
INSERT
  5
1D8
330
70
100
AcDbEntity
  8
X-ARQ-MOBILIARIO_PROJ
100
AcDbBlockReference
  2
Horno Padrino - Horno Padrino-8709530-Piso 1 - Arq
 10
6.395373154542381
 20
7.521916551652739
 30
0.0
1001
REVIT
1002
{
1070
     1
1000
8710689
1002
}
1002
{
1070
     5
1000
8709530
1002
}
1002
{
1070
     2
1000
-2000151
1002
}
  0
INSERT
  5
1E8
330
70
100
AcDbEntity
  8
X-ARQ-MOBILIARIO_PROJ
100
AcDbBlockReference
  2
A_Surface rec - A_Surface rec-7537305-Piso 1 - Arq
 10
7.594482693060073
 20
6.430889579295744
 30
0.0
 50
90.00000000000058
1001
REVIT
1002
{
1070
     1
1000
8710690
1002
}
1002
{
1070
     5
1000
7537305
1002
}
1002
{
1070
     2
1000
-2001000
1002
}
  0
LINE
  5
1E9
330
70
100
AcDbEntity
  8
X-ARQ-MURO_CUT
100
AcDbLine
 10
5.848592231577758
 20
8.134862606938726
 30
0.0
 11
5.848592231577769
 21
4.828837121159535
 31
0.0
1001
REVIT
1002
{
1070
     1
1000
8713474
1002
}
1002
{
1070
     5
1000
6929785
1002
}
1002
{
1070
     2
1000
-2000011
1002
}
  0
LINE
  5
1EA
330
70
100
AcDbEntity
  8
X-ARQ-MURO_CUT
100
AcDbLine
 10
5.99859223157777
 20
4.828837121159535
 30
0.0
 11
5.99859223157776
 21
7.984862606938727
 31
0.0
1001
REVIT
1002
{
1070
     1
1000
8713474
1002
}
1002
{
1070
     5
1000
6929785
1002
}
1002
{
1070
     2
1000
-2000011
1002
}
  0
LINE
  5
1ED
330
70
100
AcDbEntity
  8
X-ARQ-MURO_CUT
100
AcDbLine
 10
5.86359223157777
 20
4.828837121159535
 30
0.0
 11
5.863592231577758
 21
8.119862606938726
 31
0.0
1001
REVIT
1002
{
1070
     1
1000
8713474
1002
}
1002
{
1070
     5
1000
6929785
1002
}
1002
{
1070
     2
1000
-2000011
1002
}
1002
{
1070
     3
1000
-2000586
1002
}
  0
LINE
  5
1EE
330
70
100
AcDbEntity
  8
X-ARQ-MURO_CUT
100
AcDbLine
 10
5.98359223157777
 20
4.869862606938728
 30
0.0
 11
5.983592231577759
 21
7.999862606938727
 31
0.0
1001
REVIT
1002
{
1070
     1
1000
8713474
1002
}
1002
{
1070
     5
1000
6929785
1002
}
1002
{
1070
     2
1000
-2000011
1002
}
1002
{
1070
     3
1000
-2000586
1002
}
  0
LINE
  5
1EF
330
70
100
AcDbEntity
  8
X-ARQ-MURO_CUT
100
AcDbLine
 10
9.198592231577759
 20
7.984862606938747
 30
0.0
 11
9.198592231577768
 21
5.584862606938728
 31
0.0
1001
REVIT
1002
{
1070
     1
1000
8713570
1002
}
1002
{
1070
     5
1000
6929785
1002
}
1002
{
1070
     2
1000
-2000011
1002
}
  0
LINE
  5
1F0
330
70
100
AcDbEntity
  8
X-ARQ-MURO_CUT
100
AcDbLine
 10
9.198592231577768
 20
5.584862606938728
 30
0.0
 11
9.348592231577768
 21
5.58486260693873
 31
0.0
1001
REVIT
1002
{
1070
     1
1000
8713570
1002
}
1002
{
1070
     5
1000
6929785
1002
}
1002
{
1070
     2
1000
-2000011
1002
}
  0
LINE
  5
1F1
330
70
100
AcDbEntity
  8
X-ARQ-MURO_CUT
100
AcDbLine
 10
9.348592231577768
 20
5.58486260693873
 30
0.0
 11
9.348592231577759
 21
8.134862606938749
 31
0.0
1001
REVIT
1002
{
1070
     1
1000
8713570
1002
}
1002
{
1070
     5
1000
6929785
1002
}
1002
{
1070
     2
1000
-2000011
1002
}
  0
LINE
  5
1F3
330
70
100
AcDbEntity
  8
X-ARQ-MURO_CUT
100
AcDbLine
 10
9.213592231577758
 20
7.999862606938747
 30
0.0
 11
9.213592231577768
 21
5.584862606938728
 31
0.0
1001
REVIT
1002
{
1070
     1
1000
8713570
1002
}
1002
{
1070
     5
1000
6929785
1002
}
1002
{
1070
     2
1000
-2000011
1002
}
1002
{
1070
     3
1000
-2000586
1002
}
  0
LINE
  5
1F4
330
70
100
AcDbEntity
  8
X-ARQ-MURO_CUT
100
AcDbLine
 10
9.273592231577769
 20
5.599862606938729
 30
0.0
 11
9.273592231577769
 21
5.58486260693873
 31
0.0
1001
REVIT
1002
{
1070
     1
1000
8713570
1002
}
1002
{
1070
     5
1000
6929785
1002
}
1002
{
1070
     2
1000
-2000011
1002
}
1002
{
1070
     3
1000
-2000586
1002
}
  0
LINE
  5
1F7
330
70
100
AcDbEntity
  8
X-ARQ-MURO_CUT
100
AcDbLine
 10
9.333592231577769
 20
5.59986260693873
 30
0.0
 11
9.333592231577759
 21
8.119862606938747
 31
0.0
1001
REVIT
1002
{
1070
     1
1000
8713570
1002
}
1002
{
1070
     5
1000
6929785
1002
}
1002
{
1070
     2
1000
-2000011
1002
}
1002
{
1070
     3
1000
-2000586
1002
}
  0
LINE
  5
1F8
330
70
100
AcDbEntity
  8
X-ARQ-MURO_CUT
100
AcDbLine
 10
9.273592231577769
 20
5.599862606938729
 30
0.0
 11
9.333592231577769
 21
5.59986260693873
 31
0.0
1001
REVIT
1002
{
1070
     1
1000
8713570
1002
}
1002
{
1070
     5
1000
6929785
1002
}
1002
{
1070
     2
1000
-2000011
1002
}
1002
{
1070
     3
1000
-2000586
1002
}
  0
INSERT
  5
215
330
70
100
AcDbEntity
  8
X-ARQ-PROYECCIONES
100
AcDbBlockReference
  2
AE_PUERTA BATIENTE MADERA - AE_PUERTA BATIENTE MADERA 0_70X2_20-8714395-Piso 1 - Arq
 10
9.273592231577769
 20
5.234862606938738
 30
0.0
 50
90.00000000000019
1001
REVIT
1002
{
1070
     1
1000
8714324
1002
}
1002
{
1070
     5
1000
6947327
1002
}
1002
{
1070
     2
1000
-2000023
1002
}
1002
{
1070
     3
1000
-2009501
1002
}
  0
INSERT
  5
223
330
70
100
AcDbEntity
  8
X-ARQ-PROYECCIONES
100
AcDbBlockReference
  2
EQU_NEVERA - EQU_NEVERA-7909127-Piso 1 - Arq
 10
8.830373154542382
 20
7.616916551652765
 30
0.0
1001
REVIT
1002
{
1070
     1
1000
8714906
1002
}
1002
{
1070
     5
1000
7909127
1002
}
1002
{
1070
     2
1000
-2001140
1002
}
1002
{
1070
     3
1000
-2009520
1002
}
  0
INSERT
  5
23B
330
70
100
AcDbEntity
  8
X-ARQ-MOBILIARIO_PROJ
100
AcDbBlockReference
  2
Canastillas plásticas  31 - 31 x 40 x 60 - LAT HOLE - 3 STACK-8039155-Piso 1 - Arq
 10
8.100546746512446
 20
7.744173523151831
 30
0.0
 50
180.0
1001
REVIT
1002
{
1070
     1
1000
8716580
1002
}
1002
{
1070
     5
1000
8039155
1002
}
1002
{
1070
     2
1000
-2001000
1002
}
  0
INSERT
  5
23C
330
70
100
AcDbEntity
  8
X-ARQ-MOBILIARIO_PROJ
100
AcDbBlockReference
  2
Canastillas plásticas  31 - 31 x 40 x 60 - LAT HOLE - 3 STACK-8039155-Piso 1 - Arq
 10
7.440546746512445
 20
7.744173523151831
 30
0.0
 50
180.0
1001
REVIT
1002
{
1070
     1
1000
8716632
1002
}
1002
{
1070
     5
1000
8039155
1002
}
1002
{
1070
     2
1000
-2001000
1002
}
  0
INSERT
  5
25D
330
70
100
AcDbEntity
  8
X-ARQ-MOBILIARIO_PROJ
100
AcDbBlockReference
  2
Repiza - Repiza-8718733-Piso 1 - Arq
 10
6.158592231577765
 20
6.128609657500691
 30
0.0
 50
90.00000000000005
1001
REVIT
1002
{
1070
     1
1000
8718779
1002
}
1002
{
1070
     5
1000
8718733
1002
}
1002
{
1070
     2
1000
-2000151
1002
}
  0
LINE
  5
25F
330
70
100
AcDbEntity
  8
0
100
AcDbLine
 10
6.820546746527931
 20
7.96191655165274
 30
0.0
 11
8.42054674652793
 21
7.96191655165274
 31
0.0
1001
REVIT
1002
{
1070
     1
1000
8716410
1002
}
1002
{
1070
     2
1000
-2000051
1002
}
1002
{
1070
     3
1000
6931664
1002
}
  0
LINE
  5
260
330
70
100
AcDbEntity
  8
0
100
AcDbLine
 10
6.820546746527931
 20
7.46191655165274
 30
0.0
 11
6.820546746527931
 21
7.96191655165274
 31
0.0
1001
REVIT
1002
{
1070
     1
1000
8716411
1002
}
1002
{
1070
     2
1000
-2000051
1002
}
1002
{
1070
     3
1000
6931664
1002
}
  0
LINE
  5
261
330
70
100
AcDbEntity
  8
0
100
AcDbLine
 10
8.42054674652793
 20
7.46191655165274
 30
0.0
 11
6.820546746527931
 21
7.46191655165274
 31
0.0
1001
REVIT
1002
{
1070
     1
1000
8716412
1002
}
1002
{
1070
     2
1000
-2000051
1002
}
1002
{
1070
     3
1000
6931664
1002
}
  0
LINE
  5
262
330
70
100
AcDbEntity
  8
0
100
AcDbLine
 10
8.42054674652793
 20
7.96191655165274
 30
0.0
 11
8.42054674652793
 21
7.46191655165274
 31
0.0
1001
REVIT
1002
{
1070
     1
1000
8716413
1002
}
1002
{
1070
     2
1000
-2000051
1002
}
1002
{
1070
     3
1000
6931664
1002
}
  0
LINE
  5
263
330
70
100
AcDbEntity
  8
0
100
AcDbLine
 10
9.158592231577765
 20
6.464109485955062
 30
0.0
 11
9.158592231577765
 21
5.664109485955062
 31
0.0
1001
REVIT
1002
{
1070
     1
1000
8718983
1002
}
1002
{
1070
     2
1000
-2000051
1002
}
1002
{
1070
     3
1000
6931664
1002
}
  0
LINE
  5
264
330
70
100
AcDbEntity
  8
0
100
AcDbLine
 10
8.658592231577765
 20
6.464109485955062
 30
0.0
 11
9.158592231577765
 21
6.464109485955062
 31
0.0
1001
REVIT
1002
{
1070
     1
1000
8718984
1002
}
1002
{
1070
     2
1000
-2000051
1002
}
1002
{
1070
     3
1000
6931664
1002
}
  0
LINE
  5
265
330
70
100
AcDbEntity
  8
0
100
AcDbLine
 10
8.658592231577765
 20
5.664109485955062
 30
0.0
 11
8.658592231577765
 21
6.464109485955062
 31
0.0
1001
REVIT
1002
{
1070
     1
1000
8718985
1002
}
1002
{
1070
     2
1000
-2000051
1002
}
1002
{
1070
     3
1000
6931664
1002
}
  0
LINE
  5
266
330
70
100
AcDbEntity
  8
0
100
AcDbLine
 10
9.158592231577765
 20
5.664109485955062
 30
0.0
 11
8.658592231577765
 21
5.664109485955062
 31
0.0
1001
REVIT
1002
{
1070
     1
1000
8718986
1002
}
1002
{
1070
     2
1000
-2000051
1002
}
1002
{
1070
     3
1000
6931664
1002
}
  0
LINE
  5
267
330
70
100
AcDbEntity
  8
0
100
AcDbLine
 10
6.815546746527942
 20
5.109862606938727
 30
0.0
 11
8.415546746527942
 21
5.109862606938727
 31
0.0
1001
REVIT
1002
{
1070
     1
1000
8719105
1002
}
1002
{
1070
     2
1000
-2000051
1002
}
1002
{
1070
     3
1000
6931664
1002
}
  0
LINE
  5
268
330
70
100
AcDbEntity
  8
0
100
AcDbLine
 10
6.815546746527942
 20
4.909862606938728
 30
0.0
 11
6.815546746527942
 21
5.109862606938727
 31
0.0
1001
REVIT
1002
{
1070
     1
1000
8719106
1002
}
1002
{
1070
     2
1000
-2000051
1002
}
1002
{
1070
     3
1000
6931664
1002
}
  0
LINE
  5
269
330
70
100
AcDbEntity
  8
0
100
AcDbLine
 10
8.415546746527942
 20
4.909862606938728
 30
0.0
 11
6.815546746527942
 21
4.909862606938728
 31
0.0
1001
REVIT
1002
{
1070
     1
1000
8719107
1002
}
1002
{
1070
     2
1000
-2000051
1002
}
1002
{
1070
     3
1000
6931664
1002
}
  0
LINE
  5
26A
330
70
100
AcDbEntity
  8
0
100
AcDbLine
 10
8.415546746527942
 20
5.109862606938727
 30
0.0
 11
8.415546746527942
 21
4.909862606938728
 31
0.0
1001
REVIT
1002
{
1070
     1
1000
8719108
1002
}
1002
{
1070
     2
1000
-2000051
1002
}
1002
{
1070
     3
1000
6931664
1002
}
  0
LINE
  5
26C
330
70
100
AcDbEntity
  8
X-PLANO1
100
AcDbLine
 10
5.848592231577758
 20
8.134862606938726
 30
0.0
 11
5.134329585746055
 21
8.13486260693873
 31
0.0
1001
REVIT
1002
{
1070
     1
1000
8725801
1002
}
1002
{
1070
     2
1000
-2000051
1002
}
1002
{
1070
     3
1000
1637512
1002
}
  0
LINE
  5
26D
330
70
100
AcDbEntity
  8
X-PLANO1
100
AcDbLine
 10
5.134329585746055
 20
8.13486260693873
 30
0.0
 11
9.348592231577747
 21
8.134862606938716
 31
0.0
1001
REVIT
1002
{
1070
     1
1000
8725880
1002
}
1002
{
1070
     2
1000
-2000051
1002
}
1002
{
1070
     3
1000
1637512
1002
}
  0
LINE
  5
26E
330
70
100
AcDbEntity
  8
X-PLANO1
100
AcDbLine
 10
9.348592231577747
 20
8.134862606938716
 30
0.0
 11
9.348592231577743
 21
5.964173523130978
 31
0.0
1001
REVIT
1002
{
1070
     1
1000
8725927
1002
}
1002
{
1070
     2
1000
-2000051
1002
}
1002
{
1070
     3
1000
1637512
1002
}
  0
LINE
  5
26F
330
70
100
AcDbEntity
  8
X-PLANO1
100
AcDbLine
 10
9.348592231577743
 20
5.964173523130978
 30
0.0
 11
9.871140112753579
 21
5.964173523130975
 31
0.0
1001
REVIT
1002
{
1070
     1
1000
8726007
1002
}
1002
{
1070
     2
1000
-2000051
1002
}
1002
{
1070
     3
1000
1637512
1002
}
  0
MTEXT
  5
273
330
70
100
AcDbEntity
  8
X-ESP-TEXTO
100
AcDbMText
 10
6.678237040395296
 20
5.788416559467637
 30
0.0
 40
0.2
 41
2.020252499999999
 46
0.0
 71
     1
 72
     1
  1
PLANTA DE 
  7
Arial
 73
     2
 44
1.0
1001
REVIT
1002
{
1070
     1
1000
8724976
1002
}
1002
{
1070
     5
1000
1626285
1002
}
1002
{
1070
     2
1000
-2000300
1002
}
  0
MTEXT
  5
274
330
70
100
AcDbEntity
  8
X-ESP-TEXTO
100
AcDbMText
 10
6.678237040395296
 20
5.464301976134303
 30
0.0
 40
0.2
 41
2.348944374999999
 46
0.0
 71
     1
 72
     1
  1
PRODUCCIÓN
  7
Arial
 73
     2
 44
1.0
1001
REVIT
1002
{
1070
     1
1000
8724976
1002
}
1002
{
1070
     5
1000
1626285
1002
}
1002
{
1070
     2
1000
-2000300
1002
}
  0
MTEXT
  5
275
330
70
100
AcDbEntity
  8
X-ESP-TEXTO
100
AcDbMText
 10
7.886561713742326
 20
4.408598874910579
 30
0.0
 40
0.2
 41
0.9219406249999998
 46
0.0
 71
     1
 72
     1
  1
CAFÉ
  7
Arial
 73
     2
 44
1.0
1001
REVIT
1002
{
1070
     1
1000
8724977
1002
}
1002
{
1070
     5
1000
1626285
1002
}
1002
{
1070
     2
1000
-2000300
1002
}
  0
MTEXT
  5
276
330
70
100
AcDbEntity
  8
X-ESP-TEXTO
100
AcDbMText
 10
11.0690317789208
 20
4.743089957367071
 30
0.0
 40
0.2
 41
1.210548125
 46
0.0
 71
     1
 72
     1
  1
MESAS
  7
Arial
 73
     2
 44
1.0
1001
REVIT
1002
{
1070
     1
1000
8725501
1002
}
1002
{
1070
     5
1000
1626285
1002
}
1002
{
1070
     2
1000
-2000300
1002
}
  0
MTEXT
  5
277
330
70
100
AcDbEntity
  8
X-ESP-TEXTO
100
AcDbMText
 10
11.0690317789208
 20
4.418975374033737
 30
0.0
 40
0.2
 41
2.108438124999999
 46
0.0
 71
     1
 72
     1
  1
INTERIORES
  7
Arial
 73
     2
 44
1.0
1001
REVIT
1002
{
1070
     1
1000
8725501
1002
}
1002
{
1070
     5
1000
1626285
1002
}
1002
{
1070
     2
1000
-2000300
1002
}
  0
MTEXT
  5
278
330
70
100
AcDbEntity
  8
X-ESP-TEXTO
100
AcDbMText
 10
6.78841875247013
 20
3.008487754157229
 30
0.0
 40
0.2
 41
1.210548125
 46
0.0
 71
     1
 72
     1
  1
MESAS
  7
Arial
 73
     2
 44
1.0
1001
REVIT
1002
{
1070
     1
1000
8725516
1002
}
1002
{
1070
     5
1000
1626285
1002
}
1002
{
1070
     2
1000
-2000300
1002
}
  0
MTEXT
  5
279
330
70
100
AcDbEntity
  8
X-ESP-TEXTO
100
AcDbMText
 10
6.78841875247013
 20
2.684373170823896
 30
0.0
 40
0.2
 41
1.034176874999999
 46
0.0
 71
     1
 72
     1
  1
PATIO
  7
Arial
 73
     2
 44
1.0
1001
REVIT
1002
{
1070
     1
1000
8725516
1002
}
1002
{
1070
     5
1000
1626285
1002
}
1002
{
1070
     2
1000
-2000300
1002
}
  0
DIMENSION
  5
28E
330
70
100
AcDbEntity
  8
X-ESP-REF-SIMBOLOS
100
AcDbDimension
280
     0
  2
DIMBLOCK1-Piso 1 - Arq
 10
5.393319226700624
 20
7.98486260693873
 30
0.0
 11
5.296682118478276
 21
6.434862606938724
 31
0.0
 70
    32
 71
     5
 42
3.100000000000006
 73
     0
 74
     0
 75
     0
  3
00_PLANB_DIM__fondo_blanco_
100
AcDbAlignedDimension
 13
5.493319226700622
 23
4.884862606938721
 33
0.0
 14
5.493319226700622
 24
7.984862606938727
 34
0.0
 50
89.99999999999991
100
AcDbRotatedDimension
1001
ACAD
1000
DSTYLE
1002
{
1070
    49
1040
3.100000000000005
1002
}
1001
REVIT
1002
{
1070
     1
1000
8726626
1002
}
1002
{
1070
     5
1000
4016704
1002
}
1002
{
1070
     2
1000
-2000260
1002
}
  0
DIMENSION
  5
2AA
330
70
100
AcDbEntity
  8
X-ESP-REF-SIMBOLOS
100
AcDbDimension
280
     0
  2
DIMBLOCK2-Piso 1 - Arq
 10
9.198592231577759
 20
8.526886661560496
 30
0.0
 11
7.598592231577759
 21
8.623523769782844
 31
0.0
 70
    32
 71
     5
 42
3.2
 73
     0
 74
     0
 75
     0
  3
00_PLANB_DIM__fondo_blanco_
100
AcDbAlignedDimension
 13
5.998592231577759
 23
8.426886661560494
 33
0.0
 14
9.198592231577759
 24
8.426886661560494
 34
0.0
100
AcDbRotatedDimension
1001
ACAD
1000
DSTYLE
1002
{
1070
    49
1040
3.2
1002
}
1001
REVIT
1002
{
1070
     1
1000
8726633
1002
}
1002
{
1070
     5
1000
4016704
1002
}
1002
{
1070
     2
1000
-2000260
1002
}
  0
DIMENSION
  5
2C4
330
70
100
AcDbEntity
  8
X-ESP-REF-SIMBOLOS
100
AcDbDimension
280
     0
  2
DIMBLOCK3-Piso 1 - Arq
 10
8.243551599213715
 20
6.978889579295756
 30
0.0
 11
8.148244641067321
 21
6.430889579295751
 31
0.0
 70
    32
 71
     5
 42
1.096000000000001
 73
     0
 74
     0
 75
     0
  3
00_PLANB_DIM__fondo_blanco_
100
AcDbAlignedDimension
 13
8.143551599213722
 23
5.882889579295752
 33
0.0
 14
8.143551599213711
 24
6.978889579295753
 34
0.0
 50
89.99999999999991
100
AcDbRotatedDimension
1001
ACAD
1000
DSTYLE
1002
{
1070
    49
1040
1.096
1002
}
1001
REVIT
1002
{
1070
     1
1000
8726640
1002
}
1002
{
1070
     5
1000
4016704
1002
}
1002
{
1070
     2
1000
-2000260
1002
}
  0
DIMENSION
  5
2DE
330
70
100
AcDbEntity
  8
X-ESP-REF-SIMBOLOS
100
AcDbDimension
280
     0
  2
DIMBLOCK4-Piso 1 - Arq
 10
7.992482693060073
 20
7.065229034630702
 30
0.0
 11
7.594482693060071
 21
7.161814983234744
 31
0.0
 70
    32
 71
     5
 42
0.796000000000003
 73
     0
 74
     0
 75
     0
  3
00_PLANB_DIM__fondo_blanco_
100
AcDbAlignedDimension
 13
7.19648269306007
 23
6.965229034630702
 33
0.0
 14
7.992482693060073
 24
6.965229034630702
 34
0.0
100
AcDbRotatedDimension
1001
ACAD
1000
DSTYLE
1002
{
1070
    49
1040
0.796000000000003
1002
}
1001
REVIT
1002
{
1070
     1
1000
8726647
1002
}
1002
{
1070
     5
1000
4016704
1002
}
1002
{
1070
     2
1000
-2000260
1002
}
  0
ENDSEC
  0
SECTION
  2
OBJECTS
  0
DICTIONARY
  5
C
330
0
100
AcDbDictionary
281
     1
  3
ACAD_CIP_PREVIOUS_PRODUCT_INFO
350
79
  3
ACAD_COLOR
350
63
  3
ACAD_DETAILVIEWSTYLE
350
6A
  3
ACAD_GROUP
350
D
  3
ACAD_IMAGE_VARS
350
7A
  3
ACAD_LAYOUT
350
62
  3
ACAD_MATERIAL
350
10
  3
ACAD_MLEADERSTYLE
350
66
  3
ACAD_MLINESTYLE
350
5F
  3
ACAD_PLOTSETTINGS
350
61
  3
ACAD_PLOTSTYLENAME
350
E
  3
ACAD_SCALELIST
350
42
  3
ACAD_SECTIONVIEWSTYLE
350
68
  3
ACAD_TABLESTYLE
350
64
  3
ACAD_VISUALSTYLE
350
29
  3
ACDB_RECOMPOSE_DATA
350
2F6
  3
AcDbVariableDictionary
350
7B
  3
REVIT_DICTIONARY
350
2EB
  0
DICTIONARY
  5
2F2
330
70
100
AcDbDictionary
280
     1
281
     1
  3
ACAD_SORTENTS
360
2F3
  0
XRECORD
  5
79
102
{ACAD_REACTORS
330
C
102
}
330
C
100
AcDbXrecord
280
     1
300
RVT
300
2027
300
RVT2027
  0
DICTIONARY
  5
63
102
{ACAD_REACTORS
330
C
102
}
330
C
100
AcDbDictionary
281
     1
  0
DICTIONARY
  5
6A
102
{ACAD_REACTORS
330
C
102
}
330
C
100
AcDbDictionary
281
     1
  3
Imperial24
350
6B
  0
DICTIONARY
  5
D
102
{ACAD_REACTORS
330
C
102
}
330
C
100
AcDbDictionary
281
     1
  0
RASTERVARIABLES
  5
7A
102
{ACAD_REACTORS
330
C
102
}
330
C
100
AcDbRasterVariables
 90
        0
 70
     0
 71
     1
 72
     3
  0
DICTIONARY
  5
62
102
{ACAD_REACTORS
330
C
102
}
330
C
100
AcDbDictionary
281
     1
  3
Layout1
350
6F
  3
Layout2
350
77
  3
Model
350
73
  0
DICTIONARY
  5
10
102
{ACAD_REACTORS
330
C
102
}
330
C
100
AcDbDictionary
281
     1
  3
ByBlock
350
19
  3
ByLayer
350
11
  3
Global
350
21
  0
DICTIONARY
  5
66
102
{ACAD_REACTORS
330
C
102
}
330
C
100
AcDbDictionary
281
     1
  3
Standard
350
67
  0
DICTIONARY
  5
5F
102
{ACAD_REACTORS
330
C
102
}
330
C
100
AcDbDictionary
281
     1
  3
Standard
350
60
  0
DICTIONARY
  5
61
102
{ACAD_REACTORS
330
C
102
}
330
C
100
AcDbDictionary
281
     1
  0
ACDBDICTIONARYWDFLT
  5
E
102
{ACAD_REACTORS
330
C
102
}
330
C
100
AcDbDictionary
281
     1
  3
Normal
350
F
100
AcDbDictionaryWithDefault
340
F
  0
DICTIONARY
  5
42
102
{ACAD_REACTORS
330
C
102
}
330
C
100
AcDbDictionary
281
     1
  3
A0
350
43
  3
A1
350
44
  3
A2
350
45
  3
A3
350
46
  3
A4
350
47
  3
A5
350
48
  3
A6
350
49
  3
A7
350
4A
  3
A8
350
4B
  3
A9
350
4C
  3
B0
350
4D
  3
B1
350
4E
  3
B2
350
4F
  3
B3
350
50
  3
B4
350
51
  3
B5
350
52
  3
B6
350
53
  0
DICTIONARY
  5
68
102
{ACAD_REACTORS
330
C
102
}
330
C
100
AcDbDictionary
281
     1
  3
Imperial24
350
69
  0
DICTIONARY
  5
64
102
{ACAD_REACTORS
330
C
102
}
330
C
100
AcDbDictionary
281
     1
  3
Standard
350
65
  0
DICTIONARY
  5
29
102
{ACAD_REACTORS
330
C
102
}
330
C
100
AcDbDictionary
281
     1
  3
2dWireframe
350
2F
  3
Basic
350
2E
  3
Brighten
350
35
  3
ColorChange
350
39
  3
Conceptual
350
32
  3
Dim
350
34
  3
EdgeColorOff
350
41
  3
Facepattern
350
38
  3
Flat
350
2A
  3
FlatWithEdges
350
2B
  3
Gouraud
350
2C
  3
GouraudWithEdges
350
2D
  3
Hidden
350
31
  3
JitterOff
350
3F
  3
Linepattern
350
37
  3
OverhangOff
350
40
  3
Realistic
350
33
  3
Shaded
350
3E
  3
Shaded with edges
350
3D
  3
Shades of Gray
350
3A
  3
Sketchy
350
3B
  3
Thicken
350
36
  3
Wireframe
350
30
  3
X-Ray
350
3C
  0
XRECORD
  5
2F6
102
{ACAD_REACTORS
330
C
102
}
330
C
100
AcDbXrecord
280
     1
 90
        1
330
65
  0
DICTIONARY
  5
7B
102
{ACAD_REACTORS
330
C
102
}
330
C
100
AcDbDictionary
281
     1
  3
CANNOSCALE
350
80
  3
CMLEADERSTYLE
350
7D
  3
CTABLESTYLE
350
7C
  3
CVIEWDETAILSTYLE
350
7E
  3
CVIEWSECTIONSTYLE
350
7F
  0
DICTIONARY
  5
2EB
102
{ACAD_REACTORS
330
C
102
}
330
C
100
AcDbDictionary
281
     1
  3
DRAWING_TOOL
350
2F1
  3
REVIT_CATEGORY_MAPPING
350
2EF
  3
REVIT_GET_SITE
350
2EC
  3
REVIT_SUB_CATEGORY_MAPPING
350
2F0
  3
REVIT_TYPE_MAPPING
350
2EE
  0
SORTENTSTABLE
  5
2F3
102
{ACAD_REACTORS
330
2F2
102
}
330
2F2
100
AcDbSortentsTable
330
70
  0
ACDBDETAILVIEWSTYLE
  5
6B
102
{ACAD_REACTORS
330
6A
102
}
330
6A
100
AcDbModelDocViewStyle
 70
     0
  3
Imperial24
290
     1
300
Imperial24
 90
        0
100
AcDbDetailViewStyle
 70
     0
 71
     0
 90
        3
 71
     1
340
55
 62
   256
 40
0.24
340
0
 62
   256
 40
0.24
300

 40
0.36
280
     3
 71
     2
340
5D
 90
       25
 62
   256
 71
     3
340
55
 62
   256
 40
0.24
 90
        1
 40
0.75
 90
        1
300
%<\AcVar ViewType \f "%tc1">% %<\AcVar ViewDetailId>%\PSCALE %<\AcVar ViewScale \f "%sn">%
 71
     4
340
5D
 90
       25
 62
   256
340
5D
 90
       25
 62
   256
280
     0
  0
LAYOUT
  5
6F
102
{ACAD_REACTORS
330
62
102
}
330
62
100
AcDbPlotSettings
  1

  2

  4

  6

 40
0.0
 41
0.0
 42
0.0
 43
0.0
 44
0.0
 45
0.0
 46
0.0
 47
0.0
 48
0.0
 49
0.0
140
0.0
141
0.0
142
1.0
143
1.0
 70
   688
 72
     0
 73
     0
 74
     5
  7

 75
    16
147
1.0
 76
     0
 77
     2
 78
   300
148
0.0
149
0.0
100
AcDbLayout
  1
Layout1
 70
     1
 71
     1
 10
0.0
 20
0.0
 11
12.0
 21
9.0
 12
0.0
 22
0.0
 32
0.0
 14
0.0
 24
0.0
 34
0.0
 15
0.0
 25
0.0
 35
0.0
146
0.0
 13
0.0
 23
0.0
 33
0.0
 16
1.0
 26
0.0
 36
0.0
 17
0.0
 27
1.0
 37
0.0
 76
     0
330
6C
  0
LAYOUT
  5
77
102
{ACAD_REACTORS
330
62
102
}
330
62
100
AcDbPlotSettings
  1

  2

  4

  6

 40
0.0
 41
0.0
 42
0.0
 43
0.0
 44
0.0
 45
0.0
 46
0.0
 47
0.0
 48
0.0
 49
0.0
140
0.0
141
0.0
142
1.0
143
1.0
 70
   688
 72
     0
 73
     0
 74
     5
  7

 75
    16
147
1.0
 76
     0
 77
     2
 78
   300
148
0.0
149
0.0
100
AcDbLayout
  1
Layout2
 70
     1
 71
     2
 10
0.0
 20
0.0
 11
12.0
 21
9.0
 12
0.0
 22
0.0
 32
0.0
 14
0.0
 24
0.0
 34
0.0
 15
0.0
 25
0.0
 35
0.0
146
0.0
 13
0.0
 23
0.0
 33
0.0
 16
1.0
 26
0.0
 36
0.0
 17
0.0
 27
1.0
 37
0.0
 76
     0
330
74
  0
LAYOUT
  5
73
102
{ACAD_REACTORS
330
62
102
}
330
62
100
AcDbPlotSettings
  1

  2

  4

  6

 40
0.0
 41
0.0
 42
0.0
 43
0.0
 44
0.0
 45
0.0
 46
0.0
 47
0.0
 48
0.0
 49
0.0
140
0.0
141
0.0
142
1.0
143
1.0
 70
  1712
 72
     0
 73
     0
 74
     0
  7

 75
     0
147
1.0
 76
     0
 77
     2
 78
   300
148
0.0
149
0.0
100
AcDbLayout
  1
Model
 70
     1
 71
     0
 10
0.0
 20
0.0
 11
12.0
 21
9.0
 12
0.0
 22
0.0
 32
0.0
 14
0.0
 24
0.0
 34
0.0
 15
0.0
 25
0.0
 35
0.0
146
0.0
 13
0.0
 23
0.0
 33
0.0
 16
1.0
 26
0.0
 36
0.0
 17
0.0
 27
1.0
 37
0.0
 76
     0
330
70
  0
MATERIAL
  5
19
102
{ACAD_XDICTIONARY
360
1A
102
}
102
{ACAD_REACTORS
330
10
102
}
330
10
100
AcDbMaterial
  1
ByBlock
 72
     0
 43
0.0208333333333333
 43
0.0
 43
0.0
 43
0.0
 43
0.0
 43
0.0208333333333333
 43
0.0
 43
0.0
 43
0.0
 43
0.0
 43
1.0
 43
0.0
 43
0.0
 43
0.0
 43
0.0
 43
1.0
 77
     0
 47
0.0208333333333333
 47
0.0
 47
0.0
 47
0.0
 47
0.0
 47
0.0208333333333333
 47
0.0
 47
0.0
 47
0.0
 47
0.0
 47
1.0
 47
0.0
 47
0.0
 47
0.0
 47
0.0
 47
1.0
171
     0
 49
0.0208333333333333
 49
0.0
 49
0.0
 49
0.0
 49
0.0
 49
0.0208333333333333
 49
0.0
 49
0.0
 49
0.0
 49
0.0
 49
1.0
 49
0.0
 49
0.0
 49
0.0
 49
0.0
 49
1.0
175
     0
142
0.0208333333333333
142
0.0
142
0.0
142
0.0
142
0.0
142
0.0208333333333333
142
0.0
142
0.0
142
0.0
142
0.0
142
1.0
142
0.0
142
0.0
142
0.0
142
0.0
142
1.0
179
     0
144
0.0208333333333333
144
0.0
144
0.0
144
0.0
144
0.0
144
0.0208333333333333
144
0.0
144
0.0
144
0.0
144
0.0
144
1.0
144
0.0
144
0.0
144
0.0
144
0.0
144
1.0
147
0.0208333333333333
147
0.0
147
0.0
147
0.0
147
0.0
147
0.0208333333333333
147
0.0
147
0.0
147
0.0
147
0.0
147
1.0
147
0.0
147
0.0
147
0.0
147
0.0
147
1.0
  0
MATERIAL
  5
11
102
{ACAD_XDICTIONARY
360
12
102
}
102
{ACAD_REACTORS
330
10
102
}
330
10
100
AcDbMaterial
  1
ByLayer
 72
     0
 43
0.0208333333333333
 43
0.0
 43
0.0
 43
0.0
 43
0.0
 43
0.0208333333333333
 43
0.0
 43
0.0
 43
0.0
 43
0.0
 43
1.0
 43
0.0
 43
0.0
 43
0.0
 43
0.0
 43
1.0
 77
     0
 47
0.0208333333333333
 47
0.0
 47
0.0
 47
0.0
 47
0.0
 47
0.0208333333333333
 47
0.0
 47
0.0
 47
0.0
 47
0.0
 47
1.0
 47
0.0
 47
0.0
 47
0.0
 47
0.0
 47
1.0
171
     0
 49
0.0208333333333333
 49
0.0
 49
0.0
 49
0.0
 49
0.0
 49
0.0208333333333333
 49
0.0
 49
0.0
 49
0.0
 49
0.0
 49
1.0
 49
0.0
 49
0.0
 49
0.0
 49
0.0
 49
1.0
175
     0
142
0.0208333333333333
142
0.0
142
0.0
142
0.0
142
0.0
142
0.0208333333333333
142
0.0
142
0.0
142
0.0
142
0.0
142
1.0
142
0.0
142
0.0
142
0.0
142
0.0
142
1.0
179
     0
144
0.0208333333333333
144
0.0
144
0.0
144
0.0
144
0.0
144
0.0208333333333333
144
0.0
144
0.0
144
0.0
144
0.0
144
1.0
144
0.0
144
0.0
144
0.0
144
0.0
144
1.0
147
0.0208333333333333
147
0.0
147
0.0
147
0.0
147
0.0
147
0.0208333333333333
147
0.0
147
0.0
147
0.0
147
0.0
147
1.0
147
0.0
147
0.0
147
0.0
147
0.0
147
1.0
  0
MATERIAL
  5
21
102
{ACAD_XDICTIONARY
360
22
102
}
102
{ACAD_REACTORS
330
10
102
}
330
10
100
AcDbMaterial
  1
Global
 72
     0
 43
0.0208333333333333
 43
0.0
 43
0.0
 43
0.0
 43
0.0
 43
0.0208333333333333
 43
0.0
 43
0.0
 43
0.0
 43
0.0
 43
1.0
 43
0.0
 43
0.0
 43
0.0
 43
0.0
 43
1.0
 77
     0
 47
0.0208333333333333
 47
0.0
 47
0.0
 47
0.0
 47
0.0
 47
0.0208333333333333
 47
0.0
 47
0.0
 47
0.0
 47
0.0
 47
1.0
 47
0.0
 47
0.0
 47
0.0
 47
0.0
 47
1.0
171
     0
 49
0.0208333333333333
 49
0.0
 49
0.0
 49
0.0
 49
0.0
 49
0.0208333333333333
 49
0.0
 49
0.0
 49
0.0
 49
0.0
 49
1.0
 49
0.0
 49
0.0
 49
0.0
 49
0.0
 49
1.0
175
     0
142
0.0208333333333333
142
0.0
142
0.0
142
0.0
142
0.0
142
0.0208333333333333
142
0.0
142
0.0
142
0.0
142
0.0
142
1.0
142
0.0
142
0.0
142
0.0
142
0.0
142
1.0
179
     0
144
0.0208333333333333
144
0.0
144
0.0
144
0.0
144
0.0
144
0.0208333333333333
144
0.0
144
0.0
144
0.0
144
0.0
144
1.0
144
0.0
144
0.0
144
0.0
144
0.0
144
1.0
147
0.0208333333333333
147
0.0
147
0.0
147
0.0
147
0.0
147
0.0208333333333333
147
0.0
147
0.0
147
0.0
147
0.0
147
1.0
147
0.0
147
0.0
147
0.0
147
0.0
147
1.0
  0
MLEADERSTYLE
  5
67
102
{ACAD_REACTORS
330
66
102
}
330
66
100
AcDbMLeaderStyle
179
     2
170
     2
171
     1
172
     0
 90
        2
 40
0.0
 41
0.0
173
     1
 91
-1056964608
340
5B
 92
       -2
290
     1
 42
0.09
291
     1
 43
0.36
  3
Standard
 44
0.18
300

342
55
174
     1
178
     6
175
     1
176
     0
 93
-1056964608
 45
0.18
292
     0
297
     0
 46
0.18
 94
-1056964608
 47
1.0
 49
1.0
140
1.0
293
     1
141
0.0
294
     1
177
     0
142
1.0
295
     1
296
     0
143
0.125
271
     0
272
     9
273
     9
298
     1
  0
MLINESTYLE
  5
60
102
{ACAD_REACTORS
330
5F
102
}
330
5F
100
AcDbMlineStyle
  2
STANDARD
 70
     0
  3

 62
   256
 51
90.0
 52
90.0
 71
     2
 49
0.5
 62
   256
  6
BYLAYER
 49
-0.5
 62
   256
  6
BYLAYER
  0
ACDBPLACEHOLDER
  5
F
102
{ACAD_REACTORS
330
E
102
}
330
E
  0
SCALE
  5
43
102
{ACAD_REACTORS
330
42
102
}
330
42
100
AcDbScale
 70
     0
300
1:1
140
1.0
141
1.0
290
     1
  0
SCALE
  5
44
102
{ACAD_REACTORS
330
42
102
}
330
42
100
AcDbScale
 70
     0
300
1/128" = 1'-0"
140
0.0078125
141
12.0
290
     0
  0
SCALE
  5
45
102
{ACAD_REACTORS
330
42
102
}
330
42
100
AcDbScale
 70
     0
300
1/64" = 1'-0"
140
0.015625
141
12.0
290
     0
  0
SCALE
  5
46
102
{ACAD_REACTORS
330
42
102
}
330
42
100
AcDbScale
 70
     0
300
1/32" = 1'-0"
140
0.03125
141
12.0
290
     0
  0
SCALE
  5
47
102
{ACAD_REACTORS
330
42
102
}
330
42
100
AcDbScale
 70
     0
300
1/16" = 1'-0"
140
0.0625
141
12.0
290
     0
  0
SCALE
  5
48
102
{ACAD_REACTORS
330
42
102
}
330
42
100
AcDbScale
 70
     0
300
3/32" = 1'-0"
140
0.09375
141
12.0
290
     0
  0
SCALE
  5
49
102
{ACAD_REACTORS
330
42
102
}
330
42
100
AcDbScale
 70
     0
300
1/8" = 1'-0"
140
0.125
141
12.0
290
     0
  0
SCALE
  5
4A
102
{ACAD_REACTORS
330
42
102
}
330
42
100
AcDbScale
 70
     0
300
3/16" = 1'-0"
140
0.1875
141
12.0
290
     0
  0
SCALE
  5
4B
102
{ACAD_REACTORS
330
42
102
}
330
42
100
AcDbScale
 70
     0
300
1/4" = 1'-0"
140
0.25
141
12.0
290
     0
  0
SCALE
  5
4C
102
{ACAD_REACTORS
330
42
102
}
330
42
100
AcDbScale
 70
     0
300
3/8" = 1'-0"
140
0.375
141
12.0
290
     0
  0
SCALE
  5
4D
102
{ACAD_REACTORS
330
42
102
}
330
42
100
AcDbScale
 70
     0
300
1/2" = 1'-0"
140
0.5
141
12.0
290
     0
  0
SCALE
  5
4E
102
{ACAD_REACTORS
330
42
102
}
330
42
100
AcDbScale
 70
     0
300
3/4" = 1'-0"
140
0.75
141
12.0
290
     0
  0
SCALE
  5
4F
102
{ACAD_REACTORS
330
42
102
}
330
42
100
AcDbScale
 70
     0
300
1" = 1'-0"
140
1.0
141
12.0
290
     0
  0
SCALE
  5
50
102
{ACAD_REACTORS
330
42
102
}
330
42
100
AcDbScale
 70
     0
300
1-1/2" = 1'-0"
140
1.5
141
12.0
290
     0
  0
SCALE
  5
51
102
{ACAD_REACTORS
330
42
102
}
330
42
100
AcDbScale
 70
     0
300
3" = 1'-0"
140
3.0
141
12.0
290
     0
  0
SCALE
  5
52
102
{ACAD_REACTORS
330
42
102
}
330
42
100
AcDbScale
 70
     0
300
6" = 1'-0"
140
6.0
141
12.0
290
     0
  0
SCALE
  5
53
102
{ACAD_REACTORS
330
42
102
}
330
42
100
AcDbScale
 70
     0
300
1'-0" = 1'-0"
140
12.0
141
12.0
290
     0
  0
ACDBSECTIONVIEWSTYLE
  5
69
102
{ACAD_REACTORS
330
68
102
}
330
68
100
AcDbModelDocViewStyle
 70
     0
  3
Imperial24
290
     1
300
Imperial24
 90
        0
100
AcDbSectionViewStyle
 70
     0
 71
     0
 90
       78
 71
     1
340
55
 62
   256
 40
0.24
340
0
340
0
 62
   256
 40
0.24
300
I, O, Q, S, X, Z
 40
0.48
 90
        3
 40
0.18
 90
        1
 71
     2
340
5D
 90
       25
 62
   256
340
5D
 90
       50
 62
   256
 40
0.24
 40
0.0
 40
0.24
 71
     3
340
55
 62
   256
 40
0.24
 90
        1
 40
0.75
 90
        1
300
%<\AcVar ViewType \f "%tc1">% %<\AcVar ViewSectionStartId>%-%<\AcVar ViewSectionEndId>%\PSCALE %<\AcVar ViewScale \f "%sn">%
 71
     4
 62
   256
 62
   257
300
ANSI31
 40
1.0
 90
        0
290
     0
290
     0
 90
        6
 40
0.0
 40
1.570796326794896
 40
0.2617993877991494
 40
1.308996938995747
 40
-0.2617993877991494
 40
1.832595714594046
  0
TABLESTYLE
  5
65
102
{ACAD_XDICTIONARY
360
2F4
102
}
102
{ACAD_REACTORS
330
64
102
}
330
64
100
AcDbTableStyle
280
     0
  3
Standard
 70
     0
 71
     0
 40
0.06
 41
0.06
280
     0
281
     0
  7
Standard
140
0.18
170
     2
 62
     0
 63
     7
283
     0
 90
      512
 91
        0
  1

274
    -2
284
     1
 64
     0
275
    -2
285
     1
 65
     0
276
    -2
286
     1
 66
     0
277
    -2
287
     1
 67
     0
278
    -2
288
     1
 68
     0
279
    -2
289
     1
 69
     0
  7
Standard
140
0.25
170
     5
 62
     0
 63
     7
283
     0
 90
      512
 91
        0
  1

274
    -2
284
     1
 64
     0
275
    -2
285
     1
 65
     0
276
    -2
286
     1
 66
     0
277
    -2
287
     1
 67
     0
278
    -2
288
     1
 68
     0
279
    -2
289
     1
 69
     0
  7
Standard
140
0.18
170
     5
 62
     0
 63
     7
283
     0
 90
      512
 91
        0
  1

274
    -2
284
     1
 64
     0
275
    -2
285
     1
 65
     0
276
    -2
286
     1
 66
     0
277
    -2
287
     1
 67
     0
278
    -2
288
     1
 68
     0
279
    -2
289
     1
 69
     0
  0
VISUALSTYLE
  5
2F
102
{ACAD_REACTORS
330
29
102
}
330
29
100
AcDbVisualStyle
  2
2dWireframe
 70
     4
177
     3
291
     0
 70
    58
 90
        0
176
     1
 90
        2
176
     1
 90
        0
176
     1
 90
        0
176
     1
 40
0.6
176
     1
 40
30.0
176
     1
 62
     7
420
 16777215
176
     1
 90
        1
176
     1
 90
        4
176
     1
 62
     7
176
     1
 62
   257
176
     1
 90
        1
176
     1
 90
        1
176
     1
 40
1.0
176
     1
 90
        0
176
     1
 62
   257
176
     1
 40
1.0
176
     1
 90
        1
176
     1
 90
        6
176
     1
 90
        2
176
     1
 62
     7
176
     1
 90
        5
176
     1
 90
        0
176
     1
 90
        0
176
     1
290
     0
176
     1
 90
        1
176
     1
 40
0.0
176
     1
 90
        0
176
     1
290
     1
176
     1
290
     1
176
     1
290
     0
176
     1
290
     0
176
     1
290
     0
176
     1
290
     0
176
     1
290
     0
176
     1
290
     0
176
     1
290
     0
176
     1
 90
       50
176
     1
 40
0.0
176
     1
 40
1.0
176
     1
 90
        0
176
     1
 62
    18
420
        0
176
     1
 90
       50
176
     1
 90
        3
176
     1
 62
     5
420
      255
176
     1
290
     0
176
     1
 90
       50
176
     1
 90
       50
176
     1
 90
       50
176
     1
290
     0
176
     1
 90
       50
176
     1
 62
   256
176
     0
 40
1.0
176
     0
 90
        2
176
     1
  1
strokes_ogs.tif
176
     1
290
     0
176
     1
 40
1.0
176
     1
 40
1.0
176
     1
  0
VISUALSTYLE
  5
2E
102
{ACAD_REACTORS
330
29
102
}
330
29
100
AcDbVisualStyle
  2
Basic
 70
     7
177
     3
291
     1
 70
    58
 90
        1
176
     1
 90
        0
176
     1
 90
        1
176
     1
 90
        0
176
     1
 40
0.6
176
     1
 40
30.0
176
     1
 62
     7
420
 16777215
176
     1
 90
        0
176
     1
 90
        4
176
     1
 62
     7
176
     1
 62
   257
176
     1
 90
        1
176
     1
 90
        1
176
     1
 40
1.0
176
     1
 90
        8
176
     1
 62
     7
176
     1
 40
1.0
176
     1
 90
        1
176
     1
 90
        6
176
     1
 90
        2
176
     1
 62
     7
176
     1
 90
        5
176
     1
 90
        0
176
     1
 90
        0
176
     1
290
     0
176
     1
 90
        1
176
     1
 40
0.0
176
     1
 90
        0
176
     1
290
     0
176
     1
290
     1
176
     1
290
     1
176
     1
290
     0
176
     1
290
     0
176
     1
290
     0
176
     1
290
     0
176
     1
290
     0
176
     1
290
     0
176
     1
 90
       50
176
     1
 40
0.0
176
     1
 40
1.0
176
     1
 90
        0
176
     1
 62
    18
420
        0
176
     1
 90
       50
176
     1
 90
        3
176
     1
 62
     5
420
      255
176
     1
290
     0
176
     1
 90
       50
176
     1
 90
       50
176
     1
 90
       50
176
     1
290
     0
176
     1
 90
       50
176
     1
 62
   256
176
     0
 40
1.0
176
     0
 90
        2
176
     1
  1
strokes_ogs.tif
176
     1
290
     0
176
     1
 40
1.0
176
     1
 40
1.0
176
     1
  0
VISUALSTYLE
  5
35
102
{ACAD_REACTORS
330
29
102
}
330
29
100
AcDbVisualStyle
  2
Brighten
 70
    12
177
     3
291
     1
 70
    58
 90
        2
176
     1
 90
        2
176
     1
 90
        0
176
     1
 90
        0
176
     1
 40
0.6
176
     1
 40
30.0
176
     1
 62
     7
420
 16777215
176
     1
 90
        1
176
     1
 90
        4
176
     1
 62
     7
176
     1
 62
   257
176
     1
 90
        1
176
     1
 90
        1
176
     1
 40
1.0
176
     1
 90
        8
176
     1
 62
     7
176
     1
 40
1.0
176
     1
 90
        1
176
     1
 90
        6
176
     1
 90
        2
176
     1
 62
     7
176
     1
 90
        5
176
     1
 90
        0
176
     1
 90
        0
176
     1
290
     0
176
     1
 90
        1
176
     1
 40
50.0
176
     1
 90
        0
176
     1
290
     0
176
     1
290
     1
176
     1
290
     1
176
     1
290
     0
176
     1
290
     0
176
     1
290
     0
176
     1
290
     0
176
     1
290
     0
176
     1
290
     0
176
     1
 90
       50
176
     1
 40
0.0
176
     1
 40
1.0
176
     1
 90
        0
176
     1
 62
    18
420
        0
176
     1
 90
       50
176
     1
 90
        3
176
     1
 62
     5
420
      255
176
     1
290
     0
176
     1
 90
       50
176
     1
 90
       50
176
     1
 90
       50
176
     1
290
     0
176
     1
 90
       50
176
     1
 62
   256
176
     0
 40
1.0
176
     0
 90
        2
176
     1
  1
strokes_ogs.tif
176
     1
290
     0
176
     1
 40
1.0
176
     1
 40
1.0
176
     1
  0
VISUALSTYLE
  5
39
102
{ACAD_REACTORS
330
29
102
}
330
29
100
AcDbVisualStyle
  2
ColorChange
 70
    16
177
     3
291
     1
 70
    58
 90
        2
176
     1
 90
        2
176
     1
 90
        3
176
     1
 90
        0
176
     1
 40
0.6
176
     1
 40
30.0
176
     1
 62
     8
420
  8421504
176
     1
 90
        1
176
     1
 90
        4
176
     1
 62
     7
176
     1
 62
   257
176
     1
 90
        1
176
     1
 90
        1
176
     1
 40
1.0
176
     1
 90
        8
176
     1
 62
     8
420
  8421504
176
     1
 40
1.0
176
     1
 90
        1
176
     1
 90
        6
176
     1
 90
        2
176
     1
 62
     7
176
     1
 90
        5
176
     1
 90
        0
176
     1
 90
        0
176
     1
290
     0
176
     1
 90
        1
176
     1
 40
0.0
176
     1
 90
        0
176
     1
290
     0
176
     1
290
     1
176
     1
290
     1
176
     1
290
     0
176
     1
290
     0
176
     1
290
     0
176
     1
290
     0
176
     1
290
     0
176
     1
290
     0
176
     1
 90
       50
176
     1
 40
0.0
176
     1
 40
1.0
176
     1
 90
        0
176
     1
 62
    18
420
        0
176
     1
 90
       50
176
     1
 90
        3
176
     1
 62
     5
420
      255
176
     1
290
     0
176
     1
 90
       50
176
     1
 90
       50
176
     1
 90
       50
176
     1
290
     0
176
     1
 90
       50
176
     1
 62
   256
176
     0
 40
1.0
176
     0
 90
        2
176
     1
  1
strokes_ogs.tif
176
     1
290
     0
176
     1
 40
1.0
176
     1
 40
1.0
176
     1
  0
VISUALSTYLE
  5
32
102
{ACAD_REACTORS
330
29
102
}
330
29
100
AcDbVisualStyle
  2
Conceptual
 70
     9
177
     3
291
     0
 70
    58
 90
        3
176
     1
 90
        2
176
     1
 90
        0
176
     1
 90
        0
176
     1
 40
0.6
176
     1
 40
30.0
176
     1
 62
     7
420
 16777215
176
     1
 90
        2
176
     1
 90
        2
176
     1
 62
     7
176
     1
 62
   257
176
     1
 90
        1
176
     1
 90
        1
176
     1
 40
179.0
176
     1
 90
        8
176
     1
 62
     7
176
     1
 40
1.0
176
     1
 90
        1
176
     1
 90
        6
176
     1
 90
        2
176
     1
 62
     7
176
     1
 90
        3
176
     1
 90
        0
176
     1
 90
        0
176
     1
290
     0
176
     1
 90
        1
176
     1
 40
0.0
176
     1
 90
        0
176
     1
290
     0
176
     1
290
     1
176
     1
290
     1
176
     1
290
     0
176
     1
290
     0
176
     1
290
     0
176
     1
290
     0
176
     1
290
     0
176
     1
290
     0
176
     1
 90
       50
176
     1
 40
0.0
176
     1
 40
1.0
176
     1
 90
        0
176
     1
 62
    18
420
        0
176
     1
 90
       50
176
     1
 90
        3
176
     1
 62
     5
420
      255
176
     1
290
     0
176
     1
 90
       50
176
     1
 90
       50
176
     1
 90
       50
176
     1
290
     0
176
     1
 90
       50
176
     1
 62
   256
176
     0
 40
1.0
176
     0
 90
        2
176
     1
  1
strokes_ogs.tif
176
     1
290
     0
176
     1
 40
1.0
176
     1
 40
1.0
176
     1
  0
VISUALSTYLE
  5
34
102
{ACAD_REACTORS
330
29
102
}
330
29
100
AcDbVisualStyle
  2
Dim
 70
    11
177
     3
291
     1
 70
    58
 90
        2
176
     1
 90
        2
176
     1
 90
        0
176
     1
 90
        0
176
     1
 40
0.6
176
     1
 40
30.0
176
     1
 62
     7
420
 16777215
176
     1
 90
        1
176
     1
 90
        4
176
     1
 62
     7
176
     1
 62
   257
176
     1
 90
        1
176
     1
 90
        1
176
     1
 40
1.0
176
     1
 90
        8
176
     1
 62
     7
176
     1
 40
1.0
176
     1
 90
        1
176
     1
 90
        6
176
     1
 90
        2
176
     1
 62
     7
176
     1
 90
        5
176
     1
 90
        0
176
     1
 90
        0
176
     1
290
     0
176
     1
 90
        1
176
     1
 40
-50.0
176
     1
 90
        0
176
     1
290
     0
176
     1
290
     1
176
     1
290
     1
176
     1
290
     0
176
     1
290
     0
176
     1
290
     0
176
     1
290
     0
176
     1
290
     0
176
     1
290
     0
176
     1
 90
       50
176
     1
 40
0.0
176
     1
 40
1.0
176
     1
 90
        0
176
     1
 62
    18
420
        0
176
     1
 90
       50
176
     1
 90
        3
176
     1
 62
     5
420
      255
176
     1
290
     0
176
     1
 90
       50
176
     1
 90
       50
176
     1
 90
       50
176
     1
290
     0
176
     1
 90
       50
176
     1
 62
   256
176
     0
 40
1.0
176
     0
 90
        2
176
     1
  1
strokes_ogs.tif
176
     1
290
     0
176
     1
 40
1.0
176
     1
 40
1.0
176
     1
  0
VISUALSTYLE
  5
41
102
{ACAD_REACTORS
330
29
102
}
330
29
100
AcDbVisualStyle
  2
EdgeColorOff
 70
    22
177
     3
291
     1
 70
    58
 90
        2
176
     0
 90
        2
176
     0
 90
        0
176
     0
 90
        0
176
     0
 40
0.6
176
     0
 40
30.0
176
     0
 62
     7
420
 16777215
176
     0
 90
        1
176
     0
 90
        4
176
     0
 62
     7
176
     0
 62
   257
176
     0
 90
        1
176
     0
 90
        1
176
     0
 40
1.0
176
     0
 90
        8
176
     2
 62
     7
176
     0
 40
1.0
176
     0
 90
        1
176
     0
 90
        6
176
     0
 90
        2
176
     0
 62
     7
176
     0
 90
        5
176
     0
 90
        0
176
     0
 90
        0
176
     0
290
     0
176
     0
 90
        1
176
     0
 40
0.0
176
     0
 90
        0
176
     0
290
     0
176
     0
290
     1
176
     0
290
     1
176
     0
290
     0
176
     0
290
     0
176
     0
290
     0
176
     0
290
     0
176
     0
290
     0
176
     0
290
     0
176
     0
 90
       50
176
     0
 40
0.0
176
     0
 40
1.0
176
     0
 90
        0
176
     0
 62
    18
420
        0
176
     0
 90
       50
176
     0
 90
        3
176
     0
 62
     5
420
      255
176
     0
290
     0
176
     0
 90
       50
176
     0
 90
       50
176
     0
 90
       50
176
     0
290
     0
176
     0
 90
       50
176
     0
 62
   256
176
     0
 40
1.0
176
     0
 90
        2
176
     0
  1
strokes_ogs.tif
176
     0
290
     0
176
     0
 40
1.0
176
     0
 40
1.0
176
     0
  0
VISUALSTYLE
  5
38
102
{ACAD_REACTORS
330
29
102
}
330
29
100
AcDbVisualStyle
  2
Facepattern
 70
    15
177
     3
291
     1
 70
    58
 90
        2
176
     1
 90
        2
176
     1
 90
        0
176
     1
 90
        0
176
     1
 40
0.6
176
     1
 40
30.0
176
     1
 62
     7
420
 16777215
176
     1
 90
        1
176
     1
 90
        4
176
     1
 62
     7
176
     1
 62
   257
176
     1
 90
        1
176
     1
 90
        1
176
     1
 40
1.0
176
     1
 90
        8
176
     1
 62
     7
176
     1
 40
1.0
176
     1
 90
        1
176
     1
 90
        6
176
     1
 90
        2
176
     1
 62
     7
176
     1
 90
        5
176
     1
 90
        0
176
     1
 90
        0
176
     1
290
     0
176
     1
 90
        1
176
     1
 40
0.0
176
     1
 90
        0
176
     1
290
     0
176
     1
290
     1
176
     1
290
     1
176
     1
290
     0
176
     1
290
     0
176
     1
290
     0
176
     1
290
     0
176
     1
290
     0
176
     1
290
     0
176
     1
 90
       50
176
     1
 40
0.0
176
     1
 40
1.0
176
     1
 90
        0
176
     1
 62
    18
420
        0
176
     1
 90
       50
176
     1
 90
        3
176
     1
 62
     5
420
      255
176
     1
290
     0
176
     1
 90
       50
176
     1
 90
       50
176
     1
 90
       50
176
     1
290
     0
176
     1
 90
       50
176
     1
 62
   256
176
     0
 40
1.0
176
     0
 90
        2
176
     1
  1
strokes_ogs.tif
176
     1
290
     0
176
     1
 40
1.0
176
     1
 40
1.0
176
     1
  0
VISUALSTYLE
  5
2A
102
{ACAD_REACTORS
330
29
102
}
330
29
100
AcDbVisualStyle
  2
Flat
 70
     0
177
     3
291
     1
 70
    58
 90
        2
176
     1
 90
        1
176
     1
 90
        1
176
     1
 90
        2
176
     1
 40
0.6
176
     1
 40
30.0
176
     1
 62
     7
420
 16777215
176
     1
 90
        0
176
     1
 90
        0
176
     1
 62
     7
176
     1
 62
   257
176
     1
 90
        1
176
     1
 90
        1
176
     1
 40
1.0
176
     1
 90
        8
176
     1
 62
     7
176
     1
 40
1.0
176
     1
 90
        1
176
     1
 90
        6
176
     1
 90
        2
176
     1
 62
     7
176
     1
 90
        5
176
     1
 90
        0
176
     1
 90
        0
176
     1
290
     0
176
     1
 90
       13
176
     1
 40
0.0
176
     1
 90
        0
176
     1
290
     0
176
     1
290
     1
176
     1
290
     1
176
     1
290
     0
176
     1
290
     0
176
     1
290
     0
176
     1
290
     0
176
     1
290
     0
176
     1
290
     0
176
     1
 90
       50
176
     1
 40
0.0
176
     1
 40
1.0
176
     1
 90
        0
176
     1
 62
    18
420
        0
176
     1
 90
       50
176
     1
 90
        3
176
     1
 62
     5
420
      255
176
     1
290
     0
176
     1
 90
       50
176
     1
 90
       50
176
     1
 90
       50
176
     1
290
     0
176
     1
 90
       50
176
     1
 62
   256
176
     0
 40
1.0
176
     0
 90
        2
176
     1
  1
strokes_ogs.tif
176
     1
290
     0
176
     1
 40
1.0
176
     1
 40
1.0
176
     1
  0
VISUALSTYLE
  5
2B
102
{ACAD_REACTORS
330
29
102
}
330
29
100
AcDbVisualStyle
  2
FlatWithEdges
 70
     1
177
     3
291
     1
 70
    58
 90
        2
176
     1
 90
        1
176
     1
 90
        1
176
     1
 90
        2
176
     1
 40
0.6
176
     1
 40
30.0
176
     1
 62
     7
420
 16777215
176
     1
 90
        1
176
     1
 90
        0
176
     1
 62
     7
176
     1
 62
   257
176
     1
 90
        1
176
     1
 90
        1
176
     1
 40
1.0
176
     1
 90
        0
176
     1
 62
   257
176
     1
 40
1.0
176
     1
 90
        1
176
     1
 90
        6
176
     1
 90
        2
176
     1
 62
     7
176
     1
 90
        5
176
     1
 90
        0
176
     1
 90
        0
176
     1
290
     0
176
     1
 90
       13
176
     1
 40
0.0
176
     1
 90
        0
176
     1
290
     0
176
     1
290
     1
176
     1
290
     1
176
     1
290
     0
176
     1
290
     0
176
     1
290
     0
176
     1
290
     0
176
     1
290
     0
176
     1
290
     0
176
     1
 90
       50
176
     1
 40
0.0
176
     1
 40
1.0
176
     1
 90
        0
176
     1
 62
    18
420
        0
176
     1
 90
       50
176
     1
 90
        3
176
     1
 62
     5
420
      255
176
     1
290
     0
176
     1
 90
       50
176
     1
 90
       50
176
     1
 90
       50
176
     1
290
     0
176
     1
 90
       50
176
     1
 62
   256
176
     0
 40
1.0
176
     0
 90
        2
176
     1
  1
strokes_ogs.tif
176
     1
290
     0
176
     1
 40
1.0
176
     1
 40
1.0
176
     1
  0
VISUALSTYLE
  5
2C
102
{ACAD_REACTORS
330
29
102
}
330
29
100
AcDbVisualStyle
  2
Gouraud
 70
     2
177
     3
291
     1
 70
    58
 90
        2
176
     1
 90
        2
176
     1
 90
        1
176
     1
 90
        2
176
     1
 40
0.6
176
     1
 40
30.0
176
     1
 62
     7
420
 16777215
176
     1
 90
        0
176
     1
 90
        0
176
     1
 62
     7
176
     1
 62
   257
176
     1
 90
        1
176
     1
 90
        1
176
     1
 40
1.0
176
     1
 90
        0
176
     1
 62
     7
176
     1
 40
1.0
176
     1
 90
        1
176
     1
 90
        6
176
     1
 90
        2
176
     1
 62
     7
176
     1
 90
        5
176
     1
 90
        0
176
     1
 90
        0
176
     1
290
     0
176
     1
 90
       13
176
     1
 40
0.0
176
     1
 90
        0
176
     1
290
     0
176
     1
290
     1
176
     1
290
     1
176
     1
290
     0
176
     1
290
     0
176
     1
290
     0
176
     1
290
     0
176
     1
290
     0
176
     1
290
     0
176
     1
 90
       50
176
     1
 40
0.0
176
     1
 40
1.0
176
     1
 90
        0
176
     1
 62
    18
420
        0
176
     1
 90
       50
176
     1
 90
        3
176
     1
 62
     5
420
      255
176
     1
290
     0
176
     1
 90
       50
176
     1
 90
       50
176
     1
 90
       50
176
     1
290
     0
176
     1
 90
       50
176
     1
 62
   256
176
     0
 40
1.0
176
     0
 90
        2
176
     1
  1
strokes_ogs.tif
176
     1
290
     0
176
     1
 40
1.0
176
     1
 40
1.0
176
     1
  0
VISUALSTYLE
  5
2D
102
{ACAD_REACTORS
330
29
102
}
330
29
100
AcDbVisualStyle
  2
GouraudWithEdges
 70
     3
177
     3
291
     1
 70
    58
 90
        2
176
     1
 90
        2
176
     1
 90
        1
176
     1
 90
        2
176
     1
 40
0.6
176
     1
 40
30.0
176
     1
 62
     7
420
 16777215
176
     1
 90
        1
176
     1
 90
        0
176
     1
 62
     7
176
     1
 62
   257
176
     1
 90
        1
176
     1
 90
        1
176
     1
 40
1.0
176
     1
 90
        0
176
     1
 62
   257
176
     1
 40
1.0
176
     1
 90
        1
176
     1
 90
        6
176
     1
 90
        2
176
     1
 62
     7
176
     1
 90
        5
176
     1
 90
        0
176
     1
 90
        0
176
     1
290
     0
176
     1
 90
       13
176
     1
 40
0.0
176
     1
 90
        0
176
     1
290
     0
176
     1
290
     1
176
     1
290
     1
176
     1
290
     0
176
     1
290
     0
176
     1
290
     0
176
     1
290
     0
176
     1
290
     0
176
     1
290
     0
176
     1
 90
       50
176
     1
 40
0.0
176
     1
 40
1.0
176
     1
 90
        0
176
     1
 62
    18
420
        0
176
     1
 90
       50
176
     1
 90
        3
176
     1
 62
     5
420
      255
176
     1
290
     0
176
     1
 90
       50
176
     1
 90
       50
176
     1
 90
       50
176
     1
290
     0
176
     1
 90
       50
176
     1
 62
   256
176
     0
 40
1.0
176
     0
 90
        2
176
     1
  1
strokes_ogs.tif
176
     1
290
     0
176
     1
 40
1.0
176
     1
 40
1.0
176
     1
  0
VISUALSTYLE
  5
31
102
{ACAD_REACTORS
330
29
102
}
330
29
100
AcDbVisualStyle
  2
Hidden
 70
     6
177
     3
291
     0
 70
    58
 90
        1
176
     1
 90
        2
176
     1
 90
        2
176
     1
 90
        0
176
     1
 40
0.6
176
     1
 40
30.0
176
     1
 62
     7
420
 16777215
176
     1
 90
        2
176
     1
 90
        2
176
     1
 62
     7
176
     1
 62
   257
176
     1
 90
        2
176
     1
 90
        1
176
     1
 40
40.0
176
     1
 90
        0
176
     1
 62
   257
176
     1
 40
1.0
176
     1
 90
        1
176
     1
 90
        6
176
     1
 90
        2
176
     1
 62
     7
176
     1
 90
        3
176
     1
 90
        0
176
     1
 90
        0
176
     1
290
     0
176
     1
 90
        1
176
     1
 40
0.0
176
     1
 90
        0
176
     1
290
     0
176
     1
290
     1
176
     1
290
     1
176
     1
290
     0
176
     1
290
     0
176
     1
290
     0
176
     1
290
     0
176
     1
290
     0
176
     1
290
     0
176
     1
 90
       50
176
     1
 40
0.0
176
     1
 40
1.0
176
     1
 90
        0
176
     1
 62
    18
420
        0
176
     1
 90
       50
176
     1
 90
        3
176
     1
 62
     5
420
      255
176
     1
290
     0
176
     1
 90
       50
176
     1
 90
       50
176
     1
 90
       50
176
     1
290
     0
176
     1
 90
       50
176
     1
 62
   256
176
     0
 40
1.0
176
     0
 90
        2
176
     1
  1
strokes_ogs.tif
176
     1
290
     0
176
     1
 40
1.0
176
     1
 40
1.0
176
     1
  0
VISUALSTYLE
  5
3F
102
{ACAD_REACTORS
330
29
102
}
330
29
100
AcDbVisualStyle
  2
JitterOff
 70
    20
177
     3
291
     1
 70
    58
 90
        2
176
     0
 90
        2
176
     0
 90
        0
176
     0
 90
        0
176
     0
 40
0.6
176
     0
 40
30.0
176
     0
 62
     7
420
 16777215
176
     0
 90
        1
176
     0
 90
        4
176
     0
 62
     7
176
     0
 62
   257
176
     0
 90
        1
176
     0
 90
        1
176
     0
 40
1.0
176
     0
 90
       10
176
     2
 62
     7
176
     0
 40
1.0
176
     0
 90
        1
176
     0
 90
        6
176
     0
 90
        2
176
     0
 62
     7
176
     0
 90
        5
176
     0
 90
        0
176
     0
 90
        0
176
     0
290
     0
176
     0
 90
        1
176
     0
 40
0.0
176
     0
 90
        0
176
     0
290
     0
176
     0
290
     1
176
     0
290
     1
176
     0
290
     0
176
     0
290
     0
176
     0
290
     0
176
     0
290
     0
176
     0
290
     0
176
     0
290
     0
176
     0
 90
       50
176
     0
 40
0.0
176
     0
 40
1.0
176
     0
 90
        0
176
     0
 62
    18
420
        0
176
     0
 90
       50
176
     0
 90
        3
176
     0
 62
     5
420
      255
176
     0
290
     0
176
     0
 90
       50
176
     0
 90
       50
176
     0
 90
       50
176
     0
290
     0
176
     0
 90
       50
176
     0
 62
   256
176
     0
 40
1.0
176
     0
 90
        2
176
     0
  1
strokes_ogs.tif
176
     0
290
     0
176
     0
 40
1.0
176
     0
 40
1.0
176
     0
  0
VISUALSTYLE
  5
37
102
{ACAD_REACTORS
330
29
102
}
330
29
100
AcDbVisualStyle
  2
Linepattern
 70
    14
177
     3
291
     1
 70
    58
 90
        2
176
     1
 90
        2
176
     1
 90
        0
176
     1
 90
        0
176
     1
 40
0.6
176
     1
 40
30.0
176
     1
 62
     7
420
 16777215
176
     1
 90
        1
176
     1
 90
        4
176
     1
 62
     7
176
     1
 62
   257
176
     1
 90
        7
176
     1
 90
        7
176
     1
 40
1.0
176
     1
 90
        8
176
     1
 62
     7
176
     1
 40
1.0
176
     1
 90
        1
176
     1
 90
        6
176
     1
 90
        2
176
     1
 62
     7
176
     1
 90
        5
176
     1
 90
        0
176
     1
 90
        0
176
     1
290
     0
176
     1
 90
        1
176
     1
 40
0.0
176
     1
 90
        0
176
     1
290
     0
176
     1
290
     1
176
     1
290
     1
176
     1
290
     0
176
     1
290
     0
176
     1
290
     0
176
     1
290
     0
176
     1
290
     0
176
     1
290
     0
176
     1
 90
       50
176
     1
 40
0.0
176
     1
 40
1.0
176
     1
 90
        0
176
     1
 62
    18
420
        0
176
     1
 90
       50
176
     1
 90
        3
176
     1
 62
     5
420
      255
176
     1
290
     0
176
     1
 90
       50
176
     1
 90
       50
176
     1
 90
       50
176
     1
290
     0
176
     1
 90
       50
176
     1
 62
   256
176
     0
 40
1.0
176
     0
 90
        2
176
     1
  1
strokes_ogs.tif
176
     1
290
     0
176
     1
 40
1.0
176
     1
 40
1.0
176
     1
  0
VISUALSTYLE
  5
40
102
{ACAD_REACTORS
330
29
102
}
330
29
100
AcDbVisualStyle
  2
OverhangOff
 70
    21
177
     3
291
     1
 70
    58
 90
        2
176
     0
 90
        2
176
     0
 90
        0
176
     0
 90
        0
176
     0
 40
0.6
176
     0
 40
30.0
176
     0
 62
     7
420
 16777215
176
     0
 90
        1
176
     0
 90
        4
176
     0
 62
     7
176
     0
 62
   257
176
     0
 90
        1
176
     0
 90
        1
176
     0
 40
1.0
176
     0
 90
        9
176
     2
 62
     7
176
     0
 40
1.0
176
     0
 90
        1
176
     0
 90
        6
176
     0
 90
        2
176
     0
 62
     7
176
     0
 90
        5
176
     0
 90
        0
176
     0
 90
        0
176
     0
290
     0
176
     0
 90
        1
176
     0
 40
0.0
176
     0
 90
        0
176
     0
290
     0
176
     0
290
     1
176
     0
290
     1
176
     0
290
     0
176
     0
290
     0
176
     0
290
     0
176
     0
290
     0
176
     0
290
     0
176
     0
290
     0
176
     0
 90
       50
176
     0
 40
0.0
176
     0
 40
1.0
176
     0
 90
        0
176
     0
 62
    18
420
        0
176
     0
 90
       50
176
     0
 90
        3
176
     0
 62
     5
420
      255
176
     0
290
     0
176
     0
 90
       50
176
     0
 90
       50
176
     0
 90
       50
176
     0
290
     0
176
     0
 90
       50
176
     0
 62
   256
176
     0
 40
1.0
176
     0
 90
        2
176
     0
  1
strokes_ogs.tif
176
     0
290
     0
176
     0
 40
1.0
176
     0
 40
1.0
176
     0
  0
VISUALSTYLE
  5
33
102
{ACAD_REACTORS
330
29
102
}
330
29
100
AcDbVisualStyle
  2
Realistic
 70
     8
177
     3
291
     0
 70
    58
 90
        2
176
     1
 90
        3
176
     1
 90
        0
176
     1
 90
        2
176
     1
 40
0.6
176
     1
 40
30.0
176
     1
 62
     7
420
 16777215
176
     1
 90
        0
176
     1
 90
        0
176
     1
 62
     7
176
     1
 62
   257
176
     1
 90
        1
176
     1
 90
        1
176
     1
 40
1.0
176
     1
 90
        8
176
     1
 62
   257
176
     1
 40
1.0
176
     1
 90
        1
176
     1
 90
        6
176
     1
 90
        2
176
     1
 62
     7
176
     1
 90
        3
176
     1
 90
        0
176
     1
 90
        0
176
     1
290
     0
176
     1
 90
       13
176
     1
 40
0.0
176
     1
 90
        0
176
     1
290
     0
176
     1
290
     1
176
     1
290
     1
176
     1
290
     0
176
     1
290
     0
176
     1
290
     0
176
     1
290
     0
176
     1
290
     0
176
     1
290
     0
176
     1
 90
       50
176
     1
 40
0.0
176
     1
 40
1.0
176
     1
 90
        0
176
     1
 62
    18
420
        0
176
     1
 90
       50
176
     1
 90
        3
176
     1
 62
     5
420
      255
176
     1
290
     0
176
     1
 90
       50
176
     1
 90
       50
176
     1
 90
       50
176
     1
290
     0
176
     1
 90
       50
176
     1
 62
   256
176
     0
 40
1.0
176
     0
 90
        2
176
     1
  1
strokes_ogs.tif
176
     1
290
     0
176
     1
 40
1.0
176
     1
 40
1.0
176
     1
  0
VISUALSTYLE
  5
3E
102
{ACAD_REACTORS
330
29
102
}
330
29
100
AcDbVisualStyle
  2
Shaded
 70
    27
177
     3
291
     0
 70
    58
 90
        2
176
     1
 90
        2
176
     1
 90
        1
176
     1
 90
        2
176
     1
 40
0.6
176
     1
 40
30.0
176
     1
 62
     7
420
 16777215
176
     1
 90
        0
176
     1
 90
        4
176
     1
 62
     7
176
     1
 62
   257
176
     1
 90
        1
176
     1
 90
        1
176
     1
 40
1.0
176
     1
 90
        8
176
     1
 62
   257
176
     1
 40
1.0
176
     1
 90
        1
176
     1
 90
        6
176
     1
 90
        2
176
     1
 62
     8
420
  7895160
176
     1
 90
        3
176
     1
 90
        0
176
     1
 90
        0
176
     1
290
     0
176
     1
 90
        5
176
     1
 40
0.0
176
     1
 90
        0
176
     1
290
     0
176
     1
290
     1
176
     1
290
     1
176
     1
290
     0
176
     1
290
     0
176
     1
290
     0
176
     1
290
     0
176
     1
290
     0
176
     1
290
     0
176
     1
 90
       50
176
     1
 40
0.0
176
     1
 40
1.0
176
     1
 90
        0
176
     1
 62
    18
420
        0
176
     1
 90
       50
176
     1
 90
        3
176
     1
 62
     5
420
      255
176
     1
290
     0
176
     1
 90
       50
176
     1
 90
       50
176
     1
 90
       50
176
     1
290
     0
176
     1
 90
       50
176
     1
 62
   256
176
     0
 40
1.0
176
     0
 90
        2
176
     1
  1
strokes_ogs.tif
176
     1
290
     0
176
     1
 40
1.0
176
     1
 40
1.0
176
     1
  0
VISUALSTYLE
  5
3D
102
{ACAD_REACTORS
330
29
102
}
330
29
100
AcDbVisualStyle
  2
Shaded with edges
 70
    26
177
     3
291
     0
 70
    58
 90
        2
176
     1
 90
        2
176
     1
 90
        1
176
     1
 90
        2
176
     1
 40
0.6
176
     1
 40
30.0
176
     1
 62
     7
420
 16777215
176
     1
 90
        1
176
     1
 90
        2
176
     1
 62
     7
176
     1
 62
   257
176
     1
 90
        2
176
     1
 90
        1
176
     1
 40
1.0
176
     1
 90
        8
176
     1
 62
   257
176
     1
 40
1.0
176
     1
 90
        1
176
     1
 90
        6
176
     1
 90
        2
176
     1
 62
     7
176
     1
 90
        3
176
     1
 90
        0
176
     1
 90
        0
176
     1
290
     0
176
     1
 90
        5
176
     1
 40
0.0
176
     1
 90
        0
176
     1
290
     0
176
     1
290
     1
176
     1
290
     1
176
     1
290
     0
176
     1
290
     0
176
     1
290
     0
176
     1
290
     0
176
     1
290
     0
176
     1
290
     0
176
     1
 90
       50
176
     1
 40
0.0
176
     1
 40
1.0
176
     1
 90
        0
176
     1
 62
    18
420
        0
176
     1
 90
       50
176
     1
 90
        3
176
     1
 62
     5
420
      255
176
     1
290
     0
176
     1
 90
       50
176
     1
 90
       50
176
     1
 90
       50
176
     1
290
     0
176
     1
 90
       50
176
     1
 62
   256
176
     0
 40
1.0
176
     0
 90
        2
176
     1
  1
strokes_ogs.tif
176
     1
290
     0
176
     1
 40
1.0
176
     1
 40
1.0
176
     1
  0
VISUALSTYLE
  5
3A
102
{ACAD_REACTORS
330
29
102
}
330
29
100
AcDbVisualStyle
  2
Shades of Gray
 70
    23
177
     3
291
     0
 70
    58
 90
        2
176
     1
 90
        2
176
     1
 90
        3
176
     1
 90
        0
176
     1
 40
0.6
176
     1
 40
30.0
176
     1
 62
     7
420
 16777215
176
     1
 90
        2
176
     1
 90
        2
176
     1
 62
     7
176
     1
 62
     7
176
     1
 90
        1
176
     1
 90
        1
176
     1
 40
40.0
176
     1
 90
        8
176
     1
 62
     7
176
     1
 40
1.0
176
     1
 90
        1
176
     1
 90
        6
176
     1
 90
        2
176
     1
 62
     7
176
     1
 90
        3
176
     1
 90
        0
176
     1
 90
        0
176
     1
290
     0
176
     1
 90
        1
176
     1
 40
0.0
176
     1
 90
        0
176
     1
290
     0
176
     1
290
     1
176
     1
290
     1
176
     1
290
     0
176
     1
290
     0
176
     1
290
     0
176
     1
290
     0
176
     1
290
     0
176
     1
290
     0
176
     1
 90
       50
176
     1
 40
0.0
176
     1
 40
1.0
176
     1
 90
        0
176
     1
 62
    18
420
        0
176
     1
 90
       50
176
     1
 90
        3
176
     1
 62
     5
420
      255
176
     1
290
     0
176
     1
 90
       50
176
     1
 90
       50
176
     1
 90
       50
176
     1
290
     0
176
     1
 90
       50
176
     1
 62
   256
176
     0
 40
1.0
176
     0
 90
        2
176
     1
  1
strokes_ogs.tif
176
     1
290
     0
176
     1
 40
1.0
176
     1
 40
1.0
176
     1
  0
VISUALSTYLE
  5
3B
102
{ACAD_REACTORS
330
29
102
}
330
29
100
AcDbVisualStyle
  2
Sketchy
 70
    24
177
     3
291
     0
 70
    58
 90
        1
176
     1
 90
        2
176
     1
 90
        2
176
     1
 90
        0
176
     1
 40
0.6
176
     1
 40
30.0
176
     1
 62
     7
420
 16777215
176
     1
 90
        2
176
     1
 90
        2
176
     1
 62
     7
176
     1
 62
     7
176
     1
 90
        1
176
     1
 90
        1
176
     1
 40
40.0
176
     1
 90
       11
176
     1
 62
     7
176
     1
 40
1.0
176
     1
 90
        1
176
     1
 90
        6
176
     1
 90
        2
176
     1
 62
     7
176
     1
 90
        6
176
     1
 90
        0
176
     1
 90
        0
176
     1
290
     0
176
     1
 90
        1
176
     1
 40
0.0
176
     1
 90
        0
176
     1
290
     0
176
     1
290
     1
176
     1
290
     1
176
     1
290
     0
176
     1
290
     0
176
     1
290
     0
176
     1
290
     0
176
     1
290
     0
176
     1
290
     0
176
     1
 90
       50
176
     1
 40
0.0
176
     1
 40
1.0
176
     1
 90
        0
176
     1
 62
    18
420
        0
176
     1
 90
       50
176
     1
 90
        3
176
     1
 62
     5
420
      255
176
     1
290
     0
176
     1
 90
       50
176
     1
 90
       50
176
     1
 90
       50
176
     1
290
     0
176
     1
 90
       50
176
     1
 62
   256
176
     0
 40
1.0
176
     0
 90
        2
176
     1
  1
strokes_ogs.tif
176
     1
290
     0
176
     1
 40
1.0
176
     1
 40
1.0
176
     1
  0
VISUALSTYLE
  5
36
102
{ACAD_REACTORS
330
29
102
}
330
29
100
AcDbVisualStyle
  2
Thicken
 70
    13
177
     3
291
     1
 70
    58
 90
        2
176
     1
 90
        2
176
     1
 90
        0
176
     1
 90
        0
176
     1
 40
0.6
176
     1
 40
30.0
176
     1
 62
     7
420
 16777215
176
     1
 90
        1
176
     1
 90
        4
176
     1
 62
     7
176
     1
 62
   257
176
     1
 90
        1
176
     1
 90
        1
176
     1
 40
1.0
176
     1
 90
       12
176
     1
 62
     7
176
     1
 40
1.0
176
     1
 90
        1
176
     1
 90
        6
176
     1
 90
        2
176
     1
 62
     7
176
     1
 90
        5
176
     1
 90
        0
176
     1
 90
        0
176
     1
290
     0
176
     1
 90
        1
176
     1
 40
0.0
176
     1
 90
        0
176
     1
290
     0
176
     1
290
     1
176
     1
290
     1
176
     1
290
     0
176
     1
290
     0
176
     1
290
     0
176
     1
290
     0
176
     1
290
     0
176
     1
290
     0
176
     1
 90
       50
176
     1
 40
0.0
176
     1
 40
1.0
176
     1
 90
        0
176
     1
 62
    18
420
        0
176
     1
 90
       50
176
     1
 90
        3
176
     1
 62
     5
420
      255
176
     1
290
     0
176
     1
 90
       50
176
     1
 90
       50
176
     1
 90
       50
176
     1
290
     0
176
     1
 90
       50
176
     1
 62
   256
176
     0
 40
1.0
176
     0
 90
        2
176
     1
  1
strokes_ogs.tif
176
     1
290
     0
176
     1
 40
1.0
176
     1
 40
1.0
176
     1
  0
VISUALSTYLE
  5
30
102
{ACAD_REACTORS
330
29
102
}
330
29
100
AcDbVisualStyle
  2
Wireframe
 70
     5
177
     3
291
     0
 70
    58
 90
        0
176
     1
 90
        2
176
     1
 90
        0
176
     1
 90
        0
176
     1
 40
0.6
176
     1
 40
30.0
176
     1
 62
     7
420
 16777215
176
     1
 90
        1
176
     1
 90
        4
176
     1
 62
     7
176
     1
 62
   257
176
     1
 90
        1
176
     1
 90
        1
176
     1
 40
1.0
176
     1
 90
        0
176
     1
 62
   257
176
     1
 40
1.0
176
     1
 90
        1
176
     1
 90
        6
176
     1
 90
        2
176
     1
 62
     7
176
     1
 90
        3
176
     1
 90
        0
176
     1
 90
        0
176
     1
290
     0
176
     1
 90
        1
176
     1
 40
0.0
176
     1
 90
        0
176
     1
290
     0
176
     1
290
     1
176
     1
290
     1
176
     1
290
     0
176
     1
290
     0
176
     1
290
     0
176
     1
290
     0
176
     1
290
     0
176
     1
290
     0
176
     1
 90
       50
176
     1
 40
0.0
176
     1
 40
1.0
176
     1
 90
        0
176
     1
 62
    18
420
        0
176
     1
 90
       50
176
     1
 90
        3
176
     1
 62
     5
420
      255
176
     1
290
     0
176
     1
 90
       50
176
     1
 90
       50
176
     1
 90
       50
176
     1
290
     0
176
     1
 90
       50
176
     1
 62
   256
176
     0
 40
1.0
176
     0
 90
        2
176
     1
  1
strokes_ogs.tif
176
     1
290
     0
176
     1
 40
1.0
176
     1
 40
1.0
176
     1
  0
VISUALSTYLE
  5
3C
102
{ACAD_REACTORS
330
29
102
}
330
29
100
AcDbVisualStyle
  2
X-Ray
 70
    25
177
     3
291
     0
 70
    58
 90
        2
176
     1
 90
        2
176
     1
 90
        1
176
     1
 90
        1
176
     1
 40
0.5
176
     1
 40
30.0
176
     1
 62
     7
420
 16777215
176
     1
 90
        1
176
     1
 90
        0
176
     1
 62
     7
176
     1
 62
   257
176
     1
 90
        1
176
     1
 90
        1
176
     1
 40
1.0
176
     1
 90
        8
176
     1
 62
     7
176
     1
 40
1.0
176
     1
 90
        1
176
     1
 90
        6
176
     1
 90
        2
176
     1
 62
     7
176
     1
 90
        3
176
     1
 90
        0
176
     1
 90
        0
176
     1
290
     0
176
     1
 90
       13
176
     1
 40
0.0
176
     1
 90
        0
176
     1
290
     0
176
     1
290
     1
176
     1
290
     1
176
     1
290
     0
176
     1
290
     0
176
     1
290
     0
176
     1
290
     0
176
     1
290
     0
176
     1
290
     0
176
     1
 90
       50
176
     1
 40
0.0
176
     1
 40
1.0
176
     1
 90
        0
176
     1
 62
    18
420
        0
176
     1
 90
       50
176
     1
 90
        3
176
     1
 62
     5
420
      255
176
     1
290
     0
176
     1
 90
       50
176
     1
 90
       50
176
     1
 90
       50
176
     1
290
     0
176
     1
 90
       50
176
     1
 62
   256
176
     0
 40
1.0
176
     0
 90
        2
176
     1
  1
strokes_ogs.tif
176
     1
290
     0
176
     1
 40
1.0
176
     1
 40
1.0
176
     1
  0
DICTIONARYVAR
  5
80
102
{ACAD_REACTORS
330
7B
102
}
330
7B
100
DictionaryVariables
280
     0
  1
1:1
  0
DICTIONARYVAR
  5
7D
102
{ACAD_REACTORS
330
7B
102
}
330
7B
100
DictionaryVariables
280
     0
  1
STANDARD
  0
DICTIONARYVAR
  5
7C
102
{ACAD_REACTORS
330
7B
102
}
330
7B
100
DictionaryVariables
280
     0
  1
STANDARD
  0
DICTIONARYVAR
  5
7E
102
{ACAD_REACTORS
330
7B
102
}
330
7B
100
DictionaryVariables
280
     0
  1
Imperial24
  0
DICTIONARYVAR
  5
7F
102
{ACAD_REACTORS
330
7B
102
}
330
7B
100
DictionaryVariables
280
     0
  1
Imperial24
  0
XRECORD
  5
2F1
102
{ACAD_REACTORS
330
2EB
102
}
330
2EB
100
AcDbXrecord
280
     1
  1
BUILDING_ID
  1
ARQ_CASA_REC
  1
FLOOR_ID
  1
7044495
  0
XRECORD
  5
2EF
102
{ACAD_REACTORS
330
2EB
102
}
330
2EB
100
AcDbXrecord
280
     1
  1
-2000011
  1
Walls
  1
-2000023
  1
Doors
  1
-2000032
  1
Floors
  1
-2000051
  1
Lines
  1
-2000151
  1
Generic Models
  1
-2000260
  1
Dimensions
  1
-2000300
  1
Text Notes
  1
-2001000
  1
Casework
  1
-2001140
  1
Mechanical Equipment
  0
XRECORD
  5
2EC
102
{ACAD_REACTORS
330
2EB
102
}
330
2EB
100
AcDbXrecord
280
     1
  1
51f85a71-6bcb-4925-adda-19445f7bcfaa
  0
XRECORD
  5
2F0
102
{ACAD_REACTORS
330
2EB
102
}
330
2EB
100
AcDbXrecord
280
     1
  1
-2000541
  1
Surface Pattern
  1
-2000586
  1
Common Edges
  1
-2009501
  1
<Hidden Lines>
  1
-2009520
  1
<Hidden Lines>
  1
1637512
  1
X-PLANO1
  1
6931664
  1
X-ARQ-PROYECCIONES 500
  0
XRECORD
  5
2EE
102
{ACAD_REACTORS
330
2EB
102
}
330
2EB
100
AcDbXrecord
280
     1
  1
1626285
  1
Text : 00_PLANB_TEXTO MEDIANO 2.0 mm
  1
2697644
  1
Floor : A_PI_GENERAL 0.07
  1
4016704
  1
Linear Dimension Style : 00_PLANB_DIM (fondo blanco)
  1
6929785
  1
Basic Wall : A_M_12 LADRILLO RALLADO : A_M_12 LADRILLO RALLADO
  1
6947327
  1
AE_PUERTA BATIENTE MADERA : AE_PUERTA BATIENTE MADERA 0.70X2.20
  1
7537305
  1
A_Surface rec : A_Surface rec
  1
7909127
  1
EQU_NEVERA : EQU_NEVERA
  1
8039155
  1
Canastillas plásticas  31 : 31 x 40 x 60 - LAT HOLE - 3 STACK
  1
8709530
  1
Horno Padrino : Horno Padrino
  1
8718733
  1
Repiza : Repiza
  0
DICTIONARY
  5
1A
330
19
100
AcDbDictionary
280
     1
281
     1
  3
BUMPTILE
360
1C
  3
DIFFUSETILE
360
1B
  3
OPACITYTILE
360
1F
  3
REFLECTIONTILE
360
1E
  3
REFRACTIONTILE
360
20
  3
SPECULARTILE
360
1D
  0
DICTIONARY
  5
12
330
11
100
AcDbDictionary
280
     1
281
     1
  3
BUMPTILE
360
14
  3
DIFFUSETILE
360
13
  3
OPACITYTILE
360
17
  3
REFLECTIONTILE
360
16
  3
REFRACTIONTILE
360
18
  3
SPECULARTILE
360
15
  0
DICTIONARY
  5
22
330
21
100
AcDbDictionary
280
     1
281
     1
  3
BUMPTILE
360
24
  3
DIFFUSETILE
360
23
  3
OPACITYTILE
360
27
  3
REFLECTIONTILE
360
26
  3
REFRACTIONTILE
360
28
  3
SPECULARTILE
360
25
  0
DICTIONARY
  5
2F4
330
65
100
AcDbDictionary
280
     1
281
     1
  3
ACAD_ROUNDTRIP_2008_TABLESTYLE_CELLSTYLEMAP
360
2F5
  0
XRECORD
  5
1C
102
{ACAD_REACTORS
330
1A
102
}
330
1A
100
AcDbXrecord
280
     1
270
     1
271
     1
  0
XRECORD
  5
1B
102
{ACAD_REACTORS
330
1A
102
}
330
1A
100
AcDbXrecord
280
     1
270
     1
271
     1
  0
XRECORD
  5
1F
102
{ACAD_REACTORS
330
1A
102
}
330
1A
100
AcDbXrecord
280
     1
270
     1
271
     1
  0
XRECORD
  5
1E
102
{ACAD_REACTORS
330
1A
102
}
330
1A
100
AcDbXrecord
280
     1
270
     1
271
     1
  0
XRECORD
  5
20
102
{ACAD_REACTORS
330
1A
102
}
330
1A
100
AcDbXrecord
280
     1
270
     1
271
     1
  0
XRECORD
  5
1D
102
{ACAD_REACTORS
330
1A
102
}
330
1A
100
AcDbXrecord
280
     1
270
     1
271
     1
  0
XRECORD
  5
14
102
{ACAD_REACTORS
330
12
102
}
330
12
100
AcDbXrecord
280
     1
270
     1
271
     1
  0
XRECORD
  5
13
102
{ACAD_REACTORS
330
12
102
}
330
12
100
AcDbXrecord
280
     1
270
     1
271
     1
  0
XRECORD
  5
17
102
{ACAD_REACTORS
330
12
102
}
330
12
100
AcDbXrecord
280
     1
270
     1
271
     1
  0
XRECORD
  5
16
102
{ACAD_REACTORS
330
12
102
}
330
12
100
AcDbXrecord
280
     1
270
     1
271
     1
  0
XRECORD
  5
18
102
{ACAD_REACTORS
330
12
102
}
330
12
100
AcDbXrecord
280
     1
270
     1
271
     1
  0
XRECORD
  5
15
102
{ACAD_REACTORS
330
12
102
}
330
12
100
AcDbXrecord
280
     1
270
     1
271
     1
  0
XRECORD
  5
24
102
{ACAD_REACTORS
330
22
102
}
330
22
100
AcDbXrecord
280
     1
270
     1
271
     1
  0
XRECORD
  5
23
102
{ACAD_REACTORS
330
22
102
}
330
22
100
AcDbXrecord
280
     1
270
     1
271
     1
  0
XRECORD
  5
27
102
{ACAD_REACTORS
330
22
102
}
330
22
100
AcDbXrecord
280
     1
270
     1
271
     1
  0
XRECORD
  5
26
102
{ACAD_REACTORS
330
22
102
}
330
22
100
AcDbXrecord
280
     1
270
     1
271
     1
  0
XRECORD
  5
28
102
{ACAD_REACTORS
330
22
102
}
330
22
100
AcDbXrecord
280
     1
270
     1
271
     1
  0
XRECORD
  5
25
102
{ACAD_REACTORS
330
22
102
}
330
22
100
AcDbXrecord
280
     1
270
     1
271
     1
  0
CELLSTYLEMAP
  5
2F5
102
{ACAD_REACTORS
330
2F4
102
}
330
2F4
100
AcDbCellStyleMap
 90
        3
300
CELLSTYLE
  1
TABLEFORMAT_BEGIN
 90
        5
170
     1
 91
        0
 92
    32768
 62
   257
 93
        1
300
CONTENTFORMAT
  1
CONTENTFORMAT_BEGIN
 90
        0
 91
        0
 92
      512
 93
        0
300

 40
0.0
140
1.0
 94
        5
 62
     0
340
55
144
0.25
309
CONTENTFORMAT_END
171
     0
 94
        0
309
TABLEFORMAT_END
  1
CELLSTYLE_BEGIN
 90
        1
 91
        1
300
_TITLE
309
CELLSTYLE_END
300
CELLSTYLE
  1
TABLEFORMAT_BEGIN
 90
        5
170
     1
 91
        0
 92
        0
 62
   257
 93
        1
300
CONTENTFORMAT
  1
CONTENTFORMAT_BEGIN
 90
        0
 91
        0
 92
      512
 93
        0
300

 40
0.0
140
1.0
 94
        5
 62
     0
340
55
144
0.18
309
CONTENTFORMAT_END
171
     0
 94
        0
309
TABLEFORMAT_END
  1
CELLSTYLE_BEGIN
 90
        2
 91
        1
300
_HEADER
309
CELLSTYLE_END
300
CELLSTYLE
  1
TABLEFORMAT_BEGIN
 90
        5
170
     1
 91
        0
 92
        0
 62
   257
 93
        1
300
CONTENTFORMAT
  1
CONTENTFORMAT_BEGIN
 90
        0
 91
        0
 92
      512
 93
        0
300

 40
0.0
140
1.0
 94
        2
 62
     0
340
55
144
0.18
309
CONTENTFORMAT_END
171
     0
 94
        0
309
TABLEFORMAT_END
  1
CELLSTYLE_BEGIN
 90
        3
 91
        2
300
_DATA
309
CELLSTYLE_END
  0
ENDSEC
  0
EOF
