<?xml version="1.0"?>
<svg width="489.8" height="616.8" xmlns="http://www.w3.org/2000/svg" xmlns:svg="http://www.w3.org/2000/svg" enable-background="new 0 0 489.8 616.8" version="1.1" xml:space="preserve">
 <style type="text/css">.st0{fill:#91AF8C;}
	.st1{fill:#97B28E;}
	.st2{fill:#ACC3AC;}
	.st3{fill:#95B18D;}
	.st4{fill:#5B7ABC;}
	.st5{fill:#5B7ABD;}
	.st6{fill:#5A79BC;}
	.st7{fill:#ADC3AD;}
	.st8{fill:#BEC2D7;}
	.st9{fill:#6280C0;}
	.st10{fill:#AEC4AD;}
	.st11{fill:#617FBF;}
	.st12{fill:#6F8AC5;}
	.st13{fill:#8199CE;}
	.st14{fill:#6A85C2;}
	.st15{fill:#DDD5CF;}
	.st16{fill:#F9E7C7;}
	.st17{fill:#FBE7C9;}
	.st18{fill:#E3A18B;}
	.st19{fill:#E5A992;}
	.st20{fill:#F9DBBD;}
	.st21{fill:#F9E6C7;}
	.st22{fill:#F7E5C6;}
	.st23{fill:#F8E6C6;}
	.st24{fill:#F6E5C6;}
	.st25{fill:#EFE1C2;}
	.st26{fill:#F9DDBF;}
	.st27{fill:#F8E6C7;}
	.st28{fill:#EBDFC0;}
	.st29{fill:#E9DEBE;}
	.st30{fill:#E1D9B9;}
	.st31{fill:#DFD8B8;}
	.st32{fill:#ECDFC0;}
	.st33{fill:#E1D9BA;}
	.st34{fill:#E4DDC1;}
	.st35{fill:#E8DFC2;}
	.st36{fill:#6683C2;}
	.st37{fill:#738EC8;}
	.st38{fill:#6985C2;}
	.st39{fill:#758FC9;}
	.st40{fill:#6986C3;}
	.st41{fill:#7A95CC;}
	.st42{fill:#7F99CF;}
	.st43{fill:#8AA3D4;}
	.st44{fill:#ABB7DA;}
	.st45{fill:#AEB9DC;}
	.st46{fill:#A9B7DA;}
	.st47{fill:#C2C6DB;}
	.st48{fill:#C4C7D9;}
	.st49{fill:#DCD4D1;}
	.st50{fill:#E4D8CD;}
	.st51{fill:#F7E4CA;}
	.st52{fill:#EFDFCB;}
	.st53{fill:#D1CDD2;}
	.st54{fill:#819ACF;}
	.st55{fill:#6E8AC6;}
	.st56{fill:#F6D7BC;}
	.st57{fill:#B7BFDC;}
	.st58{fill:#7FA8CF;}
	.st59{fill:#81A6D3;}
	.st60{fill:#7CA6D1;}
	.st61{fill:#769FD3;}
	.st62{fill:#C0C4D7;}
	.st63{fill:#C1C5D5;}
	.st64{fill:#F0CCB3;}
	.st65{fill:#E2A08B;}
	.st66{fill:#F7D9BD;}
	.st67{fill:#BDC4E0;}
	.st68{fill:#F3E2CB;}
	.st69{fill:#E0D7D2;}
	.st70{fill:#A7B4D9;}
	.st71{fill:#B5C1E2;}
	.st72{fill:#DAD6D8;}
	.st73{fill:#D9D4D6;}
	.st74{fill:#728CC7;}
	.st75{fill:#8399CE;}
	.st76{fill:#7299D0;}
	.st77{fill:#DBD5D3;}
	.st78{fill:#7394CC;}
	.st79{fill:#F6D5B9;}
	.st80{fill:#B4BFE0;}
	.st81{fill:#CECEDA;}
	.st82{fill:#607EBE;}
	.st83{fill:#DED7D4;}
	.st84{fill:#758FC8;}
	.st85{fill:#7A93CB;}
	.st86{fill:#738DC7;}
	.st87{fill:#E9DDCF;}
	.st88{fill:#E6DBD0;}
	.st89{fill:#CFD0DB;}
	.st90{fill:#BEC6E0;}
	.st91{fill:#EDDFCF;}
	.st92{fill:#607EBF;}
	.st93{fill:#627FBF;}
	.st94{fill:#CECED8;}
	.st95{fill:#F6E4CB;}
	.st96{fill:#E7DCD0;}
	.st97{fill:#BBC1DA;}
	.st98{fill:#CACAD9;}
	.st99{fill:#CDCDD8;}
	.st100{fill:#B9C2E2;}
	.st101{fill:#5F7DBE;}
	.st102{fill:#6B85C2;}
	.st103{fill:#6884C2;}
	.st104{fill:#6580BF;}
	.st105{fill:#607DBE;}
	.st106{fill:#637FBF;}</style>
 <g class="layer">
  <title>Layer 1</title>
  <g id="svg_161" transform="translate(48.2124 15.354) scale(0.783698 1) translate(-48.2124 -15.354) translate(48.8506 2.87356) matrix(1.13448 0 0 1.13448 -0.788742 -80.9637)">
   <path class="st0" d="m184.21,298.76c0,-7.5 -4.7,-13 -8.7,-18.6c-10,-14.2 -11.2,-30.9 3.7,-42.1c4.6,-3.4 5,-8.2 4.1,-13.7c-4,-23.8 3.5,-37 26,-44.8c8.7,-3.1 15.4,-7.8 20.4,-15.9c8.7,-14 17.6,-17 33.1,-11.6c8.1,2.8 13.4,1.7 18.5,-5.9c9.6,-14.4 21.7,-16.2 35.2,-5.6c6,4.7 12.1,5.1 18.7,2.6c10.8,-4 20.6,-2.1 29.6,4.5c9.6,7 10.3,17.2 0.4,23.4c-10.7,6.8 -13.4,14.2 -9,26.1c3.7,9.9 -0.6,18.2 -11.2,23.3c-9.3,4.5 -14.7,10.4 -17,20.8c-2.9,13 -16.1,20.2 -29.4,18.1c-12.6,-2 -15.3,-0.2 -17.6,12c-2.8,14.9 -11.6,21.9 -26.7,21c-2.8,-0.2 -5.6,-0.9 -8.4,-1.3c-11.7,-1.5 -15.3,1.3 -16.9,13c2.2,7.1 -2.8,11.9 -5.3,17.6c-4.5,6.2 -10.5,10.7 -16.9,14.8c-4.1,3 -8.5,5.6 -11.9,9.5c-2.4,2.8 -4.7,5.7 -9,5.4c-1,-0.1 -1.9,-0.5 -2.7,-1c-2.5,-2.3 -4.4,-5.3 -5.5,-8.5c-1.5,-4.2 -2.3,-8.6 -2.2,-13c-0.3,-4.9 1.1,-9.6 2,-14.3c0.4,-1.8 0.9,-3.6 1.5,-5.3c0.4,-3.1 0.7,-6.3 3,-8.8l2.2,-1.7" id="svg_1"/>
   <path class="st1" d="m60.51,249.56c-25.2,-19.6 -40,-44.8 -41.6,-77.2c-0.6,-11.8 1.3,-23.3 4,-34.7c3.4,-14.5 9.2,-17.8 22.6,-11.8c30.8,13.9 54.9,35.4 72.6,64.1c-6.9,1.9 -12.1,8 -19.7,8.2c-2.4,-1.7 -4.7,-2.9 -7.4,-0.5c-2.5,2.2 0.1,3.8 0.6,5.7c0,4.7 -2.6,7.6 -6.2,10c-3.4,0.4 -5.2,-1.8 -7,-4.1c-14.3,-18.7 -26.6,-38.5 -35.2,-60.4c7.7,19.7 18,38.4 30.4,55.5c4.2,5.9 11.1,10.7 10.4,19.4c-9,-1.5 -15.6,2.4 -21.9,8.5c-4.1,4 -7.4,6.8 -2.3,12.1c1.6,1.4 1.9,3.6 0.7,5.2" id="svg_2"/>
   <path class="st0" d="m98.41,197.66c6.6,-2.3 10.7,-11.3 19.6,-7.6c17.7,24 26.6,51.3 29.7,80.7c0.8,7.7 -2.8,11.3 -10.4,10.9c-29.3,-1.8 -55.5,-11.1 -76.9,-32c-7.8,-11.5 -7.7,-11.4 3.3,-21.8c6,-5.7 11.6,-12 20,-3.5c4.2,-0.8 6.3,2.2 8.5,4.9c10.3,12.9 24.4,21.8 35.5,33.9c-11.7,-14.6 -27.9,-24.9 -39,-40c-2.1,-2.9 -6,-5.1 -3.5,-9.7c0,-4.4 4.3,-6.3 5.8,-9.8c-0.3,-5.7 2.8,-6.8 7.4,-6" id="svg_3"/>
   <path class="st2" d="m159.31,205.26c-2.2,4.6 -5.8,4.6 -7.7,0.7c-10.1,-20.1 -26.3,-37 -29.7,-60.6c-2.9,-20.1 11.9,-51.7 29.1,-59.8c4.1,-1.9 6.4,0.6 8.5,3.6c2.1,10.8 3.2,21.8 3.5,32.8c0.4,20.4 1.4,40.8 0.1,61.2c-0.5,7.5 -1,14.9 -3.8,22.1" id="svg_4"/>
   <path class="st3" d="m159.31,205.26c0.8,-16.3 1.3,-32.7 1.2,-48.8c-0.1,-17.1 0.5,-34.6 -2.4,-51.8c-0.9,-5.1 -2.3,-10.6 1.4,-15.5c18.4,21.2 31.7,44.1 24.4,73.8c-1.9,7.5 -5.9,13.8 -10.2,20.1c-5,7.3 -9.6,14.8 -14.4,22.2" id="svg_5"/>
   <path class="st4" d="m263.81,329.06c0.4,0.2 0.7,0.6 0.5,1.1c1.1,2.8 2.3,5.6 3.5,8.4c0.3,1.2 0.6,2.3 0.9,3.5c1,2 2.4,3.8 2.3,6.2c-0.4,2.6 -0.6,5.3 -2.5,7.4c-1.2,0.7 -2.8,0.6 -3.1,-0.6c-1,-3.3 -2,-1.9 -3.2,-0.2c-0.8,0.9 -1.7,1.7 -2.6,2.5c-1.8,1.6 -3.6,3.3 -5.2,5c-1.4,1.4 -2.7,3 -3.9,4.7c-0.5,0.7 -1.1,1.3 -1.7,1.8c-3.8,2.1 -5.5,6.3 -8.9,8.8c-1.1,0.7 -2.2,1.2 -3.4,1.5c-3.5,0.4 -5.4,2.9 -7,5.7c-0.5,0.7 -1,1.4 -1.6,2c-8.9,7.6 -15.4,18.5 -28.6,20.1c-8,1 -9.6,-0.2 -8.1,-8.3c0.6,-3.2 -0.9,-3.9 -3.4,-4.1c-0.9,0 -1.7,-0.2 -2.6,-0.3c-6,-0.6 -11.6,-1.3 -13.7,7c-1.4,5.6 -7,6.5 -12.3,6.5c-4.9,0 -9.1,-0.4 -11.8,-5.6c-4.4,-8.4 -12.6,-12.2 -21,-15.5c-2,-0.5 -3.6,-1.9 -4.5,-3.7c-0.8,-2 -0.6,-4.3 0.5,-6.2c0.7,-0.8 1.6,-1.5 2.6,-1.8c9.3,0 17.4,5.1 26.5,6.5c25.2,3.9 49.8,2.5 73.6,-6.9c12,-6.6 22.5,-14.3 22.3,-30c0,-1 0.1,-2.7 0.4,-2.7c8.7,-0.1 8.8,-10.8 15.9,-12.8" id="svg_6"/>
   <path class="st5" d="m49.11,361.26c1.6,-1 3,-2.6 5.3,-2c7.7,-1.3 15.6,-1.3 23.3,0.1l0,0c2.4,0.8 4.9,1.7 5,4.8c0.3,11.4 6,21.8 5.5,33.3c0.6,5.3 0.5,10.3 -5.5,12.8c-5.4,1.1 -7.1,-2.7 -8.8,-6.6c-4.5,-10.8 -15.5,-12.2 -22.8,-2.8c-3.2,4.1 -3.8,10.4 -9.9,12c-8.2,2.2 -16.2,-1.1 -24.4,-1.6c-6,-0.3 -2.4,-6.4 -2.3,-10c3.8,-14 10.9,-25.7 22.9,-34.2c2.6,-1.5 4.1,-0.9 4.3,2.2c0.7,11.9 3.7,14.6 15.7,14.2c1.6,-0.1 3.1,-0.1 4.7,-0.3c1.3,-0.2 2.6,-0.3 3.9,-0.5c6.5,-0.5 7.2,-5 6.7,-10.1s-3.6,-7.8 -8.5,-8.4c-3.1,-0.2 -6.2,0 -9.3,0.5c-2.5,0.3 -5.9,1.1 -5.9,-3.4" id="svg_7"/>
   <path class="st6" d="m184.01,300.56l-1.9,9.3c-5.3,3.2 -10.1,4.8 -14.1,-2.3c-1.5,-2.7 -4.2,-2.9 -4,1.7c0.2,3.3 -2.1,4.7 -4.7,4.8c-9.5,0.4 -18.2,5.1 -27.7,5.1c-9.2,-8.6 -12.7,-8.9 -20.8,-1.8c-0.9,1.5 -2,2.9 -3.3,4.1c-3.5,3.3 -7.8,6.1 -8.5,11.5c0.9,0.3 1.2,0.6 1.5,0.5c4.1,-0.5 6.2,-8.6 10.9,-4.3c3.5,3.3 -1.4,7.3 -2.8,10.9c-3.8,9.4 -0.5,16.9 5.4,24.3c3.2,3.9 9.3,5.7 9.3,12l0,0c-4.7,4.7 -9.3,4.4 -14,0c-7,-6.8 -13.7,-13.8 -23.4,-17c-5.4,-1.8 -3.9,-7.1 -3.2,-10.6c1.1,-4.9 1.2,-9.9 2.4,-14.7c3.8,-11 11.9,-18.4 21.9,-23.5c12.7,-6.5 26.2,-10.4 40.7,-10.4c12.1,-0.9 24.2,-1.6 36.3,0.4" id="svg_8"/>
   <path class="st2" d="m301.51,321.46c-5.3,-0.2 -10.7,0.4 -15.9,-1.5c-4.1,-1.4 -8.3,-3.5 -9.1,-7.4c-0.8,-4.1 3.1,-7.3 6.2,-9.9c13.1,-10.8 37.3,-12.7 51.9,-4c6.8,4.1 7.3,8.2 0.8,13c-9.8,7.2 -21.8,10.7 -33.9,9.8" id="svg_9"/>
   <path class="st7" d="m20.71,252.86c17.1,-0.4 28,9.9 37.4,22.2c3.4,4.4 1.7,7 -3.8,8.6c-17.3,4.8 -38.1,-2.5 -48.8,-17.1c-4.9,-6.6 -3.4,-10 4,-12.2c3.6,-1.1 7.4,-1.6 11.2,-1.5" id="svg_10"/>
   <path class="st8" d="m14.71,401.06c-0.5,6 1.1,9.3 8.1,8c2.9,-0.5 6.2,0.7 9.3,1.2c6.8,1.1 12.1,0.7 14.7,-7.6c2.4,-7.7 9.1,-10.8 17.2,-11.1c6.6,-0.2 10.8,2.1 12.2,9.1c0.7,3.5 0.4,9.1 7,7.7l0.8,0.8c0.2,0.8 0.3,1.6 0.1,2.3c-0.4,1.6 -0.8,3.1 -1.4,4.6c-1,2.7 -2,5.5 -3.2,8.2c-0.7,1.6 -1.6,3.1 -2.6,4.6c-1.3,1.8 -2.8,3.5 -4.5,5.1c-7.4,6.6 -17.3,4.7 -25.8,6.3c-7.5,1.4 -6.8,-6.7 -5.5,-11.7c1.9,-7.1 -0.2,-10.8 -7.5,-11.6c-3,-0.6 -5.8,-2.2 -9,-1.2c-4.6,0.7 -4.9,4 -4.6,7.6c0.6,4.6 1.5,9.1 2.7,13.6c0.3,3.2 2.1,6.4 0.2,9.6c-3.9,1.8 -5.4,-0.6 -6.4,-3.7l-1.9,-1.8c-0.7,-3.8 -1.3,-7.6 -2,-11.4c-1.8,-3 0.5,-6.7 -1.6,-9.6c0.1,-6.5 -0.6,-13.2 3.7,-19" id="svg_11"/>
   <path class="st7" d="m35.01,328.96c-4.8,-0.1 -9.6,0.5 -11.6,-3.8c-2.2,-4.7 1.3,-8.4 4.2,-11.7c9.6,-10.8 22,-14.4 35.9,-12.3c9.4,1.4 10.3,4.6 4,12.2c-8.6,10.5 -20.2,14.7 -32.5,15.6" id="svg_12"/>
   <path class="st7" d="m244.21,136.86c-5.5,0.6 -8,-1.6 -5.8,-7.7c6.1,-17 17.3,-28.3 35.2,-32.5c3.8,-0.9 5.4,0.1 5.6,3.9c0.5,12.1 -22.2,36.1 -35,36.3" id="svg_13"/>
   <path class="st7" d="m314.41,378.46c-13.1,0 -29.2,-18.3 -27.3,-31.2c0.7,-4.8 2.8,-7.4 8.3,-6.2c10.2,2.1 26.4,19.8 27.4,30.2c0.6,6.3 -3.5,7.2 -8.4,7.2" id="svg_14"/>
   <path class="st9" d="m85.11,334.16c-0.2,3.7 0.2,7.6 -0.6,11.2c-1.5,6.8 -2.5,11.1 7.3,13c6.4,1.3 12.6,8 17.1,13.7s8.8,5.7 14.5,4.5c0,1.9 0,3.8 0,5.8c-1.3,1.5 -3.2,2.4 -5.2,2.3c-7.8,-0.6 -12.2,-6.4 -17.4,-11c-4.2,-3.4 -7.3,-4.3 -7.1,2.9c0.1,4.1 -1,8 -2.1,11.9c-0.9,2.5 -1.6,5.1 -2.7,7.5c-0.6,1.2 -1.9,2 -3.3,1.9c-0.8,-13.2 -4.8,-25.8 -7.8,-38.5c5.4,-3.2 3.1,-9 4.4,-13.5c1.1,-3.9 0.1,-8.3 2.9,-11.7" id="svg_15"/>
   <path class="st10" d="m223.71,130.26c-0.7,3.2 -1.1,6.7 -3.4,9.4c-2,2.4 -4,5.2 -7.7,4.3c-3.2,-0.7 -4.3,-3.8 -4.8,-6.4c-1.4,-7.6 -4.4,-15.2 -1.2,-23.1c2.6,-6.5 6.2,-7.3 10.8,-2c4.1,5 5.2,11.3 6.3,17.8" id="svg_16"/>
   <path class="st9" d="m49.11,361.26c4.4,4 8.8,-0.5 13.3,-0.2c7.2,0.5 12.2,2.8 13.2,10.3s0,14 -9.7,14.5c-0.9,-3.6 1.8,-5.8 3,-8.6c1.9,-4.1 1.1,-7.4 -2.9,-9.6c-3,-1.7 -6.4,-1.7 -8.5,1.4c-2.3,3.5 -3.6,7.5 -0.5,11.3c1.6,2 5.7,1.7 5.5,5.6c-7,0 -14,2.3 -20.4,-3.9c-4.3,-4.2 -8.4,-6.5 -2.7,-12.3c1.7,-1.8 -0.4,-2.4 -1.9,-2.7c3.4,-3.2 6.9,-5.6 11.6,-5.8" id="svg_17"/>
   <path class="st11" d="m263.81,329.06c-3.4,1.8 -3.4,4.9 -3.6,8.1c-0.7,9.3 -1.4,9.6 -10.2,3.6c2.4,18.3 -8.9,27.6 -22,35.7c-0.7,-0.6 -1.1,-1.4 -1.2,-2.3c0,-0.9 0.2,-1.7 0.6,-2.5c4,-4.5 9.2,-7.8 12.9,-12.6c5.6,-6.9 3.6,-14.6 2.1,-22.2c-0.7,-4.9 0.5,-8.4 6.1,-9c3,0.1 6.2,1.8 8.6,-1.7c1.9,-2.7 3.8,-1 5.4,0.6l1.3,2.3" id="svg_18"/>
   <path class="st12" d="m222.01,321.16l7.1,-16.9c8.3,3.5 17.4,5.8 23.5,13.2c3.2,2.6 3.3,4.5 -1.3,4.8c-2.5,0.2 -4.4,-1.8 -6.6,-2.6c-4.5,-3.1 -8.6,-3.7 -12,1.6c-1.1,1.9 -3.1,3.2 -5.3,3.5c-2.7,0 -4.7,-0.9 -5.4,-3.6" id="svg_19"/>
   <path class="st13" d="m245.11,317.46c1.9,1 3.8,2 5.8,2.8c3.9,1.3 2.1,-1.3 1.8,-2.8c5.3,1.1 7.9,4.9 9.9,9.5c-1.4,-0.1 -3.5,-1.3 -3.9,0.8c-1.6,11.2 -5.9,4 -9.6,1.5c-0.3,-0.3 -0.6,-0.6 -1,-0.9c-1.3,-3.2 -3.2,-6.2 -3.6,-9.8l0.6,-1.1" id="svg_20"/>
   <path class="st14" d="m184.01,300.56l-36.4,-0.3c12.1,-3.3 24.4,-1 36.5,-1.5c0.1,0.6 0.1,1.2 -0.1,1.8" id="svg_21"/>
   <path class="st9" d="m77.71,359.26l-23.3,-0.1c7.8,-2.8 15.6,-3.1 23.3,0.1" id="svg_22"/>
   <path class="st11" d="m267.91,338.46c-2.5,-2 -3.8,-5.2 -3.5,-8.4c2.3,2.1 3.6,5.2 3.5,8.4" id="svg_23"/>
   <path class="st15" d="m11.11,420.16c2.7,2.8 1.5,6.3 1.6,9.6c-2.5,-2.8 -1.3,-6.3 -1.6,-9.6" id="svg_24"/>
   <path class="st16" d="m358.01,156.46c0.6,2.6 -0.6,3.6 -1.7,3.7c-15.2,2.4 -26.2,11.6 -36.7,22c-7.6,7.5 -17.1,10.1 -27.8,10.2c-19.9,0.2 -27,5.6 -30.5,25.2c-3.3,18.2 -12.8,27.6 -31.1,30.2c-18.8,2.7 -24.1,10.3 -21.5,29.5c3.1,22.8 -2.8,42.6 -17.4,60c-1.5,1.8 -2.6,5.4 -5.7,3.1c-2.8,-2.1 -0.2,-4.6 1,-6.6c2.1,-3.5 4.4,-7 6.9,-10.2c9.1,-12.2 11.2,-25.8 8.7,-40.5c-0.6,-3.4 -0.9,-6.9 -0.9,-10.4c-0.2,-18.2 7.3,-28.3 25.2,-30.9c16.4,-2.3 25.1,-10.2 28.2,-26.7c4.2,-21.7 13.6,-28.8 35.7,-28.6c11.6,0.1 20.8,-3.8 28.7,-12.1c7.5,-7.9 15.9,-14.5 26.7,-17.4c4.2,-1.2 8.4,-2 12.2,-0.5" id="svg_25"/>
   <path class="st17" d="m180.91,313.26c-1,5.4 -2,10.8 -2.9,16.1c-1.7,3.1 -4.7,2.8 -7.5,2.7c-21,-0.9 -39.7,4.7 -55.2,19.3c-2.1,2 -4.4,3.6 -7.5,3.3c-4.7,-3.7 -3.4,-9 -1.6,-12.6c4.9,-9.6 9.9,-19.7 21.8,-22.8c12,-1.7 23.3,-6.6 35.5,-7.2c5.9,-0.3 11.7,-0.9 17.4,1.2" id="svg_26"/>
   <path class="st18" d="m108.11,354.16c18.9,-20.6 42.6,-27.7 69.9,-24.8c0.8,4.3 1.6,8.5 2.4,12.8c-2.8,3.3 -6.8,3.4 -10.5,3.1c-18.6,-1.8 -33.8,6 -47.9,16.9c-1.8,1.7 -3.7,3.3 -6.2,3.8c-5.5,-2.1 -8.6,-5.7 -7.7,-11.8" id="svg_27"/>
   <path class="st17" d="m222.01,321.16l5.5,2.4c8.4,1 14,5.7 17.3,13.4c2.8,8.7 4.9,17.2 -3.3,24.4c-9.8,-8.4 -20.9,-15.1 -32.9,-19.8c-2.5,-1 -5.5,-2.4 -3.9,-6.3c6.3,-4.1 12.1,-8.8 17.3,-14.1" id="svg_28"/>
   <path class="st19" d="m204.81,335.26c4.5,5.2 11.1,6.3 16.9,9c8.2,3.9 16.2,8 19.9,17.1c-3.1,5.3 -7.9,8.7 -13.3,11.3c-1.2,-0.5 -2.2,-1.4 -2.8,-2.6c-1.4,-3.1 -2.9,-6.1 -4.6,-9c-7.2,-5.4 -13.6,-12.3 -23.5,-13c-1.8,-0.8 -3.2,-1.8 -3.6,-3.9c2.8,-4.1 7,-6.3 11,-8.9" id="svg_29"/>
   <path class="st20" d="m119.41,361.16c11.7,-10.8 24.7,-18.6 41.2,-18.9c6.6,-0.1 13.1,-0.1 19.7,-0.1l4.2,7.6c-3.6,4.3 -8.5,2.6 -12.9,2.9c-4.6,0.3 -9.2,-0.3 -13.7,1.1c-9,1.1 -17,4.4 -23.6,10.9c-1.7,1.9 -4,3.1 -6.5,3.6c-3.4,-1.7 -10.2,0.7 -8.4,-7.1" id="svg_30"/>
   <path class="st21" d="m287.11,172.76c0.4,-10.2 5,-19.9 12.8,-26.6c4.1,-3.8 6.9,-3.4 8.6,2.5c2.4,8.4 -5.2,27.3 -13.2,31.2c-1.9,0.9 -4.1,2.4 -6.1,0.6c-2.6,-2.4 -2.1,-5.7 -2.1,-7.7" id="svg_31"/>
   <path class="st22" d="m328.41,209.06c-5.8,0.4 -11.5,-1.1 -16.5,-4.2c-1.8,-1.2 -4.1,-2.2 -4,-4.8c0.1,-3.1 2.7,-4.1 5,-5c9.3,-3.7 18.5,-3.5 27.1,1.8c2,1.2 5.1,2.3 5,5.2c-0.1,3.2 -3.4,4.2 -5.9,5.5c-3.1,1.6 -6.6,1.5 -10.7,1.5" id="svg_32"/>
   <path class="st21" d="m235.91,260.26c10.4,0.7 18.6,5.3 26.5,10.6c3.2,2.1 3.7,4 0,6.2c-9.8,6 -29.5,-0.5 -33.3,-11.4c-2.8,-8.2 4.5,-4 6.8,-5.4" id="svg_33"/>
   <path class="st23" d="m305.81,234.36c0.4,4.3 -1.8,5 -5.2,3.4c-9.4,-4.3 -15.6,-11.5 -18.5,-21.4c-1.2,-4.4 0.8,-5.8 5,-4.9c8.9,2 18.8,14.2 18.7,22.9" id="svg_34"/>
   <path class="st22" d="m250.91,189.66c-0.4,3.7 1.1,10.8 -5.2,11.4s-6.3,-6.8 -7.4,-11.5c-1.6,-6.7 -1.1,-13.2 3.3,-18.9c0.7,-1 2.1,-1.2 3.1,-0.5c0.1,0.1 0.2,0.1 0.2,0.2c5.9,4.7 6.1,11.4 6,19.3" id="svg_35"/>
   <path class="st16" d="m216.31,203.26c7.9,0.7 15.4,5.1 22.1,11c2.7,2.4 2.5,3.8 -0.8,5.3c-7.7,3.5 -24.4,-2.9 -27.8,-10.8c-1.8,-4.3 -0.7,-5.5 6.5,-5.5" id="svg_36"/>
   <path class="st14" d="m180.91,313.26c-18.5,-1.3 -36.3,2.5 -53.7,8.5c-1.4,-3.8 2.1,-3.2 3.7,-4.2c10.3,-2.5 20.3,-6 30.8,-6.3c1.5,-4.5 -8.2,-0.9 -3.8,-5.5c3.7,-3.7 9.2,-4.8 14.1,-2.9c4.9,2 -3,3.8 -0.6,7l10.7,0l-1.2,3.4" id="svg_37"/>
   <path class="st24" d="m265.71,237.06c0.5,-5.7 0.4,-13.3 5.6,-13.3c6.3,0 5.8,7.8 6,13c0.3,4.7 -0.1,11.2 -5.8,11.1s-5,-6.9 -5.8,-10.8" id="svg_38"/>
   <path class="st21" d="m207.51,236.06c-3.3,-0.6 -8.6,0.8 -7.8,-5.1c0.8,-6.3 6.2,-7.1 11.5,-7c4.5,0.1 10.7,0.9 9.8,5.8c-1.2,5.5 -8,6.1 -13.5,6.3" id="svg_39"/>
   <path class="st25" d="m183.51,253.06c4.7,0.4 10,1.3 11.1,6.5c0.8,3.8 -4.2,4.2 -6.9,4.3c-4.8,0.2 -9.8,-1.6 -10.6,-7c-0.5,-3.7 3.6,-3.5 6.4,-3.8" id="svg_40"/>
   <path class="st26" d="m193.81,344.06l3.6,1.9c2.3,2.1 5.7,0 8,1.9c4.1,3.3 5.9,6.3 -1,8.2c-4.2,0.8 -8.2,-1.5 -12.4,-1c-2.3,0 -4.6,-0.9 -6.2,-2.6c-0.5,-0.8 -0.5,-1.8 0.1,-2.5c4.1,-0.1 5.2,-4.1 7.9,-5.9" id="svg_41"/>
   <path class="st19" d="m186.01,349.96c0.1,0.5 0.2,1.1 0.3,1.6c-10.3,4.4 -20.5,4.9 -30.8,0.1c9.5,-3.6 19.4,-1.2 29,-2c0.5,0 1,0.1 1.5,0.3" id="svg_42"/>
   <path class="st27" d="m85.11,213.26c6,9.3 13.1,17.8 21.3,25.2c8.6,8 17.3,15.8 26,23.6c1.5,1.3 3,2.8 1.7,4.8s-3.5,1.5 -5.1,0.4c-3.1,-2.1 -6.1,-4.5 -8.8,-7.1c-12,-12.1 -25.7,-22.4 -36.4,-35.9c-10.6,-17.5 -24.6,-32.9 -33.1,-51.7c-3.3,-7.2 -6.7,-14.3 -9.6,-21.6c-1.2,-3 -3.7,-7.6 0.5,-9c4,-1.3 3.9,4 4.9,6.7c9.1,23.7 22.7,44.9 38.6,64.6" id="svg_43"/>
   <path class="st28" d="m98.41,197.66c-2.8,1.5 -5.8,2.7 -7.4,5.8c-2.4,0 -5.9,0.8 -5.4,-3c0.6,-4.9 4.9,-7.2 9.1,-8.2c4.4,-1.1 4,2.5 3.7,5.4" id="svg_44"/>
   <path class="st29" d="m77.91,187.76c-2.6,-0.4 -4,-2 -3.2,-4c1.5,-3.5 4.1,-6.5 8.3,-6.7c2.2,-0.1 3.7,1.6 2.9,3.7c-1.4,3.7 -4.7,5.6 -8,7" id="svg_45"/>
   <path class="st30" d="m70.81,159.86c2.2,0.2 4,0.9 3.6,3.4c-0.6,3.6 -3.4,5.2 -6.7,5.7c-1.4,0.3 -2.7,-0.6 -3,-1.9c-0.1,-0.3 -0.1,-0.6 0,-0.8c0.4,-3.7 3,-5.5 6.1,-6.4" id="svg_46"/>
   <path class="st31" d="m62.01,148.66c-0.8,2.6 -2.5,4.5 -5.3,4.6c-1.6,0.2 -3,-1 -3.1,-2.5c0,-0.4 0,-0.9 0.1,-1.3c0.5,-2.2 2.4,-3.9 4.6,-4.2c2.3,-0.2 3.5,1.1 3.7,3.4" id="svg_47"/>
   <path class="st32" d="m113.71,212.26c-1.7,4.6 -5.5,6.7 -9.8,7.8c-1.8,0.5 -3.5,-0.9 -3.2,-2.5c0.9,-4.9 5.1,-6.9 9.2,-8.3c2.2,-0.7 3.5,0.8 3.8,3" id="svg_48"/>
   <path class="st33" d="m124.11,231.26c-1,3 -3.5,5.3 -6.5,6c-2.2,0.5 -3.7,-1 -3.3,-3.2c0.5,-2.9 2.8,-5.1 5.7,-5.6c2,-0.6 3.6,0.4 4.1,2.8" id="svg_49"/>
   <path class="st34" d="m142.51,144.56c-2.2,-0.1 -4.4,-0.1 -6.5,-0.4c-1.7,-0.2 -3.4,-1.8 -2.4,-3.1c3.5,-4.4 9.2,-2.2 13.8,-3.6c1.7,-0.4 3.5,0.7 3.9,2.4c0.1,0.5 0.1,1.1 0,1.6c-1.3,4.8 -5.7,2.1 -8.8,3.1" id="svg_50"/>
   <path class="st35" d="m141.41,163.46c-2.4,-0.2 -5.9,-0.4 -5,-2.9c1.6,-4.5 7,-2.9 10.7,-4.3c1.6,-0.6 4.6,0 3.6,2.5c-1.6,3.9 -5.8,4.2 -9.3,4.7" id="svg_51"/>
   <path class="st35" d="m139.71,127.46c-2.3,-0.4 -5.9,0.7 -5.6,-2.2c0.6,-5.4 5.9,-2.9 9.1,-4.1c2.2,-0.8 5.8,-0.1 5.3,1.8c-1,4.3 -5.7,3.5 -8.8,4.5" id="svg_52"/>
   <path class="st36" d="m187.91,391.76c9.3,1.2 9.6,2.2 2.9,13.1c8.5,-0.4 16.4,-0.5 21.8,-6.9c4.5,-5.4 10,-9.4 15.2,-13.8c5.6,9.6 1.6,20.6 -8.9,23.2c-3.3,0.8 -6.7,1.5 -10,2.2c-25.4,0.1 -50.8,1.1 -76.2,-0.5c-9.8,-6.4 -6.4,-16 -5.8,-24.8c8.9,4.5 20.4,5.2 23.4,18c1.2,5.2 7.1,2.3 10.9,2.8s8.2,-1 8.3,-4.6c0.4,-13.3 9.3,-8.9 16.4,-8.6c1,4 -4,3.2 -4.9,6.3c5.9,1.2 6,-3.1 6.9,-6.4" id="svg_53"/>
   <path class="st37" d="m210.71,406.86c3.5,-4.1 9.7,-0.2 13.7,-6s3.8,-10.9 3.5,-16.8l0,0c1.9,-3.1 4.5,-5.7 7.6,-7.6l3.8,-0.1c2.4,3.5 -4.5,7.8 -0.1,10.2c4.7,2.4 6.8,-3.5 9.6,-5.9c4.1,-3.6 9,-6.8 8.7,-13.6c-0.1,-2.3 1.9,-5.8 5.9,-3.3c4.8,12 14,22.8 10.7,37.2c-0.6,2.5 1.8,4.7 1.9,7.2c-4.5,5 -8.2,2.8 -11.4,-1.5c-1.5,-2 -2.1,-4.5 -3.8,-6.5c-2.1,-2.5 -4.5,-4.5 -8,-3.9s-4,3.6 -4.5,6.4s-0.5,5.7 -2.5,8c-2.1,1.6 -4.3,0.8 -5.8,-0.7c-4.1,-3.7 -8.1,-3.1 -12.5,-0.7c-5.7,0 -11.7,2.2 -16.8,-2.4" id="svg_54"/>
   <path class="st38" d="m130.91,317.56l-3.7,4.2c-6.9,4.6 -13.3,9.5 -17.8,16.6c-3.2,5.1 -4.9,10.2 -1.3,15.8c0.7,4.9 3.7,8.3 7.4,11.2c3.8,0.7 6.9,2.8 10.4,4.3c21.2,8.9 42.9,14 66,9.6c2.5,-0.3 5,-0.3 7.5,-0.1c1.9,-0.2 3.7,-0.9 5.6,-1.3c5.5,-1 10.5,-3.9 16.1,-4.4c2.4,-0.5 4.7,-1 6.8,0.8l0.1,2c-33.2,12.7 -66.6,13.8 -100,0.6c-1.4,-0.6 -3.1,-0.4 -4.6,-0.6c-3.5,-3.2 -7.1,-6.2 -10.4,-9.5c-10.8,-11 -11.2,-17.2 -2.2,-37.3c-3.9,0.4 -4.5,3.4 -5.8,5.5c-2,3.5 -5,4.2 -7.9,1.9c-3,-2.5 -3.5,-6.2 -0.7,-9.2c3,-3.1 6.6,-5.7 9.9,-8.4c2.4,1.4 5.2,5.5 7.4,1.3c2.4,-4.7 -4.1,-2.4 -5.3,-4.8c4.4,-8.4 12.8,-6.2 19.6,-6.7c4.5,-0.2 1,5.9 2.9,8.5" id="svg_55"/>
   <path class="st39" d="m127.11,384.16c5.2,6.9 -0.6,15.7 4,22.6l-0.9,1c-3.6,1.7 -6.6,-1.2 -10.6,-1.4c-0.8,4.1 1.5,7.7 1.9,11.5c-1.8,13.1 -7.7,19.9 -18,20.8c-4.8,-2.8 -5.4,-7.6 -5.9,-12.4c0.2,-4.1 0.1,-8.2 0.1,-12.2c0,-1.4 0.1,-2.9 0.3,-4.3c0.6,-3.1 1.6,-6.5 4.2,-8c5.4,-3.3 4.4,-7.4 2.6,-11.9c0.3,-5.9 4.2,-5.7 7.9,-4c4.3,2 4.4,-0.7 4.9,-3.4l5.7,0l3.8,1.7" id="svg_56"/>
   <path class="st40" d="m275.51,408.86c-4,-2.4 -6.5,-4.7 -4.7,-10.5c2.2,-7 1.9,-14.2 -4.3,-20.1c-4,-3.8 -3.1,-9.9 -4.2,-15.1c-1.5,-0.5 -2.7,-1.6 -3.5,-3c-0.7,-1.5 -0.4,-3.1 -0.4,-4.6l1.9,-1.9c4.4,-1.8 5.4,5.2 9.6,3.8c6.4,14.6 7.4,30.2 9.4,45.7c1.1,3.4 2.5,7.1 -3.8,5.7" id="svg_57"/>
   <path class="st41" d="m260.31,359.36c0.6,1.3 1.2,2.5 1.9,3.8c-0.6,0.7 -1.9,1.4 -1.8,2c1.1,10.6 -7.6,14.7 -13.2,21c-3.6,4.1 -5.5,8.3 -11.9,2.3c-6.8,-6.4 2.1,-6.5 2.7,-9.7c0.3,-0.9 0.8,-1.7 1.4,-2.4c2.2,-4.1 4,-8.6 9.4,-9.6c1.5,1.5 -0.2,3.5 0.9,5.1c3,-2.6 1.3,-4.7 -0.7,-6.8c0.6,-1.8 1.9,-3.2 3.7,-3.9c2.4,-1 4.2,-4.4 7.6,-1.8" id="svg_58"/>
   <path class="st42" d="m187.91,391.76c1.9,2 4.7,3.8 2,7.1c-2.1,2.8 -5.8,4.1 -9.2,3.3c-3,-0.7 -5.3,-3 -5.1,-6.1s3.3,-2.2 5.3,-2.4s3.8,-0.3 5.2,-1.9l1.8,0" id="svg_59"/>
   <path class="st43" d="m248.91,365.06c2.6,0.7 6.4,0.4 5.9,4.3c-0.4,3.5 -3.2,6.4 -6.4,7.7c-3.4,1.4 -4.5,-1.6 -3.8,-4.2c0.7,-2.3 2.7,-4.1 4.1,-6.2c0,-0.5 0.1,-1 0.2,-1.6" id="svg_60"/>
   <path class="st11" d="m269.81,357.46c-1.5,1.4 -2.4,6 -5,0.7c-0.9,-1.8 -3,-3 -4.6,-4.4c3.6,-1.8 1.1,-6.2 3.5,-8.7c4.3,2.7 0.4,8.1 4.1,10.6c1.2,0.1 1.3,1.3 2,1.8l0,0z" id="svg_61"/>
   <path class="st36" d="m235.51,376.46c-1.8,3.2 -4.4,5.8 -7.6,7.6c0.6,-4.4 3.1,-7 7.6,-7.6" id="svg_62"/>
   <path class="st37" d="m260.31,359.36l-7.7,1.9c1.3,-2.5 3.3,-4.5 5.7,-5.7c0.7,1.2 1.3,2.5 2,3.8" id="svg_63"/>
   <path class="st40" d="m269.81,357.46l-2,-1.9c0.2,-2.6 -0.6,-5.4 1.7,-7.6l0.3,9.5" id="svg_64"/>
   <path class="st44" d="m62.71,385.86c-6.6,-1.8 -13.5,-3 -10,-13.2c1.4,-4.1 1.7,-8.1 6.6,-9.1s9.3,-0.2 12.6,4.3c2.9,4 1.9,7.8 -0.4,11.4c-1.7,2.3 -3.5,4.4 -5.5,6.5l-3.3,0.1" id="svg_65"/>
   <path class="st45" d="m106.21,389.96c3.6,4.6 7.6,8.9 -1.6,12.2c-2.1,0.7 -3,4.6 -4.5,7c-5.5,3.6 -11,3.6 -16.6,0.1l-0.4,-0.9c4,-2.8 2.6,-6.8 2.3,-10.6l1.8,-2.2c2.2,-2.9 3.3,-6.3 6.9,-8.4c5.5,-3.2 9.2,-3.1 12.1,2.8" id="svg_66"/>
   <path class="st46" d="m108.31,315.96c3.4,-0.5 7.3,-4.6 10.1,0.2c2.5,4.4 -1.4,7.2 -4.4,9.1c-7,4.4 -8,-0.1 -7.8,-5.8l2.1,-3.5" id="svg_67"/>
   <path class="st47" d="m275.51,408.86c3.9,-0.2 3.3,-3.3 3.8,-5.8c5.5,8.9 -2.8,17.8 0,26.7c-2,3.8 -0.1,8.5 -2.9,12.1c-1.4,1.4 -3,2.3 -5.1,1.5c-4.9,-5.1 -1.7,-10.5 -0.9,-16c0.6,-4.1 2.5,-7.8 3.2,-11.9c-0.9,2 -0.5,4.4 -2.9,5.3c-2.1,-0.1 -3.1,-1.7 -4.1,-3.2c-0.6,-1.2 -1.2,-2.4 -1.7,-3.6c-4.8,-7 -10.9,-4.6 -17.1,-2.5c-0.9,0.1 -1.8,-0.2 -2.5,-0.8c-0.2,-2.2 -0.3,-4.4 -0.1,-6.6c0.7,-5.1 0,-11.7 7.7,-11.7c6.1,0 11.4,3.4 12.7,9.5c1.2,6.2 4.5,7.5 9.9,7" id="svg_68"/>
   <path class="st48" d="m275.51,440.96c1.4,-3.7 1.1,-8 3.8,-11.3c-0.1,3.9 -0.2,7.9 1.9,11.4l-2,1.8c-2,1 -3.1,0 -3.7,-1.9" id="svg_69"/>
   <path class="st49" d="m90.81,473.46c-2.2,-2.7 -2.9,-6.1 -3.6,-9.4c-3.8,-3.2 -7.6,-1.2 -11.7,-0.5c-12.6,2.4 -25.1,3 -36.2,-5.5c6.9,-7.4 -1.6,-12.6 -2.8,-18.9c0.2,-0.9 0.6,-1.7 1.2,-2.2c4.7,-0.2 7.3,7.8 12.1,4.1c6.7,-5.2 17.5,0.1 22,-9.4l3.8,-3.8c4.7,12.4 3,14.6 -14.9,19.2c5.1,4.3 10.2,6.8 17.6,5.6c6.9,-1 12.2,4.1 16.8,9.2c2.3,2.6 4.2,5.5 6.6,8c4.1,4.4 7.5,4.2 9.8,-1.8c0.7,-0.7 1.5,-1.1 2.4,-1.3c3,-0.1 5.8,1.5 7.2,4.1c2.3,7.8 -2.2,11 -8.7,12.1c-4.2,0.7 -8.7,0.9 -12.7,-1.3c-3.3,-2.3 -5.8,-5.6 -8.9,-8.2" id="svg_70"/>
   <path class="st50" d="m111.91,467.76c0.3,2.4 5.4,4.9 1.5,6.8c-3.2,1.5 -7.8,5.1 -11.7,-0.2c-3.6,-5.1 -7.7,-9.9 -12.1,-14.3c-4.6,-4.4 -10.2,-7.7 -16.9,-3.4c-2.9,1.8 -4.9,0.9 -6.2,-1.7c-1.7,-3.2 -4.5,-4 -7.7,-4.6c-2,-0.4 -4.9,-0.9 -4.5,-3.7c0.3,-2.5 3.1,-2.7 5.2,-3.3c0.3,-0.1 0.6,-0.1 0.9,-0.1c11.3,1.1 17.1,-3.3 15.4,-15.3c0.6,-1.3 1.2,-2.6 1.9,-3.8c2.8,-2.6 2.5,-6.3 3.8,-9.5c0.6,-1.3 1.2,-2.6 1.9,-3.8l1.3,0.3c6.2,6.5 5.2,13.6 1.9,21c-2.7,5.8 -6.2,11.1 -10.5,15.9c10.2,0 16.4,8.2 25.6,9.2c0.9,0 1.8,0.1 2.6,0.5c0.7,0.5 1.4,1.1 1.9,1.8c1.1,2.8 2.9,5.3 5.3,7.2c0,0.2 0.2,0.6 0.4,1" id="svg_71"/>
   <path class="st51" d="m61.81,395.76c7.1,-0.3 13.3,5 13.5,11.7c0.4,9.1 -6.8,17.5 -14.9,17.6c-7,0.1 -12.7,-5.7 -13.1,-13.4s6.8,-15.6 14.5,-15.9" id="svg_72"/>
   <path class="st52" d="m37.71,439.26c1.8,2.2 3.6,4.3 5.5,6.4c5.9,6.6 5.2,8.5 -3.7,10.8c-0.7,0.6 -1.6,0.7 -2.5,0.5c-6.8,-5.4 -13.5,-10.9 -16.6,-19.5c-2.4,-5.5 -3.2,-11.3 -3.7,-17.2s1.8,-8.3 7.6,-7.5c8.5,1.7 5.4,10 8.6,14.8c0.4,0.8 0.8,1.6 1,2.4c1.1,3.1 2.3,6.3 3.8,9.3" id="svg_73"/>
   <path class="st53" d="m71.91,431.56c-0.5,5.2 -3,8.1 -8.6,7.7c-1.6,-0.2 -3.2,0.2 -4.5,1c-8.1,6.4 -14.9,3.9 -21.1,-3c-2.8,-1.9 -3.9,-5 -5.7,-7.6c-1.1,-1.3 -1.5,-3.8 -0.8,-4.1c6.8,-2.4 2.7,-7.2 2.7,-11.1c10.4,1.3 12.1,3.9 10,13.4c-0.7,3.1 -2.8,7.1 0,9.9c3,3.1 5.6,-0.8 8.4,-1.7c6.4,-1.9 14.2,1.5 19.6,-4.5" id="svg_74"/>
   <path class="st15" d="m33.91,414.56c1.6,1.5 3.5,2.7 4.8,4.4c1.5,2 3.4,4.4 2.1,6.9c-1.5,2.9 -3.8,0.3 -5.8,-0.2c-4.2,-1 -2.6,2.3 -3.1,4c-6.2,-4 -1.1,-13.2 -7.6,-17c3.4,-0.4 6.7,0.3 9.6,1.9" id="svg_75"/>
   <path class="st15" d="m20.51,437.46l17.3,18.9c-1.3,1.3 -2.7,1.2 -4.1,0.1c-3.6,-3.3 -8.9,-4.6 -11.1,-9.5c-0.7,-3.2 -1.4,-6.4 -2.1,-9.5" id="svg_76"/>
   <path class="st50" d="m83.61,409.16l16.6,-0.1l-0.1,3.2c-0.6,0.8 -1.6,1.2 -2.5,1.3c-5,0.4 -9.8,0.2 -14,-2.9l-0.2,-0.1c0,-0.4 0.1,-0.9 0.2,-1.4" id="svg_77"/>
   <path class="st53" d="m81.41,414.46c0.1,3.7 0.6,7.6 -3.8,9.5c0.9,-3.3 1.4,-6.8 3.8,-9.5" id="svg_78"/>
   <path class="st54" d="m106.21,389.96c-9,-7.2 -12.9,2.9 -18.9,5.7c-0.4,-2.8 0.5,-5.3 1.8,-7.7c3.4,-3.6 6.5,-7 6.2,-12.7c-0.3,-4.8 2.4,-6.8 7.1,-4.4c4.4,4.7 8.4,9.9 15.2,11.5c0.7,3.2 7,4.9 4,8.3c-2.5,2.9 -6.1,-1.3 -9.2,-2.4c-2.6,-1.1 -5.5,-3.4 -6.2,1.7" id="svg_79"/>
   <path class="st55" d="m102.41,370.76c-2.4,0.3 -6,-0.2 -4.6,3.8c3,8.6 -2.2,11.3 -8.8,13.3c0.6,-3.6 1.8,-7.2 1.8,-10.9c0.3,-11.6 0.5,-11.9 11.6,-6.2" id="svg_80"/>
   <path class="st13" d="m244.81,336.96c-4.9,-5.7 -11.7,-8.8 -17.3,-13.4c5,-4.5 7.8,-15.5 17.6,-6.1l-0.2,0.3c-1.6,2.2 -4.8,1.4 -6.6,3.5c2.2,4.5 8,3.9 10.5,7.6l0.3,0.4c-3.8,1.2 -5.6,3.6 -4.3,7.7" id="svg_81"/>
   <path class="st56" d="m227.91,374.46l-5.5,0.9c-1,-1 -1.4,-2.5 -0.9,-3.8c1.4,-2.6 2.9,-5 6.4,-2.7l0.4,3.8c-0.2,0.6 -0.3,1.2 -0.4,1.8" id="svg_82"/>
   <path class="st57" d="m248.81,328.86c-2.5,-0.4 -5.5,0 -7.3,-1.3c-2.7,-2.1 -8.8,-2.3 -7.8,-6.5c1.3,-5.4 6.8,-4.2 11.2,-3.3c1.8,3.5 7.9,5.5 3.9,11.1" id="svg_83"/>
   <path class="st58" d="m68.11,484.86c13,10.4 17.2,10 24.8,-2.2c4.2,-0.1 5.3,2.4 4.8,6c-8.7,10.4 -15.5,12.5 -27.2,6.8c-10.1,-4.9 -20.3,-8.2 -31.8,-8.2c-9.6,0 -17.4,2.5 -23,10.5c-5.9,8.5 -3.6,17.3 -1.2,26.1c0.9,3.3 2.8,6.3 4,9.5c1.3,3.6 0.6,7.6 2.1,11.1c0.3,0.9 0.5,1.8 0.6,2.8c-1.7,12.3 5.3,19 14.8,24.9c8.1,5 13.6,13.6 23.5,16.8c7.5,2.4 15.1,4.3 22.8,5.7c17,3.1 33.9,2.5 50.9,1.4c7.3,-0.5 14.4,-0.9 21.4,-3.3c6.1,-2 12.1,-4.4 18.3,-5.9c3.4,-0.4 6.6,-1.7 9.2,-3.9c0.7,-0.5 1.4,-1 2.1,-1.5c3.1,-1.6 5.3,-4.1 7.6,-6.6c0.9,-0.9 2.1,-1.6 3.5,-1.7c0.9,0 1.7,0.4 2.3,1c-4.8,11.7 -15.5,16.9 -26.1,20.1c-50,15 -99.2,17.8 -145.7,-11.8c-12.1,-7.7 -17.4,-20.9 -12.1,-34.1c2.3,-5.7 0.9,-10.8 -1.6,-15.5c-5.4,-10 -4.6,-20.7 -4.8,-31.4c-0.3,-14.7 18.6,-21.6 31.6,-22.4c10.2,-0.5 19.7,3 29.2,5.8" id="svg_84"/>
   <path class="st59" d="m275.51,440.96l3.7,2c-8.7,28.8 -24,53.6 -45.1,74.8c-2.9,2.9 -5.9,5.6 -9.9,7c-3.3,-1.7 -6.5,3.6 -9.9,0.1c-0.7,-2.6 0.7,-4.4 2.6,-5.6c17.9,-11.9 29.5,-29.1 40,-47.3c5.1,-5.8 7.1,-13.1 10.1,-20c1.3,-3.1 1.7,-6.8 4.8,-8.9l3.7,-2.1" id="svg_85"/>
   <path class="st60" d="m197.61,574.26l-2,-0.1c-2.4,-6.9 2.1,-12.2 4.7,-17.7c3.4,-7.5 6.8,-15 10.2,-22.5c0.9,-2.3 2.9,-4 5.3,-4.6c1,-0.1 1.9,0.3 2.6,1c-3.1,16.6 -12.8,29.8 -20.8,43.9" id="svg_86"/>
   <path class="st61" d="m218.31,530.46l-1.8,0c-1.8,-1.4 -4.4,-2.2 -4.2,-5.3c0.4,-0.7 1.3,-1 2,-0.6c3.3,0.8 6.6,-3.6 9.9,0.2l-5.9,5.7" id="svg_87"/>
   <path class="st62" d="m96.81,488.56c-0.2,-2.5 -1.7,-4.7 -3.9,-5.8l-2.1,-9.2c4.9,-1 7,2.8 9.6,5.7c9.5,7.6 11.3,19.9 17.8,29.3c1.3,1.9 1.2,4.4 -0.1,6.2c-4.2,2.5 -6,-1 -8.2,-3.3c-3.9,-7.9 -11.9,-13.4 -13.1,-22.9" id="svg_88"/>
   <path class="st63" d="m33.71,456.36l4.1,-0.1c0.6,0.1 1.2,0.1 1.8,0.2c10.9,7.9 23.2,6.3 35.3,4.9c4.8,-0.6 9.2,-2.9 12.3,2.7c-9.1,-0.3 -17.4,4.7 -26.7,3.8c-10.2,-1 -19.3,-4.3 -26.8,-11.5" id="svg_89"/>
   <path class="st64" d="m123.41,371.06c-3.7,-0.3 -6,-2.7 -7.8,-5.6l3.9,-4.3c0.4,5 6.3,2.5 7.9,5.9c0.3,3 -1.1,4.3 -4,4" id="svg_90"/>
   <path class="st56" d="m203.11,353.76c2.5,-0.4 6.9,0.5 2.5,-4.1c-2.2,-2.3 -6.2,-0.7 -8.1,-3.6c11.5,-0.8 18,8.2 26.5,13.4c-2.3,1.9 -3.4,4.8 -5.9,6.5c-2.3,0.9 -4.4,0.1 -6.4,-1c-3.8,-3.1 -9.5,-4.7 -8.6,-11.2" id="svg_91"/>
   <path class="st26" d="m218.31,365.36c-2,-5.7 1.7,-6 5.7,-6l3.9,9.5c-2.9,-0.1 -3.9,2.8 -6,3.9c-4.5,-0.9 -4.5,-3.9 -3.6,-7.4" id="svg_92"/>
   <path class="st65" d="m218.31,365.36l3.6,7.4c0.1,0.9 0.3,1.7 0.4,2.6c-5.5,2.1 -10.9,4.5 -16.8,4.9c-2.4,-7.2 -2.3,-15.9 -12,-18.4c-11.4,-3 -22.7,-6.3 -33.5,1.6c-4.6,6.3 -3.6,10.4 3.2,12.2c4,1.1 8.1,0.6 12.1,-0.2c0.6,-0.4 1.2,-0.8 1.8,-1.2c0.9,-3.7 -1.7,-0.9 -2.6,-1.3c-0.8,0.3 -1.7,0.4 -2.6,0.5c-3.9,0.1 -7.8,0.8 -11.4,-1.2c-3.9,-3.9 -1.6,-6.5 1.9,-8.8c3.9,-1.5 8.2,-0.7 12.2,-1.8c5.9,0 11.8,1.4 17.2,3.9c6.5,3.1 11.7,7.5 9.2,16c-22.9,4.5 -46.7,2.5 -68.6,-5.5c-3.2,-1.2 -6,-3.2 -9,-4.9l3.9,-4c8.4,-7 15.8,-15.9 28.2,-15.4l30.8,-0.1l5.1,1.7c9.4,-1.7 13.8,7.6 21.4,9.8l5.5,2.2" id="svg_93"/>
   <path class="st19" d="m212.81,363.06c-8.5,-0.3 -13,-9.3 -21.4,-9.8c4,-3.3 7.8,1.3 11.7,0.4c2.3,4.2 6.3,6.5 9.7,9.4" id="svg_94"/>
   <path class="st39" d="m210.71,406.86l19.1,0c3.5,1.1 3.2,2.7 0.8,4.7c-8.7,2 -17.6,1.1 -26.4,0.7c-20.8,-1 -41.6,-0.3 -62.4,-0.8c-4,-0.1 -9.2,1.7 -11.1,-4.3l0.3,-0.4l79.7,0.1" id="svg_95"/>
   <path class="st36" d="m231.51,410.96c0.3,-1.6 -0.4,-3.1 -1.7,-4.1c1,-5.2 4.2,-3.7 7,-2.1s5.6,3.9 8.4,5.8c0.6,0.1 1.1,0.1 1.7,0.1c8.1,2.2 9.1,8.9 9.9,15.7c-3.6,10.2 -9.3,11.9 -17,4.9c-2,-1.9 -3.9,-4 -5.7,-6.2c-2.2,-4.3 -6.2,-8.5 -2.6,-14.1" id="svg_96"/>
   <path class="st66" d="m201.01,381.46c-2.6,-14.9 -15.7,-14.7 -26.2,-18.2c-3.8,1.2 -8.1,-1.4 -11.6,1.8c-1.8,1.5 -5,2.5 -1.9,5.7c4.3,1.7 9,1.7 13.3,0l0,0c1.9,-1.2 4.4,-1.6 5.6,0.2s-0.7,3.8 -1.7,5.6l0,0c-4.8,2 -9.9,0.9 -14.6,0.7c-7.9,-0.4 -10.5,-7.7 -6.3,-15.8c13,-9.1 26.5,-6.7 39.6,-1c10.1,4.4 11.4,8.8 8.3,19.9c-1.1,1.2 -2.9,1.7 -4.5,1.1" id="svg_97"/>
   <path class="st67" d="m231.51,410.96c-0.5,4.8 3.2,8.3 4.1,12.7c2.9,8.5 2.1,10 -4.6,8.8c-5,-5.6 -10.5,-9.8 -18.6,-6.3c-5.2,2 -12.5,-2.1 -15.9,5.3c-2.1,1.4 -3.9,0.2 -4.3,-1.6c-1.7,-6.8 -6.9,-6.6 -12.2,-6.5c-6.3,-0.7 -12.6,0 -19,-0.4c-3.3,-0.2 -7,-1.2 -7.1,-4.9c-0.1,-4.2 4,-4.2 7.1,-4.3c6.9,-0.2 13.9,-0.1 18.1,-0.1c-13.6,-1.1 -30,1.6 -46.3,-0.1c-5.1,-1.3 -9.8,-1.2 -13.5,3.2c-1.6,-4.5 -6,-11 -3.1,-13.3c4,-3.3 9.4,2.9 14.5,3.8c3,2.6 6.7,1.6 10,1.6c26.6,0.1 53.2,0.1 79.8,0.1c3.8,-0.1 7.7,-0.7 11,2" id="svg_98"/>
   <path class="st68" d="m83.51,410.76c5,0.7 10.5,-1.9 15.2,1.9c2.1,4.3 -0.1,9.1 1.4,13.5c1,3.9 1.8,7.8 4.2,11.1c3.8,2.2 4.4,5.4 2.8,9.2c-0.3,0.8 -0.7,1.6 -1.1,2.4c-1.4,3 -0.4,7 -3.6,9.4c-1.4,2.4 -3.5,4.9 -5.9,2.3c-7.1,-7.9 -16.6,-9.7 -27.5,-10.7c11.9,-11.3 22.2,-22.1 14.5,-39.1" id="svg_99"/>
   <path class="st49" d="m104.41,446.96c1.9,-3.2 2,-6.5 -0.1,-9.7c10.1,-3.1 14,-10.9 15.1,-20.6c-0.2,-9.9 5.3,-8.7 11.6,-5.9c5.1,4.3 6.6,9.1 1.5,14.5c-5.5,3.7 -10.4,7.8 -10.7,15.2c-1.7,5.6 -7.1,4.7 -11.1,6.3c-1.1,0.7 -2.4,1.2 -3.8,1.3c-1,-0.1 -1.8,-0.5 -2.5,-1.1" id="svg_100"/>
   <path class="st69" d="m112.11,408.66c4.7,6.9 4,13.7 -0.9,20.1c-2.9,3.7 -5.5,4.1 -7.2,-1.1c-2.1,-6 -1.9,-12.6 0.6,-18.5c2.4,-2.7 4.8,-3.9 7.5,-0.5" id="svg_101"/>
   <path class="st45" d="m100.01,426.16c-2.7,-4.3 -1.1,-9 -1.4,-13.5c0.5,-0.1 0.9,-0.2 1.4,-0.4c0,4.7 0,9.3 0,13.9" id="svg_102"/>
   <path class="st70" d="m112.11,408.66c-2.6,-1.3 -5,-0.3 -7.5,0.5c0.7,-1.9 0.7,-4.6 3.4,-4.6c2.4,0 3.7,1.8 4.1,4.1" id="svg_103"/>
   <path class="st71" d="m231.71,429.76c3.7,2 3.7,2 4,-6.1c2.1,2 4.1,4 6.2,5.9c7.2,6.5 9.5,5.8 12.7,-3.7c0.6,-0.6 1.4,-1 2.3,-1.1c2.9,0.4 4.8,-0.7 5.8,-3.6c0.8,-2.4 2.3,-4.5 5.3,-4.8l1.9,3.8c4,12.5 -3.6,31.1 -15,36.5c-3.4,1.6 -6.5,2.1 -9.5,-0.7c-0.5,-0.4 -0.8,-1 -0.8,-1.6c1,-10.9 1,-10.9 -10.2,-14c-1.4,-1.8 -2.2,-4 -3.7,-5.8c-0.8,-1.8 -0.3,-3.7 1,-4.8" id="svg_104"/>
   <path class="st48" d="m244.71,454.36c6.4,1.9 16.3,-2.5 18.9,-9.4c3,-7.9 6,-16 6.1,-24.7c2.7,-1.9 1.3,-5.3 3.1,-9.2c4.1,11.9 -3.9,21.8 -1.2,32.1c-1.8,11.3 -5.4,21.9 -13.3,30.5c-2.8,-2.5 -0.3,-6 -1.7,-9.6c-9.4,6.7 -14.4,-0.1 -19.8,-6c1.2,-4.4 4.2,-4.9 7.9,-3.7" id="svg_105"/>
   <path class="st72" d="m256.41,425.96c-0.6,0 -1.3,-0.1 -1.9,-0.1c-0.9,-5.9 -3.7,-10.8 -7.6,-15.1c8.2,-7.3 13.3,-6.8 20.9,1.8c-0.8,4.4 -5.9,6.8 -5.2,12.4c0.3,2.5 -3.7,2.3 -6.2,1" id="svg_106"/>
   <path class="st48" d="m256.41,425.96l4.4,-1c-3,-7.2 4.3,-8.5 7,-12.4l0,3.8c-1.1,1.9 -3.2,3.8 -3.1,5.6c0.7,9.1 -4,5.9 -8.3,4" id="svg_107"/>
   <path class="st73" d="m117.81,514.76c-4.3,-8.8 -8.4,-17.7 -13,-26.4c-1.6,-3 -3.9,-5.6 -4.3,-9.2c13.3,3.8 18.5,1.7 19.1,-7.9c1,-1.3 2.6,-1.8 4.1,-1.4c7,2.5 9.2,-1.2 10,-7.2c0.6,-0.7 1.5,-1.1 2.4,-1c11.9,11.2 12.7,17.7 3.8,29.7c-10.1,6.1 -11,16.9 -13.5,26.8c-3.1,3.6 -5.4,0.7 -7.8,-1c-0.5,-0.7 -0.8,-1.5 -0.8,-2.4" id="svg_108"/>
   <path class="st74" d="m134.51,462.06c2.6,12.8 2.4,13 -15,9.2l-5.7,-3.7c-0.5,-1.6 0.5,-2.4 1.7,-3.1c2.2,-0.7 4.4,-0.2 6.5,0.3c8.3,2.2 4.6,-2.5 3.3,-5.8c-1.8,-4 -4,-7.5 -9.2,-7.5c-2.8,0 -5.6,0 -8.2,-1.2c-1.3,-0.8 -2.3,-1.8 -1.8,-3.5l1.9,-1.8c18.9,-3.6 26.7,1.5 26.5,17.1" id="svg_109"/>
   <path class="st75" d="m106.21,446.86l2.2,2.1c1.3,6.1 7.2,10.1 7.5,16.7l-2.1,2l-2,0.1l0,0c-3.3,-1.7 -6,-4.5 -7.5,-7.9c0,-0.5 -0.1,-1 -0.3,-1.5c-1.1,-3.8 -1.5,-7.6 0.2,-11.4l0,0.1c0.8,-0.1 1.4,-0.1 2,-0.2" id="svg_110"/>
   <path class="st15" d="m32.01,429.76c3.1,1.7 5.5,3.8 5.7,7.6c0,0.6 0,1.3 0,1.9c-3.8,-2 -6.1,-5 -5.7,-9.5" id="svg_111"/>
   <path class="st49" d="m104.51,459.76l7.5,7.9c-5.8,0.4 -7.2,-3.2 -7.5,-7.9" id="svg_112"/>
   <path class="st49" d="m104.41,446.86c-0.1,3.8 -0.2,7.6 -0.2,11.4l-1.8,0c0.5,-3.8 -1.6,-8.1 2,-11.4" id="svg_113"/>
   <path class="st61" d="m212.71,534.36c-4,14 -12.1,26.3 -17.1,39.9c-0.6,0.6 -1.3,1.3 -1.9,1.9c-3.5,2.2 -6,5.5 -9.5,7.6c-2.9,2.3 -6.6,3.3 -9.5,5.7l-19,5.7c-20.9,0.9 -41.9,0.4 -61.9,-5.2c-10.4,-2.9 -22.1,-6 -29.5,-16.9c-3.7,-5.5 -11.9,-6.2 -19.3,-4c-12,3.6 -23.7,-5 -24.9,-18c-0.2,-1.8 -0.1,-3.8 -1.4,-5.4l0,0c-2.4,-3.5 0.5,-7.9 -1.9,-11.4c-8.5,-12 -10.9,-24.5 -3.8,-38c3.6,2.6 3.1,7.4 6,11c4.5,-3.2 6.7,-11.4 14.7,-7.9c2.8,5.1 -1.8,8.8 -2.4,13.3c-0.2,1.5 -1,3.2 0.5,4.4s3,0.3 4.4,-0.4c7.8,-4 15.2,-8.8 22.6,-13.3c1.6,0.1 3.1,1.1 3.7,2.5c2.6,5.4 4.4,11.7 12.2,4.8c1.9,-1.7 4.7,0.8 6.5,2.6c2.5,2.4 4.9,4.9 7.2,7.6c3.4,4.4 5.7,4.1 7.8,-1.1c1.5,-3.8 4.4,-6.7 8.8,-5.1c3.7,1.4 3.6,5.5 2.3,8.2c-7.6,16.6 3.5,25.3 14.8,32.3c8.9,5.5 19.1,9 29.6,11.7c12.1,3 21.5,-2 31.6,-6.2c4.3,-1.8 6.6,-4.4 3.4,-9.5c-4,-6.3 -2.1,-10.9 5.2,-12.7c7,-1.7 13,-7.2 20.8,-4.1" id="svg_114"/>
   <path class="st76" d="m212.71,534.36c-6,2 -11.8,4.7 -17.9,5.9c-10.1,2 -8.8,7.5 -3.7,12.5c4.8,4.8 1.6,5.2 -1.7,7.7c-7.4,5.6 -16.2,8.5 -24.6,10.5c-7,1.6 -16,0.3 -22.5,-3c-11.3,-5.8 -24.3,-8.7 -33.4,-19.4c-5.6,-6.7 -9.2,-12.2 -5.4,-20.6c0.6,-1.8 1.1,-3.6 1.3,-5.5c0.4,-2.2 3,-5.2 -1.1,-6c-2.5,-0.5 -4.1,1.8 -5.1,4.6c-4.2,10.9 -4.3,10.8 -11.7,2c-2.2,-2.6 -5.1,-4.7 -7.2,-7.4c-3.4,-4.7 -5.8,-4.4 -7.8,1c-0.7,1.8 -1.4,3.8 -3.6,3.8c-2.9,0.1 -3.2,-2.4 -4.1,-4.4c-1.8,-4 -3.8,-7.9 -5.6,-11.8c-8.5,1.1 -16.7,0.5 -24.4,-3.7c-10.1,-0.9 -10.4,8.9 -15.7,15.2c-2,-7.1 -6,-12.3 -5.4,-19.1c8.6,-15.9 29.3,-12.7 45.3,-9.6c1.8,0.5 3.6,1.3 5.1,2.5c11.3,7.4 22.4,9.3 33.4,-0.7c5,7.1 10,14.1 14.9,21.2c2,8.3 10,11 15.5,15.3c13.2,10.3 28.6,15.6 47.4,13.7c-13.4,0.4 -13.4,0.4 -14.4,-5.6c1.6,-1.1 3.5,-1.6 5.4,-1.4c15.5,1.4 30,-2.2 44.2,-7.8c1.1,-0.1 2.1,0.3 2.9,1c1.3,1.8 4,2.7 3.8,5.6l-3.8,3.8" id="svg_115"/>
   <path class="st60" d="m18.71,545.76c1.2,9.4 9.8,13.8 14.3,21c2.6,4.2 5.9,2.3 8.1,0.9c9,-6.1 17,-0.4 25.3,1.5c0.9,0.3 1.7,0.8 2.3,1.6c7.6,10.6 18.8,15.4 33,17.5c12,1.8 23.6,5.3 36,4.3c1.5,-0.1 4,0.9 4.5,0.2c4.8,-5.8 7.6,-4.4 9.9,2c0.2,0.5 2.4,0.4 3.6,0.5c-1.6,2 -3.9,1.9 -6.1,2c-20.4,0.9 -40.6,7.1 -61.4,0.6c-6.2,-1.9 -14,-0.8 -21.1,-2.3c-8.1,-1.7 -13.7,-9.4 -22.6,-8.6c-3.6,-12.3 -17.5,-14.2 -24,-23.6c-3.6,-5.4 -1.1,-11.8 -1.8,-17.6" id="svg_116"/>
   <path class="st60" d="m184.21,583.76c2.4,-3.6 4.8,-7 9.5,-7.6c-2.4,3.6 -4.8,7.1 -9.5,7.6" id="svg_117"/>
   <path class="st60" d="m174.61,589.46c2.1,-3.7 5.6,-5 9.5,-5.7c-2,3.8 -5.5,5 -9.5,5.7" id="svg_118"/>
   <path class="st60" d="m16.81,534.36c3.3,3.4 1.4,7.6 1.9,11.4c-3.3,-3.4 -1.4,-7.6 -1.9,-11.4" id="svg_119"/>
   <path class="st77" d="m212.71,524.96l-1.9,-0.2c-1.9,-6 3,-9 5.8,-12.9c3,-4.3 2.2,-6.1 -3.1,-6.1c-3.4,0 -7.8,1.9 -8.7,-3.9c3.2,-3.9 8.6,-3.4 12.9,-6.2c-3.1,-3.8 -8.7,-2.9 -11.1,-6.9c3,-7.1 8.4,-3.5 12.7,-2.3c14.2,3.8 13,4.1 11.7,-10.7c-0.9,-10 -4.7,-12.5 -13.6,-12.3c-3.2,0.1 -6.9,1.4 -10.1,-0.7c-1.7,-2.5 0.1,-4.2 1.3,-6c4.6,-3.6 3.3,-8.2 2,-12.8c-0.5,-4.9 0.2,-9.5 2.9,-13.6c4.4,-2.8 5.5,2 8,3.4c2.5,3.3 5.5,6.7 0.3,10c-3.6,2.3 -1,4.8 -0.8,7.3c0.3,4.3 3.3,4.5 6.6,4.6s6.9,-0.6 9.5,2.5c3.5,0.7 6.9,1.7 9,4.7c2.5,3.5 4.4,2.3 6.9,0.1c1.9,-1.8 3.6,-5.4 6.9,-3.2c3.8,2.5 0.3,5.7 0,8.6c-0.3,1.8 -0.8,3.7 -1.4,5.4c-10.1,21 -24.4,38.3 -44.1,51c-0.7,-0.2 -1.2,-0.1 -1.7,0.2" id="svg_120"/>
   <path class="st78" d="m159.41,534.36c5.4,3.8 11.6,1 17.4,2c2,0.3 4.1,0.9 4.3,3c0.1,2.6 -2.3,2.4 -4.1,2.6c-26.8,2.1 -48.4,-7.7 -65.5,-28.1c-1.1,-1.4 -1.3,-2.8 0.2,-4.1c1.7,2.1 3,4.6 6.1,5.1l-0.2,0.6c3,1.7 5.1,5.1 9.1,4.9c9.6,2.7 18.3,7.9 28.1,10c2.3,0.2 4.1,1.8 4.6,4" id="svg_121"/>
   <path class="st79" d="m157.51,361.36c-2.7,10.7 -0.1,13.9 10.8,13.9c3.4,0 6.8,0.8 10.2,1.2c-5.1,3.5 -10.9,2.9 -16.3,1.7c-9,-1.9 -10.9,-9.3 -4.7,-16.8" id="svg_122"/>
   <path class="st79" d="m163.31,365.06c3,-6.2 7.4,-3 11.6,-1.8c-3.6,2.9 -7.7,1.5 -11.6,1.8" id="svg_123"/>
   <path class="st79" d="m178.51,376.56c0.6,-3.2 1.3,-6.5 -3.9,-5.8c2,-2 4.6,-2.9 6.4,-0.7c2.5,2.9 -0.1,4.9 -2.5,6.5" id="svg_124"/>
   <path class="st79" d="m174.61,370.66c-4.4,3.1 -8.9,3 -13.3,0l13.3,0" id="svg_125"/>
   <path class="st80" d="m234.21,408.86c9.6,3.1 16.3,7 16.7,16.9c0,1.5 0.3,3.6 -1.4,4c-1.5,0.2 -3.1,-0.3 -4.2,-1.3c-5.5,-4.9 -10.1,-10.3 -11.1,-19.6" id="svg_126"/>
   <path class="st81" d="m134.51,462.06c-8.5,-17.6 -9.2,-18 -26.4,-17c2.5,-4.5 10.3,0.9 11.5,-6.1c1.8,-1.9 4.4,-2.1 6.7,-2.9c6.5,-2.2 9.3,-6 4.5,-12.4c5.5,-4.3 0.3,-8.7 0.1,-13c17.6,0 35.3,-0.1 52.9,0.1c3.1,0 8.8,-1.8 8.7,2.5c0,5.3 -5.9,2.8 -9.2,3c-9.2,0.4 -18.5,0.1 -27.7,1.1c8.2,5.9 18.4,-0.4 26.6,4.7c1.9,6.4 2.4,12.6 -1.2,18.7c-2.8,1.7 -3.6,-0.6 -4.7,-2.4c-0.5,-1.4 -0.8,-2.9 -0.9,-4.3c0.7,-5.8 -1.2,-8.6 -7.5,-6.5c-3.4,1.1 -7,1.1 -10.3,-0.2c-7.3,-2.9 -10.7,-0.9 -12.2,7.1c-1.7,8.4 -4.4,16.5 -8.2,24.2c-0.4,1.3 -1.2,2.5 -2.3,3.3l-0.4,0.1z" id="svg_127"/>
   <path class="st82" d="m180.61,441.16c0.3,-6.4 -2,-13 1.7,-19c9,-4.2 9,-4.2 13,9.8c2.1,1.2 2.6,3.3 2.9,5.5c0.2,3.8 -0.7,7.5 -2.6,10.8c-2.2,3.7 -5,8.6 -10,5.8c-4.4,-2.4 -9,-6.4 -5,-12.9" id="svg_128"/>
   <path class="st83" d="m195.71,437.36c-0.1,-1.8 -0.3,-3.6 -0.4,-5.4c-0.2,-5.6 1.8,-8.7 8.1,-8c3.1,0.2 6.1,0.2 9.2,0.1c2.7,1.1 3.9,2.7 2.1,5.5l-2,15.3c-0.8,1.7 -2.5,2.9 -4.5,2.9c-0.9,-0.1 -1.7,-0.6 -2.3,-1.2c-0.9,-1.2 -1.5,-2.7 -1.5,-4.3c0.3,-7.4 -3.2,-7.9 -8.7,-4.9" id="svg_129"/>
   <path class="st84" d="m214.71,429.56c-0.7,-1.8 -1.4,-3.7 -2.1,-5.5c8.4,-5 14,-0.4 19.1,5.7c0,1.9 0,3.8 0,5.7c-1.9,2.4 -4.4,2.6 -7.1,2c-1.5,-0.4 -2.9,-1 -4.3,-1.9c-3,-0.9 -3.4,-4.3 -5.6,-6" id="svg_130"/>
   <path class="st85" d="m130.91,423.66c6.5,2.1 7.9,6.3 3.5,11.1c-4,4.3 -9.1,5.3 -14.7,4.2c0,-7.8 4.7,-12.2 11.2,-15.3" id="svg_131"/>
   <path class="st86" d="m237.11,457.96c-3.7,0 -7.5,0 -11.2,0.1c-5,0.2 -7.6,-2.1 -7.3,-7.3c1.5,-7 6.1,-10.9 12.5,-13.1c0.9,0.1 1.8,0.5 2.6,1c1.2,0 2.5,0 3.8,0.1c4.6,0.3 10.3,-1 12.5,4.2c2.1,4.8 -3,7.7 -5.3,11.2l-7.6,3.8" id="svg_132"/>
   <path class="st67" d="m233.71,438.76l-2.1,0.3c-2.4,-1.3 -7.1,2.3 -7.5,-3.5l7.5,-0.2c2.7,0.1 3.4,1.1 2.1,3.4" id="svg_133"/>
   <path class="st87" d="m159.41,534.36c-12,-3.1 -23.8,-6.6 -34.3,-13.3c-0.6,-0.4 -0.8,-0.9 -0.6,-1.3s0.4,-0.6 0.7,-0.6c-2.3,-11.4 3.9,-24.6 13.3,-28.6c0.2,0.3 0.5,0.7 0.7,1c0.4,1.2 0.4,2.5 0.8,3.7c6.2,8.1 14.5,8.4 23.5,6.3c4.1,-1 7.9,-4 12.5,-2.3c-0.3,2.8 3.4,3.9 2.8,6.7c-5.2,5 -13.1,5.6 -17.9,11.4c0.3,2.7 3.8,1.5 4.6,3.5c-1.3,7.3 2.3,9.2 8.9,8.6c6.9,-0.7 12.5,-2.6 13.2,-10.7c1,-1.3 2.5,-2 4,-2.1c7.1,0.2 6,-4.2 5.1,-8.6c0.5,-5.4 -4.1,-2.7 -6.2,-3.7c-2.7,-1.3 -6.7,-1.7 -2.7,-6c6.2,-1.4 12.6,-3.5 17.2,3.3c2.5,3.3 5.6,1.9 8.6,0.9c3.8,-1.2 7,-0.2 9,3.1c2.2,3.6 -1.6,4.7 -3.2,6.7c-3.1,3.9 -6.8,7.4 -8.7,12.3c-11.6,9.1 -25.2,10.2 -39.1,9.9l-12.2,-0.2" id="svg_134"/>
   <path class="st88" d="m135.01,462.06c-0.1,-1.2 -0.2,-2.5 -0.3,-3.8c3.6,-3.6 9.2,-5.1 10.6,-11.3c1,-4.6 4.6,-3.2 7.4,-1.3c2.6,1.8 3.8,5 6.5,6.7c1.6,1.6 3,3.3 2.6,5.7c-1.9,1.9 -1.8,3.3 0.9,4.6c2.2,1.1 5.5,1.7 4.4,5.6c-4.5,3.8 -9.9,-0.4 -15.3,1.6c0.9,4.6 4.8,6 8,8.2c2.7,1.8 7,2 7.3,6.5c-2.4,3.1 -5.6,2.6 -8.6,1.7s-4.8,0.4 -6.8,2.1c-4.2,2.2 -8.2,5.3 -13.3,2.2l0,0c9.5,-10.8 2.4,-19.6 -3.4,-28.5" id="svg_135"/>
   <path class="st76" d="m125.21,519.16c0.1,0.6 0.1,1.2 -0.1,1.8c-3.7,-0.3 -5.8,-2.7 -7.5,-5.7c3.3,-0.1 4.8,3 7.6,3.9" id="svg_136"/>
   <path class="st89" d="m116.01,465.66c-3.7,-5 -11.1,-8.4 -7.5,-16.7l9.2,-0.2c3,3.3 5,7.9 9.9,9.2c1.1,1.5 2.1,3.1 2.9,4.8c0.7,1.9 3,4 0.9,5.9c-1.8,1.6 -4.2,0.5 -6.3,-0.2l-9.1,-2.8" id="svg_137"/>
   <path class="st90" d="m127.51,458.06c-7.6,1.5 -12.5,0.2 -9.9,-9.2c6,0.2 8.5,4.1 9.9,9.2" id="svg_138"/>
   <path class="st91" d="m206.81,461.96c6.8,-3.5 14.2,0.9 21.2,-1.5c2.5,-0.8 5.9,1.7 5.1,4.2c-2.3,7.3 2.3,13.5 2.3,20.3c0,7.7 -2.7,8.3 -9.9,6.3c-5.8,-1.6 -11.7,-7.4 -18.5,-2.3c-1.8,5.6 -5.9,5.8 -10.6,4.3c-2.1,-0.3 0.6,-3.6 -2.5,-3.6c-3.8,0 -5.8,-2.6 -5.5,-6.2c0.3,-4.2 2.4,-7.1 7.2,-6.7c3,5.2 7.4,4.7 12.1,2.9c5.2,-2.1 11,-3.6 10.4,-11c-3.3,-3.9 -5.7,-0.8 -8.3,0.9s-5.4,3.5 -8.9,3c-2.1,-0.8 -2.9,-2.4 -2.7,-4.5c1.6,-3.7 3.8,-6.8 8.6,-6.1" id="svg_139"/>
   <path class="st92" d="m195.71,492.66c4.1,-0.3 7.7,-2 11.4,-3.7c5.9,0.6 14.8,0.7 15,6.5c0.2,5.6 -8.9,4.6 -14.2,6c-0.9,0.2 -1.9,0.3 -2.8,0.3c-6.1,-2.2 -12.5,-1.2 -18.7,-1.9l-0.6,-1.1c1.2,-4.5 4.6,-5.8 8.7,-6.2l1.2,0.1" id="svg_140"/>
   <path class="st93" d="m206.81,461.96l-7.5,6c-2.1,3.1 -4.6,5.9 -8.5,3.2c-3.2,-2.2 -2.3,-5.8 -1,-8.7c3.5,-7.5 7,-15.2 17.1,-15.3c0.6,0.1 1.3,-0.1 1.8,-0.4c6.2,1.6 6.4,3.3 1.5,11.4c-1,1.3 -2.2,2.6 -3.4,3.8" id="svg_141"/>
   <path class="st94" d="m224.21,435.66l7.5,3.5c-5.6,2.3 -10.2,6.4 -13.1,11.8c-2,-5.8 -1.9,-5.5 3.2,-9.3c3.3,-2.5 -1.3,-3.9 -1.5,-6l3.9,0" id="svg_142"/>
   <path class="st94" d="m210.41,458.16c0.4,-3.9 6.5,-8.6 -1.5,-11.4l3.8,-1.8c3,5 3.7,9.7 -2.3,13.2" id="svg_143"/>
   <path class="st95" d="m207.11,447.16c-5.3,3.8 -10.8,7.3 -13.8,13.4c-1.4,2.8 -3.6,6.2 -1.9,8.7c2.5,3.8 5.1,-1.6 8,-1.2c0,1.5 0.8,2.9 2.1,3.7c0.5,4.1 -1.5,5.8 -5.4,5.8c-3.5,1.3 -6.8,3.3 -5.7,7.4c1.8,6.5 7.1,0.5 11,2.7l-5.7,5.2l0,-0.1c-3.3,2.2 -9.6,0.5 -9.2,7.3l-0.1,-0.1c5,4.5 13.7,0.4 18.1,7.4c-2.4,3.2 -5.2,-0.4 -7.5,0.7c-5.8,1.2 -10.4,3.3 -8.8,10.6c1.2,1.3 2.4,2.5 3.6,3.8c-4.6,2.3 -5.2,9.1 -11,9.8c-3.5,0.4 -7,0.4 -10.4,0.2c-3,-0.2 -6.7,1.3 -8.5,-2.4c-1.9,-3.9 0.9,-6.5 3.2,-9.1c2.9,-6.2 10.1,-8.5 13.2,-14.6c-1,-2 -3.5,-3.7 -1.9,-6.5c-6.8,-5 -15.8,-4.8 -22.7,-9.5c-1.1,-0.8 -1.7,-2.1 -1.9,-3.5c-0.3,-3.6 0.9,-5.2 4.7,-3.8c3.4,1.2 6.9,2.5 10.6,1.7l1.3,-0.3c0.9,-0.2 1.9,-0.2 2.8,-0.3c2.6,-0.4 6.3,1.2 7,-2.7c0.6,-2.9 -1.8,-5.1 -4,-7c-1.2,-1 -2.6,-1.7 -4.1,-2.2c-1.7,-0.8 -3.2,-1.7 -3.4,-3.9c-1.5,-3.3 -5,-3.1 -7.7,-4.2c-2.3,-1 -3.8,-2.2 -3.2,-4.7c0.9,-3.5 3.5,-0.7 5.3,-1.2c5.6,-0.6 11.3,7.5 15.3,2.6c3.3,-4 -4.6,-8.6 -5.7,-13.8c-0.1,-0.6 -0.3,-1.2 -0.4,-1.9c0.5,-4.8 0.6,-10 7.9,-7.9c0,1.6 0.9,3 2.2,3.8c0.7,5.1 3.4,12 7.5,11.2c6.2,-1.3 6.6,-9.1 7.7,-15c2.8,-1.9 0.6,-8.8 6.7,-7.1c4.4,1.3 4.4,5.6 4.6,9.4c0.1,2.6 0.1,5.1 0.2,7.6" id="svg_144"/>
   <path class="st83" d="m158.11,454.26c-4.9,-0.9 -4.7,-7.6 -10.2,-8.6c1,9.8 -5.1,12.2 -13.1,12.6c3.8,-11.2 9,-22 9.6,-34.2c0.2,-4.1 3,-3 5.5,-2c6.8,2.7 13.5,4.1 21,2.2c7.8,-2 7.9,3.7 7.3,9.2c-6.5,0.4 -14.3,-1.9 -16.2,7.9c-5.3,3.1 -2.2,8.7 -3.9,12.9" id="svg_145"/>
   <path class="st96" d="m161.41,441.26c-1.4,-3.1 -3.4,-7.2 1.1,-8.6c5,-1.6 11,-6.1 15.8,0.9c0,1.3 0.1,2.6 0.1,3.9c-6.3,0.6 -5.4,5.4 -5.6,9.6c-5.2,0.6 -9,-1.2 -11.4,-5.8" id="svg_146"/>
   <path class="st97" d="m227.11,430.76c-5,1.9 -7.2,-0.4 -9.5,-4c4.9,-1.7 7.2,0.4 9.5,4" id="svg_147"/>
   <path class="st98" d="m124.61,435.26c0.6,-4.7 2.9,-6.6 6.7,-6.7c0.4,0 1.4,1.5 1.2,2c-1,3.5 -3.7,4.5 -7.9,4.7" id="svg_148"/>
   <path class="st99" d="m237.31,452.36c-4.6,2.5 -11.9,4.4 -13.2,-0.3c-1.8,-6.6 5.4,-8.6 11.3,-9.1c3.2,2.6 4.5,5.6 1.9,9.4" id="svg_149"/>
   <path class="st100" d="m237.31,452.36c-0.6,-3.1 -1.2,-6.2 -1.8,-9.4c4.2,-2.4 9.4,-1.6 10.2,2.2s-3.8,6.8 -8.4,7.2" id="svg_150"/>
   <path class="st101" d="m153.81,488.56c5,1.4 10.1,2.8 15.1,4.4c3.5,1.1 7.6,1.7 7.5,6.8c-11.3,5.5 -22.7,9.7 -34.8,2.1c-2.7,-1.7 -5.6,-3.1 -4.9,-7.1c4.9,-4.3 10.7,-6.1 17.1,-6.2" id="svg_151"/>
   <path class="st102" d="m178.31,506.16c1,9.8 -7.3,11.1 -13.2,14.6c-3.7,-0.6 -7,3 -12.3,0.5c6.8,-8.7 14.7,-14.1 25.5,-15.1" id="svg_152"/>
   <path class="st103" d="m188.21,518.56c-1.1,-1.5 -2.1,-3.1 -3,-4.8c-1.1,-2.3 -2,-4.9 0.1,-7c1.9,-1.9 4.1,-0.7 6.2,-0.2l5.5,1.4c2,3 7.7,5.3 5.3,9c-3.2,4.8 -9.3,1.8 -14.1,1.6" id="svg_153"/>
   <path class="st73" d="m153.81,488.56l-17,6.2l1.8,-4.2l13.3,-3.8l1.9,1.8" id="svg_154"/>
   <path class="st104" d="m161.41,441.26c4.1,1.2 7.9,3.2 11.3,5.8c2,2.7 4.5,5.2 6,8.2s5.5,6.9 2.2,9.8c-2.3,2 -7,1.2 -10.5,-0.6c-3.3,-1.7 -6.8,-3 -9.2,-6.1c-0.1,-2 -1.6,-3 -3.1,-4.1c-0.5,-4.7 -10.5,-11.8 3.3,-13" id="svg_155"/>
   <path class="st105" d="m166.81,468.36l3.6,1.5c1.2,0.4 2.2,1.1 3.2,1.9c3.7,3.3 9.1,7.5 6.8,12c-2.2,4.3 -8.6,2.4 -13.3,1l0.1,0c-5.9,-3.3 -13.1,-4.4 -17.2,-10.5c-1.3,-2 -3.8,-3.8 -2,-6.5c1.4,-2 3.9,-2 6,-1.7c4.3,0.6 8.5,1.5 12.8,2.3" id="svg_156"/>
   <path class="st106" d="m196.11,477.46c2.2,-1.6 4.4,-3.2 5.4,-5.8c2.5,-1.4 4.9,-2.8 7.4,-4.2c4.3,-1.2 8.5,-4.7 13.1,-0.8c-0.7,11.2 -14.3,21.1 -25.4,18.1c-6,-1.8 -0.5,-4.9 -0.5,-7.3" id="svg_157"/>
   <path class="st77" d="m222.01,466.56c-4.5,-1.4 -8.7,1.4 -13.1,0.8c4.1,-4.4 8.4,-5.5 13.1,-0.8" id="svg_158"/>
   <path class="st91" d="m186.51,499.96c-1.4,-8 4.7,-6.8 9.2,-7.3c-2.4,3.2 -7.8,2.8 -9.2,7.3" id="svg_159"/>
   <path class="st88" d="m167.11,484.66c4.1,-0.9 10.3,2.9 12,-1.5c2,-5 -3.8,-8.6 -7.4,-11.9c-0.4,-0.4 -0.9,-0.9 -1.3,-1.4c1.5,0.4 3.3,0.4 4.4,1.3c4.1,3.5 9.5,8.1 6.4,13.2c-2.8,4.8 -9.2,3.5 -14.1,0.3" id="svg_160"/>
  </g>
 </g>
</svg>