<?xml version="1.0" encoding="utf-8"?>
<!-- Generator: Adobe Illustrator 27.1.0, SVG Export Plug-In . SVG Version: 6.00 Build 0)  -->
<svg version="1.1" id="Capa_1" xmlns="http://www.w3.org/2000/svg" xmlns:xlink="http://www.w3.org/1999/xlink" x="0px" y="0px"
	 viewBox="0 0 489.8 616.8" style="enable-background:new 0 0 489.8 616.8;" xml:space="preserve">
<style type="text/css">
	.st0{fill:#91AF8C;}
	.st1{fill:#97B28E;}
	.st2{fill:#ACC3AC;}
	.st3{fill:#95B18D;}
	.st4{fill:#5B7ABC;}
	.st5{fill:#5B7ABD;}
	.st6{fill:#5A79BC;}
	.st7{fill:#ADC3AD;}
	.st8{fill:#BEC2D7;}
	.st9{fill:#6280C0;}
	.st10{fill:#AEC4AD;}
	.st11{fill:#617FBF;}
	.st12{fill:#6F8AC5;}
	.st13{fill:#8199CE;}
	.st14{fill:#6A85C2;}
	.st15{fill:#DDD5CF;}
	.st16{fill:#F9E7C7;}
	.st17{fill:#FBE7C9;}
	.st18{fill:#E3A18B;}
	.st19{fill:#E5A992;}
	.st20{fill:#F9DBBD;}
	.st21{fill:#F9E6C7;}
	.st22{fill:#F7E5C6;}
	.st23{fill:#F8E6C6;}
	.st24{fill:#F6E5C6;}
	.st25{fill:#EFE1C2;}
	.st26{fill:#F9DDBF;}
	.st27{fill:#F8E6C7;}
	.st28{fill:#EBDFC0;}
	.st29{fill:#E9DEBE;}
	.st30{fill:#E1D9B9;}
	.st31{fill:#DFD8B8;}
	.st32{fill:#ECDFC0;}
	.st33{fill:#E1D9BA;}
	.st34{fill:#E4DDC1;}
	.st35{fill:#E8DFC2;}
	.st36{fill:#6683C2;}
	.st37{fill:#738EC8;}
	.st38{fill:#6985C2;}
	.st39{fill:#758FC9;}
	.st40{fill:#6986C3;}
	.st41{fill:#7A95CC;}
	.st42{fill:#7F99CF;}
	.st43{fill:#8AA3D4;}
	.st44{fill:#ABB7DA;}
	.st45{fill:#AEB9DC;}
	.st46{fill:#A9B7DA;}
	.st47{fill:#C2C6DB;}
	.st48{fill:#C4C7D9;}
	.st49{fill:#DCD4D1;}
	.st50{fill:#E4D8CD;}
	.st51{fill:#F7E4CA;}
	.st52{fill:#EFDFCB;}
	.st53{fill:#D1CDD2;}
	.st54{fill:#819ACF;}
	.st55{fill:#6E8AC6;}
	.st56{fill:#F6D7BC;}
	.st57{fill:#B7BFDC;}
	.st58{fill:#7FA8CF;}
	.st59{fill:#81A6D3;}
	.st60{fill:#7CA6D1;}
	.st61{fill:#769FD3;}
	.st62{fill:#C0C4D7;}
	.st63{fill:#C1C5D5;}
	.st64{fill:#F0CCB3;}
	.st65{fill:#E2A08B;}
	.st66{fill:#F7D9BD;}
	.st67{fill:#BDC4E0;}
	.st68{fill:#F3E2CB;}
	.st69{fill:#E0D7D2;}
	.st70{fill:#A7B4D9;}
	.st71{fill:#B5C1E2;}
	.st72{fill:#DAD6D8;}
	.st73{fill:#D9D4D6;}
	.st74{fill:#728CC7;}
	.st75{fill:#8399CE;}
	.st76{fill:#7299D0;}
	.st77{fill:#DBD5D3;}
	.st78{fill:#7394CC;}
	.st79{fill:#F6D5B9;}
	.st80{fill:#B4BFE0;}
	.st81{fill:#CECEDA;}
	.st82{fill:#607EBE;}
	.st83{fill:#DED7D4;}
	.st84{fill:#758FC8;}
	.st85{fill:#7A93CB;}
	.st86{fill:#738DC7;}
	.st87{fill:#E9DDCF;}
	.st88{fill:#E6DBD0;}
	.st89{fill:#CFD0DB;}
	.st90{fill:#BEC6E0;}
	.st91{fill:#EDDFCF;}
	.st92{fill:#607EBF;}
	.st93{fill:#627FBF;}
	.st94{fill:#CECED8;}
	.st95{fill:#F6E4CB;}
	.st96{fill:#E7DCD0;}
	.st97{fill:#BBC1DA;}
	.st98{fill:#CACAD9;}
	.st99{fill:#CDCDD8;}
	.st100{fill:#B9C2E2;}
	.st101{fill:#5F7DBE;}
	.st102{fill:#6B85C2;}
	.st103{fill:#6884C2;}
	.st104{fill:#6580BF;}
	.st105{fill:#607DBE;}
	.st106{fill:#637FBF;}
</style>
<path class="st0" d="M250.3,272.9c0-7.5-4.7-13-8.7-18.6c-10-14.2-11.2-30.9,3.7-42.1c4.6-3.4,5-8.2,4.1-13.7
	c-4-23.8,3.5-37,26-44.8c8.7-3.1,15.4-7.8,20.4-15.9c8.7-14,17.6-17,33.1-11.6c8.1,2.8,13.4,1.7,18.5-5.9
	c9.6-14.4,21.7-16.2,35.2-5.6c6,4.7,12.1,5.1,18.7,2.6c10.8-4,20.6-2.1,29.6,4.5c9.6,7,10.3,17.2,0.4,23.4
	c-10.7,6.8-13.4,14.2-9,26.1c3.7,9.9-0.6,18.2-11.2,23.3c-9.3,4.5-14.7,10.4-17,20.8c-2.9,13-16.1,20.2-29.4,18.1
	c-12.6-2-15.3-0.2-17.6,12c-2.8,14.9-11.6,21.9-26.7,21c-2.8-0.2-5.6-0.9-8.4-1.3c-11.7-1.5-15.3,1.3-16.9,13
	c2.2,7.1-2.8,11.9-5.3,17.6c-4.5,6.2-10.5,10.7-16.9,14.8c-4.1,3-8.5,5.6-11.9,9.5c-2.4,2.8-4.7,5.7-9,5.4c-1-0.1-1.9-0.5-2.7-1
	c-2.5-2.3-4.4-5.3-5.5-8.5c-1.5-4.2-2.3-8.6-2.2-13c-0.3-4.9,1.1-9.6,2-14.3c0.4-1.8,0.9-3.6,1.5-5.3c0.4-3.1,0.7-6.3,3-8.8
	L250.3,272.9"/>
<path class="st1" d="M126.6,223.7c-25.2-19.6-40-44.8-41.6-77.2c-0.6-11.8,1.3-23.3,4-34.7c3.4-14.5,9.2-17.8,22.6-11.8
	c30.8,13.9,54.9,35.4,72.6,64.1c-6.9,1.9-12.1,8-19.7,8.2c-2.4-1.7-4.7-2.9-7.4-0.5c-2.5,2.2,0.1,3.8,0.6,5.7c0,4.7-2.6,7.6-6.2,10
	c-3.4,0.4-5.2-1.8-7-4.1c-14.3-18.7-26.6-38.5-35.2-60.4c7.7,19.7,18,38.4,30.4,55.5c4.2,5.9,11.1,10.7,10.4,19.4
	c-9-1.5-15.6,2.4-21.9,8.5c-4.1,4-7.4,6.8-2.3,12.1C127.5,219.9,127.8,222.1,126.6,223.7"/>
<path class="st0" d="M164.5,171.8c6.6-2.3,10.7-11.3,19.6-7.6c17.7,24,26.6,51.3,29.7,80.7c0.8,7.7-2.8,11.3-10.4,10.9
	c-29.3-1.8-55.5-11.1-76.9-32c-7.8-11.5-7.7-11.4,3.3-21.8c6-5.7,11.6-12,20-3.5c4.2-0.8,6.3,2.2,8.5,4.9
	c10.3,12.9,24.4,21.8,35.5,33.9c-11.7-14.6-27.9-24.9-39-40c-2.1-2.9-6-5.1-3.5-9.7c0-4.4,4.3-6.3,5.8-9.8
	C156.8,172.1,159.9,171,164.5,171.8"/>
<path class="st2" d="M225.4,179.4c-2.2,4.6-5.8,4.6-7.7,0.7c-10.1-20.1-26.3-37-29.7-60.6c-2.9-20.1,11.9-51.7,29.1-59.8
	c4.1-1.9,6.4,0.6,8.5,3.6c2.1,10.8,3.2,21.8,3.5,32.8c0.4,20.4,1.4,40.8,0.1,61.2C228.7,164.8,228.2,172.2,225.4,179.4"/>
<path class="st3" d="M225.4,179.4c0.8-16.3,1.3-32.7,1.2-48.8c-0.1-17.1,0.5-34.6-2.4-51.8c-0.9-5.1-2.3-10.6,1.4-15.5
	c18.4,21.2,31.7,44.1,24.4,73.8c-1.9,7.5-5.9,13.8-10.2,20.1C234.8,164.5,230.2,172,225.4,179.4"/>
<path class="st4" d="M329.9,303.2c0.4,0.2,0.7,0.6,0.5,1.1c1.1,2.8,2.3,5.6,3.5,8.4c0.3,1.2,0.6,2.3,0.9,3.5c1,2,2.4,3.8,2.3,6.2
	c-0.4,2.6-0.6,5.3-2.5,7.4c-1.2,0.7-2.8,0.6-3.1-0.6c-1-3.3-2-1.9-3.2-0.2c-0.8,0.9-1.7,1.7-2.6,2.5c-1.8,1.6-3.6,3.3-5.2,5
	c-1.4,1.4-2.7,3-3.9,4.7c-0.5,0.7-1.1,1.3-1.7,1.8c-3.8,2.1-5.5,6.3-8.9,8.8c-1.1,0.7-2.2,1.2-3.4,1.5c-3.5,0.4-5.4,2.9-7,5.7
	c-0.5,0.7-1,1.4-1.6,2c-8.9,7.6-15.4,18.5-28.6,20.1c-8,1-9.6-0.2-8.1-8.3c0.6-3.2-0.9-3.9-3.4-4.1c-0.9,0-1.7-0.2-2.6-0.3
	c-6-0.6-11.6-1.3-13.7,7c-1.4,5.6-7,6.5-12.3,6.5c-4.9,0-9.1-0.4-11.8-5.6c-4.4-8.4-12.6-12.2-21-15.5c-2-0.5-3.6-1.9-4.5-3.7
	c-0.8-2-0.6-4.3,0.5-6.2c0.7-0.8,1.6-1.5,2.6-1.8c9.3,0,17.4,5.1,26.5,6.5c25.2,3.9,49.8,2.5,73.6-6.9c12-6.6,22.5-14.3,22.3-30
	c0-1,0.1-2.7,0.4-2.7c8.7-0.1,8.8-10.8,15.9-12.8"/>
<path class="st5" d="M115.2,335.4c1.6-1,3-2.6,5.3-2c7.7-1.3,15.6-1.3,23.3,0.1l0,0c2.4,0.8,4.9,1.7,5,4.8c0.3,11.4,6,21.8,5.5,33.3
	c0.6,5.3,0.5,10.3-5.5,12.8c-5.4,1.1-7.1-2.7-8.8-6.6c-4.5-10.8-15.5-12.2-22.8-2.8c-3.2,4.1-3.8,10.4-9.9,12
	c-8.2,2.2-16.2-1.1-24.4-1.6c-6-0.3-2.4-6.4-2.3-10c3.8-14,10.9-25.7,22.9-34.2c2.6-1.5,4.1-0.9,4.3,2.2
	c0.7,11.9,3.7,14.6,15.7,14.2c1.6-0.1,3.1-0.1,4.7-0.3c1.3-0.2,2.6-0.3,3.9-0.5c6.5-0.5,7.2-5,6.7-10.1s-3.6-7.8-8.5-8.4
	c-3.1-0.2-6.2,0-9.3,0.5c-2.5,0.3-5.9,1.1-5.9-3.4"/>
<path class="st6" d="M250.1,274.7l-1.9,9.3c-5.3,3.2-10.1,4.8-14.1-2.3c-1.5-2.7-4.2-2.9-4,1.7c0.2,3.3-2.1,4.7-4.7,4.8
	c-9.5,0.4-18.2,5.1-27.7,5.1c-9.2-8.6-12.7-8.9-20.8-1.8c-0.9,1.5-2,2.9-3.3,4.1c-3.5,3.3-7.8,6.1-8.5,11.5c0.9,0.3,1.2,0.6,1.5,0.5
	c4.1-0.5,6.2-8.6,10.9-4.3c3.5,3.3-1.4,7.3-2.8,10.9c-3.8,9.4-0.5,16.9,5.4,24.3c3.2,3.9,9.3,5.7,9.3,12l0,0c-4.7,4.7-9.3,4.4-14,0
	c-7-6.8-13.7-13.8-23.4-17c-5.4-1.8-3.9-7.1-3.2-10.6c1.1-4.9,1.2-9.9,2.4-14.7c3.8-11,11.9-18.4,21.9-23.5
	c12.7-6.5,26.2-10.4,40.7-10.4C225.9,273.4,238,272.7,250.1,274.7"/>
<path class="st2" d="M367.6,295.6c-5.3-0.2-10.7,0.4-15.9-1.5c-4.1-1.4-8.3-3.5-9.1-7.4c-0.8-4.1,3.1-7.3,6.2-9.9
	c13.1-10.8,37.3-12.7,51.9-4c6.8,4.1,7.3,8.2,0.8,13C391.7,293,379.7,296.5,367.6,295.6"/>
<path class="st7" d="M86.8,227c17.1-0.4,28,9.9,37.4,22.2c3.4,4.4,1.7,7-3.8,8.6c-17.3,4.8-38.1-2.5-48.8-17.1
	c-4.9-6.6-3.4-10,4-12.2C79.2,227.4,83,226.9,86.8,227"/>
<path class="st8" d="M80.8,375.2c-0.5,6,1.1,9.3,8.1,8c2.9-0.5,6.2,0.7,9.3,1.2c6.8,1.1,12.1,0.7,14.7-7.6
	c2.4-7.7,9.1-10.8,17.2-11.1c6.6-0.2,10.8,2.1,12.2,9.1c0.7,3.5,0.4,9.1,7,7.7l0.8,0.8c0.2,0.8,0.3,1.6,0.1,2.3
	c-0.4,1.6-0.8,3.1-1.4,4.6c-1,2.7-2,5.5-3.2,8.2c-0.7,1.6-1.6,3.1-2.6,4.6c-1.3,1.8-2.8,3.5-4.5,5.1c-7.4,6.6-17.3,4.7-25.8,6.3
	c-7.5,1.4-6.8-6.7-5.5-11.7c1.9-7.1-0.2-10.8-7.5-11.6c-3-0.6-5.8-2.2-9-1.2c-4.6,0.7-4.9,4-4.6,7.6c0.6,4.6,1.5,9.1,2.7,13.6
	c0.3,3.2,2.1,6.4,0.2,9.6c-3.9,1.8-5.4-0.6-6.4-3.7l-1.9-1.8c-0.7-3.8-1.3-7.6-2-11.4c-1.8-3,0.5-6.7-1.6-9.6
	C77.2,387.7,76.5,381,80.8,375.2"/>
<path class="st7" d="M101.1,303.1c-4.8-0.1-9.6,0.5-11.6-3.8c-2.2-4.7,1.3-8.4,4.2-11.7c9.6-10.8,22-14.4,35.9-12.3
	c9.4,1.4,10.3,4.6,4,12.2C125,298,113.4,302.2,101.1,303.1"/>
<path class="st7" d="M310.3,111c-5.5,0.6-8-1.6-5.8-7.7c6.1-17,17.3-28.3,35.2-32.5c3.8-0.9,5.4,0.1,5.6,3.9
	C345.8,86.8,323.1,110.8,310.3,111"/>
<path class="st7" d="M380.5,352.6c-13.1,0-29.2-18.3-27.3-31.2c0.7-4.8,2.8-7.4,8.3-6.2c10.2,2.1,26.4,19.8,27.4,30.2
	C389.5,351.7,385.4,352.6,380.5,352.6"/>
<path class="st9" d="M151.2,308.3c-0.2,3.7,0.2,7.6-0.6,11.2c-1.5,6.8-2.5,11.1,7.3,13c6.4,1.3,12.6,8,17.1,13.7s8.8,5.7,14.5,4.5
	c0,1.9,0,3.8,0,5.8c-1.3,1.5-3.2,2.4-5.2,2.3c-7.8-0.6-12.2-6.4-17.4-11c-4.2-3.4-7.3-4.3-7.1,2.9c0.1,4.1-1,8-2.1,11.9
	c-0.9,2.5-1.6,5.1-2.7,7.5c-0.6,1.2-1.9,2-3.3,1.9c-0.8-13.2-4.8-25.8-7.8-38.5c5.4-3.2,3.1-9,4.4-13.5
	C149.4,316.1,148.4,311.7,151.2,308.3"/>
<path class="st10" d="M289.8,104.4c-0.7,3.2-1.1,6.7-3.4,9.4c-2,2.4-4,5.2-7.7,4.3c-3.2-0.7-4.3-3.8-4.8-6.4
	c-1.4-7.6-4.4-15.2-1.2-23.1c2.6-6.5,6.2-7.3,10.8-2C287.6,91.6,288.7,97.9,289.8,104.4"/>
<path class="st9" d="M115.2,335.4c4.4,4,8.8-0.5,13.3-0.2c7.2,0.5,12.2,2.8,13.2,10.3s0,14-9.7,14.5c-0.9-3.6,1.8-5.8,3-8.6
	c1.9-4.1,1.1-7.4-2.9-9.6c-3-1.7-6.4-1.7-8.5,1.4c-2.3,3.5-3.6,7.5-0.5,11.3c1.6,2,5.7,1.7,5.5,5.6c-7,0-14,2.3-20.4-3.9
	c-4.3-4.2-8.4-6.5-2.7-12.3c1.7-1.8-0.4-2.4-1.9-2.7C107,338,110.5,335.6,115.2,335.4"/>
<path class="st11" d="M329.9,303.2c-3.4,1.8-3.4,4.9-3.6,8.1c-0.7,9.3-1.4,9.6-10.2,3.6c2.4,18.3-8.9,27.6-22,35.7
	c-0.7-0.6-1.1-1.4-1.2-2.3c0-0.9,0.2-1.7,0.6-2.5c4-4.5,9.2-7.8,12.9-12.6c5.6-6.9,3.6-14.6,2.1-22.2c-0.7-4.9,0.5-8.4,6.1-9
	c3,0.1,6.2,1.8,8.6-1.7c1.9-2.7,3.8-1,5.4,0.6L329.9,303.2"/>
<path class="st12" d="M288.1,295.3l7.1-16.9c8.3,3.5,17.4,5.8,23.5,13.2c3.2,2.6,3.3,4.5-1.3,4.8c-2.5,0.2-4.4-1.8-6.6-2.6
	c-4.5-3.1-8.6-3.7-12,1.6c-1.1,1.9-3.1,3.2-5.3,3.5C290.8,298.9,288.8,298,288.1,295.3"/>
<path class="st13" d="M311.2,291.6c1.9,1,3.8,2,5.8,2.8c3.9,1.3,2.1-1.3,1.8-2.8c5.3,1.1,7.9,4.9,9.9,9.5c-1.4-0.1-3.5-1.3-3.9,0.8
	c-1.6,11.2-5.9,4-9.6,1.5c-0.3-0.3-0.6-0.6-1-0.9c-1.3-3.2-3.2-6.2-3.6-9.8L311.2,291.6"/>
<path class="st14" d="M250.1,274.7l-36.4-0.3c12.1-3.3,24.4-1,36.5-1.5C250.3,273.5,250.3,274.1,250.1,274.7"/>
<path class="st9" d="M143.8,333.4l-23.3-0.1C128.3,330.5,136.1,330.2,143.8,333.4"/>
<path class="st11" d="M334,312.6c-2.5-2-3.8-5.2-3.5-8.4C332.8,306.3,334.1,309.4,334,312.6"/>
<path class="st15" d="M77.2,394.3c2.7,2.8,1.5,6.3,1.6,9.6C76.3,401.1,77.5,397.6,77.2,394.3"/>
<path class="st16" d="M424.1,130.6c0.6,2.6-0.6,3.6-1.7,3.7c-15.2,2.4-26.2,11.6-36.7,22c-7.6,7.5-17.1,10.1-27.8,10.2
	c-19.9,0.2-27,5.6-30.5,25.2c-3.3,18.2-12.8,27.6-31.1,30.2c-18.8,2.7-24.1,10.3-21.5,29.5c3.1,22.8-2.8,42.6-17.4,60
	c-1.5,1.8-2.6,5.4-5.7,3.1c-2.8-2.1-0.2-4.6,1-6.6c2.1-3.5,4.4-7,6.9-10.2c9.1-12.2,11.2-25.8,8.7-40.5c-0.6-3.4-0.9-6.9-0.9-10.4
	c-0.2-18.2,7.3-28.3,25.2-30.9c16.4-2.3,25.1-10.2,28.2-26.7c4.2-21.7,13.6-28.8,35.7-28.6c11.6,0.1,20.8-3.8,28.7-12.1
	c7.5-7.9,15.9-14.5,26.7-17.4C416.1,129.9,420.3,129.1,424.1,130.6"/>
<path class="st17" d="M247,287.4c-1,5.4-2,10.8-2.9,16.1c-1.7,3.1-4.7,2.8-7.5,2.7c-21-0.9-39.7,4.7-55.2,19.3
	c-2.1,2-4.4,3.6-7.5,3.3c-4.7-3.7-3.4-9-1.6-12.6c4.9-9.6,9.9-19.7,21.8-22.8c12-1.7,23.3-6.6,35.5-7.2
	C235.5,285.9,241.3,285.3,247,287.4"/>
<path class="st18" d="M174.2,328.3c18.9-20.6,42.6-27.7,69.9-24.8c0.8,4.3,1.6,8.5,2.4,12.8c-2.8,3.3-6.8,3.4-10.5,3.1
	c-18.6-1.8-33.8,6-47.9,16.9c-1.8,1.7-3.7,3.3-6.2,3.8C176.4,338,173.3,334.4,174.2,328.3"/>
<path class="st17" d="M288.1,295.3l5.5,2.4c8.4,1,14,5.7,17.3,13.4c2.8,8.7,4.9,17.2-3.3,24.4c-9.8-8.4-20.9-15.1-32.9-19.8
	c-2.5-1-5.5-2.4-3.9-6.3C277.1,305.3,282.9,300.6,288.1,295.3"/>
<path class="st19" d="M270.9,309.4c4.5,5.2,11.1,6.3,16.9,9c8.2,3.9,16.2,8,19.9,17.1c-3.1,5.3-7.9,8.7-13.3,11.3
	c-1.2-0.5-2.2-1.4-2.8-2.6c-1.4-3.1-2.9-6.1-4.6-9c-7.2-5.4-13.6-12.3-23.5-13c-1.8-0.8-3.2-1.8-3.6-3.9
	C262.7,314.2,266.9,312,270.9,309.4"/>
<path class="st20" d="M185.5,335.3c11.7-10.8,24.7-18.6,41.2-18.9c6.6-0.1,13.1-0.1,19.7-0.1l4.2,7.6c-3.6,4.3-8.5,2.6-12.9,2.9
	c-4.6,0.3-9.2-0.3-13.7,1.1c-9,1.1-17,4.4-23.6,10.9c-1.7,1.9-4,3.1-6.5,3.6C190.5,340.7,183.7,343.1,185.5,335.3"/>
<path class="st21" d="M353.2,146.9c0.4-10.2,5-19.9,12.8-26.6c4.1-3.8,6.9-3.4,8.6,2.5c2.4,8.4-5.2,27.3-13.2,31.2
	c-1.9,0.9-4.1,2.4-6.1,0.6C352.7,152.2,353.2,148.9,353.2,146.9"/>
<path class="st22" d="M394.5,183.2c-5.8,0.4-11.5-1.1-16.5-4.2c-1.8-1.2-4.1-2.2-4-4.8c0.1-3.1,2.7-4.1,5-5
	c9.3-3.7,18.5-3.5,27.1,1.8c2,1.2,5.1,2.3,5,5.2c-0.1,3.2-3.4,4.2-5.9,5.5C402.1,183.3,398.6,183.2,394.5,183.2"/>
<path class="st21" d="M302,234.4c10.4,0.7,18.6,5.3,26.5,10.6c3.2,2.1,3.7,4,0,6.2c-9.8,6-29.5-0.5-33.3-11.4
	C292.4,231.6,299.7,235.8,302,234.4"/>
<path class="st23" d="M371.9,208.5c0.4,4.3-1.8,5-5.2,3.4c-9.4-4.3-15.6-11.5-18.5-21.4c-1.2-4.4,0.8-5.8,5-4.9
	C362.1,187.6,372,199.8,371.9,208.5"/>
<path class="st22" d="M317,163.8c-0.4,3.7,1.1,10.8-5.2,11.4s-6.3-6.8-7.4-11.5c-1.6-6.7-1.1-13.2,3.3-18.9c0.7-1,2.1-1.2,3.1-0.5
	c0.1,0.1,0.2,0.1,0.2,0.2C316.9,149.2,317.1,155.9,317,163.8"/>
<path class="st16" d="M282.4,177.4c7.9,0.7,15.4,5.1,22.1,11c2.7,2.4,2.5,3.8-0.8,5.3c-7.7,3.5-24.4-2.9-27.8-10.8
	C274.1,178.6,275.2,177.4,282.4,177.4"/>
<path class="st14" d="M247,287.4c-18.5-1.3-36.3,2.5-53.7,8.5c-1.4-3.8,2.1-3.2,3.7-4.2c10.3-2.5,20.3-6,30.8-6.3
	c1.5-4.5-8.2-0.9-3.8-5.5c3.7-3.7,9.2-4.8,14.1-2.9c4.9,2-3,3.8-0.6,7h10.7L247,287.4"/>
<path class="st24" d="M331.8,211.2c0.5-5.7,0.4-13.3,5.6-13.3c6.3,0,5.8,7.8,6,13c0.3,4.7-0.1,11.2-5.8,11.1
	S332.6,215.1,331.8,211.2"/>
<path class="st21" d="M273.6,210.2c-3.3-0.6-8.6,0.8-7.8-5.1c0.8-6.3,6.2-7.1,11.5-7c4.5,0.1,10.7,0.9,9.8,5.8
	C285.9,209.4,279.1,210,273.6,210.2"/>
<path class="st25" d="M249.6,227.2c4.7,0.4,10,1.3,11.1,6.5c0.8,3.8-4.2,4.2-6.9,4.3c-4.8,0.2-9.8-1.6-10.6-7
	C242.7,227.3,246.8,227.5,249.6,227.2"/>
<path class="st26" d="M259.9,318.2l3.6,1.9c2.3,2.1,5.7,0,8,1.9c4.1,3.3,5.9,6.3-1,8.2c-4.2,0.8-8.2-1.5-12.4-1
	c-2.3,0-4.6-0.9-6.2-2.6c-0.5-0.8-0.5-1.8,0.1-2.5C256.1,324,257.2,320,259.9,318.2"/>
<path class="st19" d="M252.1,324.1c0.1,0.5,0.2,1.1,0.3,1.6c-10.3,4.4-20.5,4.9-30.8,0.1c9.5-3.6,19.4-1.2,29-2
	C251.1,323.8,251.6,323.9,252.1,324.1"/>
<path class="st27" d="M151.2,187.4c6,9.3,13.1,17.8,21.3,25.2c8.6,8,17.3,15.8,26,23.6c1.5,1.3,3,2.8,1.7,4.8s-3.5,1.5-5.1,0.4
	c-3.1-2.1-6.1-4.5-8.8-7.1c-12-12.1-25.7-22.4-36.4-35.9c-10.6-17.5-24.6-32.9-33.1-51.7c-3.3-7.2-6.7-14.3-9.6-21.6
	c-1.2-3-3.7-7.6,0.5-9c4-1.3,3.9,4,4.9,6.7C121.7,146.5,135.3,167.7,151.2,187.4"/>
<path class="st28" d="M164.5,171.8c-2.8,1.5-5.8,2.7-7.4,5.8c-2.4,0-5.9,0.8-5.4-3c0.6-4.9,4.9-7.2,9.1-8.2
	C165.2,165.3,164.8,168.9,164.5,171.8"/>
<path class="st29" d="M144,161.9c-2.6-0.4-4-2-3.2-4c1.5-3.5,4.1-6.5,8.3-6.7c2.2-0.1,3.7,1.6,2.9,3.7
	C150.6,158.6,147.3,160.5,144,161.9"/>
<path class="st30" d="M136.9,134c2.2,0.2,4,0.9,3.6,3.4c-0.6,3.6-3.4,5.2-6.7,5.7c-1.4,0.3-2.7-0.6-3-1.9c-0.1-0.3-0.1-0.6,0-0.8
	C131.2,136.7,133.8,134.9,136.9,134"/>
<path class="st31" d="M128.1,122.8c-0.8,2.6-2.5,4.5-5.3,4.6c-1.6,0.2-3-1-3.1-2.5c0-0.4,0-0.9,0.1-1.3c0.5-2.2,2.4-3.9,4.6-4.2
	C126.7,119.2,127.9,120.5,128.1,122.8"/>
<path class="st32" d="M179.8,186.4c-1.7,4.6-5.5,6.7-9.8,7.8c-1.8,0.5-3.5-0.9-3.2-2.5c0.9-4.9,5.1-6.9,9.2-8.3
	C178.2,182.7,179.5,184.2,179.8,186.4"/>
<path class="st33" d="M190.2,205.4c-1,3-3.5,5.3-6.5,6c-2.2,0.5-3.7-1-3.3-3.2c0.5-2.9,2.8-5.1,5.7-5.6
	C188.1,202,189.7,203,190.2,205.4"/>
<path class="st34" d="M208.6,118.7c-2.2-0.1-4.4-0.1-6.5-0.4c-1.7-0.2-3.4-1.8-2.4-3.1c3.5-4.4,9.2-2.2,13.8-3.6
	c1.7-0.4,3.5,0.7,3.9,2.4c0.1,0.5,0.1,1.1,0,1.6C216.1,120.4,211.7,117.7,208.6,118.7"/>
<path class="st35" d="M207.5,137.6c-2.4-0.2-5.9-0.4-5-2.9c1.6-4.5,7-2.9,10.7-4.3c1.6-0.6,4.6,0,3.6,2.5
	C215.2,136.8,211,137.1,207.5,137.6"/>
<path class="st35" d="M205.8,101.6c-2.3-0.4-5.9,0.7-5.6-2.2c0.6-5.4,5.9-2.9,9.1-4.1c2.2-0.8,5.8-0.1,5.3,1.8
	C213.6,101.4,208.9,100.6,205.8,101.6"/>
<path class="st36" d="M254,365.9c9.3,1.2,9.6,2.2,2.9,13.1c8.5-0.4,16.4-0.5,21.8-6.9c4.5-5.4,10-9.4,15.2-13.8
	c5.6,9.6,1.6,20.6-8.9,23.2c-3.3,0.8-6.7,1.5-10,2.2c-25.4,0.1-50.8,1.1-76.2-0.5c-9.8-6.4-6.4-16-5.8-24.8
	c8.9,4.5,20.4,5.2,23.4,18c1.2,5.2,7.1,2.3,10.9,2.8s8.2-1,8.3-4.6c0.4-13.3,9.3-8.9,16.4-8.6c1,4-4,3.2-4.9,6.3
	C253,373.5,253.1,369.2,254,365.9"/>
<path class="st37" d="M276.8,381c3.5-4.1,9.7-0.2,13.7-6s3.8-10.9,3.5-16.8l0,0c1.9-3.1,4.5-5.7,7.6-7.6l3.8-0.1
	c2.4,3.5-4.5,7.8-0.1,10.2c4.7,2.4,6.8-3.5,9.6-5.9c4.1-3.6,9-6.8,8.7-13.6c-0.1-2.3,1.9-5.8,5.9-3.3c4.8,12,14,22.8,10.7,37.2
	c-0.6,2.5,1.8,4.7,1.9,7.2c-4.5,5-8.2,2.8-11.4-1.5c-1.5-2-2.1-4.5-3.8-6.5c-2.1-2.5-4.5-4.5-8-3.9s-4,3.6-4.5,6.4s-0.5,5.7-2.5,8
	c-2.1,1.6-4.3,0.8-5.8-0.7c-4.1-3.7-8.1-3.1-12.5-0.7C287.9,383.4,281.9,385.6,276.8,381"/>
<path class="st38" d="M197,291.7l-3.7,4.2c-6.9,4.6-13.3,9.5-17.8,16.6c-3.2,5.1-4.9,10.2-1.3,15.8c0.7,4.9,3.7,8.3,7.4,11.2
	c3.8,0.7,6.9,2.8,10.4,4.3c21.2,8.9,42.9,14,66,9.6c2.5-0.3,5-0.3,7.5-0.1c1.9-0.2,3.7-0.9,5.6-1.3c5.5-1,10.5-3.9,16.1-4.4
	c2.4-0.5,4.7-1,6.8,0.8l0.1,2c-33.2,12.7-66.6,13.8-100,0.6c-1.4-0.6-3.1-0.4-4.6-0.6c-3.5-3.2-7.1-6.2-10.4-9.5
	c-10.8-11-11.2-17.2-2.2-37.3c-3.9,0.4-4.5,3.4-5.8,5.5c-2,3.5-5,4.2-7.9,1.9c-3-2.5-3.5-6.2-0.7-9.2c3-3.1,6.6-5.7,9.9-8.4
	c2.4,1.4,5.2,5.5,7.4,1.3c2.4-4.7-4.1-2.4-5.3-4.8c4.4-8.4,12.8-6.2,19.6-6.7C198.6,283,195.1,289.1,197,291.7"/>
<path class="st39" d="M193.2,358.3c5.2,6.9-0.6,15.7,4,22.6l-0.9,1c-3.6,1.7-6.6-1.2-10.6-1.4c-0.8,4.1,1.5,7.7,1.9,11.5
	c-1.8,13.1-7.7,19.9-18,20.8c-4.8-2.8-5.4-7.6-5.9-12.4c0.2-4.1,0.1-8.2,0.1-12.2c0-1.4,0.1-2.9,0.3-4.3c0.6-3.1,1.6-6.5,4.2-8
	c5.4-3.3,4.4-7.4,2.6-11.9c0.3-5.9,4.2-5.7,7.9-4c4.3,2,4.4-0.7,4.9-3.4h5.7L193.2,358.3"/>
<path class="st40" d="M341.6,383c-4-2.4-6.5-4.7-4.7-10.5c2.2-7,1.9-14.2-4.3-20.1c-4-3.8-3.1-9.9-4.2-15.1c-1.5-0.5-2.7-1.6-3.5-3
	c-0.7-1.5-0.4-3.1-0.4-4.6l1.9-1.9c4.4-1.8,5.4,5.2,9.6,3.8c6.4,14.6,7.4,30.2,9.4,45.7C346.5,380.7,347.9,384.4,341.6,383"/>
<path class="st41" d="M326.4,333.5c0.6,1.3,1.2,2.5,1.9,3.8c-0.6,0.7-1.9,1.4-1.8,2c1.1,10.6-7.6,14.7-13.2,21
	c-3.6,4.1-5.5,8.3-11.9,2.3c-6.8-6.4,2.1-6.5,2.7-9.7c0.3-0.9,0.8-1.7,1.4-2.4c2.2-4.1,4-8.6,9.4-9.6c1.5,1.5-0.2,3.5,0.9,5.1
	c3-2.6,1.3-4.7-0.7-6.8c0.6-1.8,1.9-3.2,3.7-3.9C321.2,334.3,323,330.9,326.4,333.5"/>
<path class="st42" d="M254,365.9c1.9,2,4.7,3.8,2,7.1c-2.1,2.8-5.8,4.1-9.2,3.3c-3-0.7-5.3-3-5.1-6.1s3.3-2.2,5.3-2.4
	s3.8-0.3,5.2-1.9L254,365.9"/>
<path class="st43" d="M315,339.2c2.6,0.7,6.4,0.4,5.9,4.3c-0.4,3.5-3.2,6.4-6.4,7.7c-3.4,1.4-4.5-1.6-3.8-4.2
	c0.7-2.3,2.7-4.1,4.1-6.2C314.8,340.3,314.9,339.8,315,339.2"/>
<path class="st11" d="M335.9,331.6c-1.5,1.4-2.4,6-5,0.7c-0.9-1.8-3-3-4.6-4.4c3.6-1.8,1.1-6.2,3.5-8.7c4.3,2.7,0.4,8.1,4.1,10.6
	C335.1,329.9,335.2,331.1,335.9,331.6L335.9,331.6z"/>
<path class="st36" d="M301.6,350.6c-1.8,3.2-4.4,5.8-7.6,7.6C294.6,353.8,297.1,351.2,301.6,350.6"/>
<path class="st37" d="M326.4,333.5l-7.7,1.9c1.3-2.5,3.3-4.5,5.7-5.7C325.1,330.9,325.7,332.2,326.4,333.5"/>
<path class="st40" d="M335.9,331.6l-2-1.9c0.2-2.6-0.6-5.4,1.7-7.6L335.9,331.6"/>
<path class="st44" d="M128.8,360c-6.6-1.8-13.5-3-10-13.2c1.4-4.1,1.7-8.1,6.6-9.1s9.3-0.2,12.6,4.3c2.9,4,1.9,7.8-0.4,11.4
	c-1.7,2.3-3.5,4.4-5.5,6.5L128.8,360"/>
<path class="st45" d="M172.3,364.1c3.6,4.6,7.6,8.9-1.6,12.2c-2.1,0.7-3,4.6-4.5,7c-5.5,3.6-11,3.6-16.6,0.1l-0.4-0.9
	c4-2.8,2.6-6.8,2.3-10.6l1.8-2.2c2.2-2.9,3.3-6.3,6.9-8.4C165.7,358.1,169.4,358.2,172.3,364.1"/>
<path class="st46" d="M174.4,290.1c3.4-0.5,7.3-4.6,10.1,0.2c2.5,4.4-1.4,7.2-4.4,9.1c-7,4.4-8-0.1-7.8-5.8L174.4,290.1"/>
<path class="st47" d="M341.6,383c3.9-0.2,3.3-3.3,3.8-5.8c5.5,8.9-2.8,17.8,0,26.7c-2,3.8-0.1,8.5-2.9,12.1c-1.4,1.4-3,2.3-5.1,1.5
	c-4.9-5.1-1.7-10.5-0.9-16c0.6-4.1,2.5-7.8,3.2-11.9c-0.9,2-0.5,4.4-2.9,5.3c-2.1-0.1-3.1-1.7-4.1-3.2c-0.6-1.2-1.2-2.4-1.7-3.6
	c-4.8-7-10.9-4.6-17.1-2.5c-0.9,0.1-1.8-0.2-2.5-0.8c-0.2-2.2-0.3-4.4-0.1-6.6c0.7-5.1,0-11.7,7.7-11.7c6.1,0,11.4,3.4,12.7,9.5
	C332.9,382.2,336.2,383.5,341.6,383"/>
<path class="st48" d="M341.6,415.1c1.4-3.7,1.1-8,3.8-11.3c-0.1,3.9-0.2,7.9,1.9,11.4l-2,1.8C343.3,418,342.2,417,341.6,415.1"/>
<path class="st49" d="M156.9,447.6c-2.2-2.7-2.9-6.1-3.6-9.4c-3.8-3.2-7.6-1.2-11.7-0.5c-12.6,2.4-25.1,3-36.2-5.5
	c6.9-7.4-1.6-12.6-2.8-18.9c0.2-0.9,0.6-1.7,1.2-2.2c4.7-0.2,7.3,7.8,12.1,4.1c6.7-5.2,17.5,0.1,22-9.4l3.8-3.8
	c4.7,12.4,3,14.6-14.9,19.2c5.1,4.3,10.2,6.8,17.6,5.6c6.9-1,12.2,4.1,16.8,9.2c2.3,2.6,4.2,5.5,6.6,8c4.1,4.4,7.5,4.2,9.8-1.8
	c0.7-0.7,1.5-1.1,2.4-1.3c3-0.1,5.8,1.5,7.2,4.1c2.3,7.8-2.2,11-8.7,12.1c-4.2,0.7-8.7,0.9-12.7-1.3
	C162.5,453.5,160,450.2,156.9,447.6"/>
<path class="st50" d="M178,441.9c0.3,2.4,5.4,4.9,1.5,6.8c-3.2,1.5-7.8,5.1-11.7-0.2c-3.6-5.1-7.7-9.9-12.1-14.3
	c-4.6-4.4-10.2-7.7-16.9-3.4c-2.9,1.8-4.9,0.9-6.2-1.7c-1.7-3.2-4.5-4-7.7-4.6c-2-0.4-4.9-0.9-4.5-3.7c0.3-2.5,3.1-2.7,5.2-3.3
	c0.3-0.1,0.6-0.1,0.9-0.1c11.3,1.1,17.1-3.3,15.4-15.3c0.6-1.3,1.2-2.6,1.9-3.8c2.8-2.6,2.5-6.3,3.8-9.5c0.6-1.3,1.2-2.6,1.9-3.8
	l1.3,0.3c6.2,6.5,5.2,13.6,1.9,21c-2.7,5.8-6.2,11.1-10.5,15.9c10.2,0,16.4,8.2,25.6,9.2c0.9,0,1.8,0.1,2.6,0.5
	c0.7,0.5,1.4,1.1,1.9,1.8c1.1,2.8,2.9,5.3,5.3,7.2C177.6,441.1,177.8,441.5,178,441.9"/>
<path class="st51" d="M127.9,369.9c7.1-0.3,13.3,5,13.5,11.7c0.4,9.1-6.8,17.5-14.9,17.6c-7,0.1-12.7-5.7-13.1-13.4
	S120.2,370.2,127.9,369.9"/>
<path class="st52" d="M103.8,413.4c1.8,2.2,3.6,4.3,5.5,6.4c5.9,6.6,5.2,8.5-3.7,10.8c-0.7,0.6-1.6,0.7-2.5,0.5
	c-6.8-5.4-13.5-10.9-16.6-19.5c-2.4-5.5-3.2-11.3-3.7-17.2s1.8-8.3,7.6-7.5c8.5,1.7,5.4,10,8.6,14.8c0.4,0.8,0.8,1.6,1,2.4
	C101.1,407.2,102.3,410.4,103.8,413.4"/>
<path class="st53" d="M138,405.7c-0.5,5.2-3,8.1-8.6,7.7c-1.6-0.2-3.2,0.2-4.5,1c-8.1,6.4-14.9,3.9-21.1-3c-2.8-1.9-3.9-5-5.7-7.6
	c-1.1-1.3-1.5-3.8-0.8-4.1c6.8-2.4,2.7-7.2,2.7-11.1c10.4,1.3,12.1,3.9,10,13.4c-0.7,3.1-2.8,7.1,0,9.9c3,3.1,5.6-0.8,8.4-1.7
	C124.8,408.3,132.6,411.7,138,405.7"/>
<path class="st15" d="M100,388.7c1.6,1.5,3.5,2.7,4.8,4.4c1.5,2,3.4,4.4,2.1,6.9c-1.5,2.9-3.8,0.3-5.8-0.2c-4.2-1-2.6,2.3-3.1,4
	c-6.2-4-1.1-13.2-7.6-17C93.8,386.4,97.1,387.1,100,388.7"/>
<path class="st15" d="M86.6,411.6l17.3,18.9c-1.3,1.3-2.7,1.2-4.1,0.1c-3.6-3.3-8.9-4.6-11.1-9.5C88,417.9,87.3,414.7,86.6,411.6"/>
<path class="st50" d="M149.7,383.3l16.6-0.1l-0.1,3.2c-0.6,0.8-1.6,1.2-2.5,1.3c-5,0.4-9.8,0.2-14-2.9l-0.2-0.1
	C149.5,384.3,149.6,383.8,149.7,383.3"/>
<path class="st53" d="M147.5,388.6c0.1,3.7,0.6,7.6-3.8,9.5C144.6,394.8,145.1,391.3,147.5,388.6"/>
<path class="st54" d="M172.3,364.1c-9-7.2-12.9,2.9-18.9,5.7c-0.4-2.8,0.5-5.3,1.8-7.7c3.4-3.6,6.5-7,6.2-12.7
	c-0.3-4.8,2.4-6.8,7.1-4.4c4.4,4.7,8.4,9.9,15.2,11.5c0.7,3.2,7,4.9,4,8.3c-2.5,2.9-6.1-1.3-9.2-2.4
	C175.9,361.3,173,359,172.3,364.1"/>
<path class="st55" d="M168.5,344.9c-2.4,0.3-6-0.2-4.6,3.8c3,8.6-2.2,11.3-8.8,13.3c0.6-3.6,1.8-7.2,1.8-10.9
	C157.2,339.5,157.4,339.2,168.5,344.9"/>
<path class="st13" d="M310.9,311.1c-4.9-5.7-11.7-8.8-17.3-13.4c5-4.5,7.8-15.5,17.6-6.1l-0.2,0.3c-1.6,2.2-4.8,1.4-6.6,3.5
	c2.2,4.5,8,3.9,10.5,7.6l0.3,0.4C311.4,304.6,309.6,307,310.9,311.1"/>
<path class="st56" d="M294,348.6l-5.5,0.9c-1-1-1.4-2.5-0.9-3.8c1.4-2.6,2.9-5,6.4-2.7l0.4,3.8C294.2,347.4,294.1,348,294,348.6"/>
<path class="st57" d="M314.9,303c-2.5-0.4-5.5,0-7.3-1.3c-2.7-2.1-8.8-2.3-7.8-6.5c1.3-5.4,6.8-4.2,11.2-3.3
	C312.8,295.4,318.9,297.4,314.9,303"/>
<path class="st58" d="M134.2,459c13,10.4,17.2,10,24.8-2.2c4.2-0.1,5.3,2.4,4.8,6c-8.7,10.4-15.5,12.5-27.2,6.8
	c-10.1-4.9-20.3-8.2-31.8-8.2c-9.6,0-17.4,2.5-23,10.5c-5.9,8.5-3.6,17.3-1.2,26.1c0.9,3.3,2.8,6.3,4,9.5c1.3,3.6,0.6,7.6,2.1,11.1
	c0.3,0.9,0.5,1.8,0.6,2.8c-1.7,12.3,5.3,19,14.8,24.9c8.1,5,13.6,13.6,23.5,16.8c7.5,2.4,15.1,4.3,22.8,5.7
	c17,3.1,33.9,2.5,50.9,1.4c7.3-0.5,14.4-0.9,21.4-3.3c6.1-2,12.1-4.4,18.3-5.9c3.4-0.4,6.6-1.7,9.2-3.9c0.7-0.5,1.4-1,2.1-1.5
	c3.1-1.6,5.3-4.1,7.6-6.6c0.9-0.9,2.1-1.6,3.5-1.7c0.9,0,1.7,0.4,2.3,1c-4.8,11.7-15.5,16.9-26.1,20.1c-50,15-99.2,17.8-145.7-11.8
	c-12.1-7.7-17.4-20.9-12.1-34.1c2.3-5.7,0.9-10.8-1.6-15.5c-5.4-10-4.6-20.7-4.8-31.4C73.1,460.9,92,454,105,453.2
	C115.2,452.7,124.7,456.2,134.2,459"/>
<path class="st59" d="M341.6,415.1l3.7,2c-8.7,28.8-24,53.6-45.1,74.8c-2.9,2.9-5.9,5.6-9.9,7c-3.3-1.7-6.5,3.6-9.9,0.1
	c-0.7-2.6,0.7-4.4,2.6-5.6c17.9-11.9,29.5-29.1,40-47.3c5.1-5.8,7.1-13.1,10.1-20c1.3-3.1,1.7-6.8,4.8-8.9L341.6,415.1"/>
<path class="st60" d="M263.7,548.4l-2-0.1c-2.4-6.9,2.1-12.2,4.7-17.7c3.4-7.5,6.8-15,10.2-22.5c0.9-2.3,2.9-4,5.3-4.6
	c1-0.1,1.9,0.3,2.6,1C281.4,521.1,271.7,534.3,263.7,548.4"/>
<path class="st61" d="M284.4,504.6h-1.8c-1.8-1.4-4.4-2.2-4.2-5.3c0.4-0.7,1.3-1,2-0.6c3.3,0.8,6.6-3.6,9.9,0.2L284.4,504.6"/>
<path class="st62" d="M162.9,462.7c-0.2-2.5-1.7-4.7-3.9-5.8l-2.1-9.2c4.9-1,7,2.8,9.6,5.7c9.5,7.6,11.3,19.9,17.8,29.3
	c1.3,1.9,1.2,4.4-0.1,6.2c-4.2,2.5-6-1-8.2-3.3C172.1,477.7,164.1,472.2,162.9,462.7"/>
<path class="st63" d="M99.8,430.5l4.1-0.1c0.6,0.1,1.2,0.1,1.8,0.2c10.9,7.9,23.2,6.3,35.3,4.9c4.8-0.6,9.2-2.9,12.3,2.7
	c-9.1-0.3-17.4,4.7-26.7,3.8C116.4,441,107.3,437.7,99.8,430.5"/>
<path class="st64" d="M189.5,345.2c-3.7-0.3-6-2.7-7.8-5.6l3.9-4.3c0.4,5,6.3,2.5,7.9,5.9C193.8,344.2,192.4,345.5,189.5,345.2"/>
<path class="st56" d="M269.2,327.9c2.5-0.4,6.9,0.5,2.5-4.1c-2.2-2.3-6.2-0.7-8.1-3.6c11.5-0.8,18,8.2,26.5,13.4
	c-2.3,1.9-3.4,4.8-5.9,6.5c-2.3,0.9-4.4,0.1-6.4-1C274,336,268.3,334.4,269.2,327.9"/>
<path class="st26" d="M284.4,339.5c-2-5.7,1.7-6,5.7-6l3.9,9.5c-2.9-0.1-3.9,2.8-6,3.9C283.5,346,283.5,343,284.4,339.5"/>
<path class="st65" d="M284.4,339.5l3.6,7.4c0.1,0.9,0.3,1.7,0.4,2.6c-5.5,2.1-10.9,4.5-16.8,4.9c-2.4-7.2-2.3-15.9-12-18.4
	c-11.4-3-22.7-6.3-33.5,1.6c-4.6,6.3-3.6,10.4,3.2,12.2c4,1.1,8.1,0.6,12.1-0.2c0.6-0.4,1.2-0.8,1.8-1.2c0.9-3.7-1.7-0.9-2.6-1.3
	c-0.8,0.3-1.7,0.4-2.6,0.5c-3.9,0.1-7.8,0.8-11.4-1.2c-3.9-3.9-1.6-6.5,1.9-8.8c3.9-1.5,8.2-0.7,12.2-1.8c5.9,0,11.8,1.4,17.2,3.9
	c6.5,3.1,11.7,7.5,9.2,16c-22.9,4.5-46.7,2.5-68.6-5.5c-3.2-1.2-6-3.2-9-4.9l3.9-4c8.4-7,15.8-15.9,28.2-15.4l30.8-0.1l5.1,1.7
	c9.4-1.7,13.8,7.6,21.4,9.8L284.4,339.5"/>
<path class="st19" d="M278.9,337.2c-8.5-0.3-13-9.3-21.4-9.8c4-3.3,7.8,1.3,11.7,0.4C271.5,332,275.5,334.3,278.9,337.2"/>
<path class="st39" d="M276.8,381h19.1c3.5,1.1,3.2,2.7,0.8,4.7c-8.7,2-17.6,1.1-26.4,0.7c-20.8-1-41.6-0.3-62.4-0.8
	c-4-0.1-9.2,1.7-11.1-4.3l0.3-0.4L276.8,381"/>
<path class="st36" d="M297.6,385.1c0.3-1.6-0.4-3.1-1.7-4.1c1-5.2,4.2-3.7,7-2.1s5.6,3.9,8.4,5.8c0.6,0.1,1.1,0.1,1.7,0.1
	c8.1,2.2,9.1,8.9,9.9,15.7c-3.6,10.2-9.3,11.9-17,4.9c-2-1.9-3.9-4-5.7-6.2C298,394.9,294,390.7,297.6,385.1"/>
<path class="st66" d="M267.1,355.6c-2.6-14.9-15.7-14.7-26.2-18.2c-3.8,1.2-8.1-1.4-11.6,1.8c-1.8,1.5-5,2.5-1.9,5.7
	c4.3,1.7,9,1.7,13.3,0l0,0c1.9-1.2,4.4-1.6,5.6,0.2s-0.7,3.8-1.7,5.6l0,0c-4.8,2-9.9,0.9-14.6,0.7c-7.9-0.4-10.5-7.7-6.3-15.8
	c13-9.1,26.5-6.7,39.6-1c10.1,4.4,11.4,8.8,8.3,19.9C270.5,355.7,268.7,356.2,267.1,355.6"/>
<path class="st67" d="M297.6,385.1c-0.5,4.8,3.2,8.3,4.1,12.7c2.9,8.5,2.1,10-4.6,8.8c-5-5.6-10.5-9.8-18.6-6.3
	c-5.2,2-12.5-2.1-15.9,5.3c-2.1,1.4-3.9,0.2-4.3-1.6c-1.7-6.8-6.9-6.6-12.2-6.5c-6.3-0.7-12.6,0-19-0.4c-3.3-0.2-7-1.2-7.1-4.9
	c-0.1-4.2,4-4.2,7.1-4.3c6.9-0.2,13.9-0.1,18.1-0.1c-13.6-1.1-30,1.6-46.3-0.1c-5.1-1.3-9.8-1.2-13.5,3.2c-1.6-4.5-6-11-3.1-13.3
	c4-3.3,9.4,2.9,14.5,3.8c3,2.6,6.7,1.6,10,1.6c26.6,0.1,53.2,0.1,79.8,0.1C290.4,383,294.3,382.4,297.6,385.1"/>
<path class="st68" d="M149.6,384.9c5,0.7,10.5-1.9,15.2,1.9c2.1,4.3-0.1,9.1,1.4,13.5c1,3.9,1.8,7.8,4.2,11.1
	c3.8,2.2,4.4,5.4,2.8,9.2c-0.3,0.8-0.7,1.6-1.1,2.4c-1.4,3-0.4,7-3.6,9.4c-1.4,2.4-3.5,4.9-5.9,2.3c-7.1-7.9-16.6-9.7-27.5-10.7
	C147,412.7,157.3,401.9,149.6,384.9"/>
<path class="st49" d="M170.5,421.1c1.9-3.2,2-6.5-0.1-9.7c10.1-3.1,14-10.9,15.1-20.6c-0.2-9.9,5.3-8.7,11.6-5.9
	c5.1,4.3,6.6,9.1,1.5,14.5c-5.5,3.7-10.4,7.8-10.7,15.2c-1.7,5.6-7.1,4.7-11.1,6.3c-1.1,0.7-2.4,1.2-3.8,1.3
	C172,422.1,171.2,421.7,170.5,421.1"/>
<path class="st69" d="M178.2,382.8c4.7,6.9,4,13.7-0.9,20.1c-2.9,3.7-5.5,4.1-7.2-1.1c-2.1-6-1.9-12.6,0.6-18.5
	C173.1,380.6,175.5,379.4,178.2,382.8"/>
<path class="st45" d="M166.1,400.3c-2.7-4.3-1.1-9-1.4-13.5c0.5-0.1,0.9-0.2,1.4-0.4C166.1,391.1,166.1,395.7,166.1,400.3"/>
<path class="st70" d="M178.2,382.8c-2.6-1.3-5-0.3-7.5,0.5c0.7-1.9,0.7-4.6,3.4-4.6C176.5,378.7,177.8,380.5,178.2,382.8"/>
<path class="st71" d="M297.8,403.9c3.7,2,3.7,2,4-6.1c2.1,2,4.1,4,6.2,5.9c7.2,6.5,9.5,5.8,12.7-3.7c0.6-0.6,1.4-1,2.3-1.1
	c2.9,0.4,4.8-0.7,5.8-3.6c0.8-2.4,2.3-4.5,5.3-4.8l1.9,3.8c4,12.5-3.6,31.1-15,36.5c-3.4,1.6-6.5,2.1-9.5-0.7
	c-0.5-0.4-0.8-1-0.8-1.6c1-10.9,1-10.9-10.2-14c-1.4-1.8-2.2-4-3.7-5.8C296,406.9,296.5,405,297.8,403.9"/>
<path class="st48" d="M310.8,428.5c6.4,1.9,16.3-2.5,18.9-9.4c3-7.9,6-16,6.1-24.7c2.7-1.9,1.3-5.3,3.1-9.2
	c4.1,11.9-3.9,21.8-1.2,32.1c-1.8,11.3-5.4,21.9-13.3,30.5c-2.8-2.5-0.3-6-1.7-9.6c-9.4,6.7-14.4-0.1-19.8-6
	C304.1,427.8,307.1,427.3,310.8,428.5"/>
<path class="st72" d="M322.5,400.1c-0.6,0-1.3-0.1-1.9-0.1c-0.9-5.9-3.7-10.8-7.6-15.1c8.2-7.3,13.3-6.8,20.9,1.8
	c-0.8,4.4-5.9,6.8-5.2,12.4C329,401.6,325,401.4,322.5,400.1"/>
<path class="st48" d="M322.5,400.1l4.4-1c-3-7.2,4.3-8.5,7-12.4v3.8c-1.1,1.9-3.2,3.8-3.1,5.6C331.5,405.2,326.8,402,322.5,400.1"/>
<path class="st73" d="M183.9,488.9c-4.3-8.8-8.4-17.7-13-26.4c-1.6-3-3.9-5.6-4.3-9.2c13.3,3.8,18.5,1.7,19.1-7.9
	c1-1.3,2.6-1.8,4.1-1.4c7,2.5,9.2-1.2,10-7.2c0.6-0.7,1.5-1.1,2.4-1c11.9,11.2,12.7,17.7,3.8,29.7c-10.1,6.1-11,16.9-13.5,26.8
	c-3.1,3.6-5.4,0.7-7.8-1C184.2,490.6,183.9,489.8,183.9,488.9"/>
<path class="st74" d="M200.6,436.2c2.6,12.8,2.4,13-15,9.2l-5.7-3.7c-0.5-1.6,0.5-2.4,1.7-3.1c2.2-0.7,4.4-0.2,6.5,0.3
	c8.3,2.2,4.6-2.5,3.3-5.8c-1.8-4-4-7.5-9.2-7.5c-2.8,0-5.6,0-8.2-1.2c-1.3-0.8-2.3-1.8-1.8-3.5l1.9-1.8
	C193,415.5,200.8,420.6,200.6,436.2"/>
<path class="st75" d="M172.3,421l2.2,2.1c1.3,6.1,7.2,10.1,7.5,16.7l-2.1,2l-2,0.1l0,0c-3.3-1.7-6-4.5-7.5-7.9c0-0.5-0.1-1-0.3-1.5
	c-1.1-3.8-1.5-7.6,0.2-11.4v0.1C171.1,421.1,171.7,421.1,172.3,421"/>
<path class="st15" d="M98.1,403.9c3.1,1.7,5.5,3.8,5.7,7.6c0,0.6,0,1.3,0,1.9C100,411.4,97.7,408.4,98.1,403.9"/>
<path class="st49" d="M170.6,433.9l7.5,7.9C172.3,442.2,170.9,438.6,170.6,433.9"/>
<path class="st49" d="M170.5,421c-0.1,3.8-0.2,7.6-0.2,11.4h-1.8C169,428.6,166.9,424.3,170.5,421"/>
<path class="st61" d="M278.8,508.5c-4,14-12.1,26.3-17.1,39.9c-0.6,0.6-1.3,1.3-1.9,1.9c-3.5,2.2-6,5.5-9.5,7.6
	c-2.9,2.3-6.6,3.3-9.5,5.7l-19,5.7c-20.9,0.9-41.9,0.4-61.9-5.2c-10.4-2.9-22.1-6-29.5-16.9c-3.7-5.5-11.9-6.2-19.3-4
	c-12,3.6-23.7-5-24.9-18c-0.2-1.8-0.1-3.8-1.4-5.4l0,0c-2.4-3.5,0.5-7.9-1.9-11.4c-8.5-12-10.9-24.5-3.8-38c3.6,2.6,3.1,7.4,6,11
	c4.5-3.2,6.7-11.4,14.7-7.9c2.8,5.1-1.8,8.8-2.4,13.3c-0.2,1.5-1,3.2,0.5,4.4s3,0.3,4.4-0.4c7.8-4,15.2-8.8,22.6-13.3
	c1.6,0.1,3.1,1.1,3.7,2.5c2.6,5.4,4.4,11.7,12.2,4.8c1.9-1.7,4.7,0.8,6.5,2.6c2.5,2.4,4.9,4.9,7.2,7.6c3.4,4.4,5.7,4.1,7.8-1.1
	c1.5-3.8,4.4-6.7,8.8-5.1c3.7,1.4,3.6,5.5,2.3,8.2c-7.6,16.6,3.5,25.3,14.8,32.3c8.9,5.5,19.1,9,29.6,11.7c12.1,3,21.5-2,31.6-6.2
	c4.3-1.8,6.6-4.4,3.4-9.5c-4-6.3-2.1-10.9,5.2-12.7C265,510.9,271,505.4,278.8,508.5"/>
<path class="st76" d="M278.8,508.5c-6,2-11.8,4.7-17.9,5.9c-10.1,2-8.8,7.5-3.7,12.5c4.8,4.8,1.6,5.2-1.7,7.7
	c-7.4,5.6-16.2,8.5-24.6,10.5c-7,1.6-16,0.3-22.5-3c-11.3-5.8-24.3-8.7-33.4-19.4c-5.6-6.7-9.2-12.2-5.4-20.6
	c0.6-1.8,1.1-3.6,1.3-5.5c0.4-2.2,3-5.2-1.1-6c-2.5-0.5-4.1,1.8-5.1,4.6c-4.2,10.9-4.3,10.8-11.7,2c-2.2-2.6-5.1-4.7-7.2-7.4
	c-3.4-4.7-5.8-4.4-7.8,1c-0.7,1.8-1.4,3.8-3.6,3.8c-2.9,0.1-3.2-2.4-4.1-4.4c-1.8-4-3.8-7.9-5.6-11.8c-8.5,1.1-16.7,0.5-24.4-3.7
	c-10.1-0.9-10.4,8.9-15.7,15.2c-2-7.1-6-12.3-5.4-19.1c8.6-15.9,29.3-12.7,45.3-9.6c1.8,0.5,3.6,1.3,5.1,2.5
	c11.3,7.4,22.4,9.3,33.4-0.7c5,7.1,10,14.1,14.9,21.2c2,8.3,10,11,15.5,15.3c13.2,10.3,28.6,15.6,47.4,13.7
	c-13.4,0.4-13.4,0.4-14.4-5.6c1.6-1.1,3.5-1.6,5.4-1.4c15.5,1.4,30-2.2,44.2-7.8c1.1-0.1,2.1,0.3,2.9,1c1.3,1.8,4,2.7,3.8,5.6
	l-3.8,3.8"/>
<path class="st60" d="M84.8,519.9c1.2,9.4,9.8,13.8,14.3,21c2.6,4.2,5.9,2.3,8.1,0.9c9-6.1,17-0.4,25.3,1.5c0.9,0.3,1.7,0.8,2.3,1.6
	c7.6,10.6,18.8,15.4,33,17.5c12,1.8,23.6,5.3,36,4.3c1.5-0.1,4,0.9,4.5,0.2c4.8-5.8,7.6-4.4,9.9,2c0.2,0.5,2.4,0.4,3.6,0.5
	c-1.6,2-3.9,1.9-6.1,2c-20.4,0.9-40.6,7.1-61.4,0.6c-6.2-1.9-14-0.8-21.1-2.3c-8.1-1.7-13.7-9.4-22.6-8.6
	c-3.6-12.3-17.5-14.2-24-23.6C83,532.1,85.5,525.7,84.8,519.9"/>
<path class="st60" d="M250.3,557.9c2.4-3.6,4.8-7,9.5-7.6C257.4,553.9,255,557.4,250.3,557.9"/>
<path class="st60" d="M240.7,563.6c2.1-3.7,5.6-5,9.5-5.7C248.2,561.7,244.7,562.9,240.7,563.6"/>
<path class="st60" d="M82.9,508.5c3.3,3.4,1.4,7.6,1.9,11.4C81.5,516.5,83.4,512.3,82.9,508.5"/>
<path class="st77" d="M278.8,499.1l-1.9-0.2c-1.9-6,3-9,5.8-12.9c3-4.3,2.2-6.1-3.1-6.1c-3.4,0-7.8,1.9-8.7-3.9
	c3.2-3.9,8.6-3.4,12.9-6.2c-3.1-3.8-8.7-2.9-11.1-6.9c3-7.1,8.4-3.5,12.7-2.3c14.2,3.8,13,4.1,11.7-10.7c-0.9-10-4.7-12.5-13.6-12.3
	c-3.2,0.1-6.9,1.4-10.1-0.7c-1.7-2.5,0.1-4.2,1.3-6c4.6-3.6,3.3-8.2,2-12.8c-0.5-4.9,0.2-9.5,2.9-13.6c4.4-2.8,5.5,2,8,3.4
	c2.5,3.3,5.5,6.7,0.3,10c-3.6,2.3-1,4.8-0.8,7.3c0.3,4.3,3.3,4.5,6.6,4.6s6.9-0.6,9.5,2.5c3.5,0.7,6.9,1.7,9,4.7
	c2.5,3.5,4.4,2.3,6.9,0.1c1.9-1.8,3.6-5.4,6.9-3.2c3.8,2.5,0.3,5.7,0,8.6c-0.3,1.8-0.8,3.7-1.4,5.4c-10.1,21-24.4,38.3-44.1,51
	C279.8,498.7,279.3,498.8,278.8,499.1"/>
<path class="st78" d="M225.5,508.5c5.4,3.8,11.6,1,17.4,2c2,0.3,4.1,0.9,4.3,3c0.1,2.6-2.3,2.4-4.1,2.6
	c-26.8,2.1-48.4-7.7-65.5-28.1c-1.1-1.4-1.3-2.8,0.2-4.1c1.7,2.1,3,4.6,6.1,5.1l-0.2,0.6c3,1.7,5.1,5.1,9.1,4.9
	c9.6,2.7,18.3,7.9,28.1,10C223.2,504.7,225,506.3,225.5,508.5"/>
<path class="st79" d="M223.6,335.5c-2.7,10.7-0.1,13.9,10.8,13.9c3.4,0,6.8,0.8,10.2,1.2c-5.1,3.5-10.9,2.9-16.3,1.7
	C219.3,350.4,217.4,343,223.6,335.5"/>
<path class="st79" d="M229.4,339.2c3-6.2,7.4-3,11.6-1.8C237.4,340.3,233.3,338.9,229.4,339.2"/>
<path class="st79" d="M244.6,350.7c0.6-3.2,1.3-6.5-3.9-5.8c2-2,4.6-2.9,6.4-0.7C249.6,347.1,247,349.1,244.6,350.7"/>
<path class="st79" d="M240.7,344.8c-4.4,3.1-8.9,3-13.3,0H240.7"/>
<path class="st80" d="M300.3,383c9.6,3.1,16.3,7,16.7,16.9c0,1.5,0.3,3.6-1.4,4c-1.5,0.2-3.1-0.3-4.2-1.3
	C305.9,397.7,301.3,392.3,300.3,383"/>
<path class="st81" d="M200.6,436.2c-8.5-17.6-9.2-18-26.4-17c2.5-4.5,10.3,0.9,11.5-6.1c1.8-1.9,4.4-2.1,6.7-2.9
	c6.5-2.2,9.3-6,4.5-12.4c5.5-4.3,0.3-8.7,0.1-13c17.6,0,35.3-0.1,52.9,0.1c3.1,0,8.8-1.8,8.7,2.5c0,5.3-5.9,2.8-9.2,3
	c-9.2,0.4-18.5,0.1-27.7,1.1c8.2,5.9,18.4-0.4,26.6,4.7c1.9,6.4,2.4,12.6-1.2,18.7c-2.8,1.7-3.6-0.6-4.7-2.4
	c-0.5-1.4-0.8-2.9-0.9-4.3c0.7-5.8-1.2-8.6-7.5-6.5c-3.4,1.1-7,1.1-10.3-0.2c-7.3-2.9-10.7-0.9-12.2,7.1c-1.7,8.4-4.4,16.5-8.2,24.2
	c-0.4,1.3-1.2,2.5-2.3,3.3L200.6,436.2z"/>
<path class="st82" d="M246.7,415.3c0.3-6.4-2-13,1.7-19c9-4.2,9-4.2,13,9.8c2.1,1.2,2.6,3.3,2.9,5.5c0.2,3.8-0.7,7.5-2.6,10.8
	c-2.2,3.7-5,8.6-10,5.8C247.3,425.8,242.7,421.8,246.7,415.3"/>
<path class="st83" d="M261.8,411.5c-0.1-1.8-0.3-3.6-0.4-5.4c-0.2-5.6,1.8-8.7,8.1-8c3.1,0.2,6.1,0.2,9.2,0.1
	c2.7,1.1,3.9,2.7,2.1,5.5l-2,15.3c-0.8,1.7-2.5,2.9-4.5,2.9c-0.9-0.1-1.7-0.6-2.3-1.2c-0.9-1.2-1.5-2.7-1.5-4.3
	C270.8,409,267.3,408.5,261.8,411.5"/>
<path class="st84" d="M280.8,403.7c-0.7-1.8-1.4-3.7-2.1-5.5c8.4-5,14-0.4,19.1,5.7c0,1.9,0,3.8,0,5.7c-1.9,2.4-4.4,2.6-7.1,2
	c-1.5-0.4-2.9-1-4.3-1.9C283.4,408.8,283,405.4,280.8,403.7"/>
<path class="st85" d="M197,397.8c6.5,2.1,7.9,6.3,3.5,11.1c-4,4.3-9.1,5.3-14.7,4.2C185.8,405.3,190.5,400.9,197,397.8"/>
<path class="st86" d="M303.2,432.1c-3.7,0-7.5,0-11.2,0.1c-5,0.2-7.6-2.1-7.3-7.3c1.5-7,6.1-10.9,12.5-13.1c0.9,0.1,1.8,0.5,2.6,1
	c1.2,0,2.5,0,3.8,0.1c4.6,0.3,10.3-1,12.5,4.2c2.1,4.8-3,7.7-5.3,11.2L303.2,432.1"/>
<path class="st67" d="M299.8,412.9l-2.1,0.3c-2.4-1.3-7.1,2.3-7.5-3.5l7.5-0.2C300.4,409.6,301.1,410.6,299.8,412.9"/>
<path class="st87" d="M225.5,508.5c-12-3.1-23.8-6.6-34.3-13.3c-0.6-0.4-0.8-0.9-0.6-1.3s0.4-0.6,0.7-0.6
	c-2.3-11.4,3.9-24.6,13.3-28.6c0.2,0.3,0.5,0.7,0.7,1c0.4,1.2,0.4,2.5,0.8,3.7c6.2,8.1,14.5,8.4,23.5,6.3c4.1-1,7.9-4,12.5-2.3
	c-0.3,2.8,3.4,3.9,2.8,6.7c-5.2,5-13.1,5.6-17.9,11.4c0.3,2.7,3.8,1.5,4.6,3.5c-1.3,7.3,2.3,9.2,8.9,8.6c6.9-0.7,12.5-2.6,13.2-10.7
	c1-1.3,2.5-2,4-2.1c7.1,0.2,6-4.2,5.1-8.6c0.5-5.4-4.1-2.7-6.2-3.7c-2.7-1.3-6.7-1.7-2.7-6c6.2-1.4,12.6-3.5,17.2,3.3
	c2.5,3.3,5.6,1.9,8.6,0.9c3.8-1.2,7-0.2,9,3.1c2.2,3.6-1.6,4.7-3.2,6.7c-3.1,3.9-6.8,7.4-8.7,12.3c-11.6,9.1-25.2,10.2-39.1,9.9
	L225.5,508.5"/>
<path class="st88" d="M201.1,436.2c-0.1-1.2-0.2-2.5-0.3-3.8c3.6-3.6,9.2-5.1,10.6-11.3c1-4.6,4.6-3.2,7.4-1.3
	c2.6,1.8,3.8,5,6.5,6.7c1.6,1.6,3,3.3,2.6,5.7c-1.9,1.9-1.8,3.3,0.9,4.6c2.2,1.1,5.5,1.7,4.4,5.6c-4.5,3.8-9.9-0.4-15.3,1.6
	c0.9,4.6,4.8,6,8,8.2c2.7,1.8,7,2,7.3,6.5c-2.4,3.1-5.6,2.6-8.6,1.7s-4.8,0.4-6.8,2.1c-4.2,2.2-8.2,5.3-13.3,2.2l0,0
	C214,453.9,206.9,445.1,201.1,436.2"/>
<path class="st76" d="M191.3,493.3c0.1,0.6,0.1,1.2-0.1,1.8c-3.7-0.3-5.8-2.7-7.5-5.7C187,489.3,188.5,492.4,191.3,493.3"/>
<path class="st89" d="M182.1,439.8c-3.7-5-11.1-8.4-7.5-16.7l9.2-0.2c3,3.3,5,7.9,9.9,9.2c1.1,1.5,2.1,3.1,2.9,4.8
	c0.7,1.9,3,4,0.9,5.9c-1.8,1.6-4.2,0.5-6.3-0.2L182.1,439.8"/>
<path class="st90" d="M193.6,432.2c-7.6,1.5-12.5,0.2-9.9-9.2C189.7,423.2,192.2,427.1,193.6,432.2"/>
<path class="st91" d="M272.9,436.1c6.8-3.5,14.2,0.9,21.2-1.5c2.5-0.8,5.9,1.7,5.1,4.2c-2.3,7.3,2.3,13.5,2.3,20.3
	c0,7.7-2.7,8.3-9.9,6.3c-5.8-1.6-11.7-7.4-18.5-2.3c-1.8,5.6-5.9,5.8-10.6,4.3c-2.1-0.3,0.6-3.6-2.5-3.6c-3.8,0-5.8-2.6-5.5-6.2
	c0.3-4.2,2.4-7.1,7.2-6.7c3,5.2,7.4,4.7,12.1,2.9c5.2-2.1,11-3.6,10.4-11c-3.3-3.9-5.7-0.8-8.3,0.9s-5.4,3.5-8.9,3
	c-2.1-0.8-2.9-2.4-2.7-4.5C265.9,438.5,268.1,435.4,272.9,436.1"/>
<path class="st92" d="M261.8,466.8c4.1-0.3,7.7-2,11.4-3.7c5.9,0.6,14.8,0.7,15,6.5c0.2,5.6-8.9,4.6-14.2,6
	c-0.9,0.2-1.9,0.3-2.8,0.3c-6.1-2.2-12.5-1.2-18.7-1.9l-0.6-1.1c1.2-4.5,4.6-5.8,8.7-6.2L261.8,466.8"/>
<path class="st93" d="M272.9,436.1l-7.5,6c-2.1,3.1-4.6,5.9-8.5,3.2c-3.2-2.2-2.3-5.8-1-8.7c3.5-7.5,7-15.2,17.1-15.3
	c0.6,0.1,1.3-0.1,1.8-0.4c6.2,1.6,6.4,3.3,1.5,11.4C275.3,433.6,274.1,434.9,272.9,436.1"/>
<path class="st94" d="M290.3,409.8l7.5,3.5c-5.6,2.3-10.2,6.4-13.1,11.8c-2-5.8-1.9-5.5,3.2-9.3c3.3-2.5-1.3-3.9-1.5-6L290.3,409.8"
	/>
<path class="st94" d="M276.5,432.3c0.4-3.9,6.5-8.6-1.5-11.4l3.8-1.8C281.8,424.1,282.5,428.8,276.5,432.3"/>
<path class="st95" d="M273.2,421.3c-5.3,3.8-10.8,7.3-13.8,13.4c-1.4,2.8-3.6,6.2-1.9,8.7c2.5,3.8,5.1-1.6,8-1.2
	c0,1.5,0.8,2.9,2.1,3.7c0.5,4.1-1.5,5.8-5.4,5.8c-3.5,1.3-6.8,3.3-5.7,7.4c1.8,6.5,7.1,0.5,11,2.7l-5.7,5.2v-0.1
	c-3.3,2.2-9.6,0.5-9.2,7.3l-0.1-0.1c5,4.5,13.7,0.4,18.1,7.4c-2.4,3.2-5.2-0.4-7.5,0.7c-5.8,1.2-10.4,3.3-8.8,10.6
	c1.2,1.3,2.4,2.5,3.6,3.8c-4.6,2.3-5.2,9.1-11,9.8c-3.5,0.4-7,0.4-10.4,0.2c-3-0.2-6.7,1.3-8.5-2.4c-1.9-3.9,0.9-6.5,3.2-9.1
	c2.9-6.2,10.1-8.5,13.2-14.6c-1-2-3.5-3.7-1.9-6.5c-6.8-5-15.8-4.8-22.7-9.5c-1.1-0.8-1.7-2.1-1.9-3.5c-0.3-3.6,0.9-5.2,4.7-3.8
	c3.4,1.2,6.9,2.5,10.6,1.7l1.3-0.3c0.9-0.2,1.9-0.2,2.8-0.3c2.6-0.4,6.3,1.2,7-2.7c0.6-2.9-1.8-5.1-4-7c-1.2-1-2.6-1.7-4.1-2.2
	c-1.7-0.8-3.2-1.7-3.4-3.9c-1.5-3.3-5-3.1-7.7-4.2c-2.3-1-3.8-2.2-3.2-4.7c0.9-3.5,3.5-0.7,5.3-1.2c5.6-0.6,11.3,7.5,15.3,2.6
	c3.3-4-4.6-8.6-5.7-13.8c-0.1-0.6-0.3-1.2-0.4-1.9c0.5-4.8,0.6-10,7.9-7.9c0,1.6,0.9,3,2.2,3.8c0.7,5.1,3.4,12,7.5,11.2
	c6.2-1.3,6.6-9.1,7.7-15c2.8-1.9,0.6-8.8,6.7-7.1c4.4,1.3,4.4,5.6,4.6,9.4C273.1,416.3,273.1,418.8,273.2,421.3"/>
<path class="st83" d="M224.2,428.4c-4.9-0.9-4.7-7.6-10.2-8.6c1,9.8-5.1,12.2-13.1,12.6c3.8-11.2,9-22,9.6-34.2c0.2-4.1,3-3,5.5-2
	c6.8,2.7,13.5,4.1,21,2.2c7.8-2,7.9,3.7,7.3,9.2c-6.5,0.4-14.3-1.9-16.2,7.9C222.8,418.6,225.9,424.2,224.2,428.4"/>
<path class="st96" d="M227.5,415.4c-1.4-3.1-3.4-7.2,1.1-8.6c5-1.6,11-6.1,15.8,0.9c0,1.3,0.1,2.6,0.1,3.9c-6.3,0.6-5.4,5.4-5.6,9.6
	C233.7,421.8,229.9,420,227.5,415.4"/>
<path class="st97" d="M293.2,404.9c-5,1.9-7.2-0.4-9.5-4C288.6,399.2,290.9,401.3,293.2,404.9"/>
<path class="st98" d="M190.7,409.4c0.6-4.7,2.9-6.6,6.7-6.7c0.4,0,1.4,1.5,1.2,2C197.6,408.2,194.9,409.2,190.7,409.4"/>
<path class="st99" d="M303.4,426.5c-4.6,2.5-11.9,4.4-13.2-0.3c-1.8-6.6,5.4-8.6,11.3-9.1C304.7,419.7,306,422.7,303.4,426.5"/>
<path class="st100" d="M303.4,426.5c-0.6-3.1-1.2-6.2-1.8-9.4c4.2-2.4,9.4-1.6,10.2,2.2S308,426.1,303.4,426.5"/>
<path class="st101" d="M219.9,462.7c5,1.4,10.1,2.8,15.1,4.4c3.5,1.1,7.6,1.7,7.5,6.8c-11.3,5.5-22.7,9.7-34.8,2.1
	c-2.7-1.7-5.6-3.1-4.9-7.1C207.7,464.6,213.5,462.8,219.9,462.7"/>
<path class="st102" d="M244.4,480.3c1,9.8-7.3,11.1-13.2,14.6c-3.7-0.6-7,3-12.3,0.5C225.7,486.7,233.6,481.3,244.4,480.3"/>
<path class="st103" d="M254.3,492.7c-1.1-1.5-2.1-3.1-3-4.8c-1.1-2.3-2-4.9,0.1-7c1.9-1.9,4.1-0.7,6.2-0.2l5.5,1.4
	c2,3,7.7,5.3,5.3,9C265.2,495.9,259.1,492.9,254.3,492.7"/>
<path class="st73" d="M219.9,462.7l-17,6.2l1.8-4.2l13.3-3.8L219.9,462.7"/>
<path class="st104" d="M227.5,415.4c4.1,1.2,7.9,3.2,11.3,5.8c2,2.7,4.5,5.2,6,8.2s5.5,6.9,2.2,9.8c-2.3,2-7,1.2-10.5-0.6
	c-3.3-1.7-6.8-3-9.2-6.1c-0.1-2-1.6-3-3.1-4.1C223.7,423.7,213.7,416.6,227.5,415.4"/>
<path class="st105" d="M232.9,442.5l3.6,1.5c1.2,0.4,2.2,1.1,3.2,1.9c3.7,3.3,9.1,7.5,6.8,12c-2.2,4.3-8.6,2.4-13.3,1h0.1
	c-5.9-3.3-13.1-4.4-17.2-10.5c-1.3-2-3.8-3.8-2-6.5c1.4-2,3.9-2,6-1.7C224.4,440.8,228.6,441.7,232.9,442.5"/>
<path class="st106" d="M262.2,451.6c2.2-1.6,4.4-3.2,5.4-5.8c2.5-1.4,4.9-2.8,7.4-4.2c4.3-1.2,8.5-4.7,13.1-0.8
	c-0.7,11.2-14.3,21.1-25.4,18.1C256.7,457.1,262.2,454,262.2,451.6"/>
<path class="st77" d="M288.1,440.7c-4.5-1.4-8.7,1.4-13.1,0.8C279.1,437.1,283.4,436,288.1,440.7"/>
<path class="st91" d="M252.6,474.1c-1.4-8,4.7-6.8,9.2-7.3C259.4,470,254,469.6,252.6,474.1"/>
<path class="st88" d="M233.2,458.8c4.1-0.9,10.3,2.9,12-1.5c2-5-3.8-8.6-7.4-11.9c-0.4-0.4-0.9-0.9-1.3-1.4c1.5,0.4,3.3,0.4,4.4,1.3
	c4.1,3.5,9.5,8.1,6.4,13.2C244.5,463.3,238.1,462,233.2,458.8"/>
</svg>
